<svg xmlns="http://www.w3.org/2000/svg" viewBox="0 0 870 400"><defs><style>.cls-1{fill:#225a92;}.cls-2{fill:#fff;}.cls-3{fill:#8bcdfd;}.cls-4{fill:#e99b42;}.cls-5{fill:#2b2e32;}.cls-6{fill:#e89a42;}.cls-7{fill:none;stroke:#2b2e32;stroke-miterlimit:10;}</style></defs><g id="Layer_2" data-name="Layer 2"><g id="Layer_1-2" data-name="Layer 1"><rect class="cls-1" width="870" height="400"/><path class="cls-2" d="M507,276.08a7.71,7.71,0,0,1-3.46,6l-150.08,87.1c-1.9,1.1-3.46.2-3.46-2V132.77a7.71,7.71,0,0,1,3.46-6l150.08-87.1c1.9-1.1,3.46-.2,3.46,2Z"/><path class="cls-3" d="M418.65,127.41l-53.48,31c-1.77,1-3.2-.21-3.2-2.76s1.43-5.45,3.2-6.47l53.48-31c1.77-1,3.2.21,3.2,2.76S420.42,126.38,418.65,127.41Z"/><path class="cls-4" d="M454.05,106.87,432,119.68c-1.76,1-3.19-.21-3.19-2.76s1.43-5.45,3.19-6.47l22.09-12.82c1.76-1,3.19.22,3.19,2.77S455.81,105.84,454.05,106.87Z"/><path class="cls-5" d="M473.47,95.59l-6.12,3.56c-1.76,1-3.19-.22-3.19-2.77s1.43-5.45,3.19-6.47l6.12-3.55c1.76-1,3.19.21,3.19,2.76S475.23,94.57,473.47,95.59Z"/><path class="cls-5" d="M456.44,127.27l-91.27,53c-1.77,1-3.2-.21-3.2-2.76s1.43-5.45,3.2-6.47l91.27-53c1.76-1,3.19.22,3.19,2.77S458.2,126.24,456.44,127.27Z"/><path class="cls-5" d="M490.24,107.65l-20.49,11.9c-1.77,1-3.2-.22-3.2-2.77s1.43-5.45,3.2-6.47l20.49-11.89c1.76-1,3.19.21,3.19,2.76S492,106.63,490.24,107.65Z"/><path class="cls-3" d="M388.32,188.59,365.17,202c-1.77,1-3.2-.21-3.2-2.76s1.43-5.45,3.2-6.47l23.15-13.44c1.76-1,3.19.22,3.19,2.77S390.08,187.57,388.32,188.59Z"/><path class="cls-4" d="M407.74,177.32l-6.12,3.55c-1.76,1-3.19-.22-3.19-2.77s1.43-5.44,3.19-6.47l6.12-3.55c1.77-1,3.2.21,3.2,2.77S409.51,176.29,407.74,177.32Z"/><path class="cls-5" d="M428.77,186.91l-63.6,36.9c-1.77,1-3.2-.21-3.2-2.76s1.43-5.45,3.2-6.47l63.6-36.91c1.76-1,3.19.21,3.19,2.76S430.53,185.88,428.77,186.91Z"/><path class="cls-5" d="M460.7,168.37l-18.63,10.81c-1.76,1-3.19-.21-3.19-2.76s1.43-5.45,3.19-6.47l18.63-10.81c1.76-1,3.19.21,3.19,2.76S462.46,167.35,460.7,168.37Z"/><path class="cls-3" d="M402.16,224.14l-37,21.46c-1.77,1-3.2-.21-3.2-2.76s1.43-5.45,3.2-6.47l37-21.47c1.76-1,3.19.22,3.19,2.77S403.92,223.11,402.16,224.14Z"/><path class="cls-4" d="M456.71,192.48l-41.25,23.94c-1.76,1-3.19-.22-3.19-2.77s1.43-5.45,3.19-6.47l41.25-23.93c1.76-1,3.19.21,3.19,2.76S458.47,191.46,456.71,192.48Z"/><path class="cls-5" d="M476.13,181.21,470,184.76c-1.76,1-3.19-.22-3.19-2.77s1.43-5.44,3.19-6.47l6.12-3.55c1.77-1,3.2.22,3.2,2.77S477.9,180.18,476.13,181.21Z"/><path class="cls-3" d="M442.6,222.45l-77.43,44.94c-1.77,1-3.2-.21-3.2-2.76s1.43-5.45,3.2-6.47l77.43-44.94c1.77-1,3.2.21,3.2,2.76S444.37,221.43,442.6,222.45Z"/><path class="cls-5" d="M418.65,258.14l-53.48,31c-1.77,1-3.2-.21-3.2-2.76s1.43-5.45,3.2-6.47l53.48-31c1.77-1,3.2.21,3.2,2.76S420.42,257.12,418.65,258.14Z"/><path class="cls-5" d="M454.05,237.6,432,250.42c-1.76,1-3.19-.21-3.19-2.76s1.43-5.45,3.19-6.47l22.09-12.82c1.76-1,3.19.21,3.19,2.76S455.81,236.58,454.05,237.6Z"/><path class="cls-4" d="M473.47,226.33l-6.12,3.55c-1.76,1-3.19-.21-3.19-2.76s1.43-5.45,3.19-6.47l6.12-3.55c1.76-1,3.19.21,3.19,2.76S475.23,225.31,473.47,226.33Z"/><path class="cls-3" d="M475.6,246.88,365.17,311c-1.77,1-3.2-.21-3.2-2.76s1.43-5.45,3.2-6.47L475.6,237.65c1.76-1,3.19.21,3.19,2.76S477.36,245.86,475.6,246.88Z"/><path class="cls-6" d="M418.65,301.72l-53.48,31c-1.77,1-3.2-.21-3.2-2.76s1.43-5.45,3.2-6.47l53.48-31c1.77-1,3.2.21,3.2,2.76S420.42,300.7,418.65,301.72Z"/><path class="cls-5" d="M454.05,281.18,432,294c-1.76,1-3.19-.21-3.19-2.76s1.43-5.45,3.19-6.48L454.05,272c1.76-1,3.19.21,3.19,2.76S455.81,280.16,454.05,281.18Z"/><line class="cls-7" x1="190" y1="298.53" x2="358.26" y2="200.89"/><line class="cls-7" x1="471.47" y1="158.01" x2="602.02" y2="82.25"/><line class="cls-7" x1="462.47" y1="272.01" x2="602.26" y2="190.89"/><path class="cls-2" d="M121.58,96.6h-5.76V94.51h13.9V96.6H124v14.71h-2.38Z"/><path class="cls-2" d="M144.91,105a6.18,6.18,0,0,1-6.43,6.51,5.44,5.44,0,0,1-4.44-2.07V116h-2.3V98.59h2.2v2a5.43,5.43,0,0,1,4.54-2.14A6.17,6.17,0,0,1,144.91,105Zm-2.33,0a4.28,4.28,0,1,0-4.29,4.49A4.2,4.2,0,0,0,142.58,105Z"/><path class="cls-2" d="M159.7,105.72H149.38a4.3,4.3,0,0,0,4.6,3.72,4.77,4.77,0,0,0,3.68-1.53l1.27,1.48a6.38,6.38,0,0,1-5,2.07c-4.1,0-6.84-2.71-6.84-6.51a6.23,6.23,0,0,1,6.39-6.48c3.67,0,6.28,2.64,6.28,6.56C159.74,105.22,159.72,105.51,159.7,105.72Zm-10.32-1.65h8.16a4.11,4.11,0,0,0-8.16,0Z"/><path class="cls-2" d="M175.92,105.22c0,3.74-2.69,6.29-6.58,6.29-4.34,0-6.76-3.12-6.76-8.48s2.13-8.11,6.52-9.07l5.81-1.3.34,2.12-5.35,1.15c-3.32.72-4.88,2.35-5.12,5.66a6.14,6.14,0,0,1,11.14,3.63Zm-2.35.07a4.19,4.19,0,1,0-8.38,0,4.19,4.19,0,1,0,8.38,0Z"/><path class="cls-2" d="M178,105a6.62,6.62,0,1,1,6.63,6.51A6.33,6.33,0,0,1,178,105Zm10.9,0a4.29,4.29,0,1,0-4.27,4.49A4.17,4.17,0,0,0,188.93,105Z"/><path class="cls-2" d="M205.73,107.81c0,2.21-1.63,3.5-5,3.5h-6.12V98.59h5.91c3,0,4.8,1.18,4.8,3.27a3,3,0,0,1-2,2.85A3,3,0,0,1,205.73,107.81Zm-8.88-3.74h3.45c1.76,0,2.69-.65,2.69-1.88s-.93-1.82-2.69-1.82h-3.45Zm6.57,3.6c0-1.32-.84-2-2.73-2h-3.84v3.82h3.69C202.44,109.54,203.42,109,203.42,107.67Z"/><path class="cls-2" d="M219.31,103.63v7.68h-2.18v-1.68a4.72,4.72,0,0,1-4.18,1.83c-2.88,0-4.7-1.54-4.7-3.75,0-2,1.32-3.72,5.11-3.72H217v-.45c0-2-1.13-3.08-3.41-3.08a6.42,6.42,0,0,0-4,1.37l-1-1.73a8.49,8.49,0,0,1,5.25-1.63C217.34,98.47,219.31,100.15,219.31,103.63Zm-2.3,3.8v-1.78h-3.55c-2.28,0-2.93.89-2.93,2,0,1.27,1.05,2.06,2.81,2.06A3.7,3.7,0,0,0,217,107.43Z"/><path class="cls-2" d="M223.46,98.59h2.31V104H233v-5.4h2.3v12.72H233V106h-7.25v5.32h-2.31Z"/><path class="cls-2" d="M239.81,98.59h2.3v9.27l7.8-9.27H252v12.72h-2.3v-9.26l-7.78,9.26h-2.11Z"/><path class="cls-2" d="M266.66,98.59v12.72H264.6v-4h-4l-2.79,4h-2.47l3.1-4.34a3.83,3.83,0,0,1-3-3.91c0-3,2.19-4.47,5.59-4.47Zm-5.59,7h3.53v-5h-3.43c-2.12,0-3.32.74-3.32,2.52S258.93,105.63,261.07,105.63Z"/><path class="cls-2" d="M122.9,134.74h-2.64v5.37H118V127.39h2.3v5.38H123l4.13-5.38h2.47l-4.82,6.12,5.16,6.6h-2.71Z"/><path class="cls-2" d="M138.77,127.39h2.3v9.27l7.8-9.27H151v12.72h-2.3v-9.26l-7.78,9.26h-2.11Z"/><path class="cls-2" d="M154.25,133.75a6.36,6.36,0,0,1,6.72-6.48,5.68,5.68,0,0,1,5.18,2.71l-1.75,1.13a4,4,0,0,0-3.46-1.82,4.48,4.48,0,0,0,0,9,4,4,0,0,0,3.46-1.82l1.75,1.1a5.68,5.68,0,0,1-5.18,2.74A6.38,6.38,0,0,1,154.25,133.75Z"/><path class="cls-2" d="M180.91,127.39v12.72h-2.3v-10.7h-7.18v10.7h-2.3V127.39Z"/><path class="cls-2" d="M196.06,135.87c0,2.76-1.92,4.29-5.33,4.27l-5.35,0V127.39h2.3v4.3l3.43,0C194.33,131.74,196.06,133.25,196.06,135.87Zm-2.33,0c0-1.68-1.08-2.4-3.17-2.42l-2.88,0v5l2.88,0C192.62,138.41,193.73,137.55,193.73,135.84Zm4.22-8.45h2.31v12.72H198Z"/><path class="cls-2" d="M214.22,129.41h-4.65v10.7h-2.31v-10.7h-4.65v-2h11.61Z"/><path class="cls-2" d="M227.26,135.87c0,2.76-1.92,4.29-5.33,4.27l-5.36,0V127.39h2.31v4.3l3.43,0C225.53,131.74,227.26,133.25,227.26,135.87Zm-2.33,0c0-1.68-1.08-2.4-3.17-2.42l-2.88,0v5l2.88,0C223.82,138.41,224.93,137.55,224.93,135.84Zm4.22-8.45h2.31v12.72h-2.31Z"/><path class="cls-2" d="M247.08,136.61c0,2.21-1.63,3.5-5,3.5h-6.12V127.39h5.91c3,0,4.8,1.18,4.8,3.27a3,3,0,0,1-2,2.85A3,3,0,0,1,247.08,136.61Zm-8.88-3.74h3.45c1.76,0,2.69-.65,2.69-1.88s-.93-1.82-2.69-1.82H238.2Zm6.57,3.6c0-1.32-.83-1.95-2.73-1.95H238.2v3.82h3.69C243.79,138.34,244.77,137.76,244.77,136.47Z"/><path class="cls-2" d="M260.66,132.43v7.68h-2.18v-1.68a4.72,4.72,0,0,1-4.18,1.83c-2.88,0-4.7-1.54-4.7-3.75,0-2,1.32-3.72,5.11-3.72h3.65v-.45c0-2-1.13-3.08-3.41-3.08a6.42,6.42,0,0,0-4,1.37l-1-1.73a8.49,8.49,0,0,1,5.25-1.63C258.7,127.27,260.66,129,260.66,132.43Zm-2.3,3.8v-1.78h-3.55c-2.28,0-2.93.89-2.93,2,0,1.27,1.05,2.06,2.81,2.06A3.69,3.69,0,0,0,258.36,136.23Z"/><path class="cls-2" d="M276.26,134.52H265.94a4.31,4.31,0,0,0,4.61,3.72,4.74,4.74,0,0,0,3.67-1.53l1.28,1.48a6.39,6.39,0,0,1-5,2.07c-4.11,0-6.84-2.71-6.84-6.51a6.23,6.23,0,0,1,6.38-6.48c3.67,0,6.29,2.64,6.29,6.56A5.6,5.6,0,0,1,276.26,134.52Zm-10.32-1.65h8.16a4.11,4.11,0,0,0-8.16,0Z"/><path class="cls-2" d="M294.55,127.39v12.72h-2.09v-9.28l-4.75,7.84h-1L282,130.8v9.31h-2.11V127.39h2.37l5,8.6,5.14-8.6Z"/><path class="cls-2" d="M297.86,133.75a6.62,6.62,0,1,1,6.63,6.51A6.33,6.33,0,0,1,297.86,133.75Zm10.9,0a4.29,4.29,0,1,0-4.27,4.49A4.17,4.17,0,0,0,308.76,133.75Z"/><path class="cls-2" d="M314.42,127.39h2.31v9.27l7.8-9.27h2.08v12.72h-2.3v-9.26l-7.78,9.26h-2.11Zm2.19-5h1.56a2,2,0,0,0,2.18,2,2,2,0,0,0,2.21-2h1.61c-.05,2.16-1.47,3.32-3.8,3.32S316.63,124.58,316.61,122.42Z"/><path class="cls-2" d="M129.74,156.19v12.72h-2.3v-10.7h-7.18v10.7H118V156.19Z"/><path class="cls-2" d="M147.38,162.55a6.18,6.18,0,0,1-6.43,6.51,5.44,5.44,0,0,1-4.44-2.07v6.58h-2.3V156.19h2.21v2a5.4,5.4,0,0,1,4.53-2.14A6.18,6.18,0,0,1,147.38,162.55Zm-2.32,0a4.29,4.29,0,1,0-4.3,4.49A4.21,4.21,0,0,0,145.06,162.55Z"/><path class="cls-2" d="M149.54,162.55a6.62,6.62,0,1,1,6.63,6.51A6.33,6.33,0,0,1,149.54,162.55Zm10.9,0a4.29,4.29,0,1,0-8.57,0,4.29,4.29,0,1,0,8.57,0Z"/><path class="cls-2" d="M178.94,166.9v5h-2.16v-3H166.15v3H164v-5h.67c1.82-.1,2.14-3.19,2.3-6.41l.2-4.3H177V166.9Zm-11.37,0h7.13v-8.69h-5.52l-.12,2.45C169,163.3,168.72,165.89,167.57,166.9Z"/><path class="cls-2" d="M193.3,156.19l-6.17,14c-1.13,2.68-2.6,3.52-4.54,3.52a4.76,4.76,0,0,1-3.26-1.17l1-1.73a3.26,3.26,0,0,0,2.28.94c1.1,0,1.8-.51,2.43-2l.4-.89-5.61-12.7h2.4l4.44,10.18L191,156.19Z"/><path class="cls-2" d="M200.59,163.54H198v5.37h-2.3V156.19H198v5.38h2.69l4.13-5.38h2.47l-4.82,6.12,5.16,6.6h-2.72Z"/><path class="cls-2" d="M223.58,166.9V172H221.4v-3.05H210V156.19h2.3V166.9h7V156.19h2.31V166.9Z"/><path class="cls-2" d="M226.56,156.19h2.3v9.27l7.8-9.27h2.09v12.72h-2.3v-9.26l-7.78,9.26h-2.11Z"/><path class="cls-2" d="M243.21,156.19h2.31v9.27l7.8-9.27h2.09v12.72H253.1v-9.26l-7.77,9.26h-2.12Z"/><path class="cls-2" d="M629.92,85.31l0-12.24-6.08,10.2h-1.1l-6.07-10.12V85.31h-2.31V68.51h2l7,11.81,6.91-11.81h2l0,16.8Z"/><path class="cls-2" d="M648.52,79.72H638.2a4.31,4.31,0,0,0,4.61,3.72,4.75,4.75,0,0,0,3.67-1.53l1.27,1.48a6.36,6.36,0,0,1-5,2.07c-4.11,0-6.84-2.71-6.84-6.51a6.23,6.23,0,0,1,6.38-6.48c3.67,0,6.29,2.64,6.29,6.56C648.57,79.22,648.54,79.51,648.52,79.72ZM638.2,78.07h8.16a4.11,4.11,0,0,0-8.16,0Z"/><path class="cls-2" d="M661.1,74.61h-4.66v10.7h-2.3V74.61h-4.66v-2H661.1Z"/><path class="cls-2" d="M661.72,79a6.62,6.62,0,1,1,6.62,6.51A6.33,6.33,0,0,1,661.72,79Zm10.9,0a4.29,4.29,0,1,0-4.28,4.49A4.18,4.18,0,0,0,672.62,79Z"/><path class="cls-2" d="M691.12,83.3v5H689v-3H678.33v3h-2.19v-5h.68c1.82-.1,2.13-3.19,2.3-6.41l.19-4.3h9.87V83.3Zm-11.38,0h7.13V74.61h-5.52l-.12,2.45C681.14,79.7,680.9,82.29,679.74,83.3Z"/><path class="cls-2" d="M704.8,81.07c0,2.76-1.92,4.29-5.33,4.27l-5.35,0V72.59h2.3v4.3l3.44,0C703.07,76.94,704.8,78.45,704.8,81.07Zm-2.33,0c0-1.68-1.08-2.4-3.17-2.42l-2.88-.05v5l2.88,0C701.37,83.61,702.47,82.75,702.47,81Zm4.23-8.45H709V85.31h-2.3Z"/><path class="cls-2" d="M614,101.39h2.3v9.27l7.8-9.27h2.09v12.72h-2.3v-9.26l-7.78,9.26H614Z"/><path class="cls-2" d="M629.44,107.75a6.36,6.36,0,0,1,6.72-6.48,5.67,5.67,0,0,1,5.18,2.71l-1.75,1.13a3.94,3.94,0,0,0-3.45-1.82,4.48,4.48,0,0,0,0,8.95,3.94,3.94,0,0,0,3.45-1.82l1.75,1.1a5.67,5.67,0,0,1-5.18,2.74A6.38,6.38,0,0,1,629.44,107.75Z"/><path class="cls-2" d="M656.1,101.39v12.72h-2.3v-10.7h-7.18v10.7h-2.3V101.39Z"/><path class="cls-2" d="M671.25,109.87c0,2.76-1.92,4.29-5.33,4.27l-5.35,0V101.39h2.3v4.3l3.43,0C669.52,105.74,671.25,107.25,671.25,109.87Zm-2.33,0c0-1.68-1.08-2.4-3.17-2.42l-2.88,0v5l2.88,0C667.82,112.41,668.92,111.55,668.92,109.84Zm4.22-8.45h2.31v12.72h-2.31Z"/><path class="cls-2" d="M689.42,103.41h-4.66v10.7h-2.3v-10.7H677.8v-2h11.62Z"/><path class="cls-2" d="M701.75,106.43v7.68h-2.18v-1.68a4.72,4.72,0,0,1-4.18,1.83c-2.88,0-4.7-1.54-4.7-3.75,0-2,1.32-3.72,5.11-3.72h3.65v-.45c0-2-1.13-3.08-3.41-3.08a6.42,6.42,0,0,0-4,1.37l-1-1.73a8.49,8.49,0,0,1,5.25-1.63C699.78,101.27,701.75,103,701.75,106.43Zm-2.3,3.8v-1.78h-3.56c-2.27,0-2.92.89-2.92,2,0,1.27,1,2.06,2.81,2.06A3.7,3.7,0,0,0,699.45,110.23Z"/><path class="cls-2" d="M705.9,101.39h2.31v5.4h7.25v-5.4h2.3v12.72h-2.3v-5.32h-7.25v5.32H705.9Z"/><path class="cls-2" d="M722.25,101.39h2.3v9.27l7.8-9.27h2.09v12.72h-2.31v-9.26l-7.77,9.26h-2.11Z"/><path class="cls-2" d="M738.9,101.39h2.31v9.27l7.8-9.27h2.09v12.72h-2.31v-9.26L741,114.11H738.9Zm2.19-5h1.56a2.21,2.21,0,0,0,4.39,0h1.61c0,2.16-1.47,3.32-3.8,3.32S741.11,98.58,741.09,96.42Z"/><path class="cls-2" d="M629.92,196.31l0-12.24-6.08,10.2h-1.1l-6.07-10.12v12.16h-2.31v-16.8h2l7,11.81,6.91-11.81h2l0,16.8Z"/><path class="cls-2" d="M648.52,190.72H638.2a4.31,4.31,0,0,0,4.61,3.72,4.75,4.75,0,0,0,3.67-1.53l1.27,1.48a6.36,6.36,0,0,1-5,2.07c-4.11,0-6.84-2.71-6.84-6.51a6.23,6.23,0,0,1,6.38-6.48c3.67,0,6.29,2.64,6.29,6.56C648.57,190.22,648.54,190.51,648.52,190.72Zm-10.32-1.65h8.16a4.11,4.11,0,0,0-8.16,0Z"/><path class="cls-2" d="M661.1,185.61h-4.66v10.7h-2.3v-10.7h-4.66v-2H661.1Z"/><path class="cls-2" d="M676.62,190a6.18,6.18,0,0,1-6.43,6.51,5.44,5.44,0,0,1-4.44-2.07V201h-2.3V183.59h2.21v2a5.4,5.4,0,0,1,4.53-2.14A6.17,6.17,0,0,1,676.62,190Zm-2.32,0a4.29,4.29,0,1,0-4.3,4.49A4.21,4.21,0,0,0,674.3,190Z"/><path class="cls-2" d="M678.78,190a6.62,6.62,0,1,1,6.63,6.51A6.33,6.33,0,0,1,678.78,190Zm10.9,0a4.29,4.29,0,1,0-8.57,0,4.29,4.29,0,1,0,8.57,0Z"/><path class="cls-2" d="M706.17,183.59v12.72h-2.31v-10.7h-5.47l-.14,2.83c-.22,4.49-.82,8.07-3.7,8.07a5.6,5.6,0,0,1-1.42-.22l.15-1.94a3.36,3.36,0,0,0,.58.07c2.06,0,2.16-3.12,2.32-6.12l.22-4.71Z"/><path class="cls-2" d="M709.46,190a6.61,6.61,0,1,1,6.62,6.51A6.33,6.33,0,0,1,709.46,190Zm10.89,0a4.29,4.29,0,1,0-8.57,0,4.29,4.29,0,1,0,8.57,0Z"/><path class="cls-2" d="M735.38,185.61h-7.06v10.7H726V183.59h9.36Z"/><path class="cls-2" d="M737.73,183.59H740v9.27l7.8-9.27h2.09v12.72h-2.3v-9.26l-7.78,9.26h-2.11Z"/><path class="cls-2" d="M764.54,183.59v12.72h-2.31v-5.13a9.81,9.81,0,0,1-4.1,1c-3.1,0-5-1.39-5-4.42v-4.13h2.3v4c0,1.8,1.2,2.66,3.15,2.66a9.28,9.28,0,0,0,3.62-.84v-5.81Z"/><path class="cls-2" d="M780.45,190.72H770.13a4.3,4.3,0,0,0,4.6,3.72,4.77,4.77,0,0,0,3.68-1.53l1.27,1.48a6.38,6.38,0,0,1-5,2.07c-4.1,0-6.84-2.71-6.84-6.51a6.23,6.23,0,0,1,6.39-6.48c3.67,0,6.28,2.64,6.28,6.56C780.49,190.22,780.47,190.51,780.45,190.72Zm-10.32-1.65h8.16a4.11,4.11,0,0,0-8.16,0Z"/><path class="cls-2" d="M782.89,190a6.36,6.36,0,0,1,6.73-6.48,5.68,5.68,0,0,1,5.18,2.72l-1.75,1.12a4,4,0,0,0-3.46-1.82,4.48,4.48,0,0,0,0,8.95,4,4,0,0,0,3.46-1.82l1.75,1.1a5.69,5.69,0,0,1-5.18,2.74A6.38,6.38,0,0,1,782.89,190Z"/><path class="cls-2" d="M802.72,190.94h-2.64v5.37h-2.31V183.59h2.31V189h2.69l4.12-5.38h2.48l-4.83,6.12,5.16,6.6H807Z"/><path class="cls-2" d="M821.87,188.63v7.68h-2.18v-1.68a4.72,4.72,0,0,1-4.18,1.83c-2.88,0-4.7-1.54-4.7-3.75,0-2,1.31-3.72,5.11-3.72h3.65v-.45c0-1.95-1.13-3.08-3.41-3.08a6.47,6.47,0,0,0-4,1.37l-1-1.73a8.49,8.49,0,0,1,5.25-1.63C819.9,183.47,821.87,185.15,821.87,188.63Zm-2.3,3.8v-1.78H816c-2.28,0-2.92.89-2.92,2,0,1.27,1,2.06,2.8,2.06A3.7,3.7,0,0,0,819.57,192.43Z"/><path class="cls-2" d="M836.22,183.59v12.72h-2.06v-4h-4l-2.79,4h-2.47L828,192a3.83,3.83,0,0,1-3-3.91c0-3,2.19-4.47,5.59-4.47Zm-5.59,7h3.53v-5h-3.43c-2.12,0-3.32.74-3.32,2.52S828.49,190.63,830.63,190.63Z"/><path class="cls-2" d="M612.78,218.75a6.62,6.62,0,1,1,6.63,6.51A6.33,6.33,0,0,1,612.78,218.75Zm10.9,0a4.29,4.29,0,1,0-8.57,0,4.29,4.29,0,1,0,8.57,0Z"/><path class="cls-2" d="M642,219c0,3.74-2.69,6.29-6.58,6.29-4.35,0-6.77-3.12-6.77-8.48s2.14-8.11,6.53-9.07l5.81-1.3.33,2.12-5.35,1.15c-3.31.72-4.87,2.35-5.11,5.66a5.84,5.84,0,0,1,5-2.57A5.9,5.9,0,0,1,642,219Zm-2.36.07a4.19,4.19,0,1,0-8.37,0,4.19,4.19,0,1,0,8.37,0Z"/><path class="cls-2" d="M658.41,218.75a6.18,6.18,0,0,1-6.43,6.51,5.42,5.42,0,0,1-4.44-2.07v6.58h-2.31V212.39h2.21v2a5.4,5.4,0,0,1,4.54-2.14A6.18,6.18,0,0,1,658.41,218.75Zm-2.33,0a4.29,4.29,0,1,0-4.3,4.49A4.2,4.2,0,0,0,656.08,218.75Z"/><path class="cls-2" d="M671.61,217.43v7.68h-2.19v-1.68a4.69,4.69,0,0,1-4.17,1.83c-2.88,0-4.71-1.54-4.71-3.75,0-2,1.32-3.72,5.12-3.72h3.64v-.45c0-2-1.12-3.08-3.4-3.08a6.45,6.45,0,0,0-4,1.37l-1-1.73a8.52,8.52,0,0,1,5.26-1.63C669.64,212.27,671.61,214,671.61,217.43Zm-2.31,3.8v-1.78h-3.55c-2.28,0-2.93.89-2.93,2,0,1.27,1.06,2.06,2.81,2.06A3.68,3.68,0,0,0,669.3,221.23Z"/><path class="cls-2" d="M688.36,219c0,3.74-2.69,6.29-6.58,6.29-4.34,0-6.76-3.12-6.76-8.48s2.13-8.11,6.52-9.07l5.81-1.3.34,2.12-5.35,1.15c-3.32.72-4.88,2.35-5.12,5.66A6.14,6.14,0,0,1,688.36,219Zm-2.35.07a4.19,4.19,0,1,0-8.38,0,4.19,4.19,0,1,0,8.38,0Z"/><path class="cls-2" d="M690.47,218.75a6.62,6.62,0,1,1,6.63,6.51A6.33,6.33,0,0,1,690.47,218.75Zm10.9,0a4.29,4.29,0,1,0-8.57,0,4.29,4.29,0,1,0,8.57,0Z"/><path class="cls-2" d="M716,214.41h-4.65v10.7h-2.31v-10.7h-4.66v-2H716Z"/><path class="cls-2" d="M723.33,219.74h-2.64v5.37h-2.31V212.39h2.31v5.38h2.69l4.12-5.38H730l-4.83,6.12,5.16,6.6H727.6Z"/><path class="cls-2" d="M742.48,217.43v7.68h-2.19v-1.68a4.69,4.69,0,0,1-4.17,1.83c-2.88,0-4.71-1.54-4.71-3.75,0-2,1.32-3.72,5.12-3.72h3.65v-.45c0-2-1.13-3.08-3.41-3.08a6.45,6.45,0,0,0-4,1.37l-1-1.73a8.52,8.52,0,0,1,5.26-1.63C740.51,212.27,742.48,214,742.48,217.43Zm-2.3,3.8v-1.78h-3.56c-2.28,0-2.93.89-2.93,2,0,1.27,1.06,2.06,2.81,2.06A3.7,3.7,0,0,0,740.18,221.23Z"/><path class="cls-2" d="M627.14,247.55a6.19,6.19,0,0,1-6.44,6.51,5.44,5.44,0,0,1-4.44-2.07v6.58H614V241.19h2.21v2a5.4,5.4,0,0,1,4.53-2.14A6.18,6.18,0,0,1,627.14,247.55Zm-2.33,0a4.29,4.29,0,1,0-4.3,4.49A4.21,4.21,0,0,0,624.81,247.55Z"/><path class="cls-2" d="M641.92,248.32H631.6a4.31,4.31,0,0,0,4.61,3.72,4.75,4.75,0,0,0,3.67-1.53l1.27,1.48a6.36,6.36,0,0,1-5,2.07c-4.11,0-6.85-2.71-6.85-6.51a6.24,6.24,0,0,1,6.39-6.48c3.67,0,6.29,2.64,6.29,6.55C642,247.82,641.94,248.11,641.92,248.32Zm-10.32-1.65h8.16a4.11,4.11,0,0,0-8.16,0Z"/><path class="cls-2" d="M654.81,250.22c0,2.3-2.55,3.86-5.93,3.86a9.74,9.74,0,0,1-5.18-1.44l.69-1.75a8.59,8.59,0,0,0,4.47,1.22c2.16,0,3.57-.79,3.57-2.08s-1.1-1.85-3-1.85h-2.33v-1.66h2.16c1.7,0,2.78-.62,2.78-1.7s-1.29-1.83-3.24-1.83a9.5,9.5,0,0,0-4,1l-.62-1.78a10.47,10.47,0,0,1,4.87-1.17c3.1,0,5.38,1.39,5.38,3.45a3.09,3.09,0,0,1-2.31,2.81C653.85,247.72,654.81,248.75,654.81,250.22Z"/><path class="cls-2" d="M669.66,241.19l-6.16,14c-1.13,2.69-2.6,3.52-4.54,3.52a4.76,4.76,0,0,1-3.26-1.17l1-1.73a3.26,3.26,0,0,0,2.28.94c1.1,0,1.8-.51,2.42-2l.41-.89-5.61-12.7h2.4L663,251.37l4.39-10.18Z"/><path class="cls-2" d="M682.26,241.19v12.72H680v-10.7h-5.47l-.15,2.83c-.21,4.49-.81,8.07-3.69,8.07a5.53,5.53,0,0,1-1.42-.22l.15-1.94a3.15,3.15,0,0,0,.57.07c2.07,0,2.16-3.12,2.33-6.12l.22-4.71Z"/><path class="cls-2" d="M697.58,249.67c0,2.76-1.92,4.29-5.33,4.27l-5.52,0V241.19H689v4.3l3.58,0C695.85,245.54,697.58,247.05,697.58,249.67Zm-2.36,0c0-1.68-1.05-2.4-3.17-2.42l-3-.05v5l3,0C694.14,252.21,695.22,251.35,695.22,249.64Z"/><path class="cls-2" d="M708.76,243.21H704.1v10.7h-2.3v-10.7h-4.66v-2h11.62Z"/><path class="cls-2" d="M721.1,246.23v7.68h-2.19v-1.68a4.7,4.7,0,0,1-4.17,1.83c-2.88,0-4.71-1.54-4.71-3.75,0-2,1.32-3.72,5.11-3.72h3.65v-.45c0-1.95-1.13-3.08-3.41-3.08a6.42,6.42,0,0,0-4,1.37l-1-1.72a8.46,8.46,0,0,1,5.26-1.64C719.13,241.07,721.1,242.75,721.1,246.23Zm-2.31,3.8v-1.78h-3.55c-2.28,0-2.93.89-2.93,2,0,1.27,1.06,2.06,2.81,2.06A3.68,3.68,0,0,0,718.79,250Z"/><path class="cls-2" d="M734.73,243.21h-4.66v10.7h-2.3v-10.7h-4.66v-2h11.62Z"/><path class="cls-2" d="M735.35,247.55a6.62,6.62,0,1,1,6.63,6.51A6.33,6.33,0,0,1,735.35,247.55Zm10.9,0A4.29,4.29,0,1,0,742,252,4.17,4.17,0,0,0,746.25,247.55Z"/><path class="cls-2" d="M763.05,250.41c0,2.21-1.63,3.5-5,3.5h-6.12V241.19h5.91c3,0,4.8,1.18,4.8,3.27a3,3,0,0,1-2,2.85A3,3,0,0,1,763.05,250.41Zm-8.88-3.74h3.45c1.76,0,2.69-.65,2.69-1.88s-.93-1.82-2.69-1.82h-3.45Zm6.57,3.6c0-1.32-.84-2-2.73-2h-3.84v3.82h3.69C759.76,252.14,760.74,251.56,760.74,250.27Z"/><path class="cls-2" d="M75.2,297.92H71.7v7.39H69.34v-16.8H71.7v7.3h3.55l5.28-7.3H83.1l-6,8.14,6.28,8.66H80.65Z"/><path class="cls-2" d="M95.6,297.63v7.68H93.42v-1.68a4.72,4.72,0,0,1-4.18,1.83c-2.88,0-4.7-1.54-4.7-3.75,0-2,1.32-3.72,5.11-3.72H93.3v-.45c0-2-1.13-3.08-3.41-3.08a6.42,6.42,0,0,0-4,1.37l-1-1.72a8.43,8.43,0,0,1,5.25-1.64C93.63,292.47,95.6,294.15,95.6,297.63Zm-2.3,3.8v-1.78H89.74c-2.28,0-2.92.89-2.92,2,0,1.27,1.05,2.06,2.8,2.06A3.7,3.7,0,0,0,93.3,301.43Z"/><path class="cls-2" d="M109.9,292.59v12.72h-2.3v-5.13a9.81,9.81,0,0,1-4.1,1c-3.1,0-5-1.39-5-4.42v-4.13h2.3v4c0,1.8,1.2,2.66,3.15,2.66a9.28,9.28,0,0,0,3.62-.84v-5.81Z"/><path class="cls-2" d="M125.82,299.72H115.5a4.3,4.3,0,0,0,4.6,3.72,4.77,4.77,0,0,0,3.68-1.53l1.27,1.48a6.38,6.38,0,0,1-5,2.07c-4.1,0-6.84-2.71-6.84-6.51a6.23,6.23,0,0,1,6.39-6.48c3.67,0,6.28,2.64,6.28,6.56C125.86,299.22,125.84,299.51,125.82,299.72Zm-10.32-1.65h8.16a4.11,4.11,0,0,0-8.16,0Z"/><path class="cls-2" d="M128.26,299a6.36,6.36,0,0,1,6.72-6.48,5.68,5.68,0,0,1,5.19,2.72l-1.75,1.12a4,4,0,0,0-3.46-1.82,4.48,4.48,0,0,0,0,8.95,4,4,0,0,0,3.46-1.82l1.75,1.1a5.7,5.7,0,0,1-5.19,2.74A6.38,6.38,0,0,1,128.26,299Z"/><path class="cls-2" d="M152.46,294.61H147.8v10.7h-2.3v-10.7h-4.66v-2h11.62Z"/><path class="cls-2" d="M165.94,301.81c0,2.21-1.63,3.5-5,3.5h-6.12V292.59h5.9c3,0,4.8,1.18,4.8,3.27a3,3,0,0,1-2,2.85A3,3,0,0,1,165.94,301.81Zm-8.88-3.74h3.46c1.75,0,2.69-.65,2.69-1.88s-.94-1.82-2.69-1.82h-3.46Zm6.58,3.6c0-1.32-.84-1.95-2.74-1.95h-3.84v3.82h3.7C162.66,303.54,163.64,303,163.64,301.67Z"/><path class="cls-2" d="M168.37,299a6.61,6.61,0,1,1,6.62,6.51A6.33,6.33,0,0,1,168.37,299Zm10.89,0a4.28,4.28,0,1,0-4.27,4.49A4.17,4.17,0,0,0,179.26,299Z"/><path class="cls-2" d="M80.74,321.39v12.72h-2.3v-10.7H71.26v10.7H69V321.39Z"/><path class="cls-2" d="M98.38,327.75A6.18,6.18,0,0,1,92,334.26a5.44,5.44,0,0,1-4.44-2.07v6.58h-2.3V321.39h2.21v2A5.4,5.4,0,0,1,92,321.27,6.18,6.18,0,0,1,98.38,327.75Zm-2.32,0a4.29,4.29,0,1,0-4.3,4.49A4.2,4.2,0,0,0,96.06,327.75Z"/><path class="cls-2" d="M100.54,327.75a6.62,6.62,0,1,1,6.63,6.51A6.33,6.33,0,0,1,100.54,327.75Zm10.9,0a4.29,4.29,0,1,0-8.57,0,4.29,4.29,0,1,0,8.57,0Z"/><path class="cls-2" d="M128.24,330.61c0,2.21-1.63,3.5-5,3.5H117.1V321.39H123c3,0,4.8,1.18,4.8,3.27a3,3,0,0,1-2,2.85A3,3,0,0,1,128.24,330.61Zm-8.88-3.74h3.46c1.75,0,2.68-.65,2.68-1.88s-.93-1.82-2.68-1.82h-3.46Zm6.58,3.59c0-1.31-.84-1.94-2.74-1.94h-3.84v3.82h3.7C125,332.34,125.94,331.76,125.94,330.46Z"/><path class="cls-2" d="M130.66,327.75a6.62,6.62,0,1,1,6.63,6.51A6.33,6.33,0,0,1,130.66,327.75Zm10.9,0a4.29,4.29,0,1,0-8.57,0,4.29,4.29,0,1,0,8.57,0Z"/><path class="cls-2" d="M160.06,332.1v5H157.9v-3H147.27v3h-2.18v-5h.67c1.82-.1,2.14-3.19,2.3-6.41l.19-4.3h9.87V332.1Zm-11.37,0h7.13v-8.69h-5.53l-.12,2.45C150.08,328.5,149.84,331.09,148.69,332.1Z"/><path class="cls-2" d="M163.06,321.39h2.31v9.27l7.8-9.27h2.09v12.72H173v-9.26l-7.78,9.26h-2.11Z"/><path class="cls-2" d="M194.38,321.39v12.72h-2.09v-9.28l-4.75,7.84h-1l-4.7-7.87v9.31h-2.11V321.39h2.37l5,8.6,5.13-8.6Z"/><path class="cls-2" d="M209.55,329.87c0,2.75-1.92,4.29-5.33,4.27l-5.35,0V321.39h2.3v4.3l3.44,0C207.82,325.74,209.55,327.25,209.55,329.87Zm-2.33,0c0-1.68-1.08-2.4-3.17-2.42l-2.88-.05v5l2.88,0C206.12,332.41,207.22,331.54,207.22,329.84Zm4.23-8.45h2.3v12.72h-2.3Z"/><path class="cls-2" d="M226.18,334.11l-3.67-4.87-3.72,4.87h-2.57l5-6.5-4.78-6.22H219l3.5,4.59,3.48-4.59h2.52l-4.8,6.22,5.07,6.5Z"/><path class="cls-2" d="M69,350.19h2.3v9.27l7.8-9.27h2.09v12.72h-2.3v-9.26l-7.78,9.26H69Z"/><path class="cls-2" d="M84.44,356.55a6.36,6.36,0,0,1,6.72-6.48,5.66,5.66,0,0,1,5.18,2.72l-1.75,1.12a4,4,0,0,0-3.45-1.82,4.48,4.48,0,0,0,0,9,3.94,3.94,0,0,0,3.45-1.82l1.75,1.1a5.67,5.67,0,0,1-5.18,2.74A6.38,6.38,0,0,1,84.44,356.55Z"/><path class="cls-2" d="M111.1,350.19v12.72h-2.3v-10.7h-7.18v10.7h-2.3V350.19Z"/><path class="cls-2" d="M126.25,358.67c0,2.76-1.92,4.29-5.33,4.27l-5.35,0V350.19h2.3v4.3l3.43,0C124.52,354.54,126.25,356.05,126.25,358.67Zm-2.33,0c0-1.68-1.08-2.4-3.17-2.42l-2.88-.05v5l2.88,0C122.82,361.21,123.92,360.35,123.92,358.64Zm4.22-8.45h2.31v12.72h-2.31Z"/><path class="cls-2" d="M144.42,352.21h-4.66v10.7h-2.3v-10.7H132.8v-2h11.62Z"/><path class="cls-2" d="M156.75,355.23v7.68h-2.18v-1.68a4.72,4.72,0,0,1-4.18,1.83c-2.88,0-4.7-1.54-4.7-3.75,0-2,1.32-3.72,5.11-3.72h3.65v-.45c0-1.95-1.13-3.08-3.41-3.08a6.42,6.42,0,0,0-4,1.37l-1-1.72a8.43,8.43,0,0,1,5.25-1.64C154.78,350.07,156.75,351.75,156.75,355.23Zm-2.3,3.8v-1.78H150.9c-2.28,0-2.93.89-2.93,2,0,1.27,1.05,2.06,2.81,2.06A3.7,3.7,0,0,0,154.45,359Z"/><path class="cls-2" d="M160.9,350.19h2.31v5.4h7.25v-5.4h2.3v12.72h-2.3v-5.32h-7.25v5.32H160.9Z"/><path class="cls-2" d="M177.25,350.19h2.3v9.27l7.8-9.27h2.09v12.72h-2.3v-9.26l-7.78,9.26h-2.11Z"/><path class="cls-2" d="M193.9,350.19h2.31v9.27l7.8-9.27h2.09v12.72h-2.31v-9.26L196,362.91H193.9Zm2.19-5h1.56a2,2,0,0,0,2.18,2,2,2,0,0,0,2.21-2h1.61c-.05,2.16-1.47,3.32-3.8,3.32S196.11,347.38,196.09,345.22Z"/><polyline class="cls-7" points="366.5 139.5 366.5 51.48 280.16 101.58"/></g></g></svg>