<svg id="Capa_1" enable-background="new 0 0 512 512" height="512" viewBox="0 0 512 512" width="512" xmlns="http://www.w3.org/2000/svg"><g><g><path d="m427.753 184.339h-110.323v-82.199h15.188v33.58c0 17.177 13.975 31.151 31.151 31.151h.004c17.177 0 31.151-13.975 31.151-31.151v-33.58h16.268c4.143 0 7.5-3.357 7.5-7.5s-3.357-7.5-7.5-7.5h-16.268v-44.153c5.8-1.301 10.149-6.483 10.149-12.669v-17.326c0-7.164-5.828-12.992-12.992-12.992h-56.62c-7.164 0-12.992 5.828-12.992 12.992v17.325c0 6.186 4.349 11.367 10.148 12.669v44.154h-45.465v-44.154c5.799-1.302 10.148-6.483 10.148-12.669v-17.325c.001-7.164-5.827-12.992-12.991-12.992h-56.62c-7.164 0-12.992 5.828-12.992 12.992v17.325c0 6.186 4.349 11.367 10.148 12.669v44.154h-45.465v-44.154c5.799-1.302 10.149-6.483 10.149-12.669v-17.325c0-7.164-5.829-12.992-12.993-12.992h-11.399c-4.143 0-7.5 3.357-7.5 7.5s3.357 7.5 7.5 7.5h9.393v13.31h-52.605v-13.31h9.389c4.143 0 7.5-3.357 7.5-7.5s-3.357-7.5-7.5-7.5h-11.396c-7.164 0-12.993 5.828-12.993 12.992v17.325c0 6.186 4.35 11.367 10.149 12.669v44.154h-16.265c-4.143 0-7.5 3.357-7.5 7.5s3.357 7.5 7.5 7.5h16.265v33.58c0 17.177 13.975 31.151 31.151 31.151h.004c17.177 0 31.151-13.975 31.151-31.151v-33.58h15.19v82.199h-110.323c-9.672 0-17.541 7.869-17.541 17.541v248.819c0 9.255 7.21 16.839 16.305 17.478v26.281c0 9.672 7.869 17.541 17.541 17.541h310.896c9.672 0 17.541-7.869 17.541-17.541v-26.281c9.095-.639 16.305-8.224 16.305-17.478v-248.819c0-9.672-7.869-17.541-17.541-17.541zm-47.829-48.619c0 8.906-7.245 16.151-16.151 16.151h-.004c-8.906 0-16.151-7.245-16.151-16.151v-33.58h32.307v33.58zm-32.307-92.41h32.307v20.714h-32.307zm-10.148-28.31h52.604v13.31h-52.604zm10.148 64.023h32.307v8.116h-32.307zm-215.544-35.713h32.307v20.714h-32.307zm0 35.713h32.307v8.116h-32.307zm32.307 56.697c0 8.906-7.245 16.151-16.151 16.151h-.004c-8.906 0-16.151-7.245-16.151-16.151v-33.58h32.307v33.58zm75.465-92.41h32.308v20.714h-32.308zm-10.149-28.31h52.604v13.31h-52.604zm10.149 64.023h32.308v8.116h-32.308zm0 23.117h32.308v33.58c0 8.906-7.245 16.151-16.151 16.151h-.005c-8.906 0-16.151-7.245-16.151-16.151v-33.58zm171.603 394.86h-310.896c-1.401 0-2.541-1.14-2.541-2.541v-26.219h315.979v26.219c-.001 1.401-1.14 2.541-2.542 2.541zm18.846-46.301c0 1.401-1.14 2.541-2.541 2.541h-343.506c-1.401 0-2.541-1.14-2.541-2.541v-248.819c0-1.401 1.14-2.541 2.541-2.541h137.567c4.143 0 7.5-3.357 7.5-7.5s-3.357-7.5-7.5-7.5h-12.244v-82.199h15.274v33.58c0 17.177 13.975 31.151 31.151 31.151h.005c17.177 0 31.151-13.975 31.151-31.151v-33.58h15.277v82.199h-46.791c-4.143 0-7.5 3.357-7.5 7.5s3.357 7.5 7.5 7.5h172.114c1.401 0 2.541 1.14 2.541 2.541v248.819z"/><path d="m407.672 214.461h-303.344c-4.143 0-7.5 3.357-7.5 7.5v208.656c0 4.143 3.357 7.5 7.5 7.5h303.344c4.143 0 7.5-3.357 7.5-7.5v-31.691c0-4.143-3.357-7.5-7.5-7.5s-7.5 3.357-7.5 7.5v24.191h-288.344v-193.656h288.344v135.641c0 4.143 3.357 7.5 7.5 7.5s7.5-3.357 7.5-7.5v-143.141c0-4.143-3.358-7.5-7.5-7.5z"/><path d="m148.175 349.279c-9.672 0-17.541 7.869-17.541 17.541v24.071c0 9.672 7.869 17.541 17.541 17.541h24.071c9.672 0 17.541-7.869 17.541-17.541v-24.071c0-9.672-7.869-17.541-17.541-17.541zm26.612 17.541v24.071c0 1.401-1.14 2.541-2.541 2.541h-24.071c-1.401 0-2.541-1.14-2.541-2.541v-24.071c0-1.401 1.14-2.541 2.541-2.541h24.071c1.401 0 2.541 1.14 2.541 2.541z"/><path d="m221.602 408.433h24.071c9.672 0 17.541-7.869 17.541-17.541v-24.072c0-9.672-7.869-17.541-17.541-17.541h-24.071c-9.672 0-17.541 7.869-17.541 17.541v24.071c0 9.672 7.869 17.542 17.541 17.542zm-2.541-41.613c0-1.401 1.14-2.541 2.541-2.541h24.071c1.401 0 2.541 1.14 2.541 2.541v24.071c0 1.401-1.14 2.541-2.541 2.541h-24.071c-1.401 0-2.541-1.14-2.541-2.541z"/><path d="m263.212 310.102v-44.564c0-9.672-7.869-17.541-17.541-17.541h-97.496c-9.672 0-17.541 7.869-17.541 17.541v44.564c0 9.672 7.869 17.541 17.541 17.541h97.496c9.672 0 17.541-7.87 17.541-17.541zm-117.578 0v-44.564c0-1.401 1.14-2.541 2.541-2.541h97.496c1.401 0 2.541 1.14 2.541 2.541v44.564c0 1.401-1.14 2.541-2.541 2.541h-97.496c-1.402 0-2.541-1.14-2.541-2.541z"/><path d="m364.178 377.896c-4.143 0-7.5 3.357-7.5 7.5s3.357 7.5 7.5 7.5h.104c4.143 0 7.5-3.357 7.5-7.5s-3.357-7.5-7.5-7.5z"/><path d="m337.698 377.896c-4.143 0-7.5 3.357-7.5 7.5s3.357 7.5 7.5 7.5h.104c4.143 0 7.5-3.357 7.5-7.5s-3.357-7.5-7.5-7.5z"/></g></g></svg>