<?xml version="1.0" encoding="utf-8"?>
<!-- Generator: Adobe Illustrator 24.3.0, SVG Export Plug-In . SVG Version: 6.00 Build 0)  -->
<svg version="1.1" id="Layer_1" xmlns="http://www.w3.org/2000/svg" xmlns:xlink="http://www.w3.org/1999/xlink" x="0px" y="0px"
	 viewBox="0 0 496 496" style="enable-background:new 0 0 496 496;" xml:space="preserve">
<style type="text/css">
	.st0{fill:#8BCDFD;}
</style>
<path class="st0" d="M136,296c-35.3,0-64,28.7-64,64s28.7,64,64,64s64-28.7,64-64S171.3,296,136,296z M136,408
	c-26.5,0-48-21.5-48-48s21.5-48,48-48s48,21.5,48,48S162.5,408,136,408z"/>
<path class="st0" d="M432.3,0c-22.8,0-44,12.3-55.3,32.1L367.9,48H100.7L0,148.7V496h400V155.5l63.9-36.5
	c19.8-11.3,32.1-32.5,32.1-55.3C496,28.6,467.4,0,432.3,0z M96,75.3V144H27.3L96,75.3z M384,480H16V160h96V64h246.8l-28.4,49.6
	l-40.2,16.1l-12.4,24.8l-7.2-7.2c-12.5-12.5-29-19.3-46.6-19.3s-34.2,6.9-46.6,19.3L164.7,160l16,16l-24,24L296,339.3l24-24l16,16
	l12.7-12.7c12.5-12.5,19.3-29,19.3-46.6s-6.9-34.2-19.3-46.6l-7.2-7.2l24.8-12.4l16.1-40.2l1.6-0.9V480z M337.4,236.7
	c9.4,9.4,14.6,22,14.6,35.3s-5.2,25.9-14.6,35.3l-1.4,1.4L187.3,160l1.4-1.4c9.4-9.4,22-14.6,35.3-14.6s25.9,5.2,35.3,14.6
	L337.4,236.7z M308.7,304L296,316.7L179.3,200l12.7-12.7L308.7,304z M456,105.1l-86.4,49.4l-15.9,39.8l-24.1,12.1l-39.8-39.8
	l12.1-24.1l39.8-15.9L390.9,40c8.5-14.8,24.3-24,41.4-24c26.3,0,47.7,21.4,47.7,47.7C480,80.8,470.8,96.6,456,105.1z"/>
<path class="st0" d="M400,64h16c0-8.8,7.2-16,16-16c3.9,0,7.7,1.4,10.7,4.1l10.7-11.9c-5.9-5.3-13.4-8.2-21.3-8.2
	C414.4,32,400,46.4,400,64z"/>
<path class="st0" d="M128,80h192v16H128V80z"/>
<path class="st0" d="M128,112h48v16h-48V112z"/>
<path class="st0" d="M219.5,315.4c1.2-10.7-2.5-21.2-10.1-28.8c-7.6-7.6-18.1-11.3-28.7-10.1l-0.4,0c-6.4,0.6-12.7-2.1-16.8-7.1
	c-6.7-8.4-16.7-13.2-27.5-13.2s-20.8,4.8-27.5,13.2c-4.1,5.2-10.5,7.8-17.1,7.1c-10.7-1.2-21.2,2.5-28.8,10.1
	c-7.6,7.6-11.3,18.1-10.1,28.7l0,0.4c0.6,6.4-2.1,12.7-7.1,16.8c-8.4,6.7-13.2,16.7-13.2,27.5s4.8,20.8,13.2,27.5
	c5.2,4.2,7.8,10.5,7.1,17.1c-1.2,10.7,2.5,21.2,10.1,28.8c7.6,7.6,18.1,11.3,28.7,10.1l0.4,0c6.4-0.6,12.7,2.1,16.8,7.1
	c6.7,8.4,16.8,13.2,27.5,13.2c10.7,0,20.8-4.8,27.5-13.2c4.1-5.2,10.6-7.8,17.1-7.1c10.7,1.2,21.2-2.5,28.8-10.1
	c7.6-7.6,11.3-18.1,10.1-28.7l0-0.4c-0.6-6.4,2.1-12.7,7.1-16.8c8.4-6.7,13.2-16.8,13.2-27.5s-4.8-20.8-13.2-27.5
	C221.4,328.4,218.8,322,219.5,315.4z M221.6,381.3l-5-6.2c-9.4,7.6-14.3,19.3-13,31.3l0,0.4c0.5,5.7-1.5,11.3-5.6,15.4
	c-4.2,4.1-9.9,6.2-15.7,5.5c-12-1.3-23.7,3.5-31.3,13c-7.4,9.2-22.7,9.2-30.1,0c-6.8-8.4-16.8-13.2-27.4-13.2
	c-1.3,0-2.6,0.1-3.8,0.2l-0.4,0c-5.7,0.5-11.3-1.5-15.4-5.6c-4.2-4.2-6.2-9.9-5.5-15.7c1.3-12-3.5-23.7-13-31.3
	c-4.6-3.7-7.2-9.2-7.2-15c0-5.9,2.6-11.4,7.2-15c9.4-7.6,14.3-19.3,13-31.3l0-0.4c-0.5-5.7,1.5-11.3,5.6-15.4
	c4.2-4.2,9.8-6.2,15.7-5.5c12,1.3,23.7-3.5,31.3-13c7.4-9.2,22.7-9.2,30.1,0c7.6,9.4,19.2,14.3,31.3,13l0.4,0
	c5.8-0.5,11.3,1.5,15.4,5.6c4.2,4.2,6.2,9.9,5.5,15.7c-1.3,12,3.5,23.7,13,31.3c4.6,3.7,7.2,9.2,7.2,15s-2.6,11.3-7.2,15
	L221.6,381.3z"/>
<path class="st0" d="M144,328h-24v64h16v-16h8c13.2,0,24-10.8,24-24S157.2,328,144,328z M144,360h-8v-16h8c4.4,0,8,3.6,8,8
	S148.4,360,144,360z"/>
<path class="st0" d="M32,176h112v16H32V176z"/>
<path class="st0" d="M64,208h80v16H64V208z"/>
<path class="st0" d="M32,208h16v16H32V208z"/>
<path class="st0" d="M256,448h112v16H256V448z"/>
<path class="st0" d="M352,416h16v16h-16V416z"/>
<path class="st0" d="M256,416h80v16h-80V416z"/>
<path class="st0" d="M256,384h112v16H256V384z"/>
<path class="st0" d="M256,352h112v16H256V352z"/>
</svg>
