<?xml version="1.0" encoding="utf-8"?>
<!-- Generator: Adobe Illustrator 24.3.0, SVG Export Plug-In . SVG Version: 6.00 Build 0)  -->
<svg version="1.1" id="_x33_0" xmlns="http://www.w3.org/2000/svg" xmlns:xlink="http://www.w3.org/1999/xlink" x="0px" y="0px"
	 viewBox="0 0 512 512" style="enable-background:new 0 0 512 512;" xml:space="preserve">
<style type="text/css">
	.st0{fill:#8BCDFD;}
</style>
<g>
	<circle class="st0" cx="384" cy="192" r="8"/>
	<path class="st0" d="M384,392c-13.2,0-24,10.8-24,24s10.8,24,24,24s24-10.8,24-24S397.2,392,384,392z M384,424c-4.4,0-8-3.6-8-8
		s3.6-8,8-8s8,3.6,8,8S388.4,424,384,424z"/>
	<path class="st0" d="M423.6,188.3c-0.8-8.7-4.4-16.6-9.9-22.8l34.2-34.2c5.2-5.2,8-12,8-19.3c0-5.7-1.8-11.1-5-15.7l13-13
		c3,3,7,4.7,11.3,4.7c15.8,0,28.7-12.9,28.7-28.7c0-4.3-1.7-8.3-4.7-11.3L464,12.7c-3-3-7-4.7-11.3-4.7C436.9,8,424,20.9,424,36.7
		c0,4.3,1.7,8.3,4.7,11.3l-13,13c-7.1-4.9-16.4-5.9-24.6-3.3C388.3,47.6,379.1,40,368,40c-13.2,0-24,10.8-24,24
		c0,9.9,6,18.4,14.6,22.1l-64.5,64.5C290.4,142,281.9,136,272,136c-0.2,0-0.4,0-0.5,0.1C290,120.1,296,95.7,296,80v-8h-8
		c-36.6,0-58.9,12.6-72,28.4V80c0-26.7-18.5-72-88-72h-8v8c0,24.9,15,72,72,72h8v56v4.4c-10.2-12.3-26.2-22.7-50.1-26.6
		c1.3-3,2.1-6.3,2.1-9.8c0-13.2-10.8-24-24-24s-24,10.8-24,24c0,10.6,6.9,19.4,16.4,22.6c2.5,25.8,19.4,65.4,71.6,65.4h8v48h-32
		c-8.8,0-16,7.2-16,16v16c0,8.8,7.2,16,16,16v16h-48v-16c8.8,0,16-7.2,16-16v-16c0-8.8-7.2-16-16-16H40c-8.8,0-16,7.2-16,16v16
		c0,8.8,7.2,16,16,16v16h-8c-13.2,0-24,10.8-24,24v168h16V336c0-4.4,3.6-8,8-8h8v104c0,22.1,17.9,40,40,40s40-17.9,40-40V328h48v104
		c0,22.1,17.9,40,40,40c2.8,0,5.5-0.3,8.1-0.8c0,0.3-0.1,0.5-0.1,0.8v16c0,8.8,7.2,16,16,16h224c8.8,0,16-7.2,16-16
		c0-6.7-2.1-13-5.7-18.1l12.7-22.9c16.3-29.4,24.9-62.6,24.9-96.2c0-52.9-20.6-102.7-58-140.1L423.6,188.3z M192,72
		c-42.5,0-52.8-32.1-55.2-47.7c41.4,2.8,59.3,25.5,62.6,47.7H192z M40,264h80l0,16H40V264z M56,296h48v16H56V296z M104,432
		c0,13.2-10.8,24-24,24s-24-10.8-24-24V328h48V432z M384,216c-13.2,0-24-10.8-24-24s10.8-24,24-24s24,10.8,24,24S397.2,216,384,216z
		 M452.7,24L488,59.3c0,7-5.7,12.7-12.7,12.7L440,36.7C440,29.7,445.7,24,452.7,24z M440,59.3L452.7,72L440,84.7L427.3,72L440,59.3z
		 M408,75.3l28.7,28.7c2.1,2.1,3.3,5,3.3,8s-1.2,5.9-3.3,8l-35.8,35.8c-5.1-2.4-10.8-3.8-16.8-3.8c-22.1,0-40,17.9-40,40
		c0,6,1.4,11.7,3.8,16.8L328,228.7L283.3,184L392,75.3C396.2,71.1,403.8,71.1,408,75.3L408,75.3z M267.3,200l4.7-4.7l44.7,44.7
		l-4.7,4.7c-4.2,4.2-11.8,4.2-16,0L267.3,216c-2.1-2.1-3.3-5-3.3-8S265.2,202.1,267.3,200z M368,56c4.4,0,8,3.6,8,8s-3.6,8-8,8
		s-8-3.6-8-8S363.6,56,368,56z M280,160c0,4.4-3.6,8-8,8s-8-3.6-8-8s3.6-8,8-8S280,155.6,280,160z M279.2,88.3
		c-2.5,15.6-12.7,47.7-55.2,47.7h-7.4C220,113.8,237.8,91.1,279.2,88.3z M128,104c4.4,0,8,3.6,8,8s-3.6,8-8,8s-8-3.6-8-8
		S123.6,104,128,104z M192,184c-42.5,0-52.8-32.1-55.2-47.7c41.4,2.8,59.3,25.5,62.6,47.7H192z M216,200v-8v-40h8
		c10.6,0,19.7-1.6,27.6-4.4c-2.2,3.6-3.6,7.9-3.6,12.4c0,9.9,6,18.4,14.6,22.1l-6.6,6.6c-5.2,5.2-8,12-8,19.3s2.8,14.2,8,19.3
		l28.7,28.7c5.2,5.2,12,8,19.3,8s14.2-2.8,19.3-8l34.2-34.2c7.1,6.3,16.3,10.2,26.5,10.2c2.4,0,4.8-0.3,7-0.7l3.3,2.4
		c28.6,21.5,45.7,55.6,45.7,91.4c0,19.1-4.8,37.6-13.8,54.2c-8.9-10.2-21.4-17.2-35.6-18.9c-3.2-9.5-12.1-16.4-22.7-16.4H248v-16h32
		v-16h-32v-16c8.8,0,16-7.2,16-16v-16c0-8.8-7.2-16-16-16h-32V200z M384,456c-22.1,0-40-17.9-40-40s17.9-40,40-40s40,17.9,40,40
		S406.1,456,384,456z M344.9,376H248v-16h120c1.5,0,2.9,0.6,4.1,1.3C361.6,363.6,352.3,368.8,344.9,376z M248,432v-40h85.5
		c-3.5,7.3-5.5,15.4-5.5,24c0,15.7,6.5,29.8,16.9,40H239.8C244.9,449.3,248,441,248,432z M168,264h80l0,16h-80V264z M184,296h48v16
		h-48V296z M184,432V328h48v104c0,13.2-10.8,24-24,24S184,445.2,184,432z M232,488v-16h208c8.8,0,16,7.2,16,16H232z M465.1,439.2
		l-11.2,20.1c-4.2-2-8.9-3.3-13.9-3.3h-16.9c10.4-10.2,16.9-24.3,16.9-40c0-7.5-1.5-14.7-4.2-21.3c13.2-20.9,20.2-44.8,20.2-69.6
		c0-39.1-18-76.5-48.2-101.1c5.6-4.1,10.1-9.6,12.9-16l14,14c34.4,34.4,53.3,80.1,53.3,128.8C488,381.6,480.1,412.2,465.1,439.2
		L465.1,439.2z"/>
	<path class="st0" d="M240,56c13.2,0,24-10.8,24-24S253.2,8,240,8s-24,10.8-24,24S226.8,56,240,56z M240,24c4.4,0,8,3.6,8,8
		s-3.6,8-8,8s-8-3.6-8-8S235.6,24,240,24z"/>
	<path class="st0" d="M112,232c13.2,0,24-10.8,24-24s-10.8-24-24-24s-24,10.8-24,24S98.8,232,112,232z M112,200c4.4,0,8,3.6,8,8
		s-3.6,8-8,8s-8-3.6-8-8S107.6,200,112,200z"/>
	<path class="st0" d="M40,88c17.6,0,32-14.4,32-32S57.6,24,40,24S8,38.4,8,56S22.4,88,40,88z M40,40c8.8,0,16,7.2,16,16
		s-7.2,16-16,16s-16-7.2-16-16S31.2,40,40,40z"/>
	<path class="st0" d="M24,168c0,17.6,14.4,32,32,32s32-14.4,32-32s-14.4-32-32-32S24,150.4,24,168z M72,168c0,8.8-7.2,16-16,16
		s-16-7.2-16-16s7.2-16,16-16S72,159.2,72,168z"/>
</g>
</svg>
