<?xml version="1.0" encoding="utf-8"?>
<!-- Generator: Adobe Illustrator 24.3.0, SVG Export Plug-In . SVG Version: 6.00 Build 0)  -->
<svg version="1.1" id="Layer_1" xmlns="http://www.w3.org/2000/svg" xmlns:xlink="http://www.w3.org/1999/xlink" x="0px" y="0px"
	 viewBox="0 0 496 1069" style="enable-background:new 0 0 496 1069;" xml:space="preserve">
<style type="text/css">
	.st0{fill:#8BCDFD;}
</style>
<g>
	<path class="st0" d="M473.8,1000.3l-32.8-9.4v-14.3c9.8-8.8,16-21.5,16-35.7v-16c0-26.5-21.5-48-48-48v-152h16v-48h-72v-28.6
		l31.8-11.4L249,588.5L113.2,637l31.8,11.3v28.6H73v48h16v152c-26.5,0-48,21.5-48,48v16c0,14.2,6.2,26.9,16,35.7v14.3l-32.8,9.4
		c-13.7,3.9-23.2,16.6-23.2,30.8v37.9h496v-37.9C497,1016.9,487.5,1004.2,473.8,1000.3z M425,994.8c-2,3.1-7.5,10.2-16,10.2
		s-14-7.1-16-10.2v-8.6c5,1.8,10.4,2.8,16,2.8s11-1,16-2.8V994.8z M441,925v16c0,17.6-14.4,32-32,32s-32-14.4-32-32v-16
		c0-17.6,14.4-32,32-32S441,907.3,441,925z M241,682.6v31.3l-48-16v-32.4L241,682.6z M257,682.6l80-28.6v33.2l-80,26.7V682.6z
		 M249,605.5l88.2,31.5L249,668.5l-42.3-15.1l45.1-16.9l-5.6-15l-62.8,23.6l-22.6-8.1L249,605.5z M177,659.8v32.8l-16-5.3v-33.2
		L177,659.8z M105,725h16v32h16v-48H89v-16h56v5.8l32,10.7v33c-9.3,3.3-16,12.1-16,22.5v40h48v-40c0-10.4-6.7-19.2-16-22.5v-27.7
		l56,18.7l104-34.7V693h56v16h-48v48h16v-32h16v154.8c-18.6,6.6-32,24.3-32,45.2v16c0,14.2,6.2,26.9,16,35.7V991l-32.8,9.4
		c-6.1,1.7-11.2,5.3-15.2,9.8c-4-4.6-9.1-8.1-15.2-9.8L281,991v-14.3c9.8-8.8,16-21.5,16-35.7v-16c0-26.5-21.5-48-48-48
		s-48,21.5-48,48v16c0,14.2,6.2,26.9,16,35.7V991l-32.8,9.4c-6.1,1.7-11.2,5.3-15.2,9.8c-4-4.6-9.1-8.1-15.2-9.8L121,991v-14.3
		c9.8-8.8,16-21.5,16-35.7v-16c0-20.9-13.4-38.6-32-45.2V725z M193,765v24h-16v-24c0-4.4,3.6-8,8-8S193,760.6,193,765z M321,1053
		H177v-21.9c0-7.1,4.8-13.4,11.6-15.4l33-9.4c4.6,6,13.7,14.7,27.4,14.7c13.7,0,22.8-8.6,27.4-14.7l33,9.4c6.8,2,11.6,8.3,11.6,15.4
		V1053z M249,973c-17.6,0-32-14.4-32-32v-16c0-17.6,14.4-32,32-32s32,14.4,32,32v16C281,958.6,266.6,973,249,973z M249,989
		c5.6,0,11-1,16-2.8v8.6c-2,3.1-7.5,10.2-16,10.2s-14-7.1-16-10.2v-8.6C238,988,243.4,989,249,989z M57,925c0-17.6,14.4-32,32-32
		s32,14.4,32,32v16c0,17.6-14.4,32-32,32s-32-14.4-32-32V925z M89,989c5.6,0,11-1,16-2.8v8.6c-2,3.1-7.5,10.2-16,10.2
		s-14-7.1-16-10.2v-8.6C78,988,83.4,989,89,989z M17,1031.1c0-7.1,4.8-13.4,11.6-15.4l33-9.4c4.6,6,13.7,14.7,27.4,14.7
		s22.8-8.6,27.4-14.7l33,9.4c6.8,2,11.6,8.3,11.6,15.4v21.9H17V1031.1z M481,1053H337v-21.9c0-7.1,4.8-13.4,11.6-15.4l33-9.4
		c4.6,6,13.7,14.7,27.4,14.7s22.8-8.6,27.4-14.7l33,9.4c6.8,2,11.6,8.3,11.6,15.4V1053z"/>
	<path class="st0" d="M361,773h16v16h-16V773z"/>
	<path class="st0" d="M361,805h16v16h-16V805z"/>
	<path class="st0" d="M329,717h16v136h-16V717z"/>
	<path class="st0" d="M297,733h16v16h-16V733z"/>
	<path class="st0" d="M297,765h16v16h-16V765z"/>
	<path class="st0" d="M297,797h16v88h-16V797z"/>
	<path class="st0" d="M121,773h16v16h-16V773z"/>
	<path class="st0" d="M121,805h16v16h-16V805z"/>
	<path class="st0" d="M185,821h16v64h-16V821z"/>
	<path class="st0" d="M153,821h16v32h-16V821z"/>
	<path class="st0" d="M227.6,871l21.4-5.2l21.4,5.2l1.7-21.9l11.5-18.7l-20.3-8.4L249,805.2l-14.2,16.7l-20.3,8.4L226,849L227.6,871
		z M244.4,835.3l4.6-5.4l4.6,5.4l6.5,2.7l-3.7,6l-0.5,7l-6.8-1.7l-6.8,1.7l-0.5-7l-3.7-6L244.4,835.3z"/>
	<path class="st0" d="M241,749h16v16h-16V749z"/>
	<path class="st0" d="M241,781h16v16h-16V781z"/>
</g>
<g>
	<g>
		<path class="st0" d="M415.9,179.6H308.7V99.7h14.8v32.6c0,16.7,13.6,30.3,30.3,30.3h0c16.7,0,30.3-13.6,30.3-30.3V99.7h15.8
			c4,0,7.3-3.3,7.3-7.3c0-4-3.3-7.3-7.3-7.3H384V42.3c5.6-1.3,9.9-6.3,9.9-12.3V13.1c0-7-5.7-12.6-12.6-12.6h-55
			c-7,0-12.6,5.7-12.6,12.6V30c0,6,4.2,11,9.9,12.3v42.9h-44.2V42.3c5.6-1.3,9.9-6.3,9.9-12.3V13.1c0-7-5.7-12.6-12.6-12.6h-55
			c-7,0-12.6,5.7-12.6,12.6V30c0,6,4.2,11,9.9,12.3v42.9h-44.2V42.3c5.6-1.3,9.9-6.3,9.9-12.3V13.1c0-7-5.7-12.6-12.6-12.6h-11.1
			c-4,0-7.3,3.3-7.3,7.3s3.3,7.3,7.3,7.3h9.1V28h-51.1V15.1h9.1c4,0,7.3-3.3,7.3-7.3s-3.3-7.3-7.3-7.3h-11.1
			c-7,0-12.6,5.7-12.6,12.6V30c0,6,4.2,11,9.9,12.3v42.9H98.2c-4,0-7.3,3.3-7.3,7.3c0,4,3.3,7.3,7.3,7.3H114v32.6
			c0,16.7,13.6,30.3,30.3,30.3h0c16.7,0,30.3-13.6,30.3-30.3V99.7h14.8v79.9H82.1c-9.4,0-17,7.6-17,17v241.7c0,9,7,16.4,15.8,17
			v25.5c0,9.4,7.6,17,17,17h302c9.4,0,17-7.6,17-17v-25.5c8.8-0.6,15.8-8,15.8-17V196.6C432.9,187.2,425.3,179.6,415.9,179.6
			L415.9,179.6z M369.4,132.4c0,8.7-7,15.7-15.7,15.7h0c-8.7,0-15.7-7-15.7-15.7V99.7h31.4L369.4,132.4L369.4,132.4z M338,42.6h31.4
			v20.1H338V42.6z M328.1,15.1h51.1V28h-51.1V15.1z M338,77.3h31.4v7.9H338V77.3z M128.6,42.6H160v20.1h-31.4V42.6z M128.6,77.3H160
			v7.9h-31.4V77.3z M160,132.4c0,8.7-7,15.7-15.7,15.7h0c-8.7,0-15.7-7-15.7-15.7V99.7H160L160,132.4L160,132.4z M233.3,42.6h31.4
			v20.1h-31.4L233.3,42.6z M223.4,15.1h51.1V28h-51.1L223.4,15.1z M233.3,77.3h31.4v7.9h-31.4L233.3,77.3z M233.3,99.7h31.4v32.6
			c0,8.7-7,15.7-15.7,15.7h0c-8.7,0-15.7-7-15.7-15.7L233.3,99.7L233.3,99.7z M400,483.3H98c-1.4,0-2.5-1.1-2.5-2.5v-25.5h307v25.5
			C402.5,482.2,401.4,483.3,400,483.3L400,483.3z M418.3,438.3c0,1.4-1.1,2.5-2.5,2.5H82.1c-1.4,0-2.5-1.1-2.5-2.5V196.6
			c0-1.4,1.1-2.5,2.5-2.5h133.6c4,0,7.3-3.3,7.3-7.3s-3.3-7.3-7.3-7.3h-11.9V99.7h14.8v32.6c0,16.7,13.6,30.3,30.3,30.3h0
			c16.7,0,30.3-13.6,30.3-30.3V99.7h14.8v79.9h-45.5c-4,0-7.3,3.3-7.3,7.3s3.3,7.3,7.3,7.3h167.2c1.4,0,2.5,1.1,2.5,2.5L418.3,438.3
			L418.3,438.3z"/>
		<path class="st0" d="M396.3,208.8H101.7c-4,0-7.3,3.3-7.3,7.3v202.7c0,4,3.3,7.3,7.3,7.3h294.7c4,0,7.3-3.3,7.3-7.3v-30.8
			c0-4-3.3-7.3-7.3-7.3c-4,0-7.3,3.3-7.3,7.3v23.5H108.9V223.4h280.1v131.8c0,4,3.3,7.3,7.3,7.3c4,0,7.3-3.3,7.3-7.3V216.1
			C403.6,212.1,400.4,208.8,396.3,208.8L396.3,208.8z"/>
		<path class="st0" d="M144.2,339.8c-9.4,0-17,7.6-17,17v23.4c0,9.4,7.6,17,17,17h23.4c9.4,0,17-7.6,17-17v-23.4c0-9.4-7.6-17-17-17
			H144.2z M170.1,356.9v23.4c0,1.4-1.1,2.5-2.5,2.5h-23.4c-1.4,0-2.5-1.1-2.5-2.5v-23.4c0-1.4,1.1-2.5,2.5-2.5h23.4
			C169,354.4,170.1,355.5,170.1,356.9z"/>
		<path class="st0" d="M215.6,397.3H239c9.4,0,17-7.6,17-17v-23.4c0-9.4-7.6-17-17-17h-23.4c-9.4,0-17,7.6-17,17v23.4
			C198.5,389.6,206.2,397.3,215.6,397.3L215.6,397.3z M213.1,356.9c0-1.4,1.1-2.5,2.5-2.5H239c1.4,0,2.5,1.1,2.5,2.5v23.4
			c0,1.4-1.1,2.5-2.5,2.5h-23.4c-1.4,0-2.5-1.1-2.5-2.5V356.9z"/>
		<path class="st0" d="M256,301.8v-43.3c0-9.4-7.6-17-17-17h-94.7c-9.4,0-17,7.6-17,17v43.3c0,9.4,7.6,17,17,17H239
			C248.4,318.8,256,311.2,256,301.8z M141.8,301.8v-43.3c0-1.4,1.1-2.5,2.5-2.5H239c1.4,0,2.5,1.1,2.5,2.5v43.3
			c0,1.4-1.1,2.5-2.5,2.5h-94.7C142.9,304.2,141.8,303.1,141.8,301.8z"/>
		<path class="st0" d="M354.1,367.6c-4,0-7.3,3.3-7.3,7.3c0,4,3.3,7.3,7.3,7.3h0.1c4,0,7.3-3.3,7.3-7.3c0-4-3.3-7.3-7.3-7.3H354.1z"
			/>
		<path class="st0" d="M328.4,367.6c-4,0-7.3,3.3-7.3,7.3c0,4,3.3,7.3,7.3,7.3h0.1c4,0,7.3-3.3,7.3-7.3c0-4-3.3-7.3-7.3-7.3H328.4z"
			/>
	</g>
</g>
</svg>
