<?xml version="1.0" encoding="utf-8"?>
<!-- Generator: Adobe Illustrator 25.0.0, SVG Export Plug-In . SVG Version: 6.00 Build 0)  -->
<svg version="1.1" id="Layer_1" xmlns="http://www.w3.org/2000/svg" xmlns:xlink="http://www.w3.org/1999/xlink" x="0px" y="0px"
	 viewBox="0 0 647 512" style="enable-background:new 0 0 647 512;" xml:space="preserve">
<style type="text/css">
	.st0{fill:#EE6035;}
</style>
<g>
	<path class="st0" d="M76.2,0L76.2,0C11.1,0-23.9,76.5,18.6,125.8l85.2,98.8c15.6,18.1,15.6,44.8,0,62.9l-85.2,98.8
		C-23.9,435.5,11.1,512,76.2,512l0,0c22.1,0,43.2-9.6,57.6-26.4l170.9-198.2c15.6-18.1,15.6-44.8,0-62.9L133.9,26.4
		C119.4,9.6,98.4,0,76.2,0z"/>
	<g>
		<path class="st0" d="M30.3,55.1c-8.5,18.4-5.6,38.6,7.7,54l85.2,98.8c23.7,27.4,23.7,68.8,0,96.3L38,402.9
			c-13.3,15.4-16.1,35.6-7.7,54s25.6,29.5,45.9,29.5c14.7,0,28.6-6.4,38.2-17.5l170.9-198.2c7.2-8.4,7.2-21,0-29.4L114.5,43.1
			C104.9,32,90.9,25.6,76.2,25.6C55.9,25.6,38.8,36.6,30.3,55.1z"/>
	</g>
</g>
<g>
	<path class="st0" d="M399.7,0L399.7,0c-65.1,0-100.2,76.5-57.6,125.8l85.2,98.8c15.6,18.1,15.6,44.8,0,62.9l-85.2,98.8
		c-42.5,49.3-7.5,125.8,57.6,125.8l0,0c22.1,0,43.2-9.6,57.6-26.4l170.9-198.2c15.6-18.1,15.6-44.8,0-62.9L457.4,26.4
		C442.9,9.6,421.9,0,399.7,0z"/>
	<g>
		<path class="st0" d="M353.8,55.1c-8.5,18.4-5.6,38.6,7.7,54l85.2,98.8c23.7,27.4,23.7,68.8,0,96.3l-85.2,98.8
			c-13.3,15.4-16.1,35.6-7.7,54s25.6,29.5,45.9,29.5c14.7,0,28.6-6.4,38.2-17.5l170.9-198.2c7.2-8.4,7.2-21,0-29.4L438,43.1
			c-9.6-11.1-23.5-17.5-38.2-17.5C379.4,25.6,362.3,36.6,353.8,55.1z"/>
	</g>
</g>
</svg>
