<?xml version="1.0" encoding="utf-8"?>
<!-- Generator: Adobe Illustrator 24.3.0, SVG Export Plug-In . SVG Version: 6.00 Build 0)  -->
<svg version="1.1" id="Layer_1" xmlns="http://www.w3.org/2000/svg" xmlns:xlink="http://www.w3.org/1999/xlink" x="0px" y="0px"
	 viewBox="0 0 105 105" style="enable-background:new 0 0 105 105;" xml:space="preserve">
<style type="text/css">
	.st0{fill:#F1F2F2;}
</style>
<path class="st0" d="M51.8,23c-0.2-0.2-0.3-0.5-0.3-0.8c0-0.3,0.1-0.6,0.3-0.8c0.2-0.2,0.5-0.3,0.8-0.3c0.6,0,1.1,0.5,1.1,1.1
	c0,0,0,0,0,0c0,0.6-0.5,1.1-1.1,1.1C52.2,23.3,52,23.2,51.8,23z M80.8,48.4v28.4c0,0.6-0.5,1.1-1.1,1.2H25.4c-0.6,0-1.1-0.5-1.1-1.1
	V49.5c0-0.6,0.5-1.1,1.1-1.1h8.2c0.6,0,1.1,0.5,1.1,1.1s-0.5,1.1-1.1,1.1l0,0h-7.1v25.1h6v-4.9c0-0.6,0.5-1.1,1.1-1.1c0,0,0,0,0,0
	H36V29.3c0-1.2,1-2.2,2.2-2.2h2.2v-4.9c0-0.6,0.5-1.1,1.1-1.1l0,0h6.9c0.6,0,1.1,0.5,1.1,1.1c0,0.6-0.5,1.1-1.1,1.1h-5.8v3.8h19.9
	v-3.8h-5.8c-0.6,0-1.1-0.5-1.1-1.1c0-0.6,0.5-1.1,1.1-1.1c0,0,0,0,0,0h6.9c0.6,0,1.1,0.5,1.1,1.1v4.9h2.2c1.2,0,2.2,1,2.2,2.2v6.9
	l11.4,11.5C80.7,47.9,80.8,48.1,80.8,48.4L80.8,48.4z M58.8,37.8h8.1v-8.4h-8.1V37.8z M58.8,48.4h8.1V40h-8.1V48.4z M58.8,59.1h8.1
	v-8.4h-8.1V59.1z M58.8,69.7h8.1v-8.4h-8.1V69.7z M48.4,37.7h8.1v-8.4h-8.1L48.4,37.7z M48.4,48.4h8.1V40h-8.1L48.4,48.4z M48.4,59
	h8.1v-8.4h-8.1L48.4,59z M48.4,69.7h8.1v-8.4h-8.1L48.4,69.7z M38.1,37.7h8.1v-8.4h-8.1V37.7z M38.1,48.4h8.1V40h-8.1V48.4z
	 M38.1,59h8.1v-8.4h-8.1V59z M38.1,69.7h8.1v-8.4h-8.1V69.7z M70.4,72H34.6v3.8h35.8V72z M78.6,48.9l-9.5-9.5v9.1h3.5
	c0.6,0,1.1,0.5,1.1,1.1s-0.5,1.1-1.1,1.1h-3.5v3.1h3.5c0.6,0,1.1,0.5,1.1,1.1S73.2,56,72.6,56h-3.5v3.1h3.5c0.6,0,1.1,0.5,1.1,1.1
	s-0.5,1.1-1.1,1.1h-3.5v3.1h3.5c0.6,0,1.1,0.5,1.1,1.1s-0.5,1.1-1.1,1.1h-3.5v3.1h2.4c0.6,0,1.1,0.5,1.1,1.1l0,0v4.9h6L78.6,48.9z
	 M30.4,67.2c0.4,0.4,1.1,0.4,1.6,0c0,0,0,0,0,0c0.2-0.2,0.3-0.5,0.3-0.8c0-0.3-0.1-0.6-0.3-0.8c-0.4-0.4-1.1-0.4-1.6,0
	c-0.2,0.2-0.3,0.5-0.3,0.8C30.1,66.7,30.2,67,30.4,67.2z M32.3,62.2v-7.9c0.1-0.6-0.4-1.2-1-1.2c-0.6-0.1-1.2,0.4-1.2,1
	c0,0.1,0,0.1,0,0.2v7.9c-0.1,0.6,0.4,1.2,1,1.2c0.6,0.1,1.2-0.4,1.2-1C32.3,62.3,32.3,62.3,32.3,62.2L32.3,62.2z"/>
</svg>
