<?xml version="1.0" encoding="utf-8"?>
<!-- Generator: Adobe Illustrator 25.4.1, SVG Export Plug-In . SVG Version: 6.00 Build 0)  -->
<svg version="1.1" id="Layer_1" xmlns="http://www.w3.org/2000/svg" xmlns:xlink="http://www.w3.org/1999/xlink" x="0px" y="0px"
	 viewBox="0 0 792 612" style="enable-background:new 0 0 792 612;" xml:space="preserve">
<style type="text/css">
	.st0{fill:#323B45;}
	.st1{enable-background:new    ;}
	.st2{fill:#FFFFFF;}
	.st3{fill:#E3772F;}
	.st4{font-family:'Oswald-SemiBold';}
	.st5{font-size:22px;}
	.st6{fill:#93CBEE;}
</style>
<rect x="253" y="75.5" class="st0" width="361.5" height="40.1"/>
<rect x="253" y="42.6" class="st0" width="140.7" height="40.1"/>
<rect x="253" y="174.2" class="st0" width="167.8" height="40.1"/>
<rect x="253" y="108.4" class="st0" width="314.9" height="40.1"/>
<rect x="187.8" y="270.4" class="st0" width="360.6" height="40.1"/>
<rect x="187.8" y="237.5" class="st0" width="328.9" height="40.1"/>
<rect x="187.8" y="303.3" class="st0" width="254.8" height="40.1"/>
<rect x="157.6" y="398.7" class="st0" width="137.8" height="40.1"/>
<rect x="157.6" y="365.8" class="st0" width="271.3" height="40.1"/>
<rect x="157.6" y="431.6" class="st0" width="204.2" height="40.1"/>
<rect x="448.3" y="399.5" class="st0" width="238.6" height="40.1"/>
<rect x="448.3" y="366.6" class="st0" width="192.9" height="40.1"/>
<rect x="448.3" y="432.4" class="st0" width="129.5" height="40.1"/>
<rect x="253" y="141.3" class="st0" width="361.5" height="40.1"/>
<g class="st1">
	<path class="st2" d="M262.8,54.5h5.9c3.3,0,4.8,1.8,4.8,5.1c0,3.8-2.2,5-5.2,5h-1.7v7.7h-3.8L262.8,54.5L262.8,54.5z M267.9,62
		c1.7,0,2-0.7,2-2.5c0-1.6-0.2-2.5-2.1-2.5h-1.3v5H267.9z"/>
	<path class="st2" d="M277.7,54.5h4.2l3.6,17.8H282l-0.7-3.9h-2.9l-0.7,3.9h-3.5L277.7,54.5z M280.9,66.2l-1.1-7.2l-1.1,7.2H280.9z"
		/>
	<path class="st2" d="M287.1,66.6v-6.4c0-3.7,1.3-6,5.4-6c4,0,5.2,2.1,5.2,5.1v1.5H294v-1.7c0-1.3,0-2.4-1.5-2.4s-1.6,1.2-1.6,2.5
		v8.1c0,1.5,0.3,2.5,1.6,2.5c1.4,0,1.5-1.2,1.5-2.5v-1.7h3.7v1.5c0,3.1-1.1,5.3-5.2,5.3C288.3,72.6,287.1,70.2,287.1,66.6z"/>
	<path class="st2" d="M300,54.5h3.6v15.2h2.5V54.5h3.6v15.2h2.4V54.5h3.6v17.8H300V54.5z"/>
	<path class="st2" d="M318.5,54.5h3v10.7l4.9-10.7h2.5v17.8h-3.1V61.5l-4.9,10.8h-2.4V54.5z"/>
	<path class="st2" d="M331.8,54.5h5.9c3.3,0,4.8,1.8,4.8,5.1c0,3.8-2.2,5-5.2,5h-1.7v7.7h-3.8L331.8,54.5L331.8,54.5z M336.9,62
		c1.7,0,2-0.7,2-2.5c0-1.6-0.2-2.5-2.1-2.5h-1.3v5H336.9z"/>
	<path class="st2" d="M357.7,54.5h3.8v7.3h3.3v-7.3h3.8v17.8h-3.8v-7.9h-3.3v7.9h-3.8V54.5z"/>
	<path class="st2" d="M374,54.5h4.2l3.6,17.8h-3.5l-0.7-3.9h-2.9l-0.7,3.9h-3.5L374,54.5z M377.2,66.2l-1.1-7.2l-1.1,7.2H377.2z"/>
</g>
<g class="st1">
	<path class="st2" d="M263,87.5h4l2.3,11.2l2.4-11.2h3.9l0.3,17.8h-2.7l-0.3-12.1l-2.4,12.1h-2.3l-2.4-12.2l-0.3,12.2h-2.8L263,87.5
		z"/>
	<path class="st2" d="M281.4,87.5h4.2l3.6,17.8h-3.5l-0.7-3.9h-3l-0.7,3.9h-3.5L281.4,87.5z M284.6,99.2l-1.1-7.2l-1.1,7.2H284.6z"
		/>
	<path class="st2" d="M292.4,90.2h-2.9v-2.7h9.5v2.7h-2.8v15.1h-3.8L292.4,90.2L292.4,90.2z"/>
	<path class="st2" d="M300.7,87.5h8.1V90h-4.3v4.7h3.3v2.5h-3.3v5.6h4.4v2.5h-8.1V87.5H300.7z"/>
	<path class="st2" d="M345,54.4h8.1v2.5h-4.3v4.7h3.3v2.5h-3.3v5.6h4.4v2.5h-8.1V54.4H345z"/>
	<path class="st2" d="M310.7,87.5h5.9c3.3,0,4.8,1.8,4.8,5.1c0,3.8-2.2,5-5.2,5h-1.7v7.7h-3.8L310.7,87.5L310.7,87.5z M315.8,95
		c1.7,0,2-0.7,2-2.5c0-1.6-0.2-2.5-2.1-2.5h-1.3v5H315.8z"/>
	<path class="st2" d="M323.4,87.5h3v10.7l4.9-10.7h2.5v17.8h-3.1V94.5l-4.9,10.8h-2.4V87.5z"/>
	<path class="st2" d="M339.3,87.5h4.2l3.6,17.8h-3.5l-0.7-3.9H340l-0.7,3.9h-3.5L339.3,87.5z M342.5,99.2l-1.1-7.2l-1.1,7.2H342.5z"
		/>
	<path class="st2" d="M347.6,102.7c2.4,0,2.5-0.4,3-7l0.6-8.3h9.4v17.8h-3.8v-15h-2.3l-0.4,6.1c-0.5,7-0.7,9.3-6.6,8.9L347.6,102.7
		L347.6,102.7z"/>
	<path class="st2" d="M363.6,87.5h3.8V95h0.9c3.6,0,5.6,1.5,5.6,5.1c0,4.2-2.4,5.2-5.8,5.2h-4.4V87.5H363.6z M368,102.9
		c1.7,0,2.4-0.8,2.3-2.8c0-1.5-0.5-2.6-2.4-2.6h-0.5v5.4H368z"/>
	<path class="st2" d="M376,87.5h3.8v7.3h3.3v-7.3h3.8v17.8h-3.8v-7.9h-3.3v7.9H376V87.5z"/>
	<path class="st2" d="M389.4,99.7v-6.6c0-3.7,1.4-5.8,5.5-5.8s5.5,2.2,5.5,5.8v6.7c0,3.6-1.4,5.8-5.5,5.8S389.4,103.4,389.4,99.7z
		 M396.5,100.6v-8.4c0-1.2-0.2-2.3-1.6-2.3s-1.6,1.1-1.6,2.3v8.4c0,1.2,0.2,2.4,1.6,2.4S396.5,101.8,396.5,100.6z"/>
	<path class="st2" d="M402.9,96.7h5.7v2.2h-5.7V96.7z"/>
	<path class="st2" d="M413.1,90.2h-2.9v-2.7h9.5v2.7h-2.8v15.1h-3.8L413.1,90.2L413.1,90.2z"/>
	<path class="st2" d="M421.4,87.5h8.1V90h-4.3v4.7h3.3v2.5h-3.3v5.6h4.4v2.5h-8.1V87.5H421.4z"/>
	<path class="st2" d="M433.9,95.8l-3.5-8.3h3.6l2.2,5.1l1.8-5.1h3.2l-3.4,9.1l3.7,8.7H438l-2.4-5.6l-2.1,5.6h-3.2L433.9,95.8z"/>
	<path class="st2" d="M443.1,87.5h3.8v7.3h3.3v-7.3h3.8v17.8h-3.8v-7.9h-3.3v7.9h-3.8V87.5z"/>
	<path class="st2" d="M456.8,87.5h3v10.7l4.9-10.7h2.5v17.8h-3.1V94.5l-4.9,10.8h-2.4V87.5z"/>
	<path class="st2" d="M477.1,97.8c-0.9,0.1-1.6,0.2-2.3,0.2c-2.8,0-5.1-1.5-5.1-4.3v-6.2h3.8v6.2c0,1.2,0.3,2,2.3,2
		c0.4,0,0.8,0,1.3-0.1v-8.1h3.8v17.8h-3.8L477.1,97.8L477.1,97.8z"/>
	<path class="st2" d="M483.7,87.5h8.1V90h-4.3v4.7h3.3v2.5h-3.3v5.6h4.4v2.5h-8.1V87.5H483.7z"/>
	<path class="st2" d="M493.4,99.6v-6.4c0-3.7,1.3-6,5.4-6c4,0,5.2,2.1,5.2,5.1v1.5h-3.7v-1.7c0-1.3,0-2.4-1.5-2.4s-1.6,1.2-1.6,2.5
		v8.1c0,1.5,0.3,2.5,1.6,2.5c1.4,0,1.5-1.2,1.5-2.5v-1.7h3.7v1.5c0,3.1-1.1,5.3-5.2,5.3C494.7,105.6,493.4,103.2,493.4,99.6z"/>
	<path class="st2" d="M506.4,87.5h3.8v7.2h0.5l2.9-7.2h3.7l-3.4,8.4l3.6,9.4h-3.9l-2.9-8h-0.5v8h-3.8L506.4,87.5L506.4,87.5z"/>
	<path class="st2" d="M521.8,87.5h4.2l3.6,17.8h-3.5l-0.7-3.9h-2.9l-0.7,3.9h-3.5L521.8,87.5z M525.1,99.2L524,92l-1.1,7.2H525.1z"
		/>
	<path class="st2" d="M533.9,97.4c-1.5-0.8-2.5-2.4-2.5-4.6c0-3.9,2.2-5.2,6.2-5.2h4.6v17.8h-3.8v-7.1h-0.9h-0.3l-2.8,7.1h-4.1
		L533.9,97.4z M538.4,95.6V90h-0.7c-1.8,0-2.7,0.9-2.7,2.8c0,1.7,0.7,2.9,2.8,2.9h0.6V95.6z"/>
	<path class="st2" d="M550.8,87.5h8.9v2.8h-5.2V95h0.8c3.6,0,5.6,1.5,5.6,5.1c0,4.2-2.4,5.2-5.8,5.2h-4.3V87.5z M555.1,102.9
		c1.7,0,2.3-0.8,2.3-2.8c0-1.5-0.5-2.6-2.4-2.6h-0.5v5.4H555.1z"/>
	<path class="st2" d="M565.8,87.5h4.2l3.6,17.8h-3.5l-0.7-3.9h-2.9l-0.7,3.9h-3.5L565.8,87.5z M569,99.2l-1.1-7.2l-1.1,7.2H569z"/>
	<path class="st2" d="M575,100.2v-0.6h3.5c0,0.1,0,0.4,0,0.7c0,1.7,0.3,2.5,1.5,2.5s1.4-0.9,1.4-2.6c0-1.8-0.5-2.8-2.3-2.9h-1V95
		h0.9c1.9,0,2.4-1,2.4-2.8c0-1.4-0.4-2.3-1.6-2.3c-1.1,0-1.5,0.9-1.6,2.2V93h-3.5v-1c0-3.1,2-4.9,5.1-4.9c3.2,0,5.1,1.7,5.1,4.8
		c0,2.1-1,3.6-2.4,3.9c1.3,0.5,2.4,1.7,2.4,4.2c0,3.3-1.3,5.5-5,5.5C576.3,105.6,575,103.5,575,100.2z"/>
	<path class="st2" d="M589.9,87.5h4.2l3.6,17.8h-3.5l-0.7-3.9h-2.9l-0.7,3.9h-3.5L589.9,87.5z M593.1,99.2L592,92l-1.1,7.2H593.1z"
		/>
</g>
<g class="st1">
	<path class="st2" d="M262.8,120.5h3v10.7l4.9-10.7h2.5v17.8h-3.1v-10.8l-4.9,10.8h-2.4V120.5z"/>
	<path class="st2" d="M281.5,132.7v-6.6c0-3.7,1.4-5.8,5.5-5.8s5.5,2.2,5.5,5.8v6.7c0,3.6-1.4,5.8-5.5,5.8S281.5,136.4,281.5,132.7z
		 M288.6,133.6v-8.4c0-1.2-0.2-2.3-1.6-2.3s-1.6,1.1-1.6,2.3v8.4c0,1.2,0.2,2.4,1.6,2.4S288.6,134.8,288.6,133.6z"/>
	<path class="st2" d="M295,120.5h5.9c3.3,0,4.8,1.8,4.8,5.1c0,3.8-2.2,5-5.2,5h-1.7v7.7H295V120.5z M300.1,128c1.7,0,2-0.7,2-2.5
		c0-1.6-0.2-2.5-2.1-2.5h-1.3v5H300.1z"/>
	<path class="st2" d="M307.6,120.5h8.2v2.7h-4.5v15.1h-3.8L307.6,120.5L307.6,120.5z"/>
	<path class="st2" d="M319.8,120.5h4.2l3.6,17.8h-3.5l-0.7-3.9h-2.9l-0.7,3.9h-3.5L319.8,120.5z M323.1,132.2L322,125l-1.1,7.2
		H323.1z"/>
	<path class="st2" d="M329.5,120.5h3.8v7.3h3.3v-7.3h3.8v17.8h-3.8v-7.9h-3.3v7.9h-3.8V120.5z"/>
	<path class="st2" d="M343.2,120.5h3v10.7l4.9-10.7h2.5v17.8h-3.1v-10.8l-4.9,10.8h-2.4V120.5z"/>
	<path class="st2" d="M356,133.2v-0.6h3.5c0,0.1,0,0.4,0,0.7c0,1.7,0.3,2.5,1.5,2.5s1.4-0.9,1.4-2.6c0-1.8-0.5-2.8-2.3-2.9h-1V128
		h0.9c1.9,0,2.4-1,2.4-2.8c0-1.4-0.4-2.3-1.6-2.3c-1.1,0-1.5,0.9-1.6,2.2v0.9h-3.5v-1c0-3.1,2-4.9,5.1-4.9c3.2,0,5.1,1.7,5.1,4.8
		c0,2.1-1,3.6-2.4,3.9c1.3,0.5,2.4,1.7,2.4,4.2c0,3.3-1.3,5.5-5,5.5C357.3,138.6,356,136.5,356,133.2z"/>
	<path class="st2" d="M368,132.7v-6.6c0-3.7,1.4-5.8,5.5-5.8s5.5,2.2,5.5,5.8v6.7c0,3.6-1.4,5.8-5.5,5.8S368,136.4,368,132.7z
		 M375.1,133.6v-8.4c0-1.2-0.2-2.3-1.6-2.3s-1.6,1.1-1.6,2.3v8.4c0,1.2,0.2,2.4,1.6,2.4S375.1,134.8,375.1,133.6z"/>
	<path class="st2" d="M381.4,120.5h4.7c3.2,0,5.7,0.9,5.7,4.6c0,2.2-1,3.3-2.7,3.6c2.2,0.3,3.2,1.8,3.2,4.3c0,3.6-1.9,5.2-5.4,5.2
		h-5.5L381.4,120.5L381.4,120.5z M386.2,127.7c1.9,0,2.4-0.9,2.4-2.5s-0.9-2.2-2.6-2.2h-0.7v4.7H386.2z M386.3,135.8
		c1.9,0,2.5-0.9,2.5-2.8c0-2-0.7-2.9-2.6-2.9h-1v5.6L386.3,135.8L386.3,135.8z"/>
	<path class="st2" d="M397.3,120.5h4.2l3.6,17.8h-3.5l-0.7-3.9H398l-0.7,3.9h-3.5L397.3,120.5z M400.5,132.2l-1.1-7.2l-1.1,7.2
		H400.5z"/>
	<path class="st2" d="M407,120.5h3.8v7.3h3.3v-7.3h3.8v17.8H414v-7.9h-3.3v7.9H407V120.5z"/>
	<path class="st2" d="M420.3,132.7v-6.6c0-3.7,1.4-5.8,5.5-5.8s5.5,2.2,5.5,5.8v6.7c0,3.6-1.4,5.8-5.5,5.8
		C421.7,138.6,420.3,136.4,420.3,132.7z M427.4,133.6v-8.4c0-1.2-0.2-2.3-1.6-2.3s-1.6,1.1-1.6,2.3v8.4c0,1.2,0.2,2.4,1.6,2.4
		C427.2,136,427.4,134.8,427.4,133.6z"/>
</g>
<g class="st1">
	<path class="st3" d="M440.1,120.5h8.1v2.5h-4.3v4.7h3.3v2.5h-3.3v5.6h4.4v2.5h-8.1v-17.8H440.1z"/>
	<path class="st3" d="M452.8,129.3l-3.8-8.8h3.5l3.3,8.4h0.2v-8.4h3v8.4h0.2l3.3-8.4h3.5l-3.8,8.8l4,9h-3.5l-3.5-8.7H459v8.7h-3
		v-8.7h-0.2l-3.5,8.7h-3.4L452.8,129.3z"/>
	<path class="st3" d="M467.7,120.5h8.1v2.5h-4.3v4.7h3.3v2.5h-3.3v5.6h4.4v2.5h-8.1v-17.8H467.7z"/>
	<path class="st3" d="M477.8,120.5h8.2v2.7h-4.5v15.1h-3.8L477.8,120.5L477.8,120.5z"/>
	<path class="st3" d="M487.7,132.7v-6.6c0-3.7,1.4-5.8,5.5-5.8s5.5,2.2,5.5,5.8v6.7c0,3.6-1.4,5.8-5.5,5.8S487.7,136.4,487.7,132.7z
		 M494.8,133.6v-8.4c0-1.2-0.2-2.3-1.6-2.3s-1.6,1.1-1.6,2.3v8.4c0,1.2,0.2,2.4,1.6,2.4C494.6,136,494.8,134.8,494.8,133.6z"/>
	<path class="st3" d="M500.1,135.7h0.6c1.6-0.6,2.8-2.7,3.2-9.2l0.5-6h8.4v15.2h2v6.3h-2.5l-0.2-3.7H503l-0.2,3.7h-2.7L500.1,135.7
		L500.1,135.7z M509.3,135.7v-12.6h-2l-0.2,3.9c-0.4,6.7-1.6,7.7-2.8,8.8h5V135.7z"/>
	<path class="st3" d="M516.8,120.5h3.8v7.3h3.3v-7.3h3.8v17.8h-3.8v-7.9h-3.3v7.9h-3.8V120.5z"/>
	<path class="st3" d="M530.1,132.7v-6.6c0-3.7,1.4-5.8,5.5-5.8s5.5,2.2,5.5,5.8v6.7c0,3.6-1.4,5.8-5.5,5.8S530.1,136.4,530.1,132.7z
		 M537.2,133.6v-8.4c0-1.2-0.2-2.3-1.6-2.3c-1.4,0-1.6,1.1-1.6,2.3v8.4c0,1.2,0.2,2.4,1.6,2.4S537.2,134.8,537.2,133.6z"/>
	<path class="st3" d="M543.6,120.5h8.1v2.5h-4.3v4.7h3.3v2.5h-3.3v5.6h4.4v2.5h-8.1v-17.8H543.6z"/>
</g>
<g class="st1">
	<path class="st3" d="M262.8,153.5h10.9v17.8H270v-15.2h-3.5v15.2h-3.7V153.5z"/>
	<path class="st3" d="M276.2,165.7v-6.6c0-3.7,1.4-5.8,5.5-5.8s5.5,2.2,5.5,5.8v6.7c0,3.6-1.4,5.8-5.5,5.8
		C277.6,171.6,276.2,169.4,276.2,165.7z M283.3,166.6v-8.4c0-1.2-0.2-2.3-1.6-2.3s-1.6,1.1-1.6,2.3v8.4c0,1.2,0.2,2.4,1.6,2.4
		C283.1,169,283.3,167.8,283.3,166.6z"/>
	<path class="st3" d="M288.6,168.7h0.6c1.6-0.6,2.8-2.7,3.2-9.2l0.5-6h8.4v15.2h2v6.3h-2.5l-0.2-3.7h-9.1l-0.2,3.7h-2.7L288.6,168.7
		L288.6,168.7z M297.8,168.7v-12.6h-2l-0.2,3.9c-0.4,6.7-1.6,7.7-2.8,8.8L297.8,168.7L297.8,168.7z"/>
	<path class="st3" d="M306.9,156.2H304v-2.7h9.5v2.7h-2.8v15.1h-3.8L306.9,156.2L306.9,156.2z"/>
	<path class="st3" d="M315.2,153.5h4.7c3.2,0,5.7,0.9,5.7,4.6c0,2.2-1,3.3-2.7,3.6c2.2,0.3,3.2,1.8,3.2,4.3c0,3.6-1.9,5.2-5.4,5.2
		h-5.5L315.2,153.5L315.2,153.5z M319.9,160.7c1.9,0,2.4-0.9,2.4-2.5s-0.9-2.2-2.6-2.2H319v4.7H319.9z M320,168.8
		c1.9,0,2.5-0.9,2.5-2.8c0-2-0.7-2.9-2.6-2.9h-1v5.6L320,168.8L320,168.8z"/>
	<path class="st3" d="M328.4,153.5h8.1v2.5h-4.3v4.7h3.3v2.5h-3.3v5.6h4.4v2.5h-8.1v-17.8H328.4z"/>
	<path class="st3" d="M338.4,153.5h5.9c3.3,0,4.8,1.8,4.8,5.1c0,3.8-2.2,5-5.2,5h-1.7v7.7h-3.8L338.4,153.5L338.4,153.5z M343.5,161
		c1.7,0,2-0.7,2-2.5c0-1.6-0.2-2.5-2.1-2.5h-1.3v5H343.5z"/>
	<path class="st3" d="M353.6,162.3l-3.8-8.8h3.5l3.3,8.4h0.2v-8.4h3v8.4h0.2l3.3-8.4h3.5l-3.8,8.8l4,9h-3.5l-3.5-8.7h-0.2v8.7h-3
		v-8.7h-0.2l-3.5,8.7h-3.4L353.6,162.3z"/>
	<path class="st3" d="M367.5,168.7h0.6c1.6-0.6,2.8-2.7,3.2-9.2l0.5-6h8.4v15.2h2v6.3h-2.5l-0.2-3.7h-9.1l-0.2,3.7h-2.7L367.5,168.7
		L367.5,168.7z M376.6,168.7v-12.6h-2l-0.2,3.9c-0.4,6.7-1.6,7.7-2.8,8.8L376.6,168.7L376.6,168.7z"/>
	<path class="st3" d="M384,153.5h8.1v2.5h-4.3v4.7h3.3v2.5h-3.3v5.6h4.4v2.5H384V153.5z"/>
	<path class="st3" d="M394.1,153.5h3.8v7.3h3.3v-7.3h3.8v17.8h-3.8v-7.9h-3.3v7.9h-3.8V153.5z"/>
	<path class="st3" d="M407.8,153.5h3v10.7l4.9-10.7h2.5v17.8h-3.1v-10.8l-4.9,10.8h-2.4V153.5z"/>
	<path class="st3" d="M421,153.5h8.1v2.5h-4.3v4.7h3.3v2.5h-3.3v5.6h4.4v2.5H421V153.5z"/>
	<path class="st3" d="M436.9,153.5h3.8v7.2h0.5l2.9-7.2h3.7l-3.4,8.4l3.6,9.4h-3.9l-2.9-8h-0.5v8h-3.8L436.9,153.5L436.9,153.5z"/>
	<path class="st3" d="M449.6,153.5h4.7c3.2,0,5.7,0.9,5.7,4.6c0,2.2-1,3.3-2.7,3.6c2.2,0.3,3.2,1.8,3.2,4.3c0,3.6-1.9,5.2-5.4,5.2
		h-5.5L449.6,153.5L449.6,153.5z M454.3,160.7c1.9,0,2.4-0.9,2.4-2.5s-0.9-2.2-2.6-2.2h-0.7v4.7H454.3z M454.4,168.8
		c1.9,0,2.5-0.9,2.5-2.8c0-2-0.7-2.9-2.6-2.9h-1v5.6L454.4,168.8L454.4,168.8z"/>
	<path class="st3" d="M465.4,153.5h4.2l3.6,17.8h-3.5l-0.7-3.9h-2.9l-0.7,3.9h-3.5L465.4,153.5z M468.7,165.2l-1.1-7.2l-1.1,7.2
		H468.7z"/>
	<path class="st3" d="M473.8,168.7c2.4,0,2.5-0.4,3-7l0.6-8.3h9.4v17.8H483v-15.1h-2.3l-0.4,6.1c-0.5,7-0.7,9.3-6.6,8.9L473.8,168.7
		L473.8,168.7z"/>
	<path class="st3" d="M489.8,153.5h3v10.7l4.9-10.7h2.5v17.8h-3.1v-10.8l-4.9,10.8h-2.4V153.5z"/>
	<path class="st3" d="M508.4,169.3c-0.4,0-0.9,0.1-1.3,0.1c-2.6,0-4.5-1.4-4.5-4.4v-5.2c0-2.8,1.9-4.4,4.8-4.4c0.3,0,0.8,0,1,0v-3
		h3.1v3c0.3,0,0.6,0,1,0c2.9,0,4.8,1.7,4.8,4.4v5.2c0,3-1.9,4.4-4.3,4.4c-0.5,0-1,0-1.6-0.1v2.7h-3.1v-2.7H508.4z M508.4,167.1v-9.6
		c-0.2,0-0.4,0-0.6,0c-1.2,0-1.9,0.7-1.9,2.3v5.2c0,1.4,0.5,2.2,1.9,2.2C508.1,167.1,508.3,167.1,508.4,167.1z M514,164.9v-5.3
		c0-1.6-0.6-2.3-1.8-2.3c-0.2,0-0.5,0-0.7,0v9.6c0.2,0,0.4,0,0.5,0C513.5,167.1,514,166.3,514,164.9z"/>
	<path class="st3" d="M519.9,153.5h3v10.7l4.9-10.7h2.5v17.8h-3.1v-10.8l-4.9,10.8h-2.4V153.5z"/>
	<path class="st3" d="M533.2,153.5h3.8v7.2h0.5l2.9-7.2h3.7l-3.4,8.4l3.6,9.4h-3.9l-2.9-8H537v8h-3.8V153.5z"/>
	<path class="st3" d="M548.6,153.5h4.2l3.6,17.8h-3.5l-0.7-3.9h-2.9l-0.7,3.9H545L548.6,153.5z M551.8,165.2l-1.1-7.2l-1.1,7.2
		H551.8z"/>
	<path class="st3" d="M568.5,171.3h-10.2v-17.8h3.8v15.4h3.6v-15.4h3.8v15.4h2.4v6.2H569L568.5,171.3z"/>
	<path class="st3" d="M573.7,153.5h3v10.7l4.9-10.7h2.5v17.8H581v-10.8l-4.9,10.8h-2.4L573.7,153.5L573.7,153.5z"/>
	<path class="st3" d="M586.9,153.5h3v10.7l4.9-10.7h2.5v17.8h-3.1v-10.8l-4.9,10.8h-2.4V153.5z"/>
</g>
<g class="st1">
	<path class="st2" d="M262.5,198.6v-6.4c0-3.7,1.3-6,5.4-6c4,0,5.2,2.1,5.2,5.1v1.5h-3.7v-1.7c0-1.3,0-2.4-1.5-2.4s-1.6,1.2-1.6,2.5
		v8.1c0,1.5,0.3,2.5,1.6,2.5c1.4,0,1.5-1.2,1.5-2.5v-1.7h3.7v1.5c0,3.1-1.1,5.3-5.2,5.3C263.8,204.6,262.5,202.2,262.5,198.6z"/>
	<path class="st2" d="M275.2,198.7v-6.6c0-3.7,1.4-5.8,5.5-5.8s5.5,2.2,5.5,5.8v6.7c0,3.6-1.4,5.8-5.5,5.8
		C276.5,204.6,275.2,202.4,275.2,198.7z M282.3,199.6v-8.4c0-1.2-0.2-2.3-1.6-2.3s-1.6,1.1-1.6,2.3v8.4c0,1.2,0.2,2.4,1.6,2.4
		C282,202,282.3,200.8,282.3,199.6z"/>
	<path class="st2" d="M290.4,189.2h-2.9v-2.7h9.5v2.7h-2.8v15.1h-3.8L290.4,189.2L290.4,189.2z"/>
	<path class="st2" d="M298.6,186.5h5.9c3.3,0,4.8,1.8,4.8,5.1c0,3.8-2.2,5-5.2,5h-1.7v7.7h-3.8L298.6,186.5L298.6,186.5z M303.7,194
		c1.7,0,2-0.7,2-2.5c0-1.6-0.2-2.5-2.1-2.5h-1.3v5H303.7z"/>
	<path class="st2" d="M311.1,205.2c2.7,0.1,3.8-0.5,3.3-2.7l-4.1-16h3.5l1.6,7.4l0.8,5l0.6-5l1.3-7.4h3.6L318,203
		c-0.9,3.9-1.9,4.8-7,4.7v-2.5H311.1z"/>
	<path class="st2" d="M321.2,201.7h0.6c1.6-0.6,2.8-2.7,3.2-9.2l0.5-6h8.4v15.2h2v6.3h-2.5l-0.2-3.7h-9.1l-0.2,3.7h-2.7L321.2,201.7
		L321.2,201.7z M330.4,201.7v-12.6h-2l-0.2,3.9c-0.4,6.7-1.6,7.7-2.8,8.8L330.4,201.7L330.4,201.7z"/>
	<path class="st2" d="M337.8,186.5h3.8v7.3h3.3v-7.3h3.8v17.8h-3.8v-7.9h-3.3v7.9h-3.8V186.5z"/>
	<path class="st2" d="M351.5,186.5h3v10.7l4.9-10.7h2.5v17.8h-3.1v-10.8l-4.9,10.8h-2.4V186.5z"/>
	<path class="st2" d="M364.8,186.5h3.8v7.2h0.5l2.9-7.2h3.7l-3.4,8.4l3.6,9.4H372l-2.9-8h-0.5v8h-3.8L364.8,186.5L364.8,186.5z"/>
	<path class="st2" d="M377.3,198.7v-6.6c0-3.7,1.4-5.8,5.5-5.8s5.5,2.2,5.5,5.8v6.7c0,3.6-1.4,5.8-5.5,5.8
		C378.6,204.6,377.3,202.4,377.3,198.7z M384.4,199.6v-8.4c0-1.2-0.2-2.3-1.6-2.3s-1.6,1.1-1.6,2.3v8.4c0,1.2,0.2,2.4,1.6,2.4
		C384.2,202,384.4,200.8,384.4,199.6z"/>
	<path class="st2" d="M390.7,186.5h4.7c3.2,0,5.7,0.9,5.7,4.6c0,2.2-1,3.3-2.7,3.6c2.2,0.3,3.2,1.8,3.2,4.3c0,3.6-1.9,5.2-5.4,5.2
		h-5.5L390.7,186.5L390.7,186.5z M395.4,193.7c1.9,0,2.4-0.9,2.4-2.5s-0.9-2.2-2.6-2.2h-0.7v4.7H395.4z M395.6,201.8
		c1.9,0,2.5-0.9,2.5-2.8c0-2-0.7-2.9-2.6-2.9h-1v5.6L395.6,201.8L395.6,201.8z"/>
	<path class="st2" d="M403.6,201.1h3.3v3.2h-3.3V201.1z"/>
</g>
<g class="st1">
	<path class="st3" d="M197.4,249.6h10.9v17.8h-3.7v-15.2h-3.5v15.2h-3.7V249.6z"/>
	<path class="st3" d="M210.8,261.8v-6.6c0-3.7,1.4-5.8,5.5-5.8s5.5,2.2,5.5,5.8v6.7c0,3.6-1.4,5.8-5.5,5.8
		C212.2,267.6,210.8,265.4,210.8,261.8z M217.9,262.7v-8.4c0-1.2-0.2-2.3-1.6-2.3s-1.6,1.1-1.6,2.3v8.4c0,1.2,0.2,2.4,1.6,2.4
		C217.7,265,217.9,263.9,217.9,262.7z"/>
	<path class="st3" d="M223.2,264.8h0.6c1.6-0.6,2.8-2.7,3.2-9.2l0.5-6h8.4v15.2h2v6.3h-2.5l-0.2-3.7h-9.1l-0.2,3.7h-2.7V264.8z
		 M232.4,264.8v-12.6h-2l-0.2,3.9c-0.4,6.7-1.6,7.7-2.8,8.8L232.4,264.8L232.4,264.8z"/>
	<path class="st3" d="M241.6,252.3h-2.9v-2.7h9.5v2.7h-2.8v15.1h-3.8V252.3z"/>
	<path class="st3" d="M249.8,249.6h4.7c3.2,0,5.7,0.9,5.7,4.6c0,2.2-1,3.3-2.7,3.6c2.2,0.3,3.2,1.8,3.2,4.3c0,3.6-1.9,5.2-5.4,5.2
		h-5.5L249.8,249.6L249.8,249.6z M254.5,256.8c1.9,0,2.4-0.9,2.4-2.5s-0.9-2.2-2.6-2.2h-0.7v4.7H254.5z M254.7,264.8
		c1.9,0,2.5-0.9,2.5-2.8c0-2-0.7-2.9-2.6-2.9h-1v5.6L254.7,264.8L254.7,264.8z"/>
	<path class="st3" d="M263,249.6h8.1v2.5h-4.3v4.7h3.3v2.5h-3.3v5.6h4.4v2.5H263V249.6z"/>
	<path class="st3" d="M273,249.6h5.9c3.3,0,4.8,1.8,4.8,5.1c0,3.8-2.2,5-5.2,5h-1.7v7.7H273V249.6z M278.1,257.1c1.7,0,2-0.7,2-2.5
		c0-1.6-0.2-2.5-2.1-2.5h-1.3v5H278.1z"/>
	<path class="st3" d="M288.2,258.4l-3.8-8.8h3.5l3.3,8.4h0.2v-8.4h3v8.4h0.2l3.3-8.4h3.5l-3.8,8.8l4,9h-3.5l-3.5-8.7h-0.2v8.7h-3
		v-8.7h-0.2l-3.5,8.7h-3.4L288.2,258.4z"/>
	<path class="st3" d="M302.1,264.8h0.6c1.6-0.6,2.8-2.7,3.2-9.2l0.5-6h8.4v15.2h2v6.3h-2.5l-0.2-3.7H305l-0.2,3.7h-2.7L302.1,264.8
		L302.1,264.8z M311.2,264.8v-12.6h-2l-0.2,3.9c-0.4,6.7-1.6,7.7-2.8,8.8L311.2,264.8L311.2,264.8z"/>
	<path class="st3" d="M318.7,249.6h8.1v2.5h-4.3v4.7h3.3v2.5h-3.3v5.6h4.4v2.5h-8.1v-17.8H318.7z"/>
	<path class="st3" d="M328.7,249.6h3.8v7.3h3.3v-7.3h3.8v17.8h-3.8v-7.9h-3.3v7.9h-3.8V249.6z"/>
	<path class="st3" d="M345.1,249.6h4.2l3.6,17.8h-3.5l-0.7-3.9h-2.9l-0.7,3.9h-3.5L345.1,249.6z M348.3,261.2l-1.1-7.2l-1.1,7.2
		H348.3z"/>
	<path class="st3" d="M360.5,249.6h3.8v7.2h0.5l2.9-7.2h3.7L368,258l3.6,9.4h-3.9l-2.9-8h-0.5v8h-3.8L360.5,249.6L360.5,249.6z"/>
	<path class="st3" d="M373,261.8v-6.6c0-3.7,1.4-5.8,5.5-5.8s5.5,2.2,5.5,5.8v6.7c0,3.6-1.4,5.8-5.5,5.8
		C374.3,267.6,373,265.4,373,261.8z M380,262.7v-8.4c0-1.2-0.2-2.3-1.6-2.3s-1.6,1.1-1.6,2.3v8.4c0,1.2,0.2,2.4,1.6,2.4
		C379.8,265,380,263.9,380,262.7z"/>
	<path class="st3" d="M386.7,249.6h4l2.3,11.2l2.4-11.2h3.9l0.3,17.8h-2.7l-0.3-12.1l-2.4,12.1h-2.3l-2.4-12.2l-0.3,12.2h-2.8
		L386.7,249.6z"/>
	<path class="st3" d="M402.3,249.6h10.9v17.8h-3.7v-15.2H406v15.2h-3.7V249.6z"/>
	<path class="st3" d="M416,249.6h8.1v2.5h-4.3v4.7h3.3v2.5h-3.3v5.6h4.4v2.5H416V249.6z"/>
	<path class="st3" d="M427.8,252.3h-2.9v-2.7h9.5v2.7h-2.8v15.1h-3.8L427.8,252.3L427.8,252.3z"/>
	<path class="st3" d="M436.1,249.6h8.1v2.5h-4.3v4.7h3.3v2.5h-3.3v5.6h4.4v2.5h-8.1v-17.8H436.1z"/>
	<path class="st3" d="M446.1,249.6h3.8v7.3h3.3v-7.3h3.8v17.8h-3.8v-7.9h-3.3v7.9h-3.8V249.6z"/>
	<path class="st3" d="M470.1,267.4h-10.2v-17.8h3.8V265h3.6v-15.4h3.8V265h2.4v6.2h-2.8L470.1,267.4z"/>
	<path class="st3" d="M475.2,249.6h3v10.7l4.9-10.7h2.5v17.8h-3.1v-10.8l-4.9,10.8h-2.4V249.6z"/>
	<path class="st3" d="M490.9,259.4c-1.5-0.8-2.5-2.4-2.5-4.6c0-3.9,2.2-5.2,6.2-5.2h4.6v17.8h-3.8v-7.1h-0.9h-0.3l-2.8,7.1h-4.1
		L490.9,259.4z M495.4,257.7v-5.6h-0.7c-1.8,0-2.7,0.9-2.7,2.8c0,1.7,0.7,2.9,2.8,2.9h0.6V257.7z"/>
</g>
<g class="st1">
	<path class="st2" d="M200.1,282.6h4.2l3.6,17.8h-3.5l-0.7-3.9h-2.9l-0.7,3.9h-3.5L200.1,282.6z M203.3,294.2l-1.1-7.2l-1.1,7.2
		H203.3z"/>
	<path class="st2" d="M209.8,282.6h3.8v7.2h0.5l2.9-7.2h3.7l-3.4,8.4l3.6,9.4H217l-2.9-8h-0.5v8h-3.8V282.6z"/>
	<path class="st2" d="M222.6,282.6h3.8v7.2h0.5l2.9-7.2h3.7L230,291l3.6,9.4h-3.9l-2.9-8h-0.5v8h-3.8L222.6,282.6L222.6,282.6z"/>
	<path class="st2" d="M235.3,282.6h5.9c3.3,0,4.8,1.8,4.8,5.1c0,3.8-2.2,5-5.2,5h-1.7v7.7h-3.8V282.6z M240.4,290.1
		c1.7,0,2-0.7,2-2.5c0-1.6-0.2-2.5-2.1-2.5H239v5H240.4z"/>
	<path class="st2" d="M247.9,282.6h8.1v2.5h-4.3v4.7h3.3v2.5h-3.3v5.6h4.4v2.5H248v-17.8H247.9z"/>
	<path class="st2" d="M256.9,297.8h0.6c1.6-0.6,2.8-2.7,3.2-9.2l0.5-6h8.4v15.2h2v6.3h-2.5l-0.2-3.7h-9.1l-0.2,3.7h-2.7L256.9,297.8
		L256.9,297.8z M266.1,297.8v-12.6h-2l-0.2,3.9c-0.4,6.7-1.6,7.7-2.8,8.8L266.1,297.8L266.1,297.8z"/>
	<path class="st2" d="M273.5,282.6h3v10.7l4.9-10.7h2.5v17.8h-3.1v-10.8l-4.9,10.8h-2.4V282.6z"/>
	<path class="st2" d="M288.5,285.3h-2.9v-2.7h9.5v2.7h-2.8v15.1h-3.8L288.5,285.3L288.5,285.3z"/>
	<path class="st2" d="M296.5,294.8v-6.6c0-3.7,1.4-5.8,5.5-5.8s5.5,2.2,5.5,5.8v6.7c0,3.6-1.4,5.8-5.5,5.8
		C297.9,300.6,296.5,298.4,296.5,294.8z M303.6,295.7v-8.4c0-1.2-0.2-2.3-1.6-2.3s-1.6,1.1-1.6,2.3v8.4c0,1.2,0.2,2.4,1.6,2.4
		C303.4,298,303.6,296.9,303.6,295.7z"/>
	<path class="st2" d="M310,282.6h4.7c3.2,0,5.7,0.9,5.7,4.6c0,2.2-1,3.3-2.7,3.6c2.2,0.3,3.2,1.8,3.2,4.3c0,3.6-1.9,5.2-5.4,5.2H310
		V282.6z M314.7,289.8c1.9,0,2.4-0.9,2.4-2.5s-0.9-2.2-2.6-2.2h-0.7v4.7H314.7z M314.8,297.8c1.9,0,2.5-0.9,2.5-2.8
		c0-2-0.7-2.9-2.6-2.9h-1v5.6L314.8,297.8L314.8,297.8z"/>
	<path class="st2" d="M325.8,282.6h4.2l3.6,17.8h-3.5l-0.7-3.9h-2.9l-0.7,3.9h-3.5L325.8,282.6z M329,294.2l-1.1-7.2l-1.1,7.2H329z"
		/>
	<path class="st2" d="M335.5,282.6h3.8v7.3h3.3v-7.3h3.8v17.8h-3.8v-7.9h-3.3v7.9h-3.8V282.6z"/>
	<path class="st2" d="M349.2,282.6h3.8v7.3h3.3v-7.3h3.8v17.8h-3.8v-7.9H353v7.9h-3.8V282.6z"/>
	<path class="st2" d="M362.6,294.8v-6.6c0-3.7,1.4-5.8,5.5-5.8s5.5,2.2,5.5,5.8v6.7c0,3.6-1.4,5.8-5.5,5.8
		C363.9,300.6,362.6,298.4,362.6,294.8z M369.7,295.7v-8.4c0-1.2-0.2-2.3-1.6-2.3s-1.6,1.1-1.6,2.3v8.4c0,1.2,0.2,2.4,1.6,2.4
		C369.4,298,369.7,296.9,369.7,295.7z"/>
	<path class="st2" d="M376.1,282.6h3v10.7l4.9-10.7h2.5v17.8h-3.1v-10.8l-4.9,10.8h-2.4V282.6z M378.1,277.8h2
		c0,1.1,0.4,1.6,1.5,1.6s1.5-0.5,1.5-1.6h1.9c0,2.1-1.3,3.3-3.5,3.3S378.1,279.9,378.1,277.8z"/>
	<path class="st2" d="M393.7,297.8c2.4,0,2.5-0.4,3-7l0.6-8.3h9.4v17.8H403v-15.1h-2.3l-0.4,6.1c-0.5,7-0.7,9.3-6.6,8.9V297.8z"/>
	<path class="st2" d="M412.3,282.6h4.2l3.6,17.8h-3.5l-0.7-3.9H413l-0.7,3.9h-3.5L412.3,282.6z M415.6,294.2l-1.1-7.2l-1.1,7.2
		H415.6z"/>
	<path class="st2" d="M422,282.6h8.9v2.8h-5.2v4.8h0.8c3.6,0,5.6,1.5,5.6,5.1c0,4.2-2.4,5.2-5.8,5.2H422V282.6z M426.3,298
		c1.7,0,2.3-0.8,2.3-2.8c0-1.5-0.5-2.6-2.4-2.6h-0.5v5.4H426.3z"/>
	<path class="st2" d="M434.1,294.8v-6.6c0-3.7,1.4-5.8,5.5-5.8s5.5,2.2,5.5,5.8v6.7c0,3.6-1.4,5.8-5.5,5.8
		C435.4,300.6,434.1,298.4,434.1,294.8z M441.2,295.7v-8.4c0-1.2-0.2-2.3-1.6-2.3s-1.6,1.1-1.6,2.3v8.4c0,1.2,0.2,2.4,1.6,2.4
		C440.9,298,441.2,296.9,441.2,295.7z"/>
	<path class="st2" d="M447.5,282.6h5.9c3.3,0,4.8,1.8,4.8,5.1c0,3.8-2.2,5-5.2,5h-1.7v7.7h-3.8L447.5,282.6L447.5,282.6z
		 M452.6,290.1c1.7,0,2-0.7,2-2.5c0-1.6-0.2-2.5-2.1-2.5h-1.3v5H452.6z"/>
	<path class="st2" d="M462.4,282.6h4.2l3.6,17.8h-3.5l-0.7-3.9h-2.9l-0.7,3.9h-3.5L462.4,282.6z M465.7,294.2l-1.1-7.2l-1.1,7.2
		H465.7z"/>
	<path class="st2" d="M473.5,285.3h-2.9v-2.7h9.5v2.7h-2.8v15.1h-3.8L473.5,285.3L473.5,285.3z"/>
	<path class="st2" d="M481.5,294.8v-6.6c0-3.7,1.4-5.8,5.5-5.8s5.5,2.2,5.5,5.8v6.7c0,3.6-1.4,5.8-5.5,5.8
		C482.8,300.6,481.5,298.4,481.5,294.8z M488.6,295.7v-8.4c0-1.2-0.2-2.3-1.6-2.3s-1.6,1.1-1.6,2.3v8.4c0,1.2,0.2,2.4,1.6,2.4
		C488.4,298,488.6,296.9,488.6,295.7z"/>
	<path class="st2" d="M494.9,282.6h5.9c3.3,0,4.8,1.8,4.8,5.1c0,3.8-2.2,5-5.2,5h-1.7v7.7h-3.8L494.9,282.6L494.9,282.6z M500,290.1
		c1.7,0,2-0.7,2-2.5c0-1.6-0.2-2.5-2.1-2.5h-1.3v5H500z"/>
	<path class="st2" d="M507.6,282.6h3v10.7l4.9-10.7h2.5v17.8h-3.1v-10.8l-4.9,10.8h-2.4L507.6,282.6L507.6,282.6z"/>
	<path class="st2" d="M520.8,282.6h3v10.7l4.9-10.7h2.5v17.8h-3.1v-10.8l-4.9,10.8h-2.4V282.6z"/>
</g>
<g class="st1">
	<path class="st2" d="M197.2,334.3c2.7,0.1,3.8-0.5,3.3-2.7l-4.1-16h3.5l1.6,7.4l0.8,5l0.6-5l1.3-7.4h3.6l-3.8,16.5
		c-0.9,3.9-1.9,4.8-7,4.7v-2.5H197.2z"/>
	<path class="st2" d="M215.4,315.6h3.8v7.3h3.3v-7.3h3.8v17.8h-3.8v-7.9h-3.3v7.9h-3.8V315.6z"/>
	<path class="st2" d="M231.7,315.6h4.2l3.6,17.8H236l-0.7-3.9h-2.9l-0.7,3.9h-3.5L231.7,315.6z M234.9,327.2l-1.1-7.2l-1.1,7.2
		H234.9z"/>
	<path class="st2" d="M240.3,330.8h0.6c1.6-0.6,2.8-2.7,3.2-9.2l0.5-6h8.4v15.2h2v6.3h-2.5l-0.2-3.7h-9.1l-0.2,3.7h-2.7V330.8z
		 M249.4,330.8v-12.6h-2l-0.2,3.9c-0.4,6.7-1.6,7.7-2.8,8.8L249.4,330.8L249.4,330.8z"/>
	<path class="st2" d="M256.4,328.3v-0.6h3.5c0,0.1,0,0.4,0,0.7c0,1.7,0.3,2.5,1.5,2.5s1.4-0.9,1.4-2.6c0-1.8-0.5-2.8-2.3-2.9h-1
		v-2.3h0.9c1.9,0,2.4-1,2.4-2.8c0-1.4-0.4-2.3-1.6-2.3c-1.1,0-1.5,0.9-1.6,2.2v0.9h-3.5v-1c0-3.1,2-4.9,5.1-4.9
		c3.2,0,5.1,1.7,5.1,4.8c0,2.1-1,3.6-2.4,3.9c1.3,0.5,2.4,1.7,2.4,4.2c0,3.3-1.3,5.5-5,5.5C257.7,333.7,256.4,331.5,256.4,328.3z"/>
	<path class="st2" d="M268.4,327.8v-6.6c0-3.7,1.4-5.8,5.5-5.8s5.5,2.2,5.5,5.8v6.7c0,3.6-1.4,5.8-5.5,5.8
		C269.8,333.6,268.4,331.4,268.4,327.8z M275.5,328.7v-8.4c0-1.2-0.2-2.3-1.6-2.3s-1.6,1.1-1.6,2.3v8.4c0,1.2,0.2,2.4,1.6,2.4
		C275.3,331,275.5,329.9,275.5,328.7z"/>
	<path class="st2" d="M281.8,315.6h5.9c3.3,0,4.8,1.8,4.8,5.1c0,3.8-2.2,5-5.2,5h-1.7v7.7h-3.8L281.8,315.6L281.8,315.6z
		 M286.9,323.1c1.7,0,2-0.7,2-2.5c0-1.6-0.2-2.5-2.1-2.5h-1.3v5H286.9z"/>
	<path class="st2" d="M294.5,315.6h3.8v7.3h3.3v-7.3h3.8v17.8h-3.8v-7.9h-3.3v7.9h-3.8V315.6z"/>
	<path class="st2" d="M307.9,327.8v-6.6c0-3.7,1.4-5.8,5.5-5.8s5.5,2.2,5.5,5.8v6.7c0,3.6-1.4,5.8-5.5,5.8
		C309.3,333.6,307.9,331.4,307.9,327.8z M315,328.7v-8.4c0-1.2-0.2-2.3-1.6-2.3s-1.6,1.1-1.6,2.3v8.4c0,1.2,0.2,2.4,1.6,2.4
		C314.8,331,315,329.9,315,328.7z"/>
	<path class="st2" d="M321.4,315.6h8.2v2.7h-4.5v15.1h-3.8L321.4,315.6L321.4,315.6z"/>
	<path class="st2" d="M331.3,327.8v-6.6c0-3.7,1.4-5.8,5.5-5.8s5.5,2.2,5.5,5.8v6.7c0,3.6-1.4,5.8-5.5,5.8
		C332.6,333.6,331.3,331.4,331.3,327.8z M338.4,328.7v-8.4c0-1.2-0.2-2.3-1.6-2.3s-1.6,1.1-1.6,2.3v8.4c0,1.2,0.2,2.4,1.6,2.4
		C338.1,331,338.4,329.9,338.4,328.7z"/>
	<path class="st2" d="M350.2,327.8v-6.6c0-3.7,1.4-5.8,5.5-5.8s5.5,2.2,5.5,5.8v6.7c0,3.6-1.4,5.8-5.5,5.8
		C351.5,333.6,350.2,331.4,350.2,327.8z M357.3,328.7v-8.4c0-1.2-0.2-2.3-1.6-2.3s-1.6,1.1-1.6,2.3v8.4c0,1.2,0.2,2.4,1.6,2.4
		C357,331,357.3,329.9,357.3,328.7z"/>
	<path class="st2" d="M363.6,315.6h5.9c3.3,0,4.8,1.8,4.8,5.1c0,3.8-2.2,5-5.2,5h-1.7v7.7h-3.8L363.6,315.6L363.6,315.6z
		 M368.7,323.1c1.7,0,2-0.7,2-2.5c0-1.6-0.2-2.5-2.1-2.5h-1.3v5H368.7z"/>
	<path class="st2" d="M376.3,315.6h8.2v2.7H380v15.1h-3.8L376.3,315.6L376.3,315.6z"/>
	<path class="st2" d="M388.5,315.6h4.2l3.6,17.8h-3.5l-0.7-3.9h-2.9l-0.7,3.9H385L388.5,315.6z M391.7,327.2l-1.1-7.2l-1.1,7.2
		H391.7z"/>
	<path class="st2" d="M398.2,315.6h3.8v7.3h3.3v-7.3h3.8v17.8h-3.8v-7.9H402v7.9h-3.8V315.6z"/>
	<path class="st2" d="M414.5,315.6h4.2l3.6,17.8h-3.5l-0.7-3.9h-2.9l-0.7,3.9H411L414.5,315.6z M417.7,327.2l-1.1-7.2l-1.1,7.2
		H417.7z"/>
	<path class="st2" d="M423.8,330.2h3.3v3.2h-3.3V330.2z"/>
</g>
<g class="st1">
	<path class="st3" d="M168.5,390.5v-6.6c0-3.7,1.4-5.8,5.5-5.8s5.5,2.2,5.5,5.8v6.7c0,3.6-1.4,5.8-5.5,5.8S168.5,394.2,168.5,390.5z
		 M175.6,391.4V383c0-1.2-0.2-2.3-1.6-2.3s-1.6,1.1-1.6,2.3v8.4c0,1.2,0.2,2.4,1.6,2.4C175.4,393.8,175.6,392.6,175.6,391.4z"/>
	<path class="st3" d="M182,378.3h8.9v2.8h-5.2v4.8h0.8c3.6,0,5.6,1.5,5.6,5.1c0,4.2-2.4,5.2-5.8,5.2H182V378.3z M186.4,393.7
		c1.7,0,2.3-0.8,2.3-2.8c0-1.5-0.5-2.6-2.4-2.6h-0.5v5.4H186.4z"/>
	<path class="st3" d="M193.1,393.6c2.4,0,2.5-0.4,3-7l0.6-8.3h9.4v17.8h-3.8V381H200l-0.4,6.1c-0.5,7-0.7,9.3-6.6,8.9v-2.4H193.1z"
		/>
	<path class="st3" d="M211.7,378.3h4.2l3.6,17.8H216l-0.7-3.9h-2.9l-0.7,3.9h-3.5L211.7,378.3z M214.9,390l-1.1-7.2l-1.1,7.2H214.9z
		"/>
	<path class="st3" d="M221,390.4V384c0-3.7,1.3-6,5.4-6c4,0,5.2,2.1,5.2,5.1v1.5H228v-1.7c0-1.3,0-2.4-1.5-2.4s-1.6,1.2-1.6,2.5v8.1
		c0,1.5,0.3,2.5,1.6,2.5c1.4,0,1.5-1.2,1.5-2.5v-1.7h3.7v1.5c0,3.1-1.1,5.3-5.2,5.3C222.3,396.4,221,394,221,390.4z"/>
	<path class="st3" d="M235.7,381h-2.9v-2.7h9.5v2.7h-2.8v15.1h-3.8V381z"/>
	<path class="st3" d="M244,378.3h3.8v7.5h0.9c3.6,0,5.6,1.5,5.6,5.1c0,4.2-2.4,5.2-5.8,5.2H244V378.3z M248.4,393.7
		c1.7,0,2.4-0.8,2.3-2.8c0-1.5-0.5-2.6-2.4-2.6h-0.5v5.4H248.4z"/>
	<path class="st3" d="M264.8,378.3h4.2l3.6,17.8h-3.5l-0.7-3.9h-2.9l-0.7,3.9h-3.5L264.8,378.3z M268,390l-1.1-7.2l-1.1,7.2H268z"/>
	<path class="st3" d="M274.5,378.3h3.8v7.2h0.5l2.9-7.2h3.7l-3.4,8.4l3.6,9.4h-3.9l-2.9-8h-0.5v8h-3.8L274.5,378.3L274.5,378.3z"/>
	<path class="st3" d="M287.3,378.3h3.8v7.2h0.5l2.9-7.2h3.7l-3.4,8.4l3.6,9.4h-3.9l-2.9-8H291v8h-3.8L287.3,378.3L287.3,378.3z"/>
	<path class="st3" d="M300,378.3h5.9c3.3,0,4.8,1.8,4.8,5.1c0,3.8-2.2,5-5.2,5h-1.7v7.7H300V378.3z M305.1,385.9c1.7,0,2-0.7,2-2.5
		c0-1.6-0.2-2.5-2.1-2.5h-1.3v5H305.1z"/>
	<path class="st3" d="M312.6,378.3h8.1v2.5h-4.3v4.7h3.3v2.5h-3.3v5.6h4.4v2.5h-8.1v-17.8H312.6z"/>
	<path class="st3" d="M321.6,393.5h0.6c1.6-0.6,2.8-2.7,3.2-9.2l0.5-6h8.4v15.2h2v6.3h-2.5l-0.2-3.7h-9.1l-0.2,3.7h-2.7L321.6,393.5
		L321.6,393.5z M330.8,393.5v-12.6h-2l-0.2,3.9c-0.4,6.7-1.6,7.7-2.8,8.8L330.8,393.5L330.8,393.5z"/>
	<path class="st3" d="M338.2,378.3h3V389l4.9-10.7h2.5v17.8h-3.1v-10.8l-4.9,10.8h-2.4V378.3z"/>
	<path class="st3" d="M353.2,381h-2.9v-2.7h9.5v2.7H357v15.1h-3.8V381z"/>
	<path class="st3" d="M364.2,378.3h4.2l3.6,17.8h-3.5l-0.7-3.9h-2.9l-0.7,3.9h-3.5L364.2,378.3z M367.4,390l-1.1-7.2l-1.1,7.2H367.4
		z"/>
	<path class="st3" d="M384.1,396.1h-10.2v-17.8h3.8v15.4h3.6v-15.4h3.8v15.4h2.4v6.2h-2.8L384.1,396.1z"/>
	<path class="st3" d="M389.2,378.3h3V389l4.9-10.7h2.5v17.8h-3.1v-10.8l-4.9,10.8h-2.4V378.3z"/>
	<path class="st3" d="M402.5,378.3h3V389l4.9-10.7h2.5v17.8h-3.1v-10.8l-4.9,10.8h-2.4V378.3z"/>
</g>
<g class="st1">
	<path class="st3" d="M168.8,411.3h5.9c3.3,0,4.8,1.8,4.8,5.1c0,3.8-2.2,5-5.2,5h-1.7v7.7h-3.8V411.3z M173.9,418.9
		c1.7,0,2-0.7,2-2.5c0-1.6-0.2-2.5-2.1-2.5h-1.3v5H173.9z"/>
	<path class="st3" d="M183.7,411.3h4.2l3.6,17.8H188l-0.7-3.9h-2.9l-0.7,3.9h-3.5L183.7,411.3z M186.9,423l-1.1-7.2l-1.1,7.2H186.9z
		"/>
	<path class="st3" d="M193.1,423.4V417c0-3.7,1.3-6,5.4-6c4,0,5.2,2.1,5.2,5.1v1.5H200v-1.7c0-1.3,0-2.4-1.5-2.4s-1.6,1.2-1.6,2.5
		v8.1c0,1.5,0.3,2.5,1.6,2.5c1.4,0,1.5-1.2,1.5-2.5v-1.7h3.7v1.5c0,3.1-1.1,5.3-5.2,5.3C194.3,429.4,193.1,427,193.1,423.4z"/>
	<path class="st3" d="M206,411.3h3.6v15.2h2.5v-15.2h3.6v15.2h2.4v-15.2h3.6v17.8H206V411.3z"/>
	<path class="st3" d="M224.6,411.3h3V422l4.9-10.7h2.5v17.8h-3.1v-10.8l-4.9,10.8h-2.4V411.3z"/>
	<path class="st3" d="M237.8,411.3h5.9c3.3,0,4.8,1.8,4.8,5.1c0,3.8-2.2,5-5.2,5h-1.7v7.7h-3.8V411.3z M242.9,418.9
		c1.7,0,2-0.7,2-2.5c0-1.6-0.2-2.5-2.1-2.5h-1.3v5H242.9z"/>
	<path class="st3" d="M250.4,411.3h8.1v2.5h-4.3v4.7h3.3v2.5h-3.3v5.6h4.4v2.5h-8.1v-17.8H250.4z"/>
	<path class="st3" d="M260.5,411.3h3.8v7.3h3.3v-7.3h3.8v17.8h-3.8v-7.9h-3.3v7.9h-3.8V411.3z"/>
	<path class="st3" d="M276.8,411.3h4.2l3.6,17.8h-3.5l-0.7-3.9h-2.9l-0.7,3.9h-3.5L276.8,411.3z M280,423l-1.1-7.2l-1.1,7.2H280z"/>
</g>
<g class="st1">
	<path class="st3" d="M168.8,444.3h3.8v7.3h3.3v-7.3h3.8v17.8h-3.8v-7.9h-3.3v7.9h-3.8V444.3z"/>
	<path class="st3" d="M185.2,444.3h4.2l3.6,17.8h-3.5l-0.7-3.9h-2.9l-0.7,3.9h-3.5L185.2,444.3z M188.4,456l-1.1-7.2l-1.1,7.2H188.4
		z"/>
	<path class="st3" d="M202.4,447.8c-0.5,0.3-2.1,0.7-2.7,1v-2.5c0.7-0.3,2.8-1.2,3.5-2h2.8v17.8h-3.5v-14.3H202.4z"/>
	<path class="st3" d="M209.3,457.3v-8c0-3.1,1.5-5.2,5-5.2c3.4,0,4.9,2.1,4.9,5.2v8c0,3-1.7,5.1-4.9,5.1
		C211,462.4,209.3,460.3,209.3,457.3z M215.6,457.2v-7.9c0-0.9-0.1-2.3-1.3-2.3c-1.3,0-1.4,1.4-1.4,2.3v7.9c0,0.9,0.2,2.2,1.4,2.2
		C215.5,459.4,215.6,458.1,215.6,457.2z"/>
	<path class="st3" d="M226.8,457.9h-5.6v-2.6l4.8-11h4.1v11.1h1.8v2.6h-1.8v4.2h-3.3V457.9z M226.8,455.4v-7.6l-2.8,7.6H226.8z"/>
	<path class="st3" d="M239.7,444.3h4l2.3,11.2l2.4-11.2h3.9l0.3,17.8h-2.7l-0.3-12.1l-2.4,12.1h-2.3l-2.4-12.2l-0.3,12.2h-2.8
		L239.7,444.3z"/>
	<path class="st3" d="M255.3,444.3h8.1v2.5h-4.3v4.7h3.3v2.5h-3.3v5.6h4.4v2.5h-8.1L255.3,444.3L255.3,444.3z"/>
	<path class="st3" d="M267.1,447h-2.9v-2.7h9.5v2.7h-2.8v15.1h-3.8L267.1,447L267.1,447z"/>
	<path class="st3" d="M275.1,456.5v-6.6c0-3.7,1.4-5.8,5.5-5.8s5.5,2.2,5.5,5.8v6.7c0,3.6-1.4,5.8-5.5,5.8S275.1,460.2,275.1,456.5z
		 M282.2,457.4V449c0-1.2-0.2-2.3-1.6-2.3s-1.6,1.1-1.6,2.3v8.4c0,1.2,0.2,2.4,1.6,2.4S282.2,458.6,282.2,457.4z"/>
	<path class="st3" d="M287.5,459.5h0.6c1.6-0.6,2.8-2.7,3.2-9.2l0.5-6h8.4v15.2h2v6.3h-2.5l-0.2-3.7h-9.1l-0.2,3.7h-2.7L287.5,459.5
		L287.5,459.5z M296.7,459.5v-12.6h-2l-0.2,3.9c-0.4,6.7-1.6,7.7-2.8,8.8L296.7,459.5L296.7,459.5z"/>
	<path class="st3" d="M304.1,444.3h3V455l4.9-10.7h2.5v17.8h-3.1v-10.8l-4.9,10.8h-2.4V444.3z"/>
	<path class="st3" d="M317.4,444.3h3.8v7.2h0.5l2.9-7.2h3.7l-3.4,8.4l3.6,9.4h-3.9l-2.9-8h-0.5v8h-3.8L317.4,444.3L317.4,444.3z"/>
	<path class="st3" d="M330.2,444.3h3V455l4.9-10.7h2.5v17.8h-3.1v-10.8l-4.9,10.8h-2.4V444.3z"/>
	<path class="st3" d="M343.1,458.9h3.3v3.2h-3.3V458.9z"/>
</g>
<g class="st1">
	<path class="st2" d="M459.8,381H457v-2.7h9.5v2.7h-2.8v15.1h-3.8V381H459.8z"/>
	<path class="st2" d="M468.1,378.3h8.1v2.5h-4.3v4.7h3.3v2.5h-3.3v5.6h4.4v2.5h-8.1v-17.8H468.1z"/>
	<path class="st2" d="M478.1,378.3H489v17.8h-3.7v-15.2h-3.5v15.2h-3.7L478.1,378.3L478.1,378.3z"/>
	<path class="st2" d="M491.8,378.3h8.1v2.5h-4.3v4.7h3.3v2.5h-3.3v5.6h4.4v2.5h-8.1v-17.8H491.8z"/>
	<path class="st2" d="M501.9,378.3h5.9c3.3,0,4.8,1.8,4.8,5.1c0,3.8-2.2,5-5.2,5h-1.7v7.7h-3.8L501.9,378.3L501.9,378.3z M507,385.9
		c1.7,0,2-0.7,2-2.5c0-1.6-0.2-2.5-2.1-2.5h-1.3v5H507z"/>
	<path class="st2" d="M514.5,378.3h3.8v7.5h0.9c3.6,0,5.6,1.5,5.6,5.1c0,4.2-2.4,5.2-5.8,5.2h-4.4L514.5,378.3L514.5,378.3z
		 M518.9,393.7c1.7,0,2.4-0.8,2.3-2.8c0-1.5-0.5-2.6-2.4-2.6h-0.5v5.4H518.9z"/>
	<path class="st2" d="M532.6,378.3h10.9v17.8h-3.7v-15.2h-3.5v15.2h-3.7V378.3z"/>
	<path class="st2" d="M546.3,378.3h8.1v2.5h-4.3v4.7h3.3v2.5h-3.3v5.6h4.4v2.5h-8.1v-17.8H546.3z"/>
	<path class="st2" d="M556.3,378.3h5.9c3.3,0,4.8,1.8,4.8,5.1c0,3.8-2.2,5-5.2,5h-1.7v7.7h-3.8V378.3z M561.4,385.9
		c1.7,0,2-0.7,2-2.5c0-1.6-0.2-2.5-2.1-2.5H560v5H561.4z"/>
	<path class="st2" d="M569,378.3h8.1v2.5h-4.3v4.7h3.3v2.5h-3.3v5.6h4.4v2.5H569V378.3z"/>
	<path class="st2" d="M586,388.6c-0.9,0.1-1.6,0.2-2.3,0.2c-2.8,0-5.1-1.5-5.1-4.3v-6.2h3.8v6.2c0,1.2,0.3,2,2.3,2
		c0.4,0,0.8,0,1.3-0.1v-8.1h3.8v17.8H586V388.6z"/>
	<path class="st2" d="M592.6,378.3h8.1v2.5h-4.3v4.7h3.3v2.5h-3.3v5.6h4.4v2.5h-8.1v-17.8H592.6z"/>
	<path class="st2" d="M602.7,378.3h3.8v7.3h3.3v-7.3h3.8v17.8h-3.8v-7.9h-3.3v7.9h-3.8V378.3z"/>
	<path class="st2" d="M616.4,378.3h3.8v7.5h0.9c3.6,0,5.6,1.5,5.6,5.1c0,4.2-2.4,5.2-5.8,5.2h-4.4L616.4,378.3L616.4,378.3z
		 M620.8,393.7c1.7,0,2.4-0.8,2.3-2.8c0-1.5-0.5-2.6-2.4-2.6h-0.5v5.4H620.8z"/>
</g>
<g class="st1">
	<path class="st2" d="M458.3,411.3h4l2.3,11.2l2.4-11.2h3.9l0.3,17.8h-2.7l-0.3-12.1l-2.4,12.1h-2.3l-2.4-12.2l-0.3,12.2H458
		L458.3,411.3z"/>
	<path class="st2" d="M474,411.3h8.1v2.5h-4.3v4.7h3.3v2.5h-3.3v5.6h4.4v2.5H474V411.3z"/>
	<path class="st2" d="M485.8,414h-2.9v-2.7h9.5v2.7h-2.8v15.1h-3.8L485.8,414L485.8,414z"/>
	<path class="st2" d="M493.8,423.5v-6.6c0-3.7,1.4-5.8,5.5-5.8s5.5,2.2,5.5,5.8v6.7c0,3.6-1.4,5.8-5.5,5.8
		C495.1,429.4,493.8,427.2,493.8,423.5z M500.9,424.4V416c0-1.2-0.2-2.3-1.6-2.3s-1.6,1.1-1.6,2.3v8.4c0,1.2,0.2,2.4,1.6,2.4
		C500.7,426.8,500.9,425.6,500.9,424.4z"/>
	<path class="st2" d="M506.2,426.5h0.6c1.6-0.6,2.8-2.7,3.2-9.2l0.5-6h8.4v15.2h2v6.3h-2.5l-0.2-3.7h-9.1l-0.2,3.7h-2.7L506.2,426.5
		L506.2,426.5z M515.3,426.5v-12.6h-2l-0.2,3.9c-0.4,6.7-1.6,7.7-2.8,8.8L515.3,426.5L515.3,426.5z"/>
	<path class="st2" d="M522.8,411.3h3V422l4.9-10.7h2.5v17.8h-3.1v-10.8l-4.9,10.8h-2.4V411.3z"/>
	<path class="st2" d="M536.1,411.3h3.8v7.2h0.5l2.9-7.2h3.7l-3.4,8.4l3.6,9.4h-3.9l-2.9-8h-0.5v8h-3.8L536.1,411.3L536.1,411.3z"/>
	<path class="st2" d="M554.3,423.4V417c0-3.7,1.3-6,5.4-6c4,0,5.2,2.1,5.2,5.1v1.5h-3.7v-1.7c0-1.3,0-2.4-1.5-2.4s-1.6,1.2-1.6,2.5
		v8.1c0,1.5,0.3,2.5,1.6,2.5c1.4,0,1.5-1.2,1.5-2.5v-1.7h3.7v1.5c0,3.1-1.1,5.3-5.2,5.3C555.5,429.4,554.3,427,554.3,423.4z"/>
	<path class="st2" d="M566.9,423.5v-6.6c0-3.7,1.4-5.8,5.5-5.8s5.5,2.2,5.5,5.8v6.7c0,3.6-1.4,5.8-5.5,5.8
		C568.3,429.4,566.9,427.2,566.9,423.5z M574,424.4V416c0-1.2-0.2-2.3-1.6-2.3c-1.4,0-1.6,1.1-1.6,2.3v8.4c0,1.2,0.2,2.4,1.6,2.4
		S574,425.6,574,424.4z"/>
	<path class="st2" d="M580.1,423.4V417c0-3.7,1.3-6,5.4-6c4,0,5.2,2.1,5.2,5.1v1.5H587v-1.7c0-1.3,0-2.4-1.5-2.4s-1.6,1.2-1.6,2.5
		v8.1c0,1.5,0.3,2.5,1.6,2.5c1.4,0,1.5-1.2,1.5-2.5v-1.7h3.7v1.5c0,3.1-1.1,5.3-5.2,5.3C581.4,429.4,580.1,427,580.1,423.4z"/>
	<path class="st2" d="M594.8,414h-2.9v-2.7h9.5v2.7h-2.8v15.1h-3.8V414z"/>
	<path class="st2" d="M605.7,411.3h4.2l3.6,17.8H610l-0.7-3.9h-2.9l-0.7,3.9h-3.5L605.7,411.3z M608.9,423l-1.1-7.2l-1.1,7.2H608.9z
		"/>
	<path class="st2" d="M615.4,411.3h4.7c3.2,0,5.7,0.9,5.7,4.6c0,2.2-1,3.3-2.7,3.6c2.2,0.3,3.2,1.8,3.2,4.3c0,3.6-1.9,5.2-5.4,5.2
		h-5.5V411.3z M620.1,418.5c1.9,0,2.4-0.9,2.4-2.5s-0.9-2.2-2.6-2.2h-0.7v4.7H620.1z M620.2,426.6c1.9,0,2.5-0.9,2.5-2.8
		c0-2-0.7-2.9-2.6-2.9h-1v5.6L620.2,426.6L620.2,426.6z"/>
	<path class="st2" d="M627.2,426.6c2.4,0,2.5-0.4,3-7l0.6-8.3h9.4v17.8h-3.8V414h-2.3l-0.4,6.1c-0.5,7-0.7,9.3-6.6,8.9L627.2,426.6
		L627.2,426.6z"/>
	<path class="st2" d="M645.6,421.2c-1.5-0.8-2.5-2.4-2.5-4.6c0-3.9,2.2-5.2,6.2-5.2h4.6v17.8h-3.8V422h-0.9h-0.3l-2.8,7.1H642
		L645.6,421.2z M650.1,419.4v-5.6h-0.7c-1.8,0-2.7,0.9-2.7,2.8c0,1.7,0.7,2.9,2.8,2.9L650.1,419.4L650.1,419.4z"/>
	<path class="st2" d="M656.7,411.3h8.1v2.5h-4.3v4.7h3.3v2.5h-3.3v5.6h4.4v2.5h-8.1v-17.8H656.7z"/>
	<path class="st2" d="M668.5,414h-2.9v-2.7h9.5v2.7h-2.8v15.1h-3.8V414z"/>
</g>
<g class="st1">
	<path class="st3" d="M458.1,444.3h8.9v2.8h-5.2v4.8h0.8c3.6,0,5.6,1.5,5.6,5.1c0,4.2-2.4,5.2-5.8,5.2h-4.3V444.3z M462.5,459.7
		c1.7,0,2.3-0.8,2.3-2.8c0-1.5-0.5-2.6-2.4-2.6h-0.5v5.4H462.5z"/>
	<path class="st3" d="M470.2,456.5v-6.6c0-3.7,1.4-5.8,5.5-5.8s5.5,2.2,5.5,5.8v6.7c0,3.6-1.4,5.8-5.5,5.8S470.2,460.2,470.2,456.5z
		 M477.3,457.4V449c0-1.2-0.2-2.3-1.6-2.3s-1.6,1.1-1.6,2.3v8.4c0,1.2,0.2,2.4,1.6,2.4C477.1,459.8,477.3,458.6,477.3,457.4z"/>
	<path class="st3" d="M482.4,459.6c2.4,0,2.5-0.4,3-7l0.6-8.3h9.4v17.8h-3.8V447h-2.3l-0.4,6.1c-0.5,7-0.7,9.3-6.6,8.9L482.4,459.6
		L482.4,459.6z"/>
	<path class="st3" d="M498.3,444.3h8.1v2.5H502v4.7h3.3v2.5H502v5.6h4.4v2.5h-8.1V444.3z"/>
	<path class="st3" d="M508.3,444.3h8.1v2.5h-4.3v4.7h3.3v2.5h-3.3v5.6h4.4v2.5h-8.1v-17.8H508.3z"/>
	<path class="st3" d="M529,457.9h-5.6v-2.6l4.8-11h4.1v11.1h1.8v2.6h-1.8v4.2H529V457.9z M529,455.4v-7.6l-2.8,7.6H529z"/>
	<path class="st3" d="M535.7,457.3v-8c0-3.1,1.5-5.2,5-5.2c3.4,0,4.9,2.1,4.9,5.2v8c0,3-1.7,5.1-4.9,5.1
		C537.4,462.4,535.7,460.3,535.7,457.3z M542,457.2v-7.9c0-0.9-0.1-2.3-1.3-2.3c-1.3,0-1.4,1.4-1.4,2.3v7.9c0,0.9,0.2,2.2,1.4,2.2
		C541.9,459.4,542,458.1,542,457.2z"/>
	<path class="st3" d="M548.2,457.3v-8c0-3.1,1.5-5.2,5-5.2c3.4,0,4.9,2.1,4.9,5.2v8c0,3-1.7,5.1-4.9,5.1
		C549.8,462.4,548.2,460.3,548.2,457.3z M554.5,457.2v-7.9c0-0.9-0.1-2.3-1.3-2.3c-1.3,0-1.4,1.4-1.4,2.3v7.9c0,0.9,0.2,2.2,1.4,2.2
		C554.3,459.4,554.5,458.1,554.5,457.2z"/>
</g>
<text transform="matrix(1.04 0 0 1 559.3301 462.1291)" class="st2 st4 st5">.</text>
<g>
	<g>
		<path class="st6" d="M231.4,201.2l-5-1.4v-2.2c1.5-1.3,2.4-3.2,2.4-5.4v-2.4c0-4-3.2-7.2-7.2-7.2v-22.9h2.4v-7.2h-10.9v-4.3
			l4.8-1.7l-20.5-7.3l-20.5,7.3l4.8,1.7v4.3h-10.9v7.2h2.4v22.9c-4,0-7.2,3.2-7.2,7.2v2.4c0,2.1,0.9,4.1,2.4,5.4v2.2l-5,1.4
			c-2.1,0.6-3.5,2.5-3.5,4.6v5.7h74.9v-5.7C234.9,203.7,233.4,201.8,231.4,201.2z M224,200.4c-0.3,0.5-1.1,1.5-2.4,1.5
			c-1.3,0-2.1-1.1-2.4-1.5v-1.3c0.8,0.3,1.6,0.4,2.4,0.4s1.7-0.2,2.4-0.4V200.4z M226.4,189.8v2.4c0,2.7-2.2,4.8-4.8,4.8
			c-2.7,0-4.8-2.2-4.8-4.8v-2.4c0-2.7,2.2-4.8,4.8-4.8S226.4,187.2,226.4,189.8z M196.2,153.3v4.7l-7.2-2.4v-4.9L196.2,153.3z
			 M198.6,153.3l12.1-4.3v5l-12.1,4V153.3z M197.4,141.6l13.3,4.8l-13.3,4.8l-6.4-2.3l6.8-2.6L197,144l-9.5,3.6l-3.4-1.2
			L197.4,141.6z M186.6,149.8v5l-2.4-0.8v-5L186.6,149.8z M175.7,159.7h2.4v4.8h2.4v-7.2h-7.2v-2.4h8.5v0.9l4.8,1.6v5
			c-1.4,0.5-2.4,1.8-2.4,3.4v6h7.2v-6c0-1.6-1-2.9-2.4-3.4v-4.2l8.5,2.8l15.7-5.2v-0.9h8.5v2.4h-7.2v7.2h2.4v-4.8h2.4V183
			c-2.8,1-4.8,3.7-4.8,6.8v2.4c0,2.1,0.9,4.1,2.4,5.4v2.2l-5,1.4c-0.9,0.3-1.7,0.8-2.3,1.5c-0.6-0.7-1.4-1.2-2.3-1.5l-5-1.4v-2.2
			c1.5-1.3,2.4-3.2,2.4-5.4v-2.4c0-4-3.2-7.2-7.2-7.2s-7.2,3.2-7.2,7.2v2.4c0,2.1,0.9,4.1,2.4,5.4v2.2l-5,1.4
			c-0.9,0.3-1.7,0.8-2.3,1.5c-0.6-0.7-1.4-1.2-2.3-1.5l-5-1.4v-2.2c1.5-1.3,2.4-3.2,2.4-5.4v-2.4c0-3.2-2-5.8-4.8-6.8L175.7,159.7
			L175.7,159.7z M189,165.7v3.6h-2.4v-3.6c0-0.7,0.5-1.2,1.2-1.2C188.4,164.5,189,165,189,165.7z M208.3,209.2h-21.7v-3.3
			c0-1.1,0.7-2,1.8-2.3l5-1.4c0.7,0.9,2.1,2.2,4.1,2.2s3.4-1.3,4.1-2.2l5,1.4c1,0.3,1.8,1.3,1.8,2.3v3.3H208.3z M197.4,197.1
			c-2.7,0-4.8-2.2-4.8-4.8v-2.4c0-2.7,2.2-4.8,4.8-4.8s4.8,2.2,4.8,4.8v2.4C202.3,194.9,200.1,197.1,197.4,197.1z M197.4,199.5
			c0.8,0,1.7-0.2,2.4-0.4v1.3c-0.3,0.5-1.1,1.5-2.4,1.5c-1.3,0-2.1-1.1-2.4-1.5v-1.3C195.8,199.4,196.6,199.5,197.4,199.5z
			 M168.5,189.8c0-2.7,2.2-4.8,4.8-4.8s4.8,2.2,4.8,4.8v2.4c0,2.7-2.2,4.8-4.8,4.8s-4.8-2.2-4.8-4.8V189.8z M173.3,199.5
			c0.8,0,1.7-0.2,2.4-0.4v1.3c-0.3,0.5-1.1,1.5-2.4,1.5c-1.3,0-2.1-1.1-2.4-1.5v-1.3C171.6,199.4,172.4,199.5,173.3,199.5z
			 M162.4,205.9c0-1.1,0.7-2,1.8-2.3l5-1.4c0.7,0.9,2.1,2.2,4.1,2.2s3.4-1.3,4.1-2.2l5,1.4c1,0.3,1.8,1.3,1.8,2.3v3.3h-21.7v-3.3
			H162.4z M232.4,209.2h-21.7v-3.3c0-1.1,0.7-2,1.8-2.3l5-1.4c0.7,0.9,2.1,2.2,4.1,2.2c2.1,0,3.4-1.3,4.1-2.2l5,1.4
			c1,0.3,1.8,1.3,1.8,2.3v3.3H232.4z"/>
		<path class="st6" d="M214.3,166.9h2.4v2.4h-2.4V166.9z"/>
		<path class="st6" d="M214.3,171.7h2.4v2.4h-2.4V171.7z"/>
		<path class="st6" d="M209.5,158.5h2.4V179h-2.4V158.5z"/>
		<path class="st6" d="M204.7,160.9h2.4v2.4h-2.4V160.9z"/>
		<path class="st6" d="M204.7,165.7h2.4v2.4h-2.4V165.7z"/>
		<path class="st6" d="M204.7,170.5h2.4v13.3h-2.4V170.5z"/>
		<path class="st6" d="M178.1,166.9h2.4v2.4h-2.4V166.9z"/>
		<path class="st6" d="M178.1,171.7h2.4v2.4h-2.4V171.7z"/>
		<path class="st6" d="M187.8,174.1h2.4v9.7h-2.4V174.1z"/>
		<path class="st6" d="M182.9,174.1h2.4v4.8h-2.4V174.1z"/>
		<path class="st6" d="M194.2,181.7l3.2-0.8l3.2,0.8l0.3-3.3l1.7-2.8l-3.1-1.3l-2.2-2.5l-2.1,2.5l-3.1,1.3l1.7,2.8L194.2,181.7z
			 M196.7,176.3l0.7-0.8l0.7,0.8l1,0.4l-0.6,0.9l-0.1,1.1l-1-0.3l-1,0.3l-0.1-1.1l-0.6-0.9L196.7,176.3z"/>
		<path class="st6" d="M196.2,163.3h2.4v2.4h-2.4V163.3z"/>
		<path class="st6" d="M196.2,168.1h2.4v2.4h-2.4V168.1z"/>
	</g>
	<g>
		<g>
			<path class="st6" d="M222.6,77.3h-16.2v-12h2.2v4.9c0,2.5,2.1,4.6,4.6,4.6l0,0c2.5,0,4.6-2.1,4.6-4.6v-4.9h2.4
				c0.6,0,1.1-0.5,1.1-1.1s-0.5-1.1-1.1-1.1h-2.4v-6.5c0.8-0.2,1.5-1,1.5-1.9v-2.6c0-1.1-0.9-1.9-1.9-1.9h-8.3
				c-1.1,0-1.9,0.9-1.9,1.9v2.6c0,0.9,0.6,1.7,1.5,1.9v6.5H202v-6.5c0.8-0.2,1.5-1,1.5-1.9v-2.6c0-1.1-0.9-1.9-1.9-1.9h-8.3
				c-1.1,0-1.9,0.9-1.9,1.9v2.6c0,0.9,0.6,1.7,1.5,1.9v6.5h-6.7v-6.5c0.8-0.2,1.5-1,1.5-1.9v-2.6c0-1.1-0.9-1.9-1.9-1.9h-1.7
				c-0.6,0-1.1,0.5-1.1,1.1s0.5,1.1,1.1,1.1h1.4v1.9h-7.7v-1.9h1.4c0.6,0,1.1-0.5,1.1-1.1s-0.5-1.1-1.1-1.1h-1.7
				c-1.1,0-1.9,0.9-1.9,1.9v2.6c0,0.9,0.6,1.7,1.5,1.9v6.5h-2.4c-0.6,0-1.1,0.5-1.1,1.1s0.5,1.1,1.1,1.1h2.4v4.9
				c0,2.5,2.1,4.6,4.6,4.6l0,0c2.5,0,4.6-2.1,4.6-4.6v-4.9h2.2v12.1h-16.2c-1.4,0-2.6,1.1-2.6,2.6v36.5c0,1.4,1.1,2.5,2.4,2.6v3.8
				c0,1.4,1.1,2.6,2.6,2.6h45.6c1.4,0,2.6-1.1,2.6-2.6V119c1.3-0.1,2.4-1.2,2.4-2.6V79.9C225.2,78.5,224,77.3,222.6,77.3L222.6,77.3
				z M215.6,70.2c0,1.3-1.1,2.4-2.4,2.4l0,0c-1.3,0-2.4-1.1-2.4-2.4v-4.9h4.7L215.6,70.2L215.6,70.2z M210.9,56.7h4.7v3h-4.7V56.7z
				 M209.4,52.5h7.7v1.9h-7.7V52.5z M210.9,61.9h4.7v1.2h-4.7V61.9z M179.3,56.7h4.7v3h-4.7V56.7z M179.3,61.9h4.7v1.2h-4.7V61.9z
				 M184,70.2c0,1.3-1.1,2.4-2.4,2.4l0,0c-1.3,0-2.4-1.1-2.4-2.4v-4.9h4.7L184,70.2L184,70.2z M195.1,56.7h4.7v3h-4.7V56.7z
				 M193.6,52.5h7.7v1.9h-7.7V52.5z M195.1,61.9h4.7v1.2h-4.7V61.9z M195.1,65.3h4.7v4.9c0,1.3-1.1,2.4-2.4,2.4l0,0
				c-1.3,0-2.4-1.1-2.4-2.4L195.1,65.3L195.1,65.3z M220.2,123.2h-45.6c-0.2,0-0.4-0.2-0.4-0.4V119h46.3v3.8
				C220.6,123,220.4,123.2,220.2,123.2L220.2,123.2z M223,116.4c0,0.2-0.2,0.4-0.4,0.4h-50.4c-0.2,0-0.4-0.2-0.4-0.4V79.9
				c0-0.2,0.2-0.4,0.4-0.4h20.2c0.6,0,1.1-0.5,1.1-1.1s-0.5-1.1-1.1-1.1h-1.8v-12h2.2v4.9c0,2.5,2.1,4.6,4.6,4.6l0,0
				c2.5,0,4.6-2.1,4.6-4.6v-4.9h2.2v12.1h-6.9c-0.6,0-1.1,0.5-1.1,1.1s0.5,1.1,1.1,1.1h25.2c0.2,0,0.4,0.2,0.4,0.4L223,116.4
				L223,116.4z"/>
			<path class="st6" d="M219.7,81.8h-44.5c-0.6,0-1.1,0.5-1.1,1.1v30.6c0,0.6,0.5,1.1,1.1,1.1h44.5c0.6,0,1.1-0.5,1.1-1.1v-4.6
				c0-0.6-0.5-1.1-1.1-1.1s-1.1,0.5-1.1,1.1v3.5h-42.3V84h42.3v19.9c0,0.6,0.5,1.1,1.1,1.1s1.1-0.5,1.1-1.1v-21
				C220.8,82.2,220.3,81.8,219.7,81.8L219.7,81.8z"/>
			<path class="st6" d="M181.6,101.5c-1.4,0-2.6,1.1-2.6,2.6v3.5c0,1.4,1.1,2.6,2.6,2.6h3.5c1.4,0,2.6-1.1,2.6-2.6v-3.5
				c0-1.4-1.1-2.6-2.6-2.6H181.6z M185.5,104.1v3.5c0,0.2-0.2,0.4-0.4,0.4h-3.5c-0.2,0-0.4-0.2-0.4-0.4v-3.5c0-0.2,0.2-0.4,0.4-0.4
				h3.5C185.4,103.7,185.5,103.9,185.5,104.1z"/>
			<path class="st6" d="M192.4,110.2h3.5c1.4,0,2.6-1.1,2.6-2.6v-3.5c0-1.4-1.1-2.6-2.6-2.6h-3.5c-1.4,0-2.6,1.1-2.6,2.6v3.5
				C189.8,109,191,110.2,192.4,110.2L192.4,110.2z M192,104.1c0-0.2,0.2-0.4,0.4-0.4h3.5c0.2,0,0.4,0.2,0.4,0.4v3.5
				c0,0.2-0.2,0.4-0.4,0.4h-3.5c-0.2,0-0.4-0.2-0.4-0.4V104.1z"/>
			<path class="st6" d="M198.5,95.8v-6.5c0-1.4-1.1-2.6-2.6-2.6h-14.3c-1.4,0-2.6,1.1-2.6,2.6v6.5c0,1.4,1.1,2.6,2.6,2.6h14.3
				C197.3,98.4,198.5,97.2,198.5,95.8z M181.3,95.8v-6.5c0-0.2,0.2-0.4,0.4-0.4H196c0.2,0,0.4,0.2,0.4,0.4v6.5
				c0,0.2-0.2,0.4-0.4,0.4h-14.3C181.4,96.1,181.3,96,181.3,95.8z"/>
			<path class="st6" d="M213.3,105.7c-0.6,0-1.1,0.5-1.1,1.1s0.5,1.1,1.1,1.1l0,0c0.6,0,1.1-0.5,1.1-1.1S213.9,105.7,213.3,105.7
				L213.3,105.7z"/>
			<path class="st6" d="M209.4,105.7c-0.6,0-1.1,0.5-1.1,1.1s0.5,1.1,1.1,1.1l0,0c0.6,0,1.1-0.5,1.1-1.1S210,105.7,209.4,105.7
				L209.4,105.7z"/>
		</g>
	</g>
</g>
<g>
	<circle class="st6" cx="434.8" cy="513.3" r="1.2"/>
	<path class="st6" d="M434.8,543.5c-2,0-3.6,1.6-3.6,3.6s1.6,3.6,3.6,3.6s3.6-1.6,3.6-3.6S436.8,543.5,434.8,543.5z M434.8,548.3
		c-0.7,0-1.2-0.5-1.2-1.2s0.5-1.2,1.2-1.2s1.2,0.5,1.2,1.2S435.4,548.3,434.8,548.3z"/>
	<path class="st6" d="M440.7,512.7c-0.1-1.3-0.7-2.5-1.5-3.4l5.2-5.2c0.8-0.8,1.2-1.8,1.2-2.9c0-0.9-0.3-1.7-0.8-2.4l2-2
		c0.5,0.5,1.1,0.7,1.7,0.7c2.4,0,4.3-1.9,4.3-4.3c0-0.6-0.3-1.3-0.7-1.7l-5.3-5.3c-0.5-0.5-1.1-0.7-1.7-0.7c-2.4,0-4.3,1.9-4.3,4.3
		c0,0.6,0.3,1.3,0.7,1.7l-2,2c-1.1-0.7-2.5-0.9-3.7-0.5c-0.4-1.5-1.8-2.7-3.5-2.7c-2,0-3.6,1.6-3.6,3.6c0,1.5,0.9,2.8,2.2,3.3
		l-9.7,9.7c-0.6-1.3-1.8-2.2-3.3-2.2h-0.1c2.8-2.4,3.7-6.1,3.7-8.5V495h-1.2c-5.5,0-8.9,1.9-10.9,4.3v-3.1c0-4-2.8-10.9-13.3-10.9
		h-1.2v1.2c0,3.8,2.3,10.9,10.9,10.9h1.2v8.4v0.7c-1.5-1.9-4-3.4-7.6-4c0.2-0.5,0.3-1,0.3-1.5c0-2-1.6-3.6-3.6-3.6s-3.6,1.6-3.6,3.6
		c0,1.6,1,2.9,2.5,3.4c0.4,3.9,2.9,9.9,10.8,9.9h1.2v7.2h-4.8c-1.3,0-2.4,1.1-2.4,2.4v2.4c0,1.3,1.1,2.4,2.4,2.4v2.4H395V529
		c1.3,0,2.4-1.1,2.4-2.4v-2.4c0-1.3-1.1-2.4-2.4-2.4h-12.1c-1.3,0-2.4,1.1-2.4,2.4v2.4c0,1.3,1.1,2.4,2.4,2.4v2.4h-1.2
		c-2,0-3.6,1.6-3.6,3.6v25.3h2.4V535c0-0.7,0.5-1.2,1.2-1.2h1.2v15.7c0,3.3,2.7,6,6,6s6-2.7,6-6v-15.7h7.2v15.7c0,3.3,2.7,6,6,6
		c0.4,0,0.8,0,1.2-0.1v0.1v2.4c0,1.3,1.1,2.4,2.4,2.4h33.8c1.3,0,2.4-1.1,2.4-2.4c0-1-0.3-2-0.9-2.7l1.9-3.5
		c2.5-4.4,3.8-9.4,3.8-14.5c0-8-3.1-15.5-8.8-21.1L440.7,512.7z M405.8,495.2c-6.4,0-8-4.8-8.3-7.2c6.2,0.4,8.9,3.8,9.4,7.2H405.8z
		 M382.9,524.1H395v2.4h-12.1V524.1z M385.3,529h7.2v2.4h-7.2V529z M392.5,549.5c0,2-1.6,3.6-3.6,3.6s-3.6-1.6-3.6-3.6v-15.7h7.2
		V549.5z M434.8,516.9c-2,0-3.6-1.6-3.6-3.6s1.6-3.6,3.6-3.6s3.6,1.6,3.6,3.6S436.8,516.9,434.8,516.9z M445.1,487.9l5.3,5.3
		c0,1.1-0.9,1.9-1.9,1.9l-5.3-5.3C443.2,488.8,444.1,487.9,445.1,487.9z M443.2,493.3l1.9,1.9l-1.9,1.9l-1.9-1.9L443.2,493.3z
		 M438.4,495.7l4.3,4.3c0.3,0.3,0.5,0.8,0.5,1.2s-0.2,0.9-0.5,1.2l-5.4,5.4c-0.8-0.4-1.6-0.6-2.5-0.6c-3.3,0-6,2.7-6,6
		c0,0.9,0.2,1.8,0.6,2.5l-3,3l-6.7-6.7l16.4-16.4C436.6,495,437.8,495,438.4,495.7L438.4,495.7z M417.2,514.5l0.7-0.7l6.7,6.7
		l-0.7,0.7c-0.6,0.6-1.8,0.6-2.4,0l-4.3-4.3c-0.3-0.3-0.5-0.8-0.5-1.2S416.8,514.8,417.2,514.5z M432.4,492.8c0.7,0,1.2,0.5,1.2,1.2
		s-0.5,1.2-1.2,1.2s-1.2-0.5-1.2-1.2C431.2,493.3,431.7,492.8,432.4,492.8z M419.1,508.5c0,0.7-0.5,1.2-1.2,1.2s-1.2-0.5-1.2-1.2
		s0.5-1.2,1.2-1.2S419.1,507.8,419.1,508.5z M419,497.6c-0.4,2.4-1.9,7.2-8.3,7.2h-1.1C410,501.5,412.7,498.1,419,497.6z M396.1,500
		c0.7,0,1.2,0.5,1.2,1.2s-0.5,1.2-1.2,1.2s-1.2-0.5-1.2-1.2S395.5,500,396.1,500z M405.8,512.1c-6.4,0-8-4.8-8.3-7.2
		c6.2,0.4,8.9,3.8,9.4,7.2H405.8z M409.4,514.5v-1.2v-6h1.2c1.6,0,3-0.2,4.2-0.7c-0.3,0.5-0.5,1.2-0.5,1.9c0,1.5,0.9,2.8,2.2,3.3
		l-1,1c-0.8,0.8-1.2,1.8-1.2,2.9s0.4,2.1,1.2,2.9l4.3,4.3c0.8,0.8,1.8,1.2,2.9,1.2s2.1-0.4,2.9-1.2l5.2-5.2c1.1,1,2.5,1.5,4,1.5
		c0.4,0,0.7,0,1.1-0.1l0.5,0.4c4.3,3.2,6.9,8.4,6.9,13.8c0,2.9-0.7,5.7-2.1,8.2c-1.3-1.5-3.2-2.6-5.4-2.9c-0.5-1.4-1.8-2.5-3.4-2.5
		h-18.1v-2.4h4.8v-2.4h-4.8V529c1.3,0,2.4-1.1,2.4-2.4v-2.4c0-1.3-1.1-2.4-2.4-2.4h-4.8v-7.3L409.4,514.5L409.4,514.5z M434.8,553.1
		c-3.3,0-6-2.7-6-6s2.7-6,6-6s6,2.7,6,6C440.8,550.4,438.1,553.1,434.8,553.1z M428.9,541h-14.6v-2.4h18.1c0.2,0,0.4,0.1,0.6,0.2
		C431.4,539.2,430,540,428.9,541z M414.3,549.5v-6h12.9c-0.5,1.1-0.8,2.3-0.8,3.6c0,2.4,1,4.5,2.5,6H413
		C413.8,552.1,414.3,550.9,414.3,549.5z M402.2,524.1h12.1v2.4h-12.1V524.1z M404.6,529h7.2v2.4h-7.2V529z M404.6,549.5v-15.7h7.2
		v15.7c0,2-1.6,3.6-3.6,3.6S404.6,551.5,404.6,549.5z M411.8,557.9v-2.4h31.4c1.3,0,2.4,1.1,2.4,2.4H411.8z M447,550.6l-1.7,3
		c-0.6-0.3-1.3-0.5-2.1-0.5h-2.5c1.6-1.5,2.5-3.7,2.5-6c0-1.1-0.2-2.2-0.6-3.2c2-3.2,3-6.8,3-10.5c0-5.9-2.7-11.5-7.3-15.3
		c0.8-0.6,1.5-1.4,1.9-2.4l2.1,2.1c5.2,5.2,8,12.1,8,19.4C450.5,541.9,449.3,546.5,447,550.6L447,550.6z"/>
	<path class="st6" d="M413,492.8c2,0,3.6-1.6,3.6-3.6s-1.6-3.6-3.6-3.6s-3.6,1.6-3.6,3.6C409.4,491.1,411.1,492.8,413,492.8z
		 M413,487.9c0.7,0,1.2,0.5,1.2,1.2s-0.5,1.2-1.2,1.2s-1.2-0.5-1.2-1.2S412.4,487.9,413,487.9z"/>
	<path class="st6" d="M393.7,519.3c2,0,3.6-1.6,3.6-3.6s-1.6-3.6-3.6-3.6s-3.6,1.6-3.6,3.6S391.7,519.3,393.7,519.3z M393.7,514.5
		c0.7,0,1.2,0.5,1.2,1.2s-0.5,1.2-1.2,1.2s-1.2-0.5-1.2-1.2S393.1,514.5,393.7,514.5z"/>
	<path class="st6" d="M382.9,497.6c2.7,0,4.8-2.2,4.8-4.8c0-2.7-2.2-4.8-4.8-4.8c-2.7,0-4.8,2.2-4.8,4.8
		C378,495.4,380.2,497.6,382.9,497.6z M382.9,490.4c1.3,0,2.4,1.1,2.4,2.4s-1.1,2.4-2.4,2.4s-2.4-1.1-2.4-2.4
		C380.5,491.4,381.5,490.4,382.9,490.4z"/>
	<path class="st6" d="M380.5,509.7c0,2.7,2.2,4.8,4.8,4.8c2.7,0,4.8-2.2,4.8-4.8c0-2.7-2.2-4.8-4.8-4.8
		C382.6,504.8,380.5,507,380.5,509.7z M387.7,509.7c0,1.3-1.1,2.4-2.4,2.4s-2.4-1.1-2.4-2.4s1.1-2.4,2.4-2.4
		C386.6,507.3,387.7,508.3,387.7,509.7z"/>
</g>
<path class="st6" d="M583.5,299c-5.3,0-9.7,4.3-9.7,9.7s4.3,9.7,9.7,9.7s9.7-4.3,9.7-9.7S588.9,299,583.5,299z M583.5,315.9
	c-4,0-7.3-3.3-7.3-7.3s3.3-7.3,7.3-7.3s7.3,3.3,7.3,7.3S587.5,315.9,583.5,315.9z"/>
<path class="st6" d="M628.4,254.1c-3.5,0-6.7,1.9-8.4,4.9l-1.4,2.4h-40.5l-15.3,15.3v52.6h60.6v-51.6l9.7-5.5c3-1.7,4.9-4.9,4.9-8.4
	C638.1,258.5,633.7,254.1,628.4,254.1z M577.5,265.5v10.4H567L577.5,265.5z M621.1,326.8h-55.8v-48.5h14.5v-14.5h37.4l-4.3,7.5
	l-6.1,2.4l-1.9,3.8l-1.1-1.1c-1.9-1.9-4.4-2.9-7.1-2.9s-5.2,1-7.1,2.9l-1.9,1.9l2.4,2.4l-3.6,3.6l21.1,21.1l3.6-3.6l2.4,2.4l1.9-1.9
	c1.9-1.9,2.9-4.4,2.9-7.1s-1-5.2-2.9-7.1l-1.1-1.1l3.8-1.9l2.4-6.1l0.2-0.1v47.9L621.1,326.8L621.1,326.8z M614,290
	c1.4,1.4,2.2,3.3,2.2,5.3s-0.8,3.9-2.2,5.3l-0.2,0.2l-22.5-22.5l0.2-0.2c1.4-1.4,3.3-2.2,5.3-2.2s3.9,0.8,5.3,2.2L614,290z
	 M609.7,300.2l-1.9,1.9l-17.7-17.7l1.9-1.9L609.7,300.2z M632,270l-13.1,7.5l-2.4,6l-3.7,1.8l-6-6l1.8-3.7l6-2.4l7.5-13.1
	c1.3-2.2,3.7-3.6,6.3-3.6c4,0,7.2,3.2,7.2,7.2C635.6,266.4,634.2,268.8,632,270z"/>
<path class="st6" d="M623.5,263.8h2.4c0-1.3,1.1-2.4,2.4-2.4c0.6,0,1.2,0.2,1.6,0.6l1.6-1.8c-0.9-0.8-2-1.2-3.2-1.2
	C625.7,259,623.5,261.1,623.5,263.8z"/>
<path class="st6" d="M582.3,266.2h29.1v2.4h-29.1V266.2z"/>
<path class="st6" d="M582.3,271.1h7.3v2.4h-7.3V271.1z"/>
<path class="st6" d="M596.2,301.9c0.2-1.6-0.4-3.2-1.5-4.4c-1.2-1.2-2.7-1.7-4.3-1.5h-0.1c-1,0.1-1.9-0.3-2.5-1.1
	c-1-1.3-2.5-2-4.2-2c-1.6,0-3.2,0.7-4.2,2c-0.6,0.8-1.6,1.2-2.6,1.1c-1.6-0.2-3.2,0.4-4.4,1.5c-1.2,1.2-1.7,2.7-1.5,4.3v0.1
	c0.1,1-0.3,1.9-1.1,2.5c-1.3,1-2,2.5-2,4.2s0.7,3.2,2,4.2c0.8,0.6,1.2,1.6,1.1,2.6c-0.2,1.6,0.4,3.2,1.5,4.4s2.7,1.7,4.3,1.5h0.1
	c1-0.1,1.9,0.3,2.5,1.1c1,1.3,2.5,2,4.2,2s3.2-0.7,4.2-2c0.6-0.8,1.6-1.2,2.6-1.1c1.6,0.2,3.2-0.4,4.4-1.5c1.2-1.2,1.7-2.7,1.5-4.3
	v-0.1c-0.1-1,0.3-1.9,1.1-2.5c1.3-1,2-2.5,2-4.2c0-1.6-0.7-3.2-2-4.2C596.5,303.9,596.1,302.9,596.2,301.9z M596.5,311.9l-0.8-0.9
	c-1.4,1.2-2.2,2.9-2,4.7v0.1c0.1,0.9-0.2,1.7-0.8,2.3c-0.6,0.6-1.5,0.9-2.4,0.8c-1.8-0.2-3.6,0.5-4.7,2c-1.1,1.4-3.4,1.4-4.6,0
	c-1-1.3-2.5-2-4.2-2c-0.2,0-0.4,0-0.6,0h-0.1c-0.9,0.1-1.7-0.2-2.3-0.8c-0.6-0.6-0.9-1.5-0.8-2.4c0.2-1.8-0.5-3.6-2-4.7
	c-0.7-0.6-1.1-1.4-1.1-2.3s0.4-1.7,1.1-2.3c1.4-1.2,2.2-2.9,2-4.7v-0.1c-0.1-0.9,0.2-1.7,0.8-2.3c0.6-0.6,1.5-0.9,2.4-0.8
	c1.8,0.2,3.6-0.5,4.7-2c1.1-1.4,3.4-1.4,4.6,0c1.2,1.4,2.9,2.2,4.7,2h0.1c0.9-0.1,1.7,0.2,2.3,0.8c0.6,0.6,0.9,1.5,0.8,2.4
	c-0.2,1.8,0.5,3.6,2,4.7c0.7,0.6,1.1,1.4,1.1,2.3s-0.4,1.7-1.1,2.3L596.5,311.9z"/>
<path class="st6" d="M584.7,303.8h-3.6v9.7h2.4v-2.4h1.2c2,0,3.6-1.6,3.6-3.6C588.4,305.5,586.7,303.8,584.7,303.8z M584.7,308.7
	h-1.2v-2.4h1.2c0.7,0,1.2,0.5,1.2,1.2C585.9,308.1,585.4,308.7,584.7,308.7z"/>
<path class="st6" d="M567.8,280.8h17v2.4h-17V280.8z"/>
<path class="st6" d="M572.6,285.6h12.1v2.4h-12.1V285.6z"/>
<path class="st6" d="M567.8,285.6h2.4v2.4h-2.4V285.6z"/>
<path class="st6" d="M601.7,322h17v2.4h-17V322z"/>
<path class="st6" d="M616.2,317.2h2.4v2.4h-2.4V317.2z"/>
<path class="st6" d="M601.7,317.2h12.1v2.4h-12.1V317.2z"/>
<path class="st6" d="M601.7,312.3h17v2.4h-17V312.3z"/>
<path class="st6" d="M601.7,307.5h17v2.4h-17V307.5z"/>
</svg>
