<?xml version="1.0" encoding="utf-8"?>
<!-- Generator: Adobe Illustrator 25.2.1, SVG Export Plug-In . SVG Version: 6.00 Build 0)  -->
<svg version="1.1" id="Layer_1" xmlns="http://www.w3.org/2000/svg" xmlns:xlink="http://www.w3.org/1999/xlink" x="0px" y="0px"
	 viewBox="0 0 1802.8 965.1" style="enable-background:new 0 0 1802.8 965.1;" xml:space="preserve">
<style type="text/css">
	.st0{fill:#F8EC18;}
	.st1{fill:#FFFFFF;}
	.st2{enable-background:new    ;}
	.st3{fill:#231F20;}
	.st4{fill:#2C2C2C;}
</style>
<path class="st0" d="M1645,450.2c-62.2,62.2-152.5,79-229.9,50.6l0.2,0.2c-37-14.3-81-6.3-111.1,23.8c-30,30-38,73.9-23.9,110.8
	l-0.1-0.1c28.4,77.5,11.6,167.8-50.6,229.9c-85.4,85.4-223.7,85.4-309.1,0c-64.5-64.5-80.2-159.3-47.2-238.5
	c9.9-34.9,1-74.4-26.7-102.1c-30-30-73.9-38-110.8-23.9l0.1-0.1c-50.7,18.6-106.9,17.8-157.1-2.4c-35.3-10.5-75.5-1.8-103.6,26.3
	c-30,30-38,73.9-23.9,110.8l-0.1-0.1c28.4,77.5,11.6,167.8-50.6,229.9c-85.4,85.4-223.7,85.4-309.1,0c-85.4-85.3-85.4-223.7,0-309
	c62.2-62.2,152.5-79,229.9-50.6l-0.1-0.1c36.9,14.1,80.8,6.2,110.8-23.9c27.4-27.4,36.4-66.2,27.1-100.8
	c-33.7-79.6-18.2-175,46.7-239.8c85.4-85.4,223.7-85.4,309.1,0c62.2,62.2,79,152.5,50.6,229.9l0.1-0.1
	c-14.1,36.9-6.2,80.8,23.9,110.8c28.5,28.5,69.3,37.1,104.9,25.9c49.9-19.8,105.7-20.4,156-2l-0.1-0.1
	c36.9,14.1,80.8,6.2,110.8-23.9c30.1-30.1,38-74.2,23.8-111.1l0.4,0.4c-28.4-77.5-11.6-167.7,50.6-229.9
	c85.4-85.4,223.7-85.4,309.1,0C1730.3,226.5,1730.3,364.8,1645,450.2z"/>
<circle class="st1" cx="246" cy="710.8" r="161.2"/>
<circle class="st1" cx="660.4" cy="295.6" r="161.2"/>
<circle class="st1" cx="1075" cy="710.8" r="161.2"/>
<ellipse transform="matrix(0.7071 -0.7071 0.7071 0.7071 227.4186 1140.4764)" class="st1" cx="1490.4" cy="295.7" rx="161.2" ry="161.2"/>
<g class="st2">
	<path class="st3" d="M127.6,188.8h15.2v22.1h2.3v8.8h-3v-5.8h-16.6v5.8h-3v-8.8h1.9c2-3,3-9.2,3-18.4V188.8z M139.5,191.8h-8.7v1.3
		c0,2.1-0.2,5-0.6,8.7c-0.4,3.7-1.1,6.7-2.2,9.1h11.6V191.8z"/>
	<path class="st3" d="M147.8,204.8c0-3.4,0.9-5.9,2.8-7.5c1.6-1.3,3.5-2,5.7-2c2.5,0,4.5,0.8,6.1,2.5c1.6,1.6,2.4,3.9,2.4,6.8
		c0,2.3-0.4,4.2-1.1,5.5c-0.7,1.3-1.7,2.4-3.1,3.1c-1.3,0.7-2.8,1.1-4.4,1.1c-2.5,0-4.6-0.8-6.2-2.4
		C148.6,210.2,147.8,207.9,147.8,204.8z M151,204.8c0,2.3,0.5,4.1,1.5,5.2c1,1.2,2.3,1.7,3.8,1.7c1.5,0,2.8-0.6,3.8-1.7
		c1-1.2,1.5-2.9,1.5-5.3c0-2.2-0.5-3.9-1.5-5.1c-1-1.2-2.3-1.7-3.8-1.7c-1.5,0-2.8,0.6-3.8,1.7C151.5,200.7,151,202.5,151,204.8z"/>
	<path class="st3" d="M180.3,207.2l3,0.4c-0.3,2.1-1.2,3.7-2.5,4.9c-1.4,1.2-3,1.8-5,1.8c-2.5,0-4.5-0.8-6-2.4c-1.5-1.6-2.3-4-2.3-7
		c0-2,0.3-3.7,1-5.1s1.6-2.6,3-3.3c1.3-0.7,2.8-1.1,4.3-1.1c2,0,3.6,0.5,4.8,1.5c1.3,1,2.1,2.4,2.4,4.2l-3,0.5
		c-0.3-1.2-0.8-2.1-1.5-2.8c-0.7-0.6-1.6-0.9-2.6-0.9c-1.5,0-2.8,0.6-3.8,1.7c-1,1.1-1.5,2.9-1.5,5.3c0,2.4,0.5,4.2,1.4,5.3
		c0.9,1.1,2.2,1.7,3.7,1.7c1.2,0,2.2-0.4,3-1.1C179.6,209.9,180.1,208.8,180.3,207.2z"/>
	<path class="st3" d="M184.3,195.7H199v2.5h-5.8v15.6h-3.1v-15.6h-5.8V195.7z"/>
	<path class="st3" d="M200.4,204.8c0-3.4,0.9-5.9,2.8-7.5c1.6-1.3,3.5-2,5.7-2c2.5,0,4.5,0.8,6.1,2.5c1.6,1.6,2.4,3.9,2.4,6.8
		c0,2.3-0.4,4.2-1.1,5.5c-0.7,1.3-1.7,2.4-3.1,3.1c-1.3,0.7-2.8,1.1-4.4,1.1c-2.5,0-4.6-0.8-6.2-2.4
		C201.2,210.2,200.4,207.9,200.4,204.8z M203.6,204.8c0,2.3,0.5,4.1,1.5,5.2c1,1.2,2.3,1.7,3.8,1.7c1.5,0,2.8-0.6,3.8-1.7
		c1-1.2,1.5-2.9,1.5-5.3c0-2.2-0.5-3.9-1.5-5.1c-1-1.2-2.3-1.7-3.8-1.7c-1.5,0-2.8,0.6-3.8,1.7C204.1,200.7,203.6,202.5,203.6,204.8
		z"/>
	<path class="st3" d="M221.1,195.7h7.1c1.7,0,3,0.1,3.9,0.4c0.8,0.3,1.6,0.8,2.2,1.6c0.6,0.8,0.9,1.7,0.9,2.8c0,0.9-0.2,1.6-0.5,2.3
		c-0.4,0.6-0.9,1.2-1.6,1.6c0.9,0.3,1.6,0.8,2.1,1.6c0.6,0.8,0.8,1.7,0.8,2.8c-0.1,1.7-0.7,3-1.8,3.8c-1.1,0.8-2.7,1.2-4.9,1.2h-8.2
		V195.7z M224.1,203.4h3.3c1.3,0,2.2-0.1,2.7-0.2c0.5-0.1,0.9-0.4,1.3-0.8c0.4-0.4,0.6-0.9,0.6-1.5c0-1-0.3-1.6-1-2
		s-1.8-0.6-3.5-0.6h-3.4V203.4z M224.1,211.3h4.1c1.7,0,2.9-0.2,3.6-0.6s1-1.1,1-2.1c0-0.6-0.2-1.1-0.6-1.6
		c-0.4-0.5-0.9-0.8-1.5-0.9c-0.6-0.1-1.6-0.2-2.9-0.2h-3.7V211.3z"/>
	<path class="st3" d="M251.7,208l3.2,0.4c-0.5,1.9-1.4,3.3-2.8,4.3c-1.4,1-3.1,1.5-5.2,1.5c-2.7,0-4.8-0.8-6.3-2.5
		c-1.6-1.6-2.3-3.9-2.3-6.9c0-3.1,0.8-5.4,2.4-7.1c1.6-1.7,3.6-2.5,6.1-2.5c2.4,0,4.4,0.8,5.9,2.5c1.5,1.7,2.3,4,2.3,7
		c0,0.2,0,0.5,0,0.8h-13.5c0.1,2,0.7,3.5,1.7,4.6c1,1.1,2.3,1.6,3.8,1.6c1.1,0,2.1-0.3,2.9-0.9C250.6,210.3,251.2,209.3,251.7,208z
		 M241.6,203h10.1c-0.1-1.5-0.5-2.7-1.2-3.4c-1-1.2-2.3-1.8-3.8-1.8c-1.4,0-2.6,0.5-3.6,1.4C242.2,200.2,241.7,201.5,241.6,203z"/>
	<path class="st3" d="M258.7,220.8v-25.1h2.8v2.4c0.7-0.9,1.4-1.6,2.2-2.1c0.8-0.5,1.8-0.7,3-0.7c1.5,0,2.9,0.4,4.1,1.2
		c1.2,0.8,2.1,1.9,2.7,3.4c0.6,1.5,0.9,3,0.9,4.8c0,1.9-0.3,3.5-1,5c-0.7,1.5-1.6,2.6-2.9,3.4c-1.3,0.8-2.6,1.2-4,1.2
		c-1,0-1.9-0.2-2.8-0.6c-0.8-0.4-1.5-1-2-1.6v8.8H258.7z M261.5,204.9c0,2.3,0.5,4.1,1.4,5.2c0.9,1.1,2.1,1.7,3.4,1.7
		c1.4,0,2.5-0.6,3.5-1.7c1-1.2,1.5-2.9,1.5-5.4c0-2.3-0.5-4-1.4-5.2c-1-1.2-2.1-1.7-3.4-1.7c-1.3,0-2.5,0.6-3.5,1.8
		C262,200.8,261.5,202.6,261.5,204.9z"/>
	<path class="st3" d="M278.2,195.7h3.1v7.6h8.5v-7.6h3.1v18.1h-3.1v-8h-8.5v8h-3.1V195.7z"/>
	<path class="st3" d="M297.6,195.7h3.1v7.1h3.9c2.5,0,4.5,0.5,5.9,1.5c1.4,1,2.1,2.3,2.1,4.1c0,1.5-0.6,2.8-1.7,3.9
		c-1.1,1.1-3,1.6-5.5,1.6h-7.7V195.7z M300.7,211.3h3.2c1.9,0,3.3-0.2,4.2-0.7c0.8-0.5,1.2-1.2,1.2-2.2c0-0.8-0.3-1.5-0.9-2.1
		s-2-0.9-4.1-0.9h-3.6V211.3z M314.8,195.7h3.1v18.1h-3.1V195.7z"/>
	<path class="st3" d="M335.1,208l3.2,0.4c-0.5,1.9-1.4,3.3-2.8,4.3c-1.4,1-3.1,1.5-5.2,1.5c-2.7,0-4.8-0.8-6.3-2.5
		c-1.6-1.6-2.3-3.9-2.3-6.9c0-3.1,0.8-5.4,2.4-7.1c1.6-1.7,3.6-2.5,6.1-2.5c2.4,0,4.4,0.8,5.9,2.5c1.5,1.7,2.3,4,2.3,7
		c0,0.2,0,0.5,0,0.8h-13.5c0.1,2,0.7,3.5,1.7,4.6c1,1.1,2.3,1.6,3.8,1.6c1.1,0,2.1-0.3,2.9-0.9C334,210.3,334.6,209.3,335.1,208z
		 M325,203h10.1c-0.1-1.5-0.5-2.7-1.2-3.4c-1-1.2-2.3-1.8-3.8-1.8c-1.4,0-2.6,0.5-3.6,1.4C325.6,200.2,325.1,201.5,325,203z"/>
	<path class="st3" d="M342.9,213.9v-3.5h3.5v3.5c0,1.3-0.2,2.3-0.7,3.1c-0.5,0.8-1.2,1.4-2.2,1.8l-0.9-1.3c0.6-0.3,1.1-0.7,1.4-1.3
		s0.5-1.3,0.5-2.4H342.9z"/>
</g>
<g class="st2">
	<path class="st3" d="M123.7,246.8c0-3.4,0.9-5.9,2.8-7.5c1.6-1.3,3.5-2,5.7-2c2.5,0,4.5,0.8,6.1,2.5c1.6,1.6,2.4,3.9,2.4,6.8
		c0,2.3-0.4,4.2-1.1,5.5c-0.7,1.3-1.7,2.4-3.1,3.1c-1.3,0.7-2.8,1.1-4.4,1.1c-2.5,0-4.6-0.8-6.2-2.4
		C124.5,252.2,123.7,249.9,123.7,246.8z M126.9,246.8c0,2.3,0.5,4.1,1.5,5.2c1,1.2,2.3,1.7,3.8,1.7c1.5,0,2.8-0.6,3.8-1.7
		c1-1.2,1.5-2.9,1.5-5.3c0-2.2-0.5-3.9-1.5-5.1c-1-1.2-2.3-1.7-3.8-1.7c-1.5,0-2.8,0.6-3.8,1.7C127.4,242.7,126.9,244.5,126.9,246.8
		z"/>
	<path class="st3" d="M157.7,230.2l2.7,0c-0.1,1.2-0.4,2.1-0.8,2.5c-0.4,0.5-1,0.8-1.6,0.9c-0.7,0.1-1.9,0.2-3.9,0.2
		c-2.5,0-4.3,0.2-5.2,0.7c-0.9,0.5-1.6,1.3-2,2.4c-0.4,1.1-0.6,2.5-0.7,4.2c0.8-1.2,1.7-2,2.7-2.6c1-0.6,2.2-0.9,3.5-0.9
		c2.4,0,4.4,0.8,5.9,2.5c1.6,1.6,2.3,3.8,2.3,6.6c0,2.1-0.4,3.9-1.2,5.2c-0.8,1.4-1.7,2.4-2.8,3.1c-1.1,0.7-2.5,1.1-4.4,1.1
		c-2.2,0-3.8-0.5-5-1.5c-1.2-1-2.1-2.2-2.8-3.8c-0.6-1.5-1-4.2-1-8c0-4.8,0.8-8,2.4-9.7c1.6-1.7,4.1-2.5,7.5-2.5
		c2.1,0,3.3,0,3.6-0.1C157.4,230.6,157.6,230.5,157.7,230.2z M157.5,246.7c0-1.9-0.4-3.4-1.3-4.6c-0.9-1.2-2.2-1.8-3.8-1.8
		c-1.7,0-3,0.6-3.9,1.9c-0.9,1.3-1.4,3-1.4,5.1c0,2.1,0.5,3.7,1.5,4.8c1,1.1,2.3,1.7,3.8,1.7c1.5,0,2.8-0.6,3.7-1.9
		C157,250.6,157.5,248.9,157.5,246.7z"/>
	<path class="st3" d="M161.6,237.7h8.1v7.1h3.9c2.8,0,4.8,0.5,6,1.6c1.3,1.1,1.9,2.4,1.9,4c0,1.6-0.6,2.9-1.8,4
		c-1.2,1-3,1.5-5.4,1.5h-7.7v-15.6h-5V237.7z M169.7,253.4h3.2c2,0,3.3-0.2,4.2-0.7s1.2-1.2,1.2-2.3c0-1-0.4-1.7-1.1-2.2
		c-0.7-0.5-2-0.8-3.9-0.8h-3.6V253.4z"/>
	<path class="st3" d="M197.5,250l3.2,0.4c-0.5,1.9-1.4,3.3-2.8,4.3c-1.4,1-3.1,1.5-5.2,1.5c-2.7,0-4.8-0.8-6.3-2.5
		c-1.6-1.6-2.3-3.9-2.3-6.9c0-3.1,0.8-5.4,2.4-7.1c1.6-1.7,3.6-2.5,6.1-2.5c2.4,0,4.4,0.8,5.9,2.5c1.5,1.7,2.3,4,2.3,7
		c0,0.2,0,0.5,0,0.8h-13.5c0.1,2,0.7,3.5,1.7,4.6c1,1.1,2.3,1.6,3.8,1.6c1.1,0,2.1-0.3,2.9-0.9C196.4,252.3,197.1,251.3,197.5,250z
		 M187.4,245h10.1c-0.1-1.5-0.5-2.7-1.2-3.4c-1-1.2-2.3-1.8-3.8-1.8c-1.4,0-2.6,0.5-3.6,1.4C188.1,242.2,187.5,243.5,187.4,245z"/>
	<path class="st3" d="M204.6,237.7h3.1v7.8c1,0,1.7-0.2,2.1-0.6c0.4-0.4,1-1.5,1.7-3.3c0.6-1.4,1.1-2.4,1.5-2.8
		c0.4-0.5,0.8-0.8,1.3-0.9c0.5-0.2,1.3-0.2,2.4-0.2h0.6v2.5l-0.9,0c-0.8,0-1.3,0.1-1.6,0.4c-0.2,0.3-0.6,1-1.1,2.2
		c-0.5,1.2-0.9,2-1.3,2.5c-0.4,0.5-1,0.9-1.8,1.2c1.3,0.4,2.6,1.6,3.9,3.7l3.4,5.6h-3.4l-3.3-5.6c-0.7-1.1-1.3-1.9-1.8-2.2
		c-0.5-0.4-1.1-0.5-1.8-0.5v8.4h-3.1V237.7z"/>
	<path class="st3" d="M218.6,237.7h14.7v2.5h-5.8v15.6h-3.1v-15.6h-5.8V237.7z"/>
	<path class="st3" d="M236.3,237.7h3.1v13.8l8.5-13.8h3.3v18.1h-3.1v-13.8l-8.5,13.8h-3.3V237.7z"/>
	<path class="st3" d="M255.9,237.7h7.1c1.7,0,3,0.1,3.9,0.4c0.8,0.3,1.6,0.8,2.2,1.6c0.6,0.8,0.9,1.7,0.9,2.8c0,0.9-0.2,1.6-0.5,2.3
		c-0.4,0.6-0.9,1.2-1.6,1.6c0.9,0.3,1.6,0.8,2.1,1.6c0.6,0.8,0.8,1.7,0.8,2.8c-0.1,1.7-0.7,3-1.8,3.8c-1.1,0.8-2.7,1.2-4.9,1.2h-8.2
		V237.7z M259,245.4h3.3c1.3,0,2.2-0.1,2.7-0.2c0.5-0.1,0.9-0.4,1.3-0.8c0.4-0.4,0.6-0.9,0.6-1.5c0-1-0.3-1.6-1-2s-1.8-0.6-3.5-0.6
		H259V245.4z M259,253.3h4.1c1.7,0,2.9-0.2,3.6-0.6s1-1.1,1-2.1c0-0.6-0.2-1.1-0.6-1.6c-0.4-0.5-0.9-0.8-1.5-0.9
		c-0.6-0.1-1.6-0.2-2.9-0.2H259V253.3z"/>
	<path class="st3" d="M274.5,237.7h3.1v7.6h8.5v-7.6h3.1v18.1h-3.1v-8h-8.5v8h-3.1V237.7z"/>
	<path class="st3" d="M293.9,237.7h3.1v7.1h3.9c2.5,0,4.5,0.5,5.9,1.5c1.4,1,2.1,2.3,2.1,4.1c0,1.5-0.6,2.8-1.7,3.9
		c-1.1,1.1-3,1.6-5.5,1.6h-7.7V237.7z M296.9,253.3h3.2c1.9,0,3.3-0.2,4.2-0.7c0.8-0.5,1.2-1.2,1.2-2.2c0-0.8-0.3-1.5-0.9-2.1
		s-2-0.9-4.1-0.9h-3.6V253.3z M311.1,237.7h3.1v18.1h-3.1V237.7z"/>
	<path class="st3" d="M331.4,250l3.2,0.4c-0.5,1.9-1.4,3.3-2.8,4.3c-1.4,1-3.1,1.5-5.2,1.5c-2.7,0-4.8-0.8-6.3-2.5
		c-1.6-1.6-2.3-3.9-2.3-6.9c0-3.1,0.8-5.4,2.4-7.1c1.6-1.7,3.6-2.5,6.1-2.5c2.4,0,4.4,0.8,5.9,2.5c1.5,1.7,2.3,4,2.3,7
		c0,0.2,0,0.5,0,0.8h-13.5c0.1,2,0.7,3.5,1.7,4.6c1,1.1,2.3,1.6,3.8,1.6c1.1,0,2.1-0.3,2.9-0.9C330.3,252.3,330.9,251.3,331.4,250z
		 M321.3,245h10.1c-0.1-1.5-0.5-2.7-1.2-3.4c-1-1.2-2.3-1.8-3.8-1.8c-1.4,0-2.6,0.5-3.6,1.4C321.9,242.2,321.4,243.5,321.3,245z"/>
</g>
<g class="st2">
	<path class="st3" d="M124.9,304.8v-25.1h2.8v2.4c0.7-0.9,1.4-1.6,2.2-2.1c0.8-0.5,1.8-0.7,3-0.7c1.5,0,2.9,0.4,4.1,1.2
		c1.2,0.8,2.1,1.9,2.7,3.4c0.6,1.5,0.9,3,0.9,4.8c0,1.9-0.3,3.5-1,5c-0.7,1.5-1.6,2.6-2.9,3.4c-1.3,0.8-2.6,1.2-4,1.2
		c-1,0-1.9-0.2-2.8-0.6c-0.8-0.4-1.5-1-2-1.6v8.8H124.9z M127.7,288.9c0,2.3,0.5,4.1,1.4,5.2c0.9,1.1,2.1,1.7,3.4,1.7
		c1.4,0,2.5-0.6,3.5-1.7c1-1.2,1.5-2.9,1.5-5.4c0-2.3-0.5-4-1.4-5.2c-1-1.2-2.1-1.7-3.4-1.7c-1.3,0-2.5,0.6-3.5,1.8
		C128.2,284.8,127.7,286.6,127.7,288.9z"/>
	<path class="st3" d="M156.8,292l3.2,0.4c-0.5,1.9-1.4,3.3-2.8,4.3c-1.4,1-3.1,1.5-5.2,1.5c-2.7,0-4.8-0.8-6.3-2.5
		c-1.6-1.6-2.3-3.9-2.3-6.9c0-3.1,0.8-5.4,2.4-7.1c1.6-1.7,3.6-2.5,6.1-2.5c2.4,0,4.4,0.8,5.9,2.5c1.5,1.7,2.3,4,2.3,7
		c0,0.2,0,0.5,0,0.8h-13.5c0.1,2,0.7,3.5,1.7,4.6c1,1.1,2.3,1.6,3.8,1.6c1.1,0,2.1-0.3,2.9-0.9C155.7,294.3,156.3,293.3,156.8,292z
		 M146.7,287h10.1c-0.1-1.5-0.5-2.7-1.2-3.4c-1-1.2-2.3-1.8-3.8-1.8c-1.4,0-2.6,0.5-3.6,1.4C147.3,284.2,146.8,285.5,146.7,287z"/>
	<path class="st3" d="M167.1,289.7v-2.4c1.3,0,2.2-0.1,2.7-0.2c0.5-0.1,0.9-0.4,1.3-0.8c0.4-0.5,0.6-1,0.6-1.7c0-0.8-0.3-1.5-0.8-2
		c-0.6-0.5-1.3-0.7-2.1-0.7c-1.7,0-2.9,1-3.6,3.1l-2.9-0.5c0.9-3.4,3.1-5.1,6.6-5.1c1.9,0,3.5,0.5,4.6,1.6c1.1,1.1,1.6,2.3,1.6,3.8
		c0,1.5-0.7,2.7-2.2,3.5c0.9,0.5,1.6,1.1,2.1,1.9c0.5,0.8,0.7,1.7,0.7,2.7c0,1.6-0.6,3-1.8,4c-1.2,1-2.8,1.5-5,1.5
		c-4.1,0-6.5-1.8-7.2-5.5l2.9-0.6c0.3,1.2,0.8,2.1,1.6,2.7c0.8,0.6,1.7,1,2.8,1c1,0,1.9-0.3,2.6-0.9c0.7-0.6,1-1.3,1-2.2
		c0-0.7-0.2-1.3-0.6-1.8c-0.4-0.5-0.9-0.9-1.4-1c-0.5-0.1-1.4-0.2-2.7-0.2C167.7,289.6,167.4,289.7,167.1,289.7z"/>
	<path class="st3" d="M178.6,304.9l-0.3-2.9c0.7,0.2,1.3,0.3,1.8,0.3c0.7,0,1.2-0.1,1.6-0.3c0.4-0.2,0.7-0.5,1-1
		c0.2-0.3,0.5-1.1,0.9-2.3c0.1-0.2,0.1-0.4,0.3-0.8l-6.9-18.2h3.3l3.8,10.5c0.5,1.3,0.9,2.7,1.3,4.2c0.4-1.4,0.8-2.8,1.3-4.1
		l3.9-10.6h3.1l-6.9,18.5c-0.7,2-1.3,3.4-1.7,4.1c-0.5,1-1.2,1.8-1.9,2.2c-0.7,0.5-1.5,0.7-2.5,0.7
		C180,305.2,179.3,305.1,178.6,304.9z"/>
	<path class="st3" d="M196.9,279.7h14.3v18.1h-3.1v-15.6H200v9c0,2.1-0.1,3.5-0.2,4.2c-0.1,0.7-0.5,1.3-1.1,1.8
		c-0.6,0.5-1.5,0.8-2.7,0.8c-0.7,0-1.5,0-2.5-0.1v-2.6h1.4c0.6,0,1.1-0.1,1.4-0.2c0.3-0.1,0.5-0.3,0.5-0.6c0.1-0.3,0.1-1.2,0.1-2.8
		V279.7z"/>
	<path class="st3" d="M215.8,279.7h3.1v7.1h3.9c2.5,0,4.5,0.5,5.9,1.5c1.4,1,2.1,2.3,2.1,4.1c0,1.5-0.6,2.8-1.7,3.9
		c-1.1,1.1-3,1.6-5.5,1.6h-7.7V279.7z M218.9,295.3h3.2c1.9,0,3.3-0.2,4.2-0.7c0.8-0.5,1.2-1.2,1.2-2.2c0-0.8-0.3-1.5-0.9-2.1
		s-2-0.9-4.1-0.9h-3.6V295.3z"/>
	<path class="st3" d="M229.7,279.7h14.7v2.5h-5.8v15.6h-3.1v-15.6h-5.8V279.7z"/>
	<path class="st3" d="M258.8,295.6c-1.1,1-2.2,1.7-3.3,2.1c-1.1,0.4-2.2,0.6-3.4,0.6c-2,0-3.5-0.5-4.6-1.5c-1.1-1-1.6-2.2-1.6-3.7
		c0-0.9,0.2-1.7,0.6-2.4c0.4-0.7,0.9-1.3,1.6-1.8c0.7-0.4,1.4-0.8,2.2-1c0.6-0.2,1.5-0.3,2.7-0.5c2.5-0.3,4.3-0.6,5.5-1.1
		c0-0.4,0-0.7,0-0.8c0-1.3-0.3-2.1-0.9-2.6c-0.8-0.7-2-1-3.5-1c-1.4,0-2.5,0.3-3.2,0.8c-0.7,0.5-1.2,1.4-1.5,2.7l-3-0.4
		c0.3-1.3,0.7-2.3,1.4-3.1c0.6-0.8,1.5-1.4,2.7-1.8c1.2-0.4,2.6-0.6,4.1-0.6c1.5,0,2.8,0.2,3.8,0.5c1,0.4,1.7,0.8,2.1,1.4
		c0.5,0.6,0.8,1.2,1,2.1c0.1,0.5,0.2,1.5,0.2,2.8v4.1c0,2.9,0.1,4.7,0.2,5.4c0.1,0.8,0.4,1.5,0.8,2.2h-3.2
		C259.1,297.2,258.9,296.5,258.8,295.6z M258.6,288.8c-1.1,0.5-2.8,0.8-5,1.2c-1.3,0.2-2.2,0.4-2.7,0.6c-0.5,0.2-0.9,0.6-1.2,1
		c-0.3,0.4-0.4,0.9-0.4,1.5c0,0.8,0.3,1.5,0.9,2.1c0.6,0.5,1.5,0.8,2.7,0.8c1.2,0,2.2-0.3,3.2-0.8c0.9-0.5,1.6-1.2,2-2.1
		c0.3-0.7,0.5-1.7,0.5-3.1V288.8z"/>
	<path class="st3" d="M264,279.7h14.7v2.5h-5.8v15.6h-3.1v-15.6H264V279.7z"/>
	<path class="st3" d="M281.8,279.7h3.1v7.1h3.9c2.5,0,4.5,0.5,5.9,1.5c1.4,1,2.1,2.3,2.1,4.1c0,1.5-0.6,2.8-1.7,3.9
		c-1.1,1.1-3,1.6-5.5,1.6h-7.7V279.7z M284.9,295.3h3.2c1.9,0,3.3-0.2,4.2-0.7c0.8-0.5,1.2-1.2,1.2-2.2c0-0.8-0.3-1.5-0.9-2.1
		s-2-0.9-4.1-0.9h-3.6V295.3z M299,279.7h3.1v18.1H299V279.7z"/>
</g>
<g class="st2">
	<path class="st3" d="M124.9,321.7h3.1v13.8l8.5-13.8h3.3v18.1h-3.1v-13.8l-8.5,13.8h-3.3V321.7z"/>
	<path class="st3" d="M156.3,333.2l3,0.4c-0.3,2.1-1.2,3.7-2.5,4.9c-1.4,1.2-3,1.8-5,1.8c-2.5,0-4.5-0.8-6-2.4c-1.5-1.6-2.3-4-2.3-7
		c0-2,0.3-3.7,1-5.1s1.6-2.6,3-3.3c1.3-0.7,2.8-1.1,4.3-1.1c2,0,3.6,0.5,4.8,1.5c1.3,1,2.1,2.4,2.4,4.2l-3,0.5
		c-0.3-1.2-0.8-2.1-1.5-2.8c-0.7-0.6-1.6-0.9-2.6-0.9c-1.5,0-2.8,0.6-3.8,1.7c-1,1.1-1.5,2.9-1.5,5.3c0,2.4,0.5,4.2,1.4,5.3
		c0.9,1.1,2.2,1.7,3.7,1.7c1.2,0,2.2-0.4,3-1.1C155.6,335.9,156.1,334.8,156.3,333.2z"/>
	<path class="st3" d="M162,321.7h14.3v18.1h-3.1v-15.6H165v15.6H162V321.7z"/>
	<path class="st3" d="M181,321.7h3.1v7.1h3.9c2.5,0,4.5,0.5,5.9,1.5c1.4,1,2.1,2.3,2.1,4.1c0,1.5-0.6,2.8-1.7,3.9
		c-1.1,1.1-3,1.6-5.5,1.6H181V321.7z M184,337.3h3.2c1.9,0,3.3-0.2,4.2-0.7c0.8-0.5,1.2-1.2,1.2-2.2c0-0.8-0.3-1.5-0.9-2.1
		s-2-0.9-4.1-0.9H184V337.3z M198.2,321.7h3.1v18.1h-3.1V321.7z"/>
	<path class="st3" d="M204.4,321.7h14.7v2.5h-5.8v15.6h-3.1v-15.6h-5.8V321.7z"/>
	<path class="st3" d="M233.5,337.6c-1.1,1-2.2,1.7-3.3,2.1c-1.1,0.4-2.2,0.6-3.4,0.6c-2,0-3.5-0.5-4.6-1.5c-1.1-1-1.6-2.2-1.6-3.7
		c0-0.9,0.2-1.7,0.6-2.4c0.4-0.7,0.9-1.3,1.6-1.8c0.7-0.4,1.4-0.8,2.2-1c0.6-0.2,1.5-0.3,2.7-0.5c2.5-0.3,4.3-0.6,5.5-1.1
		c0-0.4,0-0.7,0-0.8c0-1.3-0.3-2.1-0.9-2.6c-0.8-0.7-2-1-3.5-1c-1.4,0-2.5,0.3-3.2,0.8c-0.7,0.5-1.2,1.4-1.5,2.7l-3-0.4
		c0.3-1.3,0.7-2.3,1.4-3.1c0.6-0.8,1.5-1.4,2.7-1.8c1.2-0.4,2.6-0.6,4.1-0.6c1.5,0,2.8,0.2,3.8,0.5c1,0.4,1.7,0.8,2.1,1.4
		c0.5,0.6,0.8,1.2,1,2.1c0.1,0.5,0.2,1.5,0.2,2.8v4.1c0,2.9,0.1,4.7,0.2,5.4c0.1,0.8,0.4,1.5,0.8,2.2h-3.2
		C233.8,339.2,233.6,338.5,233.5,337.6z M233.3,330.8c-1.1,0.5-2.8,0.8-5,1.2c-1.3,0.2-2.2,0.4-2.7,0.6c-0.5,0.2-0.9,0.6-1.2,1
		c-0.3,0.4-0.4,0.9-0.4,1.5c0,0.8,0.3,1.5,0.9,2.1c0.6,0.5,1.5,0.8,2.7,0.8c1.2,0,2.2-0.3,3.2-0.8c0.9-0.5,1.6-1.2,2-2.1
		c0.3-0.7,0.5-1.7,0.5-3.1V330.8z"/>
	<path class="st3" d="M241.2,321.7h3.1v7.6h8.5v-7.6h3.1v18.1h-3.1v-8h-8.5v8h-3.1V321.7z"/>
	<path class="st3" d="M260.5,321.7h3.1v13.8l8.5-13.8h3.3v18.1h-3.1v-13.8l-8.5,13.8h-3.3V321.7z"/>
	<path class="st3" d="M280,321.7h3.1v13.8l8.5-13.8h3.3v18.1h-3.1v-13.8l-8.5,13.8H280V321.7z M290.7,314.8h2.1
		c-0.2,1.4-0.7,2.5-1.6,3.3c-0.9,0.8-2,1.1-3.5,1.1c-1.5,0-2.6-0.4-3.5-1.1c-0.9-0.8-1.4-1.9-1.6-3.3h2.1c0.2,0.8,0.5,1.4,0.9,1.7
		c0.5,0.4,1.1,0.6,1.9,0.6c0.9,0,1.6-0.2,2.1-0.6C290.2,316.2,290.6,315.6,290.7,314.8z"/>
</g>
<g class="st2">
	<path class="st3" d="M531.9,804.5h3.3v11c1.5,0,2.6-0.3,3.2-0.9s1.4-2,2.4-4.2c0.7-1.6,1.3-2.8,1.7-3.5c0.4-0.7,1.1-1.2,1.9-1.7
		c0.8-0.5,1.7-0.7,2.8-0.7c1.3,0,1.9,0,2,0v2.9c-0.1,0-0.3,0-0.7,0c-0.4,0-0.6,0-0.7,0c-1.1,0-1.8,0.3-2.4,0.8
		c-0.5,0.5-1.1,1.6-1.8,3.3c-0.8,2.1-1.6,3.5-2.1,4s-1.3,1-2.1,1.3c1.6,0.4,3.2,1.9,4.8,4.5l5.2,8.3h-4.1l-4.2-6.8
		c-1.2-1.9-2.1-3.2-2.9-3.9c-0.8-0.7-1.8-1.1-3-1.1v11.7h-3.3V804.5z"/>
	<path class="st3" d="M550.7,820.4c0-3.4,0.9-5.9,2.8-7.5c1.6-1.3,3.5-2,5.7-2c2.5,0,4.5,0.8,6.1,2.5c1.6,1.6,2.4,3.9,2.4,6.8
		c0,2.3-0.4,4.2-1.1,5.5c-0.7,1.3-1.7,2.4-3.1,3.1c-1.3,0.7-2.8,1.1-4.4,1.1c-2.5,0-4.6-0.8-6.2-2.4
		C551.5,825.9,550.7,823.5,550.7,820.4z M553.9,820.4c0,2.3,0.5,4.1,1.5,5.2c1,1.2,2.3,1.7,3.8,1.7c1.5,0,2.8-0.6,3.8-1.7
		c1-1.2,1.5-2.9,1.5-5.3c0-2.2-0.5-3.9-1.5-5.1c-1-1.2-2.3-1.7-3.8-1.7c-1.5,0-2.8,0.6-3.8,1.7C554.4,816.4,553.9,818.1,553.9,820.4
		z"/>
	<path class="st3" d="M571.3,811.4h3.1v7.6h8.5v-7.6h3.1v18.1h-3.1v-8h-8.5v8h-3.1V811.4z"/>
	<path class="st3" d="M590.6,811.4h3.1v7.8c1,0,1.7-0.2,2.1-0.6c0.4-0.4,1-1.5,1.7-3.3c0.6-1.4,1.1-2.4,1.5-2.8
		c0.4-0.5,0.8-0.8,1.3-0.9c0.5-0.2,1.3-0.2,2.4-0.2h0.6v2.5l-0.9,0c-0.8,0-1.3,0.1-1.6,0.4c-0.2,0.3-0.6,1-1.1,2.2
		c-0.5,1.2-0.9,2-1.3,2.5c-0.4,0.5-1,0.9-1.8,1.2c1.3,0.4,2.6,1.6,3.9,3.7l3.4,5.6h-3.4l-3.3-5.6c-0.7-1.1-1.3-1.9-1.8-2.2
		c-0.5-0.4-1.1-0.5-1.8-0.5v8.4h-3.1V811.4z"/>
	<path class="st3" d="M606.2,836.5l-0.3-2.9c0.7,0.2,1.3,0.3,1.8,0.3c0.7,0,1.2-0.1,1.6-0.3c0.4-0.2,0.7-0.5,1-1
		c0.2-0.3,0.5-1.1,0.9-2.3c0.1-0.2,0.1-0.4,0.3-0.8l-6.9-18.2h3.3l3.8,10.5c0.5,1.3,0.9,2.7,1.3,4.2c0.4-1.4,0.8-2.8,1.3-4.1
		l3.9-10.6h3.1l-6.9,18.5c-0.7,2-1.3,3.4-1.7,4.1c-0.5,1-1.2,1.8-1.9,2.2c-0.7,0.5-1.5,0.7-2.5,0.7
		C607.6,836.9,606.9,836.8,606.2,836.5z"/>
	<path class="st3" d="M623.5,836.5v-25.1h2.8v2.4c0.7-0.9,1.4-1.6,2.2-2.1c0.8-0.5,1.8-0.7,3-0.7c1.5,0,2.9,0.4,4.1,1.2
		c1.2,0.8,2.1,1.9,2.7,3.4c0.6,1.5,0.9,3,0.9,4.8c0,1.9-0.3,3.5-1,5c-0.7,1.5-1.6,2.6-2.9,3.4c-1.3,0.8-2.6,1.2-4,1.2
		c-1,0-1.9-0.2-2.8-0.6c-0.8-0.4-1.5-1-2-1.6v8.8H623.5z M626.2,820.5c0,2.3,0.5,4.1,1.4,5.2c0.9,1.1,2.1,1.7,3.4,1.7
		c1.4,0,2.5-0.6,3.5-1.7c1-1.2,1.5-2.9,1.5-5.4c0-2.3-0.5-4-1.4-5.2c-1-1.2-2.1-1.7-3.4-1.7c-1.3,0-2.5,0.6-3.5,1.8
		C626.7,816.4,626.2,818.2,626.2,820.5z"/>
	<path class="st3" d="M655.3,823.7l3.2,0.4c-0.5,1.9-1.4,3.3-2.8,4.3c-1.4,1-3.1,1.5-5.2,1.5c-2.7,0-4.8-0.8-6.3-2.5
		c-1.6-1.6-2.3-3.9-2.3-6.9c0-3.1,0.8-5.4,2.4-7.1c1.6-1.7,3.6-2.5,6.1-2.5c2.4,0,4.4,0.8,5.9,2.5c1.5,1.7,2.3,4,2.3,7
		c0,0.2,0,0.5,0,0.8h-13.5c0.1,2,0.7,3.5,1.7,4.6c1,1.1,2.3,1.6,3.8,1.6c1.1,0,2.1-0.3,2.9-0.9C654.2,825.9,654.9,825,655.3,823.7z
		 M645.2,818.7h10.1c-0.1-1.5-0.5-2.7-1.2-3.4c-1-1.2-2.3-1.8-3.8-1.8c-1.4,0-2.6,0.5-3.6,1.4C645.9,815.9,645.3,817.1,645.2,818.7z
		"/>
	<path class="st3" d="M662.4,811.4h3.1v7.6h8.5v-7.6h3.1v18.1H674v-8h-8.5v8h-3.1V811.4z"/>
	<path class="st3" d="M680.1,811.4h14.7v2.5H689v15.6h-3.1v-15.6h-5.8V811.4z"/>
	<path class="st3" d="M697.8,811.4h3.1v7.6h8.5v-7.6h3.1v18.1h-3.1v-8h-8.5v8h-3.1V811.4z"/>
	<path class="st3" d="M717.1,811.4h3.1v7.1h3.9c2.5,0,4.5,0.5,5.9,1.5c1.4,1,2.1,2.3,2.1,4.1c0,1.5-0.6,2.8-1.7,3.9
		c-1.1,1.1-3,1.6-5.5,1.6h-7.7V811.4z M720.2,827h3.2c1.9,0,3.3-0.2,4.2-0.7c0.8-0.5,1.2-1.2,1.2-2.2c0-0.8-0.3-1.5-0.9-2.1
		s-2-0.9-4.1-0.9h-3.6V827z M734.4,811.4h3.1v18.1h-3.1V811.4z"/>
	<path class="st3" d="M754.7,823.7l3.2,0.4c-0.5,1.9-1.4,3.3-2.8,4.3c-1.4,1-3.1,1.5-5.2,1.5c-2.7,0-4.8-0.8-6.3-2.5
		c-1.6-1.6-2.3-3.9-2.3-6.9c0-3.1,0.8-5.4,2.4-7.1c1.6-1.7,3.6-2.5,6.1-2.5c2.4,0,4.4,0.8,5.9,2.5c1.5,1.7,2.3,4,2.3,7
		c0,0.2,0,0.5,0,0.8h-13.5c0.1,2,0.7,3.5,1.7,4.6c1,1.1,2.3,1.6,3.8,1.6c1.1,0,2.1-0.3,2.9-0.9C753.6,825.9,754.2,825,754.7,823.7z
		 M744.6,818.7h10.1c-0.1-1.5-0.5-2.7-1.2-3.4c-1-1.2-2.3-1.8-3.8-1.8c-1.4,0-2.6,0.5-3.6,1.4C745.2,815.9,744.7,817.1,744.6,818.7z
		"/>
</g>
<g class="st2">
	<path class="st3" d="M531.5,853.4h3.1V869h8.5v-15.6h3.1V869h2v7.7h-2.5v-5.1h-14.1V853.4z"/>
	<path class="st3" d="M563.5,865.7l3.2,0.4c-0.5,1.9-1.4,3.3-2.8,4.3c-1.4,1-3.1,1.5-5.2,1.5c-2.7,0-4.8-0.8-6.3-2.5
		c-1.6-1.6-2.3-3.9-2.3-6.9c0-3.1,0.8-5.4,2.4-7.1c1.6-1.7,3.6-2.5,6.1-2.5c2.4,0,4.4,0.8,5.9,2.5c1.5,1.7,2.3,4,2.3,7
		c0,0.2,0,0.5,0,0.8h-13.5c0.1,2,0.7,3.5,1.7,4.6c1,1.1,2.3,1.6,3.8,1.6c1.1,0,2.1-0.3,2.9-0.9C562.4,867.9,563.1,867,563.5,865.7z
		 M553.4,860.7h10.1c-0.1-1.5-0.5-2.7-1.2-3.4c-1-1.2-2.3-1.8-3.8-1.8c-1.4,0-2.6,0.5-3.6,1.4C554.1,857.9,553.5,859.1,553.4,860.7z
		"/>
	<path class="st3" d="M570.6,853.4h3.1v7.6h8.5v-7.6h3.1v18.1h-3.1v-8h-8.5v8h-3.1V853.4z"/>
	<path class="st3" d="M590,853.4h3.1v7.1h3.9c2.5,0,4.5,0.5,5.9,1.5c1.4,1,2.1,2.3,2.1,4.1c0,1.5-0.6,2.8-1.7,3.9
		c-1.1,1.1-3,1.6-5.5,1.6H590V853.4z M593.1,869h3.2c1.9,0,3.3-0.2,4.2-0.7c0.8-0.5,1.2-1.2,1.2-2.2c0-0.8-0.3-1.5-0.9-2.1
		s-2-0.9-4.1-0.9h-3.6V869z M607.2,853.4h3.1v18.1h-3.1V853.4z"/>
</g>
<g class="st2">
	<path class="st3" d="M947.9,188.8h16.3v3h-12.9v7.7h6c2.2,0,4,0.2,5.3,0.6c1.3,0.4,2.4,1.2,3.1,2.4c0.8,1.2,1.2,2.5,1.2,4.1
		c0,1.3-0.3,2.4-0.8,3.5c-0.6,1.1-1.4,2-2.5,2.7c-1.1,0.7-3,1-5.7,1h-9.8V188.8z M951.2,211h6.6c1.8,0,3.1-0.4,4-1.1
		c0.9-0.7,1.3-1.8,1.3-3.3c0-1-0.3-1.9-0.8-2.6c-0.5-0.7-1.2-1.2-2.1-1.4c-0.9-0.2-2.5-0.3-4.7-0.3h-4.4V211z"/>
	<path class="st3" d="M970.4,195.7h3.1v7.1h3.9c2.5,0,4.5,0.5,5.9,1.5c1.4,1,2.1,2.3,2.1,4.1c0,1.5-0.6,2.8-1.7,3.9
		c-1.1,1.1-3,1.6-5.5,1.6h-7.7V195.7z M973.5,211.3h3.2c1.9,0,3.3-0.2,4.2-0.7c0.8-0.5,1.2-1.2,1.2-2.2c0-0.8-0.3-1.5-0.9-2.1
		s-2-0.9-4.1-0.9h-3.6V211.3z M987.6,195.7h3.1v18.1h-3.1V195.7z"/>
	<path class="st3" d="M1007.3,207.2l3,0.4c-0.3,2.1-1.2,3.7-2.5,4.9c-1.4,1.2-3,1.8-5,1.8c-2.5,0-4.5-0.8-6-2.4
		c-1.5-1.6-2.3-4-2.3-7c0-2,0.3-3.7,1-5.1s1.6-2.6,3-3.3c1.3-0.7,2.8-1.1,4.3-1.1c2,0,3.6,0.5,4.8,1.5c1.3,1,2.1,2.4,2.4,4.2l-3,0.5
		c-0.3-1.2-0.8-2.1-1.5-2.8s-1.6-0.9-2.6-0.9c-1.5,0-2.8,0.6-3.8,1.7c-1,1.1-1.5,2.9-1.5,5.3c0,2.4,0.5,4.2,1.4,5.3
		c0.9,1.1,2.2,1.7,3.7,1.7c1.2,0,2.2-0.4,3-1.1C1006.6,209.9,1007.1,208.8,1007.3,207.2z"/>
	<path class="st3" d="M1011.3,195.7h14.7v2.5h-5.8v15.6h-3.1v-15.6h-5.8V195.7z"/>
	<path class="st3" d="M1029,220.8v-25.1h2.8v2.4c0.7-0.9,1.4-1.6,2.2-2.1c0.8-0.5,1.8-0.7,3-0.7c1.5,0,2.9,0.4,4.1,1.2
		c1.2,0.8,2.1,1.9,2.7,3.4c0.6,1.5,0.9,3,0.9,4.8c0,1.9-0.3,3.5-1,5c-0.7,1.5-1.6,2.6-2.9,3.4c-1.3,0.8-2.6,1.2-4,1.2
		c-1,0-1.9-0.2-2.8-0.6c-0.8-0.4-1.5-1-2-1.6v8.8H1029z M1031.8,204.9c0,2.3,0.5,4.1,1.4,5.2c0.9,1.1,2.1,1.7,3.4,1.7
		c1.4,0,2.5-0.6,3.5-1.7s1.5-2.9,1.5-5.4c0-2.3-0.5-4-1.4-5.2c-1-1.2-2.1-1.7-3.4-1.7c-1.3,0-2.5,0.6-3.5,1.8
		S1031.8,202.6,1031.8,204.9z"/>
	<path class="st3" d="M1048.6,195.7h3.1v7.1h3.9c2.5,0,4.5,0.5,5.9,1.5c1.4,1,2.1,2.3,2.1,4.1c0,1.5-0.6,2.8-1.7,3.9
		c-1.1,1.1-3,1.6-5.5,1.6h-7.7V195.7z M1051.6,211.3h3.2c1.9,0,3.3-0.2,4.2-0.7c0.8-0.5,1.2-1.2,1.2-2.2c0-0.8-0.3-1.5-0.9-2.1
		s-2-0.9-4.1-0.9h-3.6V211.3z M1065.8,195.7h3.1v18.1h-3.1V195.7z"/>
	<path class="st3" d="M1086.1,208l3.2,0.4c-0.5,1.9-1.4,3.3-2.8,4.3s-3.1,1.5-5.2,1.5c-2.7,0-4.8-0.8-6.3-2.5
		c-1.6-1.6-2.3-3.9-2.3-6.9c0-3.1,0.8-5.4,2.4-7.1c1.6-1.7,3.6-2.5,6.1-2.5c2.4,0,4.4,0.8,5.9,2.5c1.5,1.7,2.3,4,2.3,7
		c0,0.2,0,0.5,0,0.8h-13.5c0.1,2,0.7,3.5,1.7,4.6c1,1.1,2.3,1.6,3.8,1.6c1.1,0,2.1-0.3,2.9-0.9C1085,210.3,1085.6,209.3,1086.1,208z
		 M1076,203h10.1c-0.1-1.5-0.5-2.7-1.2-3.4c-1-1.2-2.3-1.8-3.8-1.8c-1.4,0-2.6,0.5-3.6,1.4C1076.6,200.2,1076.1,201.5,1076,203z"/>
	<path class="st3" d="M1114.7,207.2l3,0.4c-0.3,2.1-1.2,3.7-2.5,4.9c-1.4,1.2-3,1.8-5,1.8c-2.5,0-4.5-0.8-6-2.4
		c-1.5-1.6-2.3-4-2.3-7c0-2,0.3-3.7,1-5.1c0.7-1.5,1.6-2.6,3-3.3c1.3-0.7,2.8-1.1,4.3-1.1c2,0,3.6,0.5,4.8,1.5
		c1.3,1,2.1,2.4,2.4,4.2l-3,0.5c-0.3-1.2-0.8-2.1-1.5-2.8c-0.7-0.6-1.6-0.9-2.6-0.9c-1.6,0-2.8,0.6-3.8,1.7c-1,1.1-1.5,2.9-1.5,5.3
		c0,2.4,0.5,4.2,1.4,5.3c0.9,1.1,2.2,1.7,3.7,1.7c1.2,0,2.2-0.4,3-1.1C1114,209.9,1114.5,208.8,1114.7,207.2z"/>
	<path class="st3" d="M1120.3,220.8v-25.1h2.8v2.4c0.7-0.9,1.4-1.6,2.2-2.1c0.8-0.5,1.8-0.7,3-0.7c1.5,0,2.9,0.4,4.1,1.2
		c1.2,0.8,2.1,1.9,2.7,3.4c0.6,1.5,0.9,3,0.9,4.8c0,1.9-0.3,3.5-1,5c-0.7,1.5-1.6,2.6-2.9,3.4c-1.3,0.8-2.6,1.2-4,1.2
		c-1,0-1.9-0.2-2.8-0.6s-1.5-1-2-1.6v8.8H1120.3z M1123.1,204.9c0,2.3,0.5,4.1,1.4,5.2c0.9,1.1,2.1,1.7,3.4,1.7
		c1.4,0,2.5-0.6,3.5-1.7c1-1.2,1.5-2.9,1.5-5.4c0-2.3-0.5-4-1.4-5.2c-1-1.2-2.1-1.7-3.4-1.7c-1.3,0-2.5,0.6-3.5,1.8
		C1123.6,200.8,1123.1,202.6,1123.1,204.9z"/>
	<path class="st3" d="M1138.7,204.8c0-3.4,0.9-5.9,2.8-7.5c1.6-1.3,3.5-2,5.7-2c2.5,0,4.5,0.8,6.1,2.5c1.6,1.6,2.4,3.9,2.4,6.8
		c0,2.3-0.3,4.2-1.1,5.5s-1.7,2.4-3.1,3.1c-1.3,0.7-2.8,1.1-4.4,1.1c-2.5,0-4.6-0.8-6.2-2.4C1139.4,210.2,1138.7,207.9,1138.7,204.8
		z M1141.8,204.8c0,2.3,0.5,4.1,1.5,5.2s2.3,1.7,3.8,1.7c1.5,0,2.8-0.6,3.8-1.7c1-1.2,1.5-2.9,1.5-5.3c0-2.2-0.5-3.9-1.5-5.1
		s-2.3-1.7-3.8-1.7c-1.5,0-2.8,0.6-3.8,1.7C1142.3,200.7,1141.8,202.5,1141.8,204.8z"/>
	<path class="st3" d="M1159.3,195.7h3.1v7.8c1,0,1.7-0.2,2.1-0.6c0.4-0.4,1-1.5,1.7-3.3c0.6-1.4,1.1-2.4,1.5-2.8
		c0.4-0.5,0.8-0.8,1.3-0.9c0.5-0.2,1.3-0.2,2.4-0.2h0.6v2.5l-0.9,0c-0.8,0-1.3,0.1-1.6,0.4c-0.2,0.3-0.6,1-1.1,2.2
		c-0.5,1.2-0.9,2-1.3,2.5c-0.4,0.5-1,0.9-1.8,1.2c1.3,0.4,2.6,1.6,3.9,3.7l3.4,5.6h-3.4l-3.3-5.6c-0.7-1.1-1.3-1.9-1.8-2.2
		c-0.5-0.4-1.1-0.5-1.8-0.5v8.4h-3.1V195.7z"/>
	<path class="st3" d="M1174.6,195.7h3.1v13.8l8.5-13.8h3.3v18.1h-3.1v-13.8l-8.5,13.8h-3.3V195.7z"/>
</g>
<g class="st2">
	<path class="st3" d="M947.4,237.7h3.1v13.8l8.5-13.8h3.3v18.1h-3.1v-13.8l-8.5,13.8h-3.3V237.7z"/>
	<path class="st3" d="M978.8,249.2l3,0.4c-0.3,2.1-1.2,3.7-2.5,4.9c-1.4,1.2-3,1.8-5,1.8c-2.5,0-4.5-0.8-6-2.4c-1.5-1.6-2.3-4-2.3-7
		c0-2,0.3-3.7,1-5.1s1.6-2.6,3-3.3c1.3-0.7,2.8-1.1,4.3-1.1c2,0,3.6,0.5,4.8,1.5c1.3,1,2.1,2.4,2.4,4.2l-3,0.5
		c-0.3-1.2-0.8-2.1-1.5-2.8s-1.6-0.9-2.6-0.9c-1.5,0-2.8,0.6-3.8,1.7c-1,1.1-1.5,2.9-1.5,5.3c0,2.4,0.5,4.2,1.4,5.3
		c0.9,1.1,2.2,1.7,3.7,1.7c1.2,0,2.2-0.4,3-1.1C978,251.9,978.6,250.8,978.8,249.2z"/>
	<path class="st3" d="M984.4,237.7h14.3v18.1h-3.1v-15.6h-8.2v15.6h-3.1V237.7z"/>
	<path class="st3" d="M1003.5,237.7h3.1v7.1h3.9c2.5,0,4.5,0.5,5.9,1.5c1.4,1,2.1,2.3,2.1,4.1c0,1.5-0.6,2.8-1.7,3.9
		c-1.1,1.1-3,1.6-5.5,1.6h-7.7V237.7z M1006.5,253.3h3.2c1.9,0,3.3-0.2,4.2-0.7c0.8-0.5,1.2-1.2,1.2-2.2c0-0.8-0.3-1.5-0.9-2.1
		s-2-0.9-4.1-0.9h-3.6V253.3z M1020.7,237.7h3.1v18.1h-3.1V237.7z"/>
	<path class="st3" d="M1026.9,237.7h14.7v2.5h-5.8v15.6h-3.1v-15.6h-5.8V237.7z"/>
	<path class="st3" d="M1056,253.6c-1.1,1-2.2,1.7-3.3,2.1c-1.1,0.4-2.2,0.6-3.4,0.6c-2,0-3.5-0.5-4.6-1.5c-1.1-1-1.6-2.2-1.6-3.7
		c0-0.9,0.2-1.7,0.6-2.4c0.4-0.7,0.9-1.3,1.6-1.8c0.7-0.4,1.4-0.8,2.2-1c0.6-0.2,1.5-0.3,2.7-0.5c2.5-0.3,4.3-0.6,5.5-1.1
		c0-0.4,0-0.7,0-0.8c0-1.3-0.3-2.1-0.9-2.6c-0.8-0.7-2-1-3.5-1c-1.4,0-2.5,0.3-3.2,0.8c-0.7,0.5-1.2,1.4-1.5,2.7l-3-0.4
		c0.3-1.3,0.7-2.3,1.4-3.1c0.6-0.8,1.5-1.4,2.7-1.8c1.2-0.4,2.6-0.6,4.1-0.6c1.5,0,2.8,0.2,3.8,0.5c1,0.4,1.7,0.8,2.1,1.4
		c0.5,0.6,0.8,1.2,1,2.1c0.1,0.5,0.2,1.5,0.2,2.8v4.1c0,2.9,0.1,4.7,0.2,5.4c0.1,0.8,0.4,1.5,0.8,2.2h-3.2
		C1056.3,255.2,1056.1,254.5,1056,253.6z M1055.8,246.8c-1.1,0.5-2.8,0.8-5,1.2c-1.3,0.2-2.2,0.4-2.7,0.6c-0.5,0.2-0.9,0.6-1.2,1
		c-0.3,0.4-0.4,0.9-0.4,1.5c0,0.8,0.3,1.5,0.9,2.1s1.5,0.8,2.7,0.8c1.2,0,2.2-0.3,3.2-0.8c0.9-0.5,1.6-1.2,2-2.1
		c0.3-0.7,0.5-1.7,0.5-3.1V246.8z"/>
	<path class="st3" d="M1063.7,237.7h3.1v7.6h8.5v-7.6h3.1v18.1h-3.1v-8h-8.5v8h-3.1V237.7z"/>
	<path class="st3" d="M1083,237.7h3.1v13.8l8.5-13.8h3.3v18.1h-3.1v-13.8l-8.5,13.8h-3.3V237.7z"/>
	<path class="st3" d="M1102.5,237.7h3.1v13.8l8.5-13.8h3.3v18.1h-3.1v-13.8l-8.5,13.8h-3.3V237.7z M1113.2,230.8h2.1
		c-0.2,1.4-0.7,2.5-1.6,3.3c-0.9,0.8-2,1.1-3.5,1.1c-1.5,0-2.6-0.4-3.5-1.1s-1.4-1.9-1.6-3.3h2.1c0.2,0.8,0.5,1.4,0.9,1.7
		c0.5,0.4,1.1,0.6,1.9,0.6c0.9,0,1.6-0.2,2.1-0.6C1112.7,232.2,1113,231.6,1113.2,230.8z"/>
</g>
<g class="st2">
	<path class="st3" d="M947.4,279.7h3.1v13.8l8.5-13.8h3.3v18.1h-3.1v-13.8l-8.5,13.8h-3.3V279.7z"/>
	<path class="st3" d="M976.7,279.7h7.1c1.7,0,3,0.1,3.9,0.4c0.8,0.3,1.6,0.8,2.2,1.6c0.6,0.8,0.9,1.7,0.9,2.8c0,0.9-0.2,1.6-0.5,2.3
		c-0.4,0.6-0.9,1.2-1.6,1.6c0.9,0.3,1.6,0.8,2.1,1.6c0.6,0.8,0.8,1.7,0.8,2.8c-0.1,1.7-0.7,3-1.8,3.8c-1.1,0.8-2.7,1.2-4.9,1.2h-8.2
		V279.7z M979.7,287.4h3.3c1.3,0,2.2-0.1,2.7-0.2s0.9-0.4,1.3-0.8c0.4-0.4,0.6-0.9,0.6-1.5c0-1-0.3-1.6-1-2s-1.8-0.6-3.5-0.6h-3.4
		V287.4z M979.7,295.3h4c1.7,0,2.9-0.2,3.6-0.6c0.6-0.4,1-1.1,1-2.1c0-0.6-0.2-1.1-0.6-1.6c-0.4-0.5-0.9-0.8-1.5-0.9
		c-0.6-0.1-1.6-0.2-2.9-0.2h-3.7V295.3z"/>
	<path class="st3" d="M995.3,279.7h3.1v7.1h3.9c2.5,0,4.5,0.5,5.9,1.5c1.4,1,2.1,2.3,2.1,4.1c0,1.5-0.6,2.8-1.7,3.9
		c-1.1,1.1-3,1.6-5.5,1.6h-7.7V279.7z M998.4,295.3h3.2c1.9,0,3.3-0.2,4.2-0.7c0.8-0.5,1.2-1.2,1.2-2.2c0-0.8-0.3-1.5-0.9-2.1
		s-2-0.9-4.1-0.9h-3.6V295.3z M1012.5,279.7h3.1v18.1h-3.1V279.7z"/>
	<path class="st3" d="M1022.8,279.7h12.6v15.6h2v7.7h-2.5v-5.1h-14.3v5.1h-2.5v-7.7h1.6C1021.9,292.4,1022.9,287.2,1022.8,279.7z
		 M1025.4,282.3c-0.2,5.9-1.1,10.2-2.7,13.1h9.8v-13.1H1025.4z"/>
	<path class="st3" d="M1052.7,295.6c-1.1,1-2.2,1.7-3.3,2.1c-1.1,0.4-2.2,0.6-3.4,0.6c-2,0-3.5-0.5-4.6-1.5c-1.1-1-1.6-2.2-1.6-3.7
		c0-0.9,0.2-1.7,0.6-2.4c0.4-0.7,0.9-1.3,1.6-1.8c0.7-0.4,1.4-0.8,2.2-1c0.6-0.2,1.5-0.3,2.7-0.5c2.5-0.3,4.3-0.6,5.5-1.1
		c0-0.4,0-0.7,0-0.8c0-1.3-0.3-2.1-0.9-2.6c-0.8-0.7-2-1-3.5-1c-1.4,0-2.5,0.3-3.2,0.8c-0.7,0.5-1.2,1.4-1.5,2.7l-3-0.4
		c0.3-1.3,0.7-2.3,1.4-3.1c0.6-0.8,1.5-1.4,2.7-1.8c1.2-0.4,2.6-0.6,4.1-0.6c1.5,0,2.8,0.2,3.8,0.5c1,0.4,1.7,0.8,2.1,1.4
		c0.5,0.6,0.8,1.2,1,2.1c0.1,0.5,0.2,1.5,0.2,2.8v4.1c0,2.9,0.1,4.7,0.2,5.4c0.1,0.8,0.4,1.5,0.8,2.2h-3.2
		C1053,297.2,1052.8,296.5,1052.7,295.6z M1052.4,288.8c-1.1,0.5-2.8,0.8-5,1.2c-1.3,0.2-2.2,0.4-2.7,0.6c-0.5,0.2-0.9,0.6-1.2,1
		c-0.3,0.4-0.4,0.9-0.4,1.5c0,0.8,0.3,1.5,0.9,2.1s1.5,0.8,2.7,0.8c1.2,0,2.2-0.3,3.2-0.8c0.9-0.5,1.6-1.2,2-2.1
		c0.3-0.7,0.5-1.7,0.5-3.1V288.8z"/>
	<path class="st3" d="M1058.4,279.7h3.1v3.4c0,1.5,0.1,2.6,0.3,3.2c0.2,0.7,0.6,1.2,1.3,1.7c0.7,0.5,1.5,0.7,2.5,0.7
		c1.2,0,2.7-0.3,4.5-0.9v-8.2h3.1v18.1h-3.1v-7.3c-1.9,0.6-3.7,0.9-5.3,0.9c-1.4,0-2.6-0.4-3.6-1.1c-1.1-0.7-1.8-1.6-2.1-2.6
		c-0.4-1-0.6-2.1-0.6-3.3V279.7z"/>
	<path class="st3" d="M1077.8,279.7h3.1v13.8l8.5-13.8h3.3v18.1h-3.1v-13.8l-8.5,13.8h-3.3V279.7z"/>
</g>
<g class="st2">
	<path class="st3" d="M947.4,321.7h14.3v18.1h-3.1v-15.6h-8.2v15.6h-3.1V321.7z"/>
	<path class="st3" d="M966.3,346.8v-25.1h2.8v2.4c0.7-0.9,1.4-1.6,2.2-2.1c0.8-0.5,1.8-0.7,3-0.7c1.5,0,2.9,0.4,4.1,1.2
		c1.2,0.8,2.1,1.9,2.7,3.4c0.6,1.5,0.9,3,0.9,4.8c0,1.9-0.3,3.5-1,5c-0.7,1.5-1.6,2.6-2.9,3.4c-1.3,0.8-2.6,1.2-4,1.2
		c-1,0-1.9-0.2-2.8-0.6s-1.5-1-2-1.6v8.8H966.3z M969.1,330.9c0,2.3,0.5,4.1,1.4,5.2c0.9,1.1,2.1,1.7,3.4,1.7c1.4,0,2.5-0.6,3.5-1.7
		c1-1.2,1.5-2.9,1.5-5.4c0-2.3-0.5-4-1.4-5.2c-1-1.2-2.1-1.7-3.4-1.7c-1.3,0-2.5,0.6-3.5,1.8C969.6,326.8,969.1,328.6,969.1,330.9z"
		/>
	<path class="st3" d="M984.7,330.8c0-3.4,0.9-5.9,2.8-7.5c1.6-1.3,3.5-2,5.7-2c2.5,0,4.5,0.8,6.1,2.5c1.6,1.6,2.4,3.9,2.4,6.8
		c0,2.3-0.3,4.2-1.1,5.5s-1.7,2.4-3.1,3.1c-1.3,0.7-2.8,1.1-4.4,1.1c-2.5,0-4.6-0.8-6.2-2.4C985.4,336.2,984.7,333.9,984.7,330.8z
		 M987.8,330.8c0,2.3,0.5,4.1,1.5,5.2s2.3,1.7,3.8,1.7c1.5,0,2.8-0.6,3.8-1.7c1-1.2,1.5-2.9,1.5-5.3c0-2.2-0.5-3.9-1.5-5.1
		s-2.3-1.7-3.8-1.7c-1.5,0-2.8,0.6-3.8,1.7C988.3,326.7,987.8,328.5,987.8,330.8z"/>
	<path class="st3" d="M1002.8,321.7h14.7v2.5h-5.8v15.6h-3.1v-15.6h-5.8V321.7z"/>
	<path class="st3" d="M1019,330.8c0-3.4,0.9-5.9,2.8-7.5c1.6-1.3,3.5-2,5.7-2c2.5,0,4.5,0.8,6.1,2.5c1.6,1.6,2.4,3.9,2.4,6.8
		c0,2.3-0.4,4.2-1.1,5.5c-0.7,1.3-1.7,2.4-3.1,3.1c-1.3,0.7-2.8,1.1-4.4,1.1c-2.5,0-4.6-0.8-6.2-2.4
		C1019.8,336.2,1019,333.9,1019,330.8z M1022.1,330.8c0,2.3,0.5,4.1,1.5,5.2s2.3,1.7,3.8,1.7c1.5,0,2.8-0.6,3.8-1.7s1.5-2.9,1.5-5.3
		c0-2.2-0.5-3.9-1.5-5.1s-2.3-1.7-3.8-1.7c-1.5,0-2.8,0.6-3.8,1.7C1022.7,326.7,1022.1,328.5,1022.1,330.8z"/>
	<path class="st3" d="M1039.6,321.7h3.1v7.8c1,0,1.7-0.2,2.1-0.6c0.4-0.4,1-1.5,1.7-3.3c0.6-1.4,1.1-2.4,1.5-2.8
		c0.4-0.5,0.8-0.8,1.3-0.9c0.5-0.2,1.3-0.2,2.4-0.2h0.6v2.5l-0.9,0c-0.8,0-1.3,0.1-1.6,0.4c-0.2,0.3-0.6,1-1.1,2.2
		c-0.5,1.2-0.9,2-1.3,2.5c-0.4,0.5-1,0.9-1.8,1.2c1.3,0.4,2.6,1.6,3.9,3.7l3.4,5.6h-3.4l-3.3-5.6c-0.7-1.1-1.3-1.9-1.8-2.2
		c-0.5-0.4-1.1-0.5-1.8-0.5v8.4h-3.1V321.7z"/>
	<path class="st3" d="M1054.2,330.8c0-3.4,0.9-5.9,2.8-7.5c1.6-1.3,3.5-2,5.7-2c2.5,0,4.5,0.8,6.1,2.5c1.6,1.6,2.4,3.9,2.4,6.8
		c0,2.3-0.3,4.2-1.1,5.5c-0.7,1.3-1.7,2.4-3.1,3.1c-1.3,0.7-2.8,1.1-4.4,1.1c-2.5,0-4.6-0.8-6.2-2.4
		C1054.9,336.2,1054.2,333.9,1054.2,330.8z M1057.3,330.8c0,2.3,0.5,4.1,1.5,5.2c1,1.2,2.3,1.7,3.8,1.7c1.5,0,2.8-0.6,3.8-1.7
		c1-1.2,1.5-2.9,1.5-5.3c0-2.2-0.5-3.9-1.5-5.1c-1-1.2-2.3-1.7-3.8-1.7c-1.5,0-2.8,0.6-3.8,1.7
		C1057.8,326.7,1057.3,328.5,1057.3,330.8z"/>
	<path class="st3" d="M1075.5,321.7h14.3v18.1h-3.1v-15.6h-8.2v9c0,2.1-0.1,3.5-0.2,4.2c-0.1,0.7-0.5,1.3-1.1,1.8
		c-0.6,0.5-1.5,0.8-2.7,0.8c-0.7,0-1.5,0-2.5-0.1v-2.6h1.4c0.6,0,1.1-0.1,1.4-0.2c0.3-0.1,0.5-0.3,0.5-0.6c0.1-0.3,0.1-1.2,0.1-2.8
		V321.7z"/>
	<path class="st3" d="M1093.7,330.8c0-3.4,0.9-5.9,2.8-7.5c1.6-1.3,3.5-2,5.7-2c2.5,0,4.5,0.8,6.1,2.5c1.6,1.6,2.4,3.9,2.4,6.8
		c0,2.3-0.3,4.2-1.1,5.5c-0.7,1.3-1.7,2.4-3.1,3.1c-1.3,0.7-2.8,1.1-4.4,1.1c-2.5,0-4.6-0.8-6.2-2.4
		C1094.5,336.2,1093.7,333.9,1093.7,330.8z M1096.8,330.8c0,2.3,0.5,4.1,1.5,5.2c1,1.2,2.3,1.7,3.8,1.7c1.5,0,2.8-0.6,3.8-1.7
		c1-1.2,1.5-2.9,1.5-5.3c0-2.2-0.5-3.9-1.5-5.1c-1-1.2-2.3-1.7-3.8-1.7c-1.5,0-2.8,0.6-3.8,1.7
		C1097.3,326.7,1096.8,328.5,1096.8,330.8z"/>
	<path class="st3" d="M1114.3,321.7h7.1c1.7,0,3,0.1,3.9,0.4c0.8,0.3,1.6,0.8,2.2,1.6c0.6,0.8,0.9,1.7,0.9,2.8
		c0,0.9-0.2,1.6-0.5,2.3c-0.4,0.6-0.9,1.2-1.6,1.6c0.9,0.3,1.6,0.8,2.1,1.6s0.8,1.7,0.8,2.8c-0.1,1.7-0.7,3-1.8,3.8
		c-1.1,0.8-2.7,1.2-4.9,1.2h-8.2V321.7z M1117.4,329.4h3.3c1.3,0,2.2-0.1,2.7-0.2c0.5-0.1,0.9-0.4,1.3-0.8s0.6-0.9,0.6-1.5
		c0-1-0.3-1.6-1-2s-1.8-0.6-3.5-0.6h-3.4V329.4z M1117.4,337.3h4.1c1.7,0,2.9-0.2,3.6-0.6s1-1.1,1-2.1c0-0.6-0.2-1.1-0.6-1.6
		c-0.4-0.5-0.9-0.8-1.5-0.9s-1.6-0.2-2.9-0.2h-3.7V337.3z"/>
</g>
<g class="st2">
	<path class="st3" d="M1367.8,804.5h3.3v11c1.5,0,2.6-0.3,3.2-0.9s1.4-2,2.4-4.2c0.7-1.6,1.3-2.8,1.7-3.5c0.5-0.7,1.1-1.2,1.9-1.7
		c0.8-0.5,1.7-0.7,2.8-0.7c1.3,0,1.9,0,2,0v2.9c-0.1,0-0.3,0-0.7,0c-0.4,0-0.6,0-0.7,0c-1.1,0-1.8,0.3-2.4,0.8
		c-0.5,0.5-1.1,1.6-1.8,3.3c-0.8,2.1-1.6,3.5-2.1,4c-0.6,0.6-1.3,1-2.1,1.3c1.6,0.4,3.2,1.9,4.8,4.5l5.2,8.3h-4.1l-4.2-6.8
		c-1.2-1.9-2.1-3.2-2.9-3.9c-0.8-0.7-1.8-1.1-3-1.1v11.7h-3.3V804.5z"/>
	<path class="st3" d="M1387.7,811.4h7.1c1.7,0,3,0.1,3.9,0.4c0.8,0.3,1.6,0.8,2.2,1.6c0.6,0.8,0.9,1.7,0.9,2.8
		c0,0.9-0.2,1.6-0.5,2.3c-0.4,0.6-0.9,1.2-1.6,1.6c0.9,0.3,1.6,0.8,2.1,1.6c0.6,0.8,0.8,1.7,0.8,2.8c-0.1,1.7-0.7,3-1.8,3.8
		c-1.1,0.8-2.7,1.2-4.9,1.2h-8.2V811.4z M1390.8,819h3.3c1.3,0,2.2-0.1,2.7-0.2s0.9-0.4,1.3-0.8c0.4-0.4,0.6-0.9,0.6-1.5
		c0-1-0.3-1.6-1-2s-1.8-0.6-3.5-0.6h-3.4V819z M1390.8,827h4c1.7,0,2.9-0.2,3.6-0.6c0.6-0.4,1-1.1,1-2.1c0-0.6-0.2-1.1-0.6-1.6
		c-0.4-0.5-0.9-0.8-1.5-0.9c-0.6-0.1-1.6-0.2-2.9-0.2h-3.7V827z"/>
	<path class="st3" d="M1417.8,827.3c-1.1,1-2.2,1.7-3.3,2.1c-1.1,0.4-2.2,0.6-3.4,0.6c-2,0-3.5-0.5-4.6-1.5c-1.1-1-1.6-2.2-1.6-3.7
		c0-0.9,0.2-1.7,0.6-2.4c0.4-0.7,0.9-1.3,1.6-1.8s1.4-0.8,2.2-1c0.6-0.2,1.5-0.3,2.7-0.5c2.5-0.3,4.3-0.6,5.5-1.1c0-0.4,0-0.7,0-0.8
		c0-1.3-0.3-2.1-0.9-2.6c-0.8-0.7-2-1-3.5-1c-1.4,0-2.5,0.3-3.2,0.8c-0.7,0.5-1.2,1.4-1.5,2.7l-3-0.4c0.3-1.3,0.7-2.3,1.3-3.1
		s1.5-1.4,2.7-1.8c1.2-0.4,2.6-0.6,4.1-0.6c1.5,0,2.8,0.2,3.8,0.5c1,0.4,1.7,0.8,2.1,1.4c0.5,0.6,0.8,1.2,1,2.1
		c0.1,0.5,0.2,1.5,0.2,2.8v4.1c0,2.9,0.1,4.7,0.2,5.4s0.4,1.5,0.8,2.2h-3.2C1418.1,828.9,1417.8,828.1,1417.8,827.3z M1417.5,820.4
		c-1.1,0.5-2.8,0.8-5,1.2c-1.3,0.2-2.2,0.4-2.7,0.6c-0.5,0.2-0.9,0.6-1.2,1c-0.3,0.4-0.4,0.9-0.4,1.5c0,0.8,0.3,1.5,0.9,2.1
		c0.6,0.5,1.5,0.8,2.7,0.8c1.2,0,2.2-0.3,3.2-0.8c0.9-0.5,1.6-1.2,2-2.1c0.3-0.7,0.5-1.7,0.5-3.1V820.4z"/>
	<path class="st3" d="M1426.9,811.4h14.3v18.1h-3.1v-15.6h-8.2v9c0,2.1-0.1,3.5-0.2,4.2c-0.1,0.7-0.5,1.3-1.1,1.8
		c-0.6,0.5-1.5,0.8-2.7,0.8c-0.7,0-1.5,0-2.5-0.1v-2.6h1.4c0.6,0,1.1-0.1,1.4-0.2c0.3-0.1,0.5-0.3,0.5-0.6c0.1-0.3,0.1-1.2,0.1-2.8
		V811.4z"/>
	<path class="st3" d="M1445.8,811.4h3.1v13.8l8.5-13.8h3.3v18.1h-3.1v-13.8l-8.5,13.8h-3.3V811.4z"/>
	<path class="st3" d="M1475.9,804.5h3.1v8.7c0.6-0.7,1.3-1.3,2.1-1.6c0.8-0.4,1.6-0.5,2.5-0.5c2.2,0,3.9,0.9,5.1,2.7
		c1.3,1.8,1.9,4.1,1.9,6.8c0,2.8-0.7,5.1-2,6.9s-3,2.6-5.1,2.6c-0.7,0-1.3-0.1-2-0.3s-1.5-0.8-2.5-1.7v8.5h-3.1v-8.5
		c-0.6,0.7-1.3,1.2-2,1.5c-0.7,0.3-1.6,0.5-2.4,0.5c-1.9,0-3.6-0.8-5-2.5c-1.4-1.7-2.1-4.1-2.1-7.2c0-2.6,0.6-4.8,1.9-6.6
		c1.3-1.8,3-2.7,5.2-2.7c0.9,0,1.7,0.2,2.5,0.5c0.7,0.4,1.4,0.9,2,1.6V804.5z M1467.5,820.2c0,2.6,0.4,4.4,1.3,5.5
		c0.9,1.1,1.9,1.7,3.2,1.7c1.3,0,2.3-0.6,3-1.7c0.7-1.1,1-2.8,1-5c0-2.4-0.3-4.2-1-5.4c-0.7-1.2-1.7-1.8-3.1-1.8
		c-1.3,0-2.3,0.6-3.1,1.8C1467.9,816.4,1467.5,818.1,1467.5,820.2z M1479,820.5c0,2.7,0.4,4.6,1.1,5.5c0.8,0.9,1.7,1.4,2.8,1.4
		c1.3,0,2.3-0.6,3.2-1.7c0.9-1.2,1.3-3,1.3-5.4c0-2.3-0.4-4-1.2-5.1s-1.9-1.7-3.1-1.7c-1.4,0-2.4,0.6-3.1,1.8
		C1479.3,816.4,1479,818.2,1479,820.5z"/>
	<path class="st3" d="M1494.2,811.4h3.1v13.8l8.5-13.8h3.3v18.1h-3.1v-13.8l-8.5,13.8h-3.3V811.4z"/>
	<path class="st3" d="M1513.8,811.4h3.1V827h8.5v-15.6h3.1V827h2v7.7h-2.5v-5.1h-14.1V811.4z"/>
	<path class="st3" d="M1533.7,811.4h3.1v13.8l8.5-13.8h3.3v18.1h-3.1v-13.8l-8.5,13.8h-3.3V811.4z"/>
	<path class="st3" d="M1553.3,836.5v-25.1h2.8v2.4c0.7-0.9,1.4-1.6,2.2-2.1c0.8-0.5,1.8-0.7,3-0.7c1.5,0,2.9,0.4,4.1,1.2
		c1.2,0.8,2.1,1.9,2.7,3.4c0.6,1.5,0.9,3,0.9,4.8c0,1.9-0.3,3.5-1,5c-0.7,1.5-1.6,2.6-2.9,3.4c-1.3,0.8-2.6,1.2-4,1.2
		c-1,0-1.9-0.2-2.8-0.6c-0.8-0.4-1.5-1-2-1.6v8.8H1553.3z M1556.1,820.5c0,2.3,0.5,4.1,1.4,5.2c0.9,1.1,2.1,1.7,3.4,1.7
		c1.4,0,2.5-0.6,3.5-1.7s1.5-2.9,1.5-5.4c0-2.3-0.5-4-1.4-5.2c-1-1.2-2.1-1.7-3.4-1.7c-1.3,0-2.5,0.6-3.5,1.8
		S1556.1,818.2,1556.1,820.5z"/>
	<path class="st3" d="M1571.6,820.4c0-3.4,0.9-5.9,2.8-7.5c1.6-1.3,3.5-2,5.7-2c2.5,0,4.5,0.8,6.1,2.5c1.6,1.6,2.4,3.9,2.4,6.8
		c0,2.3-0.4,4.2-1.1,5.5c-0.7,1.3-1.7,2.4-3.1,3.1c-1.3,0.7-2.8,1.1-4.4,1.1c-2.5,0-4.6-0.8-6.2-2.4
		C1572.4,825.9,1571.6,823.5,1571.6,820.4z M1574.8,820.4c0,2.3,0.5,4.1,1.5,5.2s2.3,1.7,3.8,1.7c1.5,0,2.8-0.6,3.8-1.7
		s1.5-2.9,1.5-5.3c0-2.2-0.5-3.9-1.5-5.1s-2.3-1.7-3.8-1.7c-1.5,0-2.8,0.6-3.8,1.7C1575.3,816.4,1574.8,818.1,1574.8,820.4z"/>
	<path class="st3" d="M1592.2,811.4h7.1c1.7,0,3,0.1,3.9,0.4c0.8,0.3,1.6,0.8,2.2,1.6c0.6,0.8,0.9,1.7,0.9,2.8
		c0,0.9-0.2,1.6-0.5,2.3s-0.9,1.2-1.6,1.6c0.9,0.3,1.6,0.8,2.1,1.6c0.6,0.8,0.8,1.7,0.8,2.8c-0.1,1.7-0.7,3-1.8,3.8
		c-1.1,0.8-2.7,1.2-4.9,1.2h-8.2V811.4z M1595.3,819h3.3c1.3,0,2.2-0.1,2.7-0.2s0.9-0.4,1.3-0.8c0.4-0.4,0.6-0.9,0.6-1.5
		c0-1-0.3-1.6-1-2s-1.8-0.6-3.5-0.6h-3.4V819z M1595.3,827h4c1.7,0,2.9-0.2,3.6-0.6s1-1.1,1-2.1c0-0.6-0.2-1.1-0.6-1.6
		c-0.4-0.5-0.9-0.8-1.5-0.9c-0.6-0.1-1.6-0.2-2.9-0.2h-3.7V827z"/>
	<path class="st3" d="M1622.3,827.3c-1.1,1-2.2,1.7-3.3,2.1c-1.1,0.4-2.2,0.6-3.4,0.6c-2,0-3.5-0.5-4.6-1.5c-1.1-1-1.6-2.2-1.6-3.7
		c0-0.9,0.2-1.7,0.6-2.4c0.4-0.7,0.9-1.3,1.6-1.8s1.4-0.8,2.2-1c0.6-0.2,1.5-0.3,2.7-0.5c2.5-0.3,4.3-0.6,5.5-1.1c0-0.4,0-0.7,0-0.8
		c0-1.3-0.3-2.1-0.9-2.6c-0.8-0.7-2-1-3.5-1c-1.4,0-2.5,0.3-3.2,0.8c-0.7,0.5-1.2,1.4-1.5,2.7l-3-0.4c0.3-1.3,0.7-2.3,1.4-3.1
		c0.6-0.8,1.5-1.4,2.7-1.8c1.2-0.4,2.6-0.6,4.1-0.6c1.5,0,2.8,0.2,3.8,0.5c1,0.4,1.7,0.8,2.1,1.4c0.5,0.6,0.8,1.2,1,2.1
		c0.1,0.5,0.2,1.5,0.2,2.8v4.1c0,2.9,0.1,4.7,0.2,5.4c0.1,0.8,0.4,1.5,0.8,2.2h-3.2C1622.6,828.9,1622.4,828.1,1622.3,827.3z
		 M1622,820.4c-1.1,0.5-2.8,0.8-5,1.2c-1.3,0.2-2.2,0.4-2.7,0.6c-0.5,0.2-0.9,0.6-1.2,1c-0.3,0.4-0.4,0.9-0.4,1.5
		c0,0.8,0.3,1.5,0.9,2.1s1.5,0.8,2.7,0.8c1.2,0,2.2-0.3,3.2-0.8c0.9-0.5,1.6-1.2,2-2.1c0.3-0.7,0.5-1.7,0.5-3.1V820.4z"/>
	<path class="st3" d="M1629.9,811.4h3.1v7.6h8.5v-7.6h3.1v18.1h-3.1v-8h-8.5v8h-3.1V811.4z"/>
	<path class="st3" d="M1649.2,811.4h3.1v7.6h8.5v-7.6h3.1v18.1h-3.1v-8h-8.5v8h-3.1V811.4z"/>
	<path class="st3" d="M1668.6,811.4h3.1v7.1h3.9c2.5,0,4.5,0.5,5.9,1.5c1.4,1,2.1,2.3,2.1,4.1c0,1.5-0.6,2.8-1.7,3.9
		c-1.1,1.1-3,1.6-5.5,1.6h-7.7V811.4z M1671.7,827h3.2c1.9,0,3.3-0.2,4.2-0.7s1.2-1.2,1.2-2.2c0-0.8-0.3-1.5-0.9-2.1s-2-0.9-4.1-0.9
		h-3.6V827z M1685.8,811.4h3.1v18.1h-3.1V811.4z"/>
	<path class="st3" d="M1706.1,823.7l3.2,0.4c-0.5,1.9-1.4,3.3-2.8,4.3s-3.1,1.5-5.2,1.5c-2.7,0-4.8-0.8-6.3-2.5s-2.3-3.9-2.3-6.9
		c0-3.1,0.8-5.4,2.4-7.1c1.6-1.7,3.6-2.5,6.1-2.5c2.4,0,4.4,0.8,5.9,2.5c1.5,1.7,2.3,4,2.3,7c0,0.2,0,0.5,0,0.8h-13.5
		c0.1,2,0.7,3.5,1.7,4.6c1,1.1,2.3,1.6,3.8,1.6c1.1,0,2.1-0.3,2.9-0.9C1705,825.9,1705.7,825,1706.1,823.7z M1696,818.7h10.1
		c-0.1-1.5-0.5-2.7-1.2-3.4c-1-1.2-2.2-1.8-3.8-1.8c-1.4,0-2.6,0.5-3.6,1.4C1696.7,815.9,1696.1,817.1,1696,818.7z"/>
</g>
<g class="st2">
	<path class="st3" d="M1379.2,864.9l3,0.4c-0.3,2.1-1.2,3.7-2.5,4.9c-1.4,1.2-3,1.8-5,1.8c-2.5,0-4.5-0.8-6-2.4
		c-1.5-1.6-2.3-4-2.3-7c0-2,0.3-3.7,1-5.1s1.6-2.6,3-3.3c1.3-0.7,2.8-1.1,4.3-1.1c2,0,3.6,0.5,4.8,1.5c1.3,1,2.1,2.4,2.4,4.2l-3,0.5
		c-0.3-1.2-0.8-2.1-1.5-2.8s-1.6-0.9-2.6-0.9c-1.5,0-2.8,0.6-3.8,1.7c-1,1.1-1.5,2.9-1.5,5.3c0,2.4,0.5,4.2,1.4,5.3
		c0.9,1.1,2.2,1.7,3.7,1.7c1.2,0,2.2-0.4,3-1.1C1378.4,867.5,1379,866.4,1379.2,864.9z"/>
	<path class="st3" d="M1384.8,853.4h14.3v18.1h-3.1v-15.6h-8.2v15.6h-3.1V853.4z"/>
	<path class="st3" d="M1416.2,865.7l3.2,0.4c-0.5,1.9-1.4,3.3-2.8,4.3s-3.1,1.5-5.2,1.5c-2.7,0-4.8-0.8-6.3-2.5
		c-1.6-1.6-2.3-3.9-2.3-6.9c0-3.1,0.8-5.4,2.4-7.1c1.6-1.7,3.6-2.5,6.1-2.5c2.4,0,4.4,0.8,5.9,2.5c1.5,1.7,2.3,4,2.3,7
		c0,0.2,0,0.5,0,0.8h-13.5c0.1,2,0.7,3.5,1.7,4.6c1,1.1,2.3,1.6,3.8,1.6c1.1,0,2.1-0.3,2.9-0.9
		C1415.1,867.9,1415.7,867,1416.2,865.7z M1406.1,860.7h10.1c-0.1-1.5-0.5-2.7-1.2-3.4c-1-1.2-2.3-1.8-3.8-1.8
		c-1.4,0-2.6,0.5-3.6,1.4C1406.7,857.9,1406.2,859.1,1406.1,860.7z"/>
	<path class="st3" d="M1423.3,853.4h3.1V869h8.5v-15.6h3.1V869h2v7.7h-2.5v-5.1h-14.1V853.4z"/>
	<path class="st3" d="M1443.3,853.4h3.1v13.8l8.5-13.8h3.3v18.1h-3.1v-13.8l-8.5,13.8h-3.3V853.4z"/>
	<path class="st3" d="M1474.7,869.3c-1.1,1-2.2,1.7-3.3,2.1c-1.1,0.4-2.2,0.6-3.4,0.6c-2,0-3.5-0.5-4.6-1.5c-1.1-1-1.6-2.2-1.6-3.7
		c0-0.9,0.2-1.7,0.6-2.4c0.4-0.7,0.9-1.3,1.6-1.8s1.4-0.8,2.2-1c0.6-0.2,1.5-0.3,2.7-0.5c2.5-0.3,4.3-0.6,5.5-1.1c0-0.4,0-0.7,0-0.8
		c0-1.3-0.3-2.1-0.9-2.6c-0.8-0.7-2-1-3.5-1c-1.4,0-2.5,0.3-3.2,0.8c-0.7,0.5-1.2,1.4-1.5,2.7l-3-0.4c0.3-1.3,0.7-2.3,1.4-3.1
		c0.6-0.8,1.5-1.4,2.7-1.8c1.2-0.4,2.6-0.6,4.1-0.6c1.5,0,2.8,0.2,3.8,0.5c1,0.4,1.7,0.8,2.1,1.4c0.5,0.6,0.8,1.2,1,2.1
		c0.1,0.5,0.2,1.5,0.2,2.8v4.1c0,2.9,0.1,4.7,0.2,5.4c0.1,0.8,0.4,1.5,0.8,2.2h-3.2C1475,870.9,1474.8,870.1,1474.7,869.3z
		 M1474.4,862.4c-1.1,0.5-2.8,0.8-5,1.2c-1.3,0.2-2.2,0.4-2.7,0.6c-0.5,0.2-0.9,0.6-1.2,1c-0.3,0.4-0.4,0.9-0.4,1.5
		c0,0.8,0.3,1.5,0.9,2.1s1.5,0.8,2.7,0.8c1.2,0,2.2-0.3,3.2-0.8c0.9-0.5,1.6-1.2,2-2.1c0.3-0.7,0.5-1.7,0.5-3.1V862.4z"/>
	<path class="st3" d="M1483.8,853.4h14.3v18.1h-3.1v-15.6h-8.2v9c0,2.1-0.1,3.5-0.2,4.2c-0.1,0.7-0.5,1.3-1.1,1.8
		c-0.6,0.5-1.5,0.8-2.7,0.8c-0.7,0-1.5,0-2.5-0.1v-2.6h1.3c0.6,0,1.1-0.1,1.4-0.2c0.3-0.1,0.5-0.3,0.5-0.6c0.1-0.3,0.1-1.2,0.1-2.8
		V853.4z"/>
	<path class="st3" d="M1502.7,853.4h3.1v13.8l8.5-13.8h3.3v18.1h-3.1v-13.8l-8.5,13.8h-3.3V853.4z"/>
	<path class="st3" d="M1534.1,864.9l3,0.4c-0.3,2.1-1.2,3.7-2.5,4.9c-1.4,1.2-3,1.8-5,1.8c-2.5,0-4.5-0.8-6-2.4
		c-1.5-1.6-2.3-4-2.3-7c0-2,0.3-3.7,1-5.1c0.6-1.5,1.6-2.6,3-3.3c1.3-0.7,2.8-1.1,4.3-1.1c2,0,3.6,0.5,4.8,1.5
		c1.3,1,2.1,2.4,2.4,4.2l-3,0.5c-0.3-1.2-0.8-2.1-1.5-2.8s-1.6-0.9-2.6-0.9c-1.5,0-2.8,0.6-3.8,1.7c-1,1.1-1.5,2.9-1.5,5.3
		c0,2.4,0.5,4.2,1.4,5.3c0.9,1.1,2.2,1.7,3.7,1.7c1.2,0,2.2-0.4,3-1.1C1533.4,867.5,1533.9,866.4,1534.1,864.9z"/>
	<path class="st3" d="M1538.1,853.4h14.7v2.5h-5.8v15.6h-3.1v-15.6h-5.8V853.4z"/>
	<path class="st3" d="M1555.9,853.4h3.1v7.1h3.9c2.5,0,4.5,0.5,5.9,1.5c1.4,1,2.1,2.3,2.1,4.1c0,1.5-0.6,2.8-1.7,3.9
		c-1.1,1.1-3,1.6-5.5,1.6h-7.7V853.4z M1559,869h3.2c1.9,0,3.3-0.2,4.2-0.7c0.8-0.5,1.2-1.2,1.2-2.2c0-0.8-0.3-1.5-0.9-2.1
		s-2-0.9-4.1-0.9h-3.6V869z M1573.1,853.4h3.1v18.1h-3.1V853.4z"/>
</g>
<path class="st0" d="M164.8,54.2c-11.4,0-20.5,4.3-27.3,13s-10.2,20.5-10.2,35.5c0,14.6,3.3,26.4,10,35.4s15.6,13.4,27,13.4
	c11.3,0,20.4-4.3,27.2-13s10.3-20.3,10.3-35c0-14.4-3.2-26.2-9.5-35.4C185.9,58.9,176.7,54.2,164.8,54.2z M172.5,123.9
	c-1.3,5-4,7.6-7.9,7.6c-3.6,0-6.2-2.1-7.6-6.3c-1.4-4.2-2.1-12.1-2.1-23.7c0-8.5,0.7-15.2,2.1-20.1c1.4-4.9,4-7.3,7.6-7.3
	c3,0,5.5,1.8,7.2,5.5c1.8,3.7,2.7,11.5,2.7,23.6C174.5,111.9,173.9,118.8,172.5,123.9z M262.4,129h22.3v21h-72.6v-21h23.3V84.2
	c-8.8,3.9-15.8,6.2-20.7,6.9V69.9c13.4-2.9,22.5-8.1,27.3-15.6h20.5V129H262.4z M566.7,665.4c-11.4,0-20.5,4.3-27.3,13
	s-10.2,20.5-10.2,35.5c0,14.6,3.3,26.4,10,35.4s15.6,13.4,27,13.4c11.3,0,20.4-4.3,27.2-13s10.3-20.3,10.3-35
	c0-14.4-3.2-26.2-9.5-35.4C587.7,670,578.6,665.4,566.7,665.4z M574.4,735.1c-1.3,5-4,7.6-7.9,7.6c-3.6,0-6.2-2.1-7.6-6.3
	c-1.4-4.2-2.1-12.1-2.1-23.7c0-8.5,0.7-15.2,2.1-20.1c1.4-4.9,4-7.3,7.6-7.3c3,0,5.5,1.8,7.2,5.5c1.8,3.7,2.7,11.5,2.7,23.6
	C576.4,723.1,575.7,730,574.4,735.1z M648.3,738.1h36.8l-1,23.2h-71.9v-21.7l16.1-11.3c2.4-1.6,6.7-5.1,13.2-10.4
	c6.4-5.3,10.6-9.4,12.6-12.3c2-2.9,2.9-5.9,2.9-9c0-3-0.9-5.4-2.6-7.2c-1.7-1.8-4-2.7-6.7-2.7c-6.9,0-10.8,5.4-11.7,16.3l-23.8-4.6
	c1.8-11.1,6.1-19.4,13-24.8c6.9-5.4,15.1-8.1,24.6-8.1c10.2,0,18.6,2.7,25.1,8.2s9.7,12.8,9.7,21.9c0,6.1-1.8,11.9-5.3,17.4
	C675.7,718.4,665.4,726.8,648.3,738.1z M971.9,54.3c-11.4,0-20.5,4.3-27.3,13s-10.2,20.5-10.2,35.5c0,14.6,3.3,26.4,10,35.4
	s15.6,13.4,27,13.4c11.3,0,20.4-4.3,27.2-13s10.3-20.3,10.3-35c0-14.4-3.2-26.2-9.5-35.4S983.8,54.3,971.9,54.3z M979.6,123.9
	c-1.3,5-4,7.6-7.9,7.6c-3.6,0-6.2-2.1-7.6-6.3c-1.4-4.2-2.1-12.2-2.1-23.7c0-8.5,0.7-15.2,2.1-20.1c1.4-4.9,4-7.3,7.6-7.3
	c3,0,5.5,1.8,7.2,5.5c1.8,3.7,2.7,11.5,2.7,23.6C981.6,111.9,981,118.8,979.6,123.9z M1092.4,123c0,9-3.4,16.1-10.3,21
	c-6.9,5-15.8,7.5-26.8,7.5c-22,0-35.5-10.1-40.4-30.3l24.6-3c1.6,8.6,6.2,12.9,13.8,12.9c3.5,0,6.3-0.9,8.4-2.7
	c2.2-1.8,3.2-4.2,3.2-7.3c0-2-0.6-3.8-1.8-5.4c-1.2-1.5-2.4-2.6-3.8-3.2c-1.3-0.6-3.6-0.9-6.9-0.9h-11.5V91.9h9.7
	c5.2,0,8.5-0.9,10-2.8c1.5-1.8,2.2-3.8,2.2-5.7c0-2.5-0.9-4.6-2.8-6.2c-1.8-1.7-4.3-2.5-7.3-2.5c-6.5,0-10.4,3.6-11.8,10.8
	l-22.8-3.6c2.1-8.8,6.5-15.7,13.2-20.5s14.6-7.2,23.8-7.2c10.3,0,18.6,2.4,24.9,7.3c6.3,4.8,9.4,11.3,9.4,19.4c0,4.8-1.3,9.1-4,12.6
	c-2.7,3.6-6,6-10.1,7.3C1086.8,104.2,1092.4,111.6,1092.4,123z M1410,665.4c-11.4,0-20.5,4.3-27.3,13s-10.2,20.5-10.2,35.5
	c0,14.6,3.3,26.4,10,35.4s15.6,13.4,27,13.4c11.3,0,20.4-4.3,27.2-13c6.8-8.7,10.3-20.3,10.3-35c0-14.4-3.2-26.2-9.5-35.4
	S1421.9,665.4,1410,665.4z M1417.7,735.1c-1.3,5-4,7.6-7.9,7.6c-3.6,0-6.2-2.1-7.6-6.3s-2.1-12.1-2.1-23.7c0-8.5,0.7-15.2,2.1-20.1
	c1.4-4.9,3.9-7.3,7.6-7.3c3,0,5.4,1.8,7.2,5.5c1.8,3.7,2.7,11.5,2.7,23.6C1419.7,723.1,1419.1,730,1417.7,735.1z M1519.4,719.9
	v-54.5h-29l-35.5,54.5v20.5h38.6v20.7h26v-20.7h13.3v-20.5H1519.4z M1493.4,719.9h-17.9l17.9-28.2V719.9z"/>
<path class="st4" d="M665.5,581.1c0,2.8-2.3,5.1-5.1,5.1s-5.1-2.3-5.1-5.1s2.3-5.1,5.1-5.1C663.2,576.1,665.5,578.3,665.5,581.1z
	 M660.4,555.3c-2.8,0-5.1,2.3-5.1,5.1s2.3,5.1,5.1,5.1s5.1-2.3,5.1-5.1S663.2,555.3,660.4,555.3z M660.4,596.8
	c-2.8,0-5.1,2.3-5.1,5.1s2.3,5.1,5.1,5.1s5.1-2.3,5.1-5.1S663.2,596.8,660.4,596.8z M1490.4,596.8c-2.8,0-5.1,2.3-5.1,5.1
	s2.3,5.1,5.1,5.1c2.8,0,5.1-2.3,5.1-5.1S1493.2,596.8,1490.4,596.8z M1490.4,576.1c-2.8,0-5.1,2.3-5.1,5.1s2.3,5.1,5.1,5.1
	c2.8,0,5.1-2.3,5.1-5.1S1493.2,576.1,1490.4,576.1z M660.4,617.6c-2.8,0-5.1,2.3-5.1,5.1s2.3,5.1,5.1,5.1s5.1-2.3,5.1-5.1
	C665.5,619.9,663.2,617.6,660.4,617.6z M1490.4,617.6c-2.8,0-5.1,2.3-5.1,5.1s2.3,5.1,5.1,5.1c2.8,0,5.1-2.3,5.1-5.1
	C1495.5,619.9,1493.2,617.6,1490.4,617.6z M1490.4,555.3c-2.8,0-5.1,2.3-5.1,5.1s2.3,5.1,5.1,5.1c2.8,0,5.1-2.3,5.1-5.1
	S1493.2,555.3,1490.4,555.3z M1075,456.5c2.8,0,5.1-2.3,5.1-5.1c0-2.8-2.3-5.1-5.1-5.1c-2.8,0-5.1,2.3-5.1,5.1
	S1072.2,456.5,1075,456.5z M246,435.7c2.8,0,5.1-2.3,5.1-5.1c0-2.8-2.3-5.1-5.1-5.1s-5.1,2.3-5.1,5.1
	C240.9,433.4,243.2,435.7,246,435.7z M246,394.2c2.8,0,5.1-2.3,5.1-5.1c0-2.8-2.3-5.1-5.1-5.1s-5.1,2.3-5.1,5.1
	C240.9,391.9,243.2,394.2,246,394.2z M1075,435.7c2.8,0,5.1-2.3,5.1-5.1c0-2.8-2.3-5.1-5.1-5.1c-2.8,0-5.1,2.3-5.1,5.1
	C1069.9,433.4,1072.2,435.7,1075,435.7z M1075,414.9c2.8,0,5.1-2.3,5.1-5.1c0-2.8-2.3-5.1-5.1-5.1c-2.8,0-5.1,2.3-5.1,5.1
	C1069.9,412.7,1072.2,414.9,1075,414.9z M246,414.9c2.8,0,5.1-2.3,5.1-5.1c0-2.8-2.3-5.1-5.1-5.1s-5.1,2.3-5.1,5.1
	C240.9,412.7,243.2,414.9,246,414.9z M1075,394.2c2.8,0,5.1-2.3,5.1-5.1c0-2.8-2.3-5.1-5.1-5.1c-2.8,0-5.1,2.3-5.1,5.1
	C1069.9,391.9,1072.2,394.2,1075,394.2z M246,456.5c2.8,0,5.1-2.3,5.1-5.1c0-2.8-2.3-5.1-5.1-5.1s-5.1,2.3-5.1,5.1
	S243.2,456.5,246,456.5z M213.7,666c2.1,0,3.8-1.7,3.8-3.8s-1.7-3.8-3.8-3.8l0,0c-2.1,0-3.7,1.7-3.7,3.8S211.7,666,213.7,666z
	 M213.7,650.5h49.5c2.1,0,3.8-1.7,3.8-3.8s-1.7-3.8-3.8-3.8h-49.5c-2.1,0-3.8,1.7-3.8,3.8C210,648.8,211.7,650.5,213.7,650.5z
	 M213.7,697H246c2.1,0,3.8-1.7,3.8-3.8s-1.7-3.8-3.8-3.8h-32.3c-2.1,0-3.8,1.7-3.8,3.8C210,695.3,211.7,697,213.7,697z M263.3,674
	h-49.5c-2.1,0-3.8,1.7-3.8,3.8s1.7,3.8,3.8,3.8h49.5c2.1,0,3.8-1.7,3.8-3.8C267,675.7,265.3,674,263.3,674z M263.3,705h-49.5
	c-2.1,0-3.8,1.7-3.8,3.8s1.7,3.8,3.8,3.8h49.5c2.1,0,3.8-1.7,3.8-3.8C267,706.7,265.3,705,263.3,705z M246,736h-32.3
	c-2.1,0-3.8,1.7-3.8,3.8s1.7,3.8,3.8,3.8H246c2.1,0,3.8-1.7,3.8-3.8C249.7,737.7,248.1,736,246,736z M263.3,720.5h-49.5
	c-2.1,0-3.8,1.7-3.8,3.8s1.7,3.8,3.8,3.8h49.5c2.1,0,3.8-1.7,3.8-3.8C267,722.2,265.3,720.5,263.3,720.5z M342,771.3
	c0,22.8-18.5,41.3-41.3,41.3c-13,0-24.6-6.1-32.2-15.5h-69.8c-10.3,0-18.8-8.4-18.8-18.8V650.5l0,0h-26.3c-2.1,0-3.8-1.7-3.8-3.8
	v-7.5c0-10.3,8.4-18.8,18.8-18.8l0,0h109.5h0.1c4.9,0,9.6,1.9,13.1,5.4c3.6,3.6,5.6,8.3,5.6,13.3v91c1.2-0.1,2.5-0.2,3.8-0.2
	C323.5,730,342,748.5,342,771.3z M180,639.2c0-6.2-5-11.3-11.2-11.3l0,0l0,0c-6.2,0-11.3,5-11.3,11.3v3.8H180V639.2z M263.8,789.5
	c-2.3-4.6-3.7-9.7-4.1-15h-42.1v3.8c0,4.2-1.4,8.1-3.8,11.3l0,0L263.8,789.5L263.8,789.5z M264.4,751.7c5.2-9.7,14.3-17.1,25.1-20.1
	v-92.4c0-3-1.2-5.9-3.3-8c-2.1-2.1-5-3.3-7.9-3.3h-94.5c2.4,3.1,3.8,7,3.8,11.3v139.1c0,6.2,5,11.3,11.3,11.3
	c6.2,0,11.3-5,11.3-11.3v-7.5c0-1,0.4-1.9,1.1-2.7c0.7-0.7,1.7-1.1,2.7-1.1h46c0.3-2.8,0.8-5.4,1.6-8H214c-2.1,0-3.8-1.7-3.8-3.8
	s1.7-3.8,3.8-3.8h49.5C263.7,751.5,264.1,751.6,264.4,751.7z M334.5,771.3c0-18.6-15.1-33.8-33.8-33.8c-18.6,0-33.8,15.1-33.8,33.8
	c0,18.6,15.1,33.8,33.8,33.8C319.4,805,334.5,789.9,334.5,771.3z M263.3,658.5h-32.6c-2.1,0-3.8,1.7-3.8,3.8s1.7,3.8,3.8,3.8h32.6
	c2.1,0,3.8-1.7,3.8-3.8C267,660.1,265.3,658.5,263.3,658.5z M322.7,754.2c2.1,2.1,3.3,5,3.3,8s-1.2,5.8-3.3,8l-18.3,18.3
	c-2.2,2.2-5.1,3.3-8,3.3s-5.8-1.1-8-3.3l-9.7-9.7c-4.4-4.4-4.4-11.5,0-15.9c2.1-2.1,5-3.3,8-3.3s5.8,1.2,8,3.3l1.8,1.8l10.4-10.4
	C311.2,749.8,318.4,749.8,322.7,754.2z M318.5,762.1c0-1-0.4-1.9-1.1-2.7c-1.5-1.5-3.8-1.5-5.3,0l-13,13c-1.5,1.5-3.8,1.5-5.3,0
	l-4.4-4.4c-0.7-0.7-1.7-1.1-2.7-1.1s-1.9,0.4-2.7,1.1c-1.5,1.5-1.5,3.8,0,5.3l9.7,9.7c1.5,1.5,3.8,1.5,5.3,0l18.3-18.3
	C318.2,764.1,318.5,763.1,318.5,762.1z M724.2,343.2c-0.5,0-1,0-1.6-0.1l-0.2-0.1c0-1.1,0-2.2-0.1-3.3c-0.4-2.1-1.6-3-4.1-3
	c-1,0.8-2,1-2.4,2.5c-0.1,1.3-0.1,2.5-0.2,3.8l-0.1,0.2c-2.5,0.4-4.4-0.4-5.7,1.3c-1.6,2.1-0.1,4.8,1.8,5.4c1.3,0,2.5,0,3.8,0.1
	c0.2,0.4,0.2,1.1,0.2,1.7c0,2.2,0.3,3.5,1.6,4.3c2.1,1.3,4.4-0.3,4.9-2c0.3-1,0.1-2.6,0.1-3.8l0.1-0.1c1-0.2,2.7,0.2,3.8-0.1
	c2.1-0.6,3.4-3.3,1.9-5.4C727.5,343.4,726.1,343.2,724.2,343.2z M591.5,229.5c1,0.3,2.6,0.1,3.8,0.1c0.2,0.4,0.2,1,0.2,1.7
	c0,2,0.1,3.4,1.2,4.2c2.1,1.5,4.7,0.1,5.3-1.9c0-1.3,0-2.5,0.1-3.8c0.5-0.2,1.1-0.2,1.8-0.2c2.2,0,3.5-0.4,4.3-1.8
	c0.4-0.7,0.4-1.9,0.1-2.6c-1-2.2-2.8-2.3-6.1-2.2l-0.1-0.1c-0.3-1.1,0.2-2.6-0.1-3.8c-0.4-1.6-1.7-2.6-3.7-2.6
	c-1.3,0.7-2.4,1-2.8,2.5c-0.3,1.2,0.2,2.8-0.1,3.9c-2.7,0.6-4.7-0.5-6,1.7C588.2,226.7,589.7,229,591.5,229.5z M726.1,192.2
	c-2.5-1.6-5.2-3.4-8.1-4.6c-3.3-1.5-6.8-2.8-10.4-4c-3.8-1.3-8.4-1.8-12.6-2.5c-3.8-0.6-8.3-0.4-12.5-0.3c-1,0.4-2.2,0.1-3.5,0.3
	s-2.7,0.3-4.2,0.6c-4.3,0.9-8.3,2-12.2,3.1c-0.9,0.4-1.7,0.8-2.6,1.2c-3.7,1.3-6.9,3.1-10,5c-9.5,5.5-17.2,13.1-23.1,22.2
	c-2.4,3.7-5.1,7.8-6.5,12.4c-0.6,2.1-1.9,4.4-2.5,6.6c-0.5,2.1-0.9,4.1-1.5,6.2l-0.1,1.3c-0.4,1.9-0.9,3.9-0.9,6.1
	c0,3-1.2,7.8,1,9.2c2.1,1.3,4.7,0.1,5.3-1.9v-4.3c0.5-2.9,0.8-6,1.3-8.6v-1c2.8-10.4,6.4-19,12.1-26.4c9.2-11.9,21.9-20.7,39.7-24.2
	c5-1,12.8-2,18.8-0.9c3.8,0.6,7.6,1.3,11.1,2.2c2.2,0.6,4.5,1.7,6.6,2.5c6.5,2.4,11.8,5.9,16.8,9.8c2.1,1.6,4.2,3.7,5.9,5.7
	c1.4,1.7,3.1,3.3,4.5,5.1c5.5,7.2,10,16.1,12.1,26.5c1.5,7.4,1.7,17.6,0,24.9c-0.2,1-0.1,1.7-0.3,2.7c-2.6,9.7-6.4,17.5-11.5,24.6
	c-5.5,7.6-12.9,13.4-21.4,18.1c-1.4,0.8-3,1.7-4.6,2.3c-3.5,1.4-7.3,2.7-11.2,3.7c-1.6,0.4-3,0.3-4.1,1.1c-2.7,2.2-0.6,6.8,3.7,5.9
	c20.7-4.5,35.3-15.2,45.6-30.1c2.7-3.8,4.8-8.2,6.9-12.5c1.2-2.4,1.7-5,2.6-7.7c4.6-14.3,3.1-33-1.8-45.6
	C748.3,211.8,738.9,200.2,726.1,192.2z M685.4,322.8c-1.3,2.8-3,3.6-5,5.6c0.1,0.8,0.8,1.3,1.1,1.8c0.6,1,1.1,2.3,1.4,3.6
	c0.4,1.4,0.3,3.3,0.1,4.6l-0.1,1.3c-0.6,2.3-1.8,4.9-3.5,6.2c-0.8,0.6-1.6,1.3-2.4,2c0.2,0.8,0.9,1.4,1.3,2.1
	c0.6,1.1,1.1,2.6,1.4,3.9l0.1,1.8c0.6,3.8-1.4,7.1-3,9c-0.8,1-2.3,1.7-3.1,2.7c0.1,1,1.9,2.9,2.3,4.2c1.5,5.9-0.5,11.5-4.1,14.2
	c-1.8,1.3-3.9,2.4-6.5,3h-58.3c-1.2-0.4-2.3-0.8-3.5-1.2c-4.9-1.4-9.6-2.7-14.4-4.1l-0.3,0.2c0,2.5-0.1,3.8-1.6,4.7
	c-1.3,0.9-5.5,0.4-7.6,0.4h-19.1c-4.4,0-9.9,1-10.9-2.5v-68.6c0-1.9-0.3-4.4,0.6-5.5c1.4-1.9,5.3-1.4,8.5-1.4c9.2,0,18.5,0,27.7,0.1
	c1.1,0.5,2,1.3,2.3,2.5c0.2,0.9-0.4,2.5,0.2,3c3.2-1.1,8.3-7.1,9.6-10.3c0.9-2.3,1.2-4.7,2-7.2c2.1-7.4,4.5-14.8,6.5-22.5
	c0.4-1.2,0.8-2.4,1.2-3.6c0.8-3,1.8-5.8,2.5-8.6c0.4-1.5,0.5-3,1.3-4.1c0.5-0.6,1.2-0.8,1.8-1.3c10.6-0.2,17,6.2,19.3,14.3
	c0.6,2.2,1.9,6.8,1.2,9.9c-1.1,4.8-1.1,10.2-2,15.2c-0.2,0.8-0.9,5.4-0.7,5.9l0.1,0.2H675c3,0.6,5.1,1.8,7.1,3.4
	C686.1,310.6,688.1,317.1,685.4,322.8z M582.5,317.4l-0.2-0.1c-8.5,0-17,0-25.5-0.1l-0.2,0.2v59.5c0,1.3-0.3,4.5,0.1,5.3h25.7
	l0.1-0.2L582.5,317.4L582.5,317.4z M680,315.9c-0.4-1-0.7-2-1.3-2.7c-2.3-3-6.8-2.3-12-2.3h-29.1c-2.6,0-9.9,0.5-11.3-0.5
	c-0.7-0.5-1.2-1.3-1.4-2.2c-0.3-1.2,0.3-2.6,0.4-3.7v-1.6c0.4-2.1,0.5-4.5,0.9-6.9c0.2-1.2,0.4-2.9,0.6-4v-1.7
	c0.3-1.6,0.6-3.8,0.9-5.4c0-0.6,0-1.2,0.1-1.7c0.2-1,0.5-2.6,0.3-4c-1.2-7.1-3.7-11.7-10.3-13.5l-0.3,0.2
	c-1.5,5.4-3.3,10.9-4.7,16.2c-0.6,2.2-0.9,4.1-1.6,6.4c-0.8,2.5-1.8,5.4-2.5,7.9c-1.3,5.1-2.6,11.2-5.1,15.3
	c-2.3,3.8-5.5,7.4-9.3,9.7c-0.8,0.4-1.6,0.9-2.5,1.3c-0.9,0.3-2.1,0.4-2.7,1.1c0,17.6,0,35.3,0.1,52.9c2.3,1,4.8,1.2,7.2,2
	c3.9,1.2,8.2,2.6,12.2,3.7H665c2.1-0.5,4.1-2,4.8-3.9c1.7-4.6-1.3-8-4.8-9h-9c-3.5,0-6.8,0.6-8.1-1.8c-0.2-0.3-0.5-0.8-0.4-1.3
	c0.6-4.6,4.7-3.5,9.6-3.5c7.2,0,14.1,1.2,16.1-4.2c1.5-4.1-1.7-8.4-5.1-8.7c-3,0-6,0-9,0.1c-4.1,0-7.3,0.6-8.2-2.7
	c-0.2-0.8,0.1-1.6,0.3-2.1c1.3-2.6,4.4-2,8.1-2h12.3c2.7-0.6,5.8-3.3,5.2-7.1c-0.5-3.2-2.5-5.2-5.6-5.8c-4.8,0-9.7,0-14.5,0.1
	c-1.2-0.3-2.3-1.4-2.6-2.6c-0.2-0.8,0.2-1.5,0.3-2c1.1-2.6,3.8-2,7.4-2h13c2.1-0.5,3.5-1.8,4.5-3.5
	C679.8,319.4,680.6,317.5,680,315.9z M696,269c0,2-1.6,3.6-3.6,3.6h-13.8v8c0,2-1.6,3.6-3.6,3.6s-3.6-1.6-3.6-3.6v-8h-8
	c-2,0-3.6-1.6-3.6-3.6s1.6-3.6,3.6-3.6h8v-10.2h-8c-2,0-3.6-1.6-3.6-3.6s1.6-3.6,3.6-3.6h8v-25.3c0-2,1.6-3.6,3.6-3.6h20.2
	c9.9,0,18,8.1,18,18s-8.1,18-18,18h-16.7v10.2h13.8C694.4,265.5,696,267.1,696,269z M678.6,248.1h16.7c6,0,10.9-4.9,10.9-10.9
	s-4.9-10.9-10.9-10.9h-16.7V248.1z M1137.6,777.6c-12.4,7.8-26.7,11.9-41.4,11.9c-42.8,0-77.6-34.8-77.6-77.6
	c0-17.3,5.6-33.7,16.1-47.4c1.2-1.5,0.9-3.6-0.6-4.8s-3.6-0.9-4.8,0.6c-11.5,14.9-17.6,32.7-17.6,51.6c0,46.6,37.9,84.5,84.5,84.5
	c16,0,31.6-4.5,45-13c1.6-1,2.1-3.1,1.1-4.7C1141.4,777,1139.2,776.6,1137.6,777.6z M966.1,696.2h34.5c1.9,0,3.4-1.5,3.4-3.4
	s-1.5-3.4-3.4-3.4h-34.5c-1.9,0-3.4,1.5-3.4,3.4S964.2,696.2,966.1,696.2z M1180.7,711.9c0,23.9-10.2,46.8-28,62.8
	c-0.7,0.6-1.5,0.9-2.3,0.9c-0.9,0-1.9-0.4-2.5-1.1c-1.3-1.4-1.1-3.6,0.3-4.8c16.3-14.7,25.7-35.7,25.7-57.7
	c0-42.8-34.8-77.6-77.6-77.6c-19.6,0-38.2,7.3-52.6,20.5c-1.4,1.3-3.5,1.2-4.8-0.2s-1.2-3.5,0.2-4.8c10.5-9.7,23.1-16.4,36.6-19.8
	V617c0-3.5,2.9-6.4,6.4-6.4h28.4c3.5,0,6.4,2.9,6.4,6.4v13C1153.5,639.2,1180.7,672.4,1180.7,711.9z M1110,617.4h-27.5v11.1
	c4.5-0.7,9.1-1.1,13.8-1.1c4.7,0,9.3,0.4,13.8,1.1v-11.1H1110z M1032.6,711.9c0-35.1,28.6-63.7,63.7-63.7s63.7,28.6,63.7,63.7
	s-28.6,63.7-63.7,63.7C1061.1,775.6,1032.6,747,1032.6,711.9z M1039.5,708.5h9.3c1.9,0,3.4,1.5,3.4,3.4s-1.5,3.4-3.4,3.4h-9.3
	c0.8,13.1,6,25.1,14.2,34.3l6.6-6.6c1.3-1.3,3.5-1.3,4.8,0s1.3,3.5,0,4.8l-6.6,6.6c9.2,8.2,21.2,13.5,34.3,14.2v-9.3
	c0-1.9,1.5-3.4,3.4-3.4s3.4,1.5,3.4,3.4v9.3c13.1-0.8,25.1-6,34.3-14.2l-6.6-6.6c-1.3-1.3-1.3-3.5,0-4.8s3.5-1.3,4.8,0l6.6,6.6
	c8.2-9.2,13.5-21.2,14.2-34.3h-9.3c-1.9,0-3.4-1.5-3.4-3.4s1.5-3.4,3.4-3.4h9.3c-0.8-13.1-6-25.1-14.2-34.3l-6.6,6.6
	c-0.7,0.7-1.5,1-2.4,1s-1.7-0.3-2.4-1c-1.3-1.3-1.3-3.5,0-4.8l6.6-6.6c-9.2-8.2-21.2-13.5-34.3-14.2v9.3c0,1.9-1.5,3.4-3.4,3.4
	s-3.4-1.5-3.4-3.4v-9.3c-13.1,0.8-25.1,6-34.3,14.2l6.6,6.6c1.3,1.3,1.3,3.5,0,4.8c-0.7,0.7-1.5,1-2.4,1s-1.7-0.3-2.4-1l-6.6-6.6
	C1045.5,683.4,1040.3,695.3,1039.5,708.5z M1096.3,714.3c1.3,0,2.4-0.7,3-1.7l11.8-11.8c1.3-1.3,1.3-3.5,0-4.8s-3.5-1.3-4.8,0
	l-6.5,6.5v-16.6c0-1.9-1.5-3.4-3.4-3.4s-3.4,1.5-3.4,3.4v25C1092.9,712.7,1094.4,714.3,1096.3,714.3z M999.4,712.6
	c0-1.9-1.5-3.4-3.4-3.4h-43.5c-1.9,0-3.4,1.5-3.4,3.4s1.5,3.4,3.4,3.4H996C997.9,716.1,999.4,714.5,999.4,712.6z M1003.9,731
	c0-1.9-1.5-3.4-3.4-3.4H966c-1.9,0-3.4,1.5-3.4,3.4s1.5,3.4,3.4,3.4h34.5C1002.4,734.4,1003.9,732.9,1003.9,731z M1005.1,747.4
	h-28.3c-1.9,0-3.4,1.5-3.4,3.4s1.5,3.4,3.4,3.4h28.3c1.9,0,3.4-1.5,3.4-3.4C1008.5,749,1007,747.4,1005.1,747.4z M1005.1,669.5
	h-28.3c-1.9,0-3.4,1.5-3.4,3.4s1.5,3.4,3.4,3.4h28.3c1.9,0,3.4-1.5,3.4-3.4S1007,669.5,1005.1,669.5z M1490.6,403.6
	c-33.4,0-63.1-11-81.6-27.9c-0.2-0.1-0.2-0.3-0.3-0.5l4.2-6.1l0.1,0.1c5.5-7.5,12.9-13.5,21.9-17.2l33.3-13.6c3.7-1.5,6.1-5,6.1-9
	v-2.3c-10-6.9-17.6-16.6-21.9-27.9h-0.8c-9,0-16.2-7.3-16.2-16.2c0-2.1,0.4-4.2,1.2-6l-1.6-1.2c-3-2.9-4.9-6.5-5.3-7.4
	c-4.1-6.5-5.1-14.4-2.7-21.7c2.2-6.7,7.1-12.1,13.6-15.2c1.1-6.9,4.9-13.1,10.8-17.2c5.9-4.1,13.1-5.7,20.2-4.5
	c5-5,11.9-7.8,19.1-7.8s14.1,2.8,19.1,7.8c7.1-1.2,14.3,0.4,20.2,4.5c5.9,4.1,9.7,10.3,10.7,17.2c6.4,3.1,11.3,8.5,13.6,15.2
	c2.4,7.3,1.5,15.2-2.7,21.7c-0.5,0.9-2.4,4.7-5.5,7.6l-1.4,1.3c0.7,1.8,1.1,3.7,1.1,5.7c0,9-7.3,16.2-16.2,16.2h-0.8
	c-4.3,11.3-12,21-21.9,27.9v2.3c0,4,2.4,7.5,6.1,9l33.3,13.6c9,3.7,16.3,9.8,21.8,17.3c0,0,0.1,0,0.1-0.1l1,1.6
	c0.5,0.8,1.1,1.5,1.6,2.3l-0.1,0.1l1.5,2.4C1553.7,392.6,1524.1,403.6,1490.6,403.6z M1499.9,395.8l12.6-12.6l-6.4-9.6l-7.4,22.2
	C1499.1,395.8,1499.5,395.8,1499.9,395.8z M1524,350l2.6,15.5l-12.1,9.1l6.3,9.4l-10.7,10.7c10.5-1.5,20.3-4.1,29.2-7.6v-17.4h6.5
	v14.6c6.4-3.1,12.2-6.7,17.3-10.7c-4.8-6.7-11.3-12.2-19.3-15.4L1524,350z M1506.4,372.6l13.2-9.9l-2.6-15.6l-1.8-0.8L1506.4,372.6z
	 M1526.4,262.1l-12.5-7.5l-8.9,8.9h21.4V262.1z M1539.3,283c0-4.2-2.7-7.8-6.5-9.1v3.8c0,3.8-0.4,7.4-1.1,11
	c-0.1,0.5-0.2,1.1-0.3,1.7c-0.2,0.8-0.3,1.5-0.5,2.3C1535.7,291.9,1539.3,287.9,1539.3,283z M1450.3,292.6c-0.2-0.7-0.4-1.5-0.5-2.3
	c-0.1-0.6-0.2-1.1-0.3-1.7c-0.7-3.6-1.1-7.3-1.1-11v-3.8c-3.8,1.3-6.5,4.9-6.5,9.1C1441.9,287.9,1445.6,291.9,1450.3,292.6z
	 M1468.4,246.4l9.5,9.5l12.7-9.5l12.7,9.5l9.5-9.5l20,12v8.7c3.2,0.7,6.1,2.3,8.3,4.6l0.4-0.4c2.5-2.4,4.2-5.8,4.2-5.8l0.2-0.4
	c3.1-4.9,3.9-10.8,2.1-16.3s-6.1-9.9-11.6-12.1l-1.9-0.7l-0.1-2c-0.4-5.8-3.4-11-8.2-14.4c-4.9-3.4-11-4.6-16.8-3.2l-1.9,0.5
	l-1.3-1.5c-3.9-4.5-9.5-7-15.5-7s-11.6,2.6-15.5,7l-1.3,1.5l-1.9-0.5c-5.8-1.4-12-0.3-16.8,3.2c-4.8,3.4-7.8,8.6-8.2,14.4l-0.1,2
	l-1.9,0.7c-5.6,2.2-9.8,6.6-11.6,12.1c-1.8,5.5-1.1,11.4,2.1,16.3l0.2,0.4c0,0,1.5,3.2,3.9,5.5l0.8,0.6c2.2-2.2,5.1-3.8,8.2-4.5
	v-8.7L1468.4,246.4z M1490.6,254.6l-11.9,8.9h23.8L1490.6,254.6z M1467.4,254.6l-12.5,7.5v1.4h21.4L1467.4,254.6z M1456.5,290.4
	c1.2,1.5,3,2.3,4.9,2.3h13.5c2.5,0,4.7-1.4,5.8-3.6l1.5-2.9h17l1.5,2.9c1.1,2.2,3.3,3.6,5.8,3.6h13.5c1.9,0,3.7-0.8,4.9-2.3
	c0.4-1.6,0.7-3.2,0.9-4.7l0,0c0.4-2.7,0.6-5.4,0.6-8.1V270H1455v7.6c0,2.7,0.2,5.5,0.6,8.1l0,0
	C1455.8,287.3,1456.1,288.8,1456.5,290.4z M1490.6,328.2c14.3-5.1,25.4-15.8,31.2-29.2c-0.7,0.1-1.3,0.2-2,0.2h-13.5
	c-4.7,0-8.9-2.5-11.3-6.5h-9c-2.3,4-6.6,6.5-11.2,6.5h-13.5c-0.7,0-1.4-0.1-2-0.2C1465.2,312.4,1476.3,323.2,1490.6,328.2z
	 M1500.5,331c-2.8,1.5-5.8,2.7-8.8,3.7l-1,0.3l-1-0.3c-3.1-1-6-2.3-8.8-3.7c-0.2,2.4-1,4.7-2.2,6.7l12.1,12.1l12.1-12.1
	C1501.5,335.7,1500.7,333.5,1500.5,331z M1461.7,362.7l13.2,9.9l-8.7-26.2l-1.8,0.8L1461.7,362.7z M1471.2,394.7l-10.7-10.7l6.3-9.4
	l-12.1-9.1l2.6-15.5l-19.7,8.1c-8,3.3-14.5,8.8-19.3,15.4c5.1,4,10.8,7.7,17.3,10.7v-14.6h6.5V387
	C1450.8,390.6,1460.6,393.2,1471.2,394.7z M1482.6,395.8l-7.4-22.2l-6.4,9.6l12.6,12.6C1481.8,395.8,1482.2,395.8,1482.6,395.8z
	 M1489.6,396.1c0.4,0,0.7,0,1.1,0s0.7,0,1.1,0l17.4-52.3c-0.7-0.4-1.4-0.8-2.1-1.3l-16.4,16.4l-16.4-16.4c-0.6,0.5-1.3,0.9-2.1,1.3
	L1489.6,396.1z"/>
</svg>
