<?xml version="1.0" encoding="utf-8"?>
<!-- Generator: Adobe Illustrator 25.1.0, SVG Export Plug-In . SVG Version: 6.00 Build 0)  -->
<svg version="1.1" id="Capa_1" xmlns="http://www.w3.org/2000/svg" xmlns:xlink="http://www.w3.org/1999/xlink" x="0px" y="0px"
	 viewBox="0 0 34 34" style="enable-background:new 0 0 34 34;" xml:space="preserve">
<style type="text/css">
	.st0{fill:#166AA6;}
</style>
<g>
	<g>
		<path class="st0" d="M27,13.2c-0.4,0-0.8,0.3-0.8,0.8v2.3h-2.3v-2.3c0-0.4-0.3-0.8-0.8-0.8c-0.4,0-0.8,0.3-0.8,0.8v2.3h-7
			c-0.4-2.5-2.8-4.2-5.3-3.8c-2.5,0.4-4.2,2.8-3.8,5.3c0.4,2.5,2.8,4.2,5.3,3.8c1.9-0.3,3.4-1.8,3.8-3.8H27c0.4,0,0.8-0.3,0.8-0.8
			v-3.1C27.7,13.5,27.4,13.2,27,13.2z M10.9,20.1c-1.7,0-3.1-1.4-3.1-3.1s1.4-3.1,3.1-3.1s3.1,1.4,3.1,3.1S12.6,20.1,10.9,20.1z"/>
	</g>
</g>
</svg>
