<?xml version="1.0" encoding="utf-8"?>
<!-- Generator: Adobe Illustrator 24.2.3, SVG Export Plug-In . SVG Version: 6.00 Build 0)  -->
<svg version="1.1" id="Layer_1" xmlns="http://www.w3.org/2000/svg" xmlns:xlink="http://www.w3.org/1999/xlink" x="0px" y="0px"
	 viewBox="0 0 496 496" style="enable-background:new 0 0 496 496;" xml:space="preserve">
<style type="text/css">
	.st0{fill:#2E8DBC;}
</style>
<path class="st0" d="M320,342.7V288h16v-16h-96v16h16v54.7c-5.4,2.4-10.4,5.5-15.1,8.9L192,262v-38h16v-16h-16v-24c0-4.4-3.6-8-8-8
	h-8v-24c0-4.4-3.6-8-8-8h-48c-4.4,0-8,3.6-8,8v24h-8c-4.4,0-8,3.6-8,8v24H80v16h16v38L4.9,429C1.7,434.9,0,441.5,0,448.2v7.8
	c0,22.1,17.9,40,40,40h208c5.7,0,11.2-1.3,16.4-3.6c7.5,2.3,15.4,3.6,23.6,3.6c44.1,0,80-35.9,80-80
	C368,384.1,348.9,355.4,320,342.7z M304,288v16h-32v-16H304z M266.7,355.7c3.2-1.1,5.3-4.2,5.3-7.5V320h32v28.2
	c0,3.4,2.1,6.4,5.3,7.5c20.4,7.2,35.2,24.1,40.5,44.4c-6.1,0.2-11.8,2.6-16.1,7l-6.6,6.6c-1.5,1.5-3.6,2.3-5.7,2.3h-2.8
	c-2.1,0-4.2-0.9-5.7-2.3l-6.6-6.6c-4.5-4.5-10.6-7-17-7h-2.8c-6.4,0-12.4,2.5-17,7l-6.6,6.6c-1.5,1.5-3.6,2.3-5.7,2.3h-2.8
	c-2.1,0-4.2-0.9-5.7-2.3l-6.6-6.6c-4.3-4.3-10-6.7-16.1-7C231.5,379.8,246.3,362.9,266.7,355.7z M128,160h32v16h-32V160z M112,192
	h64v16h-64V192z M111,267.8c0.6-1.2,1-2.5,1-3.8v-40h64v40c0,1.3,0.3,2.7,1,3.8l28.5,52.3c-6,0.3-11.6,2.7-15.8,6.9l-6.6,6.6
	c-1.5,1.5-3.6,2.3-5.7,2.3h-2.8c-2.1,0-4.2-0.9-5.7-2.3l-6.6-6.6c-4.5-4.5-10.6-7-17-7h-2.8c-6.4,0-12.4,2.5-17,7l-6.6,6.6
	c-1.5,1.5-3.6,2.3-5.7,2.3h-2.8c-2.1,0-4.2-0.9-5.7-2.3l-6.6-6.6c-4.3-4.3-9.9-6.6-15.8-6.9L111,267.8z M40,480
	c-13.2,0-24-10.8-24-24v-7.8c0-4,1-8,2.9-11.5L73.8,336h7.5c2.1,0,4.2,0.9,5.7,2.3l6.6,6.6c4.5,4.5,10.6,7,17,7h2.8
	c6.4,0,12.4-2.5,17-7l6.6-6.6c1.5-1.5,3.6-2.3,5.7-2.3h2.8c2.1,0,4.2,0.9,5.7,2.3l6.6,6.6c4.5,4.5,10.6,7,17,7h2.8
	c6.4,0,12.4-2.5,17-7l6.6-6.6c1.5-1.5,3.6-2.3,5.7-2.3h7.5l14.5,26.5c-13,14.4-20.6,33.3-20.6,53.5c0,26.2,12.7,49.4,32.2,64H40z
	 M288,480c-35.3,0-64-28.7-64-64h1.4c2.1,0,4.2,0.9,5.7,2.3l6.6,6.6c4.5,4.5,10.6,7,17,7h2.8c6.4,0,12.4-2.5,17-7l6.6-6.6
	c1.5-1.5,3.6-2.3,5.7-2.3h2.8c2.1,0,4.2,0.9,5.7,2.3l6.6,6.6c4.5,4.5,10.6,7,17,7h2.8c6.4,0,12.4-2.5,17-7l6.6-6.6
	c1.5-1.5,3.6-2.3,5.7-2.3h1.4C352,451.3,323.3,480,288,480z"/>
<path class="st0" d="M56,416c-13.2,0-24,10.8-24,24s10.8,24,24,24s24-10.8,24-24S69.2,416,56,416z M56,448c-4.4,0-8-3.6-8-8
	s3.6-8,8-8s8,3.6,8,8S60.4,448,56,448z"/>
<path class="st0" d="M120,400c-13.2,0-24,10.8-24,24s10.8,24,24,24s24-10.8,24-24S133.2,400,120,400z M120,432c-4.4,0-8-3.6-8-8
	s3.6-8,8-8s8,3.6,8,8S124.4,432,120,432z"/>
<path class="st0" d="M176,368c-13.2,0-24,10.8-24,24s10.8,24,24,24s24-10.8,24-24S189.2,368,176,368z M176,400c-4.4,0-8-3.6-8-8
	s3.6-8,8-8s8,3.6,8,8S180.4,400,176,400z"/>
<path class="st0" d="M184,448h16v16h-16V448z"/>
<path class="st0" d="M168,432h16v16h-16V432z"/>
<path class="st0" d="M152,448h16v16h-16V448z"/>
<path class="st0" d="M88,376h16v16H88V376z"/>
<path class="st0" d="M488,112H376c-4.4,0-8,3.6-8,8v32c0,4.4,3.6,8,8,8h8v288c0,26.5,21.5,48,48,48s48-21.5,48-48V160h8
	c4.4,0,8-3.6,8-8v-32C496,115.6,492.4,112,488,112z M432,480c-17.6,0-32-14.4-32-32V272h64v176C464,465.6,449.6,480,432,480z
	 M464,256h-64v-96h64V256z M480,144h-96v-16h96V144z"/>
<path class="st0" d="M416,440h16v16h-16V440z"/>
<path class="st0" d="M432,408h16v16h-16V408z"/>
<path class="st0" d="M416,376h16v16h-16V376z"/>
<path class="st0" d="M432,344h16v16h-16V344z"/>
<path class="st0" d="M416,312h16v16h-16V312z"/>
<path class="st0" d="M128,88c0-4.4,3.6-8,8-8h24v48h16V80h80v176h16V80h24c4.4,0,8,3.6,8,8v168h16V88c0-13.2-10.8-24-24-24h-24v-8
	c0-4.4,3.6-8,8-8h96c4.4,0,8,3.6,8,8v40h16V56c0-13.2-10.8-24-24-24h-96c-13.2,0-24,10.8-24,24v8h-80V24c0-4.4,3.6-8,8-8h272
	c4.4,0,8,3.6,8,8v72h16V24c0-13.2-10.8-24-24-24H184c-13.2,0-24,10.8-24,24v40h-24c-13.2,0-24,10.8-24,24v40h16V88z"/>
<path class="st0" d="M48,120c0,13.2,10.8,24,24,24s24-10.8,24-24S85.2,96,72,96S48,106.8,48,120z M80,120c0,4.4-3.6,8-8,8
	s-8-3.6-8-8s3.6-8,8-8S80,115.6,80,120z"/>
<path class="st0" d="M40,80c22.1,0,40-17.9,40-40S62.1,0,40,0S0,17.9,0,40S17.9,80,40,80z M40,16c13.2,0,24,10.8,24,24
	S53.2,64,40,64S16,53.2,16,40S26.8,16,40,16z"/>
<path class="st0" d="M32,224c17.6,0,32-14.4,32-32s-14.4-32-32-32S0,174.4,0,192S14.4,224,32,224z M32,176c8.8,0,16,7.2,16,16
	s-7.2,16-16,16s-16-7.2-16-16S23.2,176,32,176z"/>
</svg>
