<?xml version="1.0" encoding="utf-8"?>
<!-- Generator: Adobe Illustrator 24.2.3, SVG Export Plug-In . SVG Version: 6.00 Build 0)  -->
<svg version="1.1" id="Layer_1" xmlns="http://www.w3.org/2000/svg" xmlns:xlink="http://www.w3.org/1999/xlink" x="0px" y="0px"
	 viewBox="0 0 260.4 112.9" style="enable-background:new 0 0 260.4 112.9;" xml:space="preserve">
<style type="text/css">
	.st0{fill:#0D4B81;}
	.st1{fill:#F05F2A;}
</style>
<g id="Layer_2_1_">
	<g id="Layer_1-2">
		<g id="Group_1">
			<path id="Path_3" class="st0" d="M125.9,68.7v-16h3.7v12.9h7.1V52.7h3.7v12.9h2.3V72h-3.4v-3.3H125.9z M158,68.7v-3h-8.7V62h7.4
				v-2.9h-7.4v-3.5h8.4v-3h-12v16L158,68.7L158,68.7z M164.7,62.1h7.2v6.5h3.7V52.7h-3.7V59h-7.2v-6.3H161v15.9h3.7V62.1z M183,68.7
				h3.6v-13h5.1v-3H178v3h5V68.7z M197.8,68.7h-3.6v-16h6.9c4.3,0,6.9,2.2,6.9,5.8s-2.7,5.8-6.9,5.8h-3.2L197.8,68.7z M197.8,61.3h3
				c2.2,0,3.4-1,3.4-2.8s-1.1-2.8-3.4-2.8h-3V61.3z M135,82.4l5.2-7.7h-3.9l-4.2,6.4h-2.6v-6.4h-3.7v15.9h3.7v-6.4h2.6l4.1,6.4h4.2
				L135,82.4z M140.9,82.7c0-4.7,3.7-8.2,8.7-8.2s8.7,3.5,8.7,8.2s-3.7,8.2-8.7,8.2S140.9,87.4,140.9,82.7z M144.6,82.7
				c0.1,2.8,2.3,5,5.1,4.9s5-2.3,4.9-5.1c-0.1-2.7-2.3-4.9-5-4.9c-2.7-0.1-4.9,2-5,4.7l0,0C144.6,82.3,144.6,82.7,144.6,82.7z
				 M175.8,90.7v-16h-3.7V81h-7.2v-6.3h-3.7v15.9h3.7v-6.5h7.2v6.5L175.8,90.7z M186.9,90.7v-13h5.1v-3h-13.8v3h5.1v12.9L186.9,90.7
				z M208.1,80.5c0,3.6-2.7,5.8-6.9,5.8H198v4.4h-3.7v-16h6.9C205.5,74.7,208.1,76.9,208.1,80.5L208.1,80.5z M204.4,80.5
				c0-1.8-1.1-2.8-3.4-2.8h-3v5.5h3C203.2,83.3,204.4,82.3,204.4,80.5L204.4,80.5z M209.7,82.7c0-4.7,3.7-8.2,8.7-8.2
				s8.7,3.5,8.7,8.2s-3.7,8.2-8.7,8.2S209.7,87.4,209.7,82.7z M213.4,82.7c0.1,2.8,2.3,5,5.1,4.9s5-2.3,4.9-5.1
				c-0.1-2.7-2.3-4.9-5-4.9c-2.7-0.1-4.9,2-5,4.7l0,0C213.4,82.3,213.4,82.7,213.4,82.7z M234.5,81l0.1-3.3h5.5v13h3.6v-16h-12.2
				l-0.2,6.5c-0.2,4.1-0.6,6.4-2.5,6.4c-0.2,0-0.4,0-0.7-0.1l-0.2,3.1c0.6,0.2,1.2,0.2,1.8,0.2C233.4,90.9,234.3,87.3,234.5,81
				L234.5,81z M260.4,74.7v16h-3.6v-4.2h-3.4l-2.8,4.2h-3.9l3.3-4.8c-2.1-0.8-3.5-2.9-3.3-5.2c0-3.7,2.7-5.9,6.9-5.9L260.4,74.7z
				 M256.8,77.7h-3.1c-2.1,0-3.2,1-3.2,2.9s1.1,2.9,3.1,2.9h3.2V77.7z M135,104.4l5.2-7.7h-3.9l-4.2,6.4h-2.6v-6.4h-3.7v15.9h3.7
				v-6.4h2.6l4.1,6.4h4.2L135,104.4z M152,96.7l7.1,15.9h-3.8l-1.4-3.4h-7.4l-1.4,3.4h-3.8l7.1-15.9H152z M152.7,106.4l-2.5-6.1
				l-2.5,6.1H152.7z M168.2,103.8c-1.1,0.5-2.2,0.7-3.4,0.7c-2.2,0-3.4-1.1-3.4-3.3v-4.6h-3.6v5c0,3.8,2.3,6,6.6,6
				c1.3,0,2.6-0.3,3.9-0.8v5.7h3.6v-16h-3.6L168.2,103.8z M178.8,106h7.4v-2.9h-7.4v-3.5h8.4v-3h-12v15.9h12.3v-3h-8.7V106z
				 M198.2,99.6c1.5,0,3,0.7,4,1.9l2.4-2.2c-1.6-1.9-4.1-3-6.6-2.8c-5,0-8.6,3.4-8.6,8.2s3.7,8.2,8.6,8.2c2.5,0.1,4.9-0.9,6.6-2.8
				l-2.4-2.2c-1.8,2.2-5,2.6-7.2,0.8c-2.2-1.8-2.6-5-0.8-7.2C195.2,100.3,196.6,99.6,198.2,99.6L198.2,99.6z M205.8,99.7h5.1v12.9
				h3.6V99.7h5.1v-3h-13.8L205.8,99.7L205.8,99.7z M236,108.1c0,2.8-2.2,4.5-6.2,4.5H222V96.7h7.4c3.7,0,5.9,1.5,5.9,4.1
				c0,1.5-0.9,2.9-2.2,3.5C234.8,104.7,236.1,106.3,236,108.1L236,108.1z M225.6,103.3h3.4c1.6,0,2.4-0.7,2.4-1.9s-0.9-1.9-2.4-1.9
				h-3.4V103.3z M232.3,107.8c0-1.3-0.9-2-2.6-2h-4.1v4h4.1C231.4,109.8,232.3,109.2,232.3,107.8z M247.2,96.7l7.1,15.9h-3.9
				l-1.4-3.4h-7.4l-1.4,3.4h-3.8l7.1-15.9H247.2z M247.9,106.4l-2.5-6.1l-2.5,6.1H247.9z M117.3,46.7l-19.9,61.2
				c-1,2.7-3.6,4.6-6.4,4.7H26.6c-2.9-0.1-5.5-2-6.5-4.7L0.3,46.7c-0.8-2.8,0.2-5.8,2.5-7.7l52-37.8c2.4-1.6,5.6-1.6,8,0l52,37.8
				C117.1,40.8,118.1,43.8,117.3,46.7z M112.1,42.8L60.1,5c-0.8-0.4-1.7-0.4-2.5,0l-52,37.8c-0.7,0.6-0.9,1.5-0.8,2.4l19.9,61.2
				c0.4,0.8,1.1,1.4,2,1.5H91c0.9-0.1,1.6-0.7,2-1.5l19.9-61.2C113,44.3,112.7,43.4,112.1,42.8z"/>
			<path id="Path_4" class="st1" d="M71.3,50.2L70,32.6h1.8c0.3,0,0.6-0.3,0.6-0.6v-7.4c0-0.3-0.3-0.6-0.6-0.6h-21
				c-0.3,0-0.6,0.3-0.6,0.6l0,0V32c0,0.4,0.3,0.6,0.6,0.6h1.8l-1.4,17.8c-3.6,1.5-6.8,3.8-9.4,6.7c0.3,8.3,2.8,10.4,2.4,15.8
				l0.3,0.9c0.1,1,1.1,1.8,2.1,1.7c0.3,0,0.6-0.1,0.8-0.3c6.9-4.4,13.7-2.7,20.2-1.1c3.4,1,6.9,1.6,10.4,1.7c1.9,0,3.8-0.3,5.6-0.9
				c-0.3,12.2-10.2,21.9-22.3,21.9c-7.7,0-15.1-4.2-20-11.2c-1.8-2.7-3.3-5.5-4.6-8.5c2.9-2.4,4.1-6.3,3.1-9.9
				c-2.2-9.3-1.5-19.1,2-28l0.2-0.4c0-0.1,0-0.2,0-0.3v-0.1c0-1.1-0.9-1.9-1.9-1.9c-0.6,0-1.1,0.2-1.4,0.7c-0.1,0.1-0.2,0.2-0.2,0.3
				l-0.2,0.4c-0.6,1.6-1.2,3.3-1.7,5L36.4,43c-0.1-0.9-0.3-1.7-0.6-2.5c-0.2-0.4-0.3-0.8-0.5-1.2c0.7-2.1,1.6-4.2,2.5-6.2l0,0
				c0.5-0.9,0.1-2.1-0.8-2.6c-0.3-0.1-0.6-0.2-0.9-0.2c-0.5,0-0.9,0.2-1.3,0.5c-0.1,0.1-0.3,0.2-0.3,0.3l-0.2,0.4
				c-1.1,2.2-2,4.4-2.8,6.7L30.6,39c-0.8,0.5-1.4,1.2-1.9,2l-0.1-0.2c0.6-2,1.2-4,2-5.9v-0.1l0.1-0.3c0-0.1,0-0.2,0-0.4l0,0
				c0-1.1-0.9-1.9-1.9-1.9c-0.6,0-1.1,0.2-1.5,0.7c-0.1,0.1-0.2,0.2-0.2,0.2L27,33.3v0.2c-4.7,11.9-5.7,25-2.7,37.5
				c0.6,2.7,2.3,5.1,4.6,6.7c1.3,0.8,2.8,1.1,4.3,1c1.2,2.8,2.6,5.5,4.2,8.1c0,0.1,0.1,0.3,0.2,0.4c5.6,8.6,14.5,13.7,23.7,13.7
				c14.5,0,26.2-11.8,26.2-26.3C87.7,63.8,81.2,54.2,71.3,50.2L71.3,50.2z M36.3,47.3c-0.2,0.9-0.3,1.9-0.4,2.8
				c-1.4,1.2-2.6,2.5-3.8,3.8c0-1,0.1-2,0.2-3C33.6,49.6,34.9,48.4,36.3,47.3z M35.5,54.1c0,0.9-0.1,1.9,0,2.8
				c-1.2,1.4-2.3,2.8-3.3,4.2c-0.1-1-0.2-2-0.2-3C33.2,56.8,34.4,55.4,35.5,54.1L35.5,54.1z M32.2,42L32.2,42l0.5-0.3l0.2,0.5
				c0.7,1.8,0.3,4-1.2,5.3l-0.5,0.4l-0.3-0.5C30.1,45.6,30.6,43.3,32.2,42z M26.9,45.5c0.6,1.3,1.3,2.5,2,3.7
				c0.3,0.5,0.5,0.9,0.8,1.4c-0.1,1.1-0.2,2.1-0.2,3.2c-1.1-1.5-2.2-3.1-3.1-4.8C26.5,47.8,26.7,46.7,26.9,45.5L26.9,45.5z M26,53.6
				c1.1,1.6,2.2,3.1,3.5,4.6c0,1.1,0.1,2.1,0.2,3.2c-1.3-1.4-2.6-2.8-3.7-4.3C25.9,55.9,25.9,54.8,26,53.6z M26.2,61.7
				c1.3,1.4,2.6,2.8,4.1,4.1c0.2,1,0.4,2.1,0.6,3.1c-1.5-1.2-2.9-2.4-4.3-3.8C26.4,64,26.3,62.9,26.2,61.7z M32.6,75.1
				c-2.2,0-4.3-2-5-4.8c0-0.2-0.1-0.4-0.1-0.6c1.5,1.2,3,2.4,4.6,3.5C32.2,73.8,32.4,74.5,32.6,75.1L32.6,75.1z M32.8,65.4
				c0.9-1.5,1.9-3,3-4.4c0.1,0.9,0.2,1.8,0.3,2.8c-1,1.5-1.9,3-2.7,4.6C33.2,67.3,33,66.3,32.8,65.4L32.8,65.4z M35,74.2
				c-0.2-0.6-0.4-1.2-0.6-1.8c0.7-1.6,1.5-3.2,2.3-4.8c0,0.2,0.1,0.3,0.1,0.4C37.4,70.3,36.7,72.7,35,74.2z"/>
		</g>
	</g>
</g>
</svg>
