<?xml version="1.0" encoding="utf-8"?>
<!-- Generator: Adobe Illustrator 25.0.1, SVG Export Plug-In . SVG Version: 6.00 Build 0)  -->
<svg version="1.1" id="Layer_1" xmlns="http://www.w3.org/2000/svg" xmlns:xlink="http://www.w3.org/1999/xlink" x="0px" y="0px"
	 viewBox="0 0 870 534" style="enable-background:new 0 0 870 534;" xml:space="preserve">
<style type="text/css">
	.st0{fill:#225A92;}
	.st1{fill:none;stroke:#2B2E32;stroke-linecap:round;stroke-linejoin:round;}
	.st2{fill:#E99B42;}
	.st3{fill:#FFFFFF;}
	.st4{fill:#8BCDFD;}
</style>
<g id="Layer_2_1_">
	<g id="Layer_1-2">
		<rect y="0" class="st0" width="870" height="534"/>
		<g id="Layer_2-2">
			<g id="Layer_1-2-2">
				<path class="st1" d="M332.2,321.1l-2.1,5.1c-0.2,0.2-2.7,7.7-3.1,7.7s-4.1-7.5-4.4-7.7l0.9-4.7l-6.1,2.3l-5.4,7.5
					c-0.1,0.1-0.1,0.2-0.2,0.2l-6,5l-2.5,5.3c-0.1,0.1-0.1,0.2-0.2,0.3l-6.4,6.4l-6.9,5.9c-0.1,0.1-0.2,0.2-0.4,0.2l-1.4,0.5
					l0.2,3.8c0,0.6-0.4,1.2-1,1.3l-6.2,1.4l-5,3.2c-0.6,0.4-1.3,0.2-1.7-0.3l-16.1-22.3c-0.4-0.5-0.3-1.2,0.2-1.7l6.6-6
					c0.4-0.4,0.9-0.4,1.4-0.2l6,3l15.7,0.4l1.5-6.1L287,323c0-0.1,0-0.3,0-0.4l0.6-10.7c0-0.4,0.2-0.7,0.5-0.9
					c0.3-0.2,0.6-0.3,1-0.3l6.1,0.9l3.7-7.7c0.2-0.4,0.6-0.7,1-0.7l9.2-0.8l2.6-3l-3.6-8l-6.8-4.3l-2.2,2.2c-0.3,0.3-0.6,0.4-1,0.4
					l-7.6-0.8c-0.3,0-0.5-0.2-0.7-0.3l-10.1-9.5c-0.1,0-0.1-0.1-0.1-0.1l-8.7-11.2c-0.1-0.2-0.2-0.3-0.2-0.5l-1.9-9.5
					c-0.2-0.7,0.2-1.3,0.9-1.5c0,0,0,0,0,0l0,0l6.4-1.6c0.6-0.2,1.2,0.1,1.4,0.6l2.5,5l4,2.1c0.2,0.1,0.3,0.2,0.5,0.4l4.9,7.5
					l7.4,2.6l4.3-1.7c0.3-0.1,0.6-0.1,0.9,0l7.2,2.4h1.4c0.3,0,0.5,0.1,0.8,0.2l2.5,1.9c0.2,0.2,0.4,0.4,0.5,0.7l1.7,6.8l6.4,2.4
					c0.2,0.1,0.4,0.2,0.5,0.4l3.6,4.2l4.8,2.8c0.4,0.2,0.6,0.6,0.6,1l0.6,19.6v6.6C332.6,320.5,332.5,320.9,332.2,321.1z
					 M403.8,272.5c-0.1-0.4,0.1-0.9,0.4-1.1l6.8-5.8l-6.7-8.1l-7.3-2.1c-0.3-0.1-0.6-0.3-0.8-0.6l-6-10.9l-8.7-8.1
					c-0.3-0.3-0.4-0.6-0.4-1c0-0.4,0.3-0.7,0.6-0.9l10.9-6.7l-2.1-12.3c-0.1-0.6,0.3-1.2,0.9-1.4l7.2-2.1l-26.3-24.9l-7.4,5
					c-0.4,0.3-1,0.3-1.5-0.1l-10.5-8.3c-0.4-0.3-0.6-0.8-0.4-1.3l4.4-16.8c-5.9-2-11.3-3.5-15.7,3.6c-43.9-35.1-18.9-3-26,23.9
					c-15.6-6.1-35.8-5.5-50.7,1.2c-5.3,3.3-4.3,15.4-12.9,10.9c-11.2-1.5-18.2-22.3-27.2-23.6c8.4,25.7-16.7,12.5-6,23.6
					c-0.1,18.5-6.8,26,12.2,39.3c-7.4,25.7,17.1,41.8,15.2,67.9c2.9,15.4-12.1,57.9,14.1,53.2c18.9,29.8,16.3,15,41.2,8.9
					c30-30.5,19,50.9,63.6-13.9c0.2-9.2,3.3-14,11.3-18.4c-4.2-2.9,6.7-3.8,1.9-12.5c-4.8-13.3-17.1-16.9-5.6-29.6
					c1-24.9,12.7-5.4,23-7c4.8-2.4,8.2-4.1,10.9-5.2L403.8,272.5z"/>
				<path class="st1" d="M421.1,289.9c2,1.3,6.5,4.4,9.4,6.2c2,7.4,5.8,12.1,14.4,8.2c4.8-3.8,5,4.6,6.4,7.7
					c4.8,11.5,17.1,1.6,24.7,6.2c7.4,0.3,5.4,8,7.3,13.2c5.2,4.6,8.6,10.8,9.8,17.6c15.4,11.9,9.2,20.9,8.5,33.7
					c4.7,11.8,20.1,16.5,18.1,30.9c10.7,12.4,18.6,29,17.3,46.3c9.3,8.5,23.4,14.9,27.5,26.6c-5.7,26.5,23.3,8.3,38.3,11
					c4.9-4.1,8.8-9.5,13-14.2c6.3-3.2,13.2-3.9,10.9-12.5l0.2-0.1l-0.3-0.3l-7.7-5.5l-10.8-0.6c-0.5,0-0.9-0.3-1.1-0.8l-2.5-6.2
					c-0.2-0.5,0-1.2,0.5-1.5l25.7-17.2l0.2-5.3l-3.4-2.7c-0.3-0.2-0.4-0.5-0.5-0.8l-1.6-10.6l-5.7-5.9c-0.5-0.5-0.5-1.2,0-1.7l0,0
					l6-6.2c0.3-0.4,0.9-0.5,1.3-0.3l9.7,3.5c0.4,0.1,0.7,0.5,0.8,0.9l1.2,5.1l3,0.1l2-8.5c0.1-0.6,0.7-1,1.3-1l15.4,0.8l3.8-10.2
					l-6.3-7.2c-0.3-0.3-0.4-0.7-0.3-1.1l5-19.2c0.1-0.4,0.3-0.7,0.7-0.8l9.2-4.5l3.5-15.4h-15.9c-0.4,0-0.8-0.2-1-0.5l-7.6-9.9
					c-0.2-0.2-0.3-0.5-0.3-0.7l-0.8-20.7c0-0.1,0-0.2,0-0.3l3.2-17.1l-8.2-5.1c-0.2-0.2-4.2-16.9-4.3-17.2"/>
				<path class="st1" d="M556.9,271.6l13.5-12.4c0.5-0.4,1.2-0.4,1.6,0l9.2,7.8l8.4-3.1c0.4-0.2,0.9-0.1,1.3,0.3l7.3,6.9l7.4-2.8
					l5-15.1c0.2-0.6,0.9-1,1.5-0.8l0.2,0.1l7.4,3.1c0.4,0.2,0.8,0.6,0.8,1.1l0.4,9.8l9.2,7.5l11,2.4l4.8-12.6
					c0.1-0.4,0.5-0.7,0.9-0.8l18.6-4.1c0.4-0.1,0.8,0,1.1,0.3l7.7,6.5l14.9,0.8l11-6.2c0.5-0.3,1.1-0.2,1.5,0.2l9.7,9.1
					c0.1,0.1,0.2,0.3,0.3,0.5l5.4,14.5l0.5-0.2c2-4.3,5.9-12,11.8-9.7c29.1,3.4,15.7-12.1,29.3-24.1c15.6-24,53-7.4,45.4-47.2
					c-18.1-16.3-0.9-15.6-24.6-22.8c-8.7-6-8.6-34.4-24-17.6c1-13,13.8-40.3-8.5-51.7c-6.4-9.1-15.1-8.7-25-8.5
					c1.3-8.7-3.8-12.3-12.5-13.9c-18.1,2.7-21-13.7-20.4-28.6c0.3-7.7-17.8-0.2-23-8.4c-7.2-4.2-5.4-12.8-16.7-11.8
					c-15.5,20-34.1-4.1-38.7,26.9c-5.9,6.1-12.6,11.3-20,15.5"/>
				<path class="st1" d="M406.6,287.3c4.6-1.4,9.1-0.9,14.5,2.6l9.1-6.6c0.4-0.3,1-0.3,1.4,0l9.5,6.4l10.8-1.5l5.8-4.8l-1.5-7.5
					c-0.2-0.6,0.2-1.3,0.9-1.5c0,0,0,0,0,0c0.2,0,0.4,0,0.6,0l9.9,1.7c0.5,0.1,0.9,0.4,1,0.8l5,14.9c0.1,0.3,0.1,0.7-0.1,1l-2.2,4.4
					l5,2.7c0.3,0.2,0.5,0.4,0.6,0.7l1.4,4.7l10.1,0.5c0.5,0,1,0.4,1.1,0.9l7,22.7l11.8,7.9l3.2-5c0.3-0.5,1-0.7,1.5-0.5l11.3,4.6
					l13.6-15.3c0.2-0.2,0.5-0.4,0.8-0.4l17.9-2.7l16-11.8l5.8-12.6l-0.4-8l-11.4,7.6c-0.4,0.2-0.8,0.3-1.2,0.1l-11.6-5.5
					c-0.6-0.2-0.8-0.9-0.7-1.4l3.6-14.6L539.3,259c-0.3-0.2-0.4-0.5-0.5-0.8l-2.8-15.4c0-0.2,0-0.5,0.1-0.7l4.3-11.4l1-12.3
					l-17-11.7c-0.6-0.4-0.7-1.2-0.3-1.7c0-0.1,0.1-0.1,0.1-0.2l9-9v-9.4c0-0.5,0.3-1,0.8-1.2l12.1-5c0.5-0.2,1-0.1,1.3,0.3
					l11.6,11.6l12.7-3l11.6-21.1l-6.4-23.8c-0.1-0.4,0-0.9,0.3-1.2l19-18l5.2-17.8l-11.2-13.8c-0.2-0.2-0.3-0.5-0.3-0.8l0.4-10.5
					c-8.7,3.3-12.9-0.9-26.7,9c-7.6,1.9-12.5-1.6-16.5-7.2c-14.6,2.6-11.7-3.6-16.6-13.1c-7-3.4-9,14-13.4,17.6
					c-10.3,4.8-32.6-3.3-27.4,14.2c-5.8,2.2-26.5,1.2-20.1,17.7c4,14.1-20.5,21.2-28.9,32.6c-11.8-8.3-21.4-29.9-34.9-30.4
					c-6,4.2-13.3,3-19.4-0.4c-11.4-4.2-23.9,7.3-31.1,15c10.6,12.1,46.2,11.5,36.6,32.9c-2.9,8.5-20.3-6.6-29.5-3.3
					c-1.1-0.3-5.5-1.5-6.5-1.9"/>
				<path class="st1" d="M627.2,471.2l2.3-1.5c10.5-2.7,28,7.1,31.6,13.3c19.8-0.5,45.5,3.3,63.3-4.8c9.2-3.4-30.6-37.2-7.1-39.8
					c39,22.8,10.1-37,19.2-57.3c0.4-15.3-23.6-24.4-33.5-34c30.9-26.4,2-30.2-0.7-55c0,0,10.7-5.6,15-7.9"/>
				<path class="st2" d="M320.9,274.8c3,0,5.5-2.5,5.5-5.5s-2.5-5.5-5.5-5.5c-3,0-5.5,2.5-5.5,5.5l0,0
					C315.4,272.3,317.9,274.8,320.9,274.8C320.9,274.8,320.9,274.8,320.9,274.8L320.9,274.8"/>
				<path class="st2" d="M319.2,242.3c3,0,5.5-2.4,5.5-5.5c0-3-2.4-5.5-5.5-5.5c-3,0-5.5,2.4-5.5,5.5l0,0
					C313.8,239.8,316.2,242.3,319.2,242.3L319.2,242.3L319.2,242.3"/>
				<path class="st2" d="M344,206.6c3,0,5.5-2.4,5.5-5.5c0-3-2.4-5.5-5.5-5.5c-3,0-5.5,2.4-5.5,5.5l0,0
					C338.5,204.1,341,206.6,344,206.6C344,206.6,344,206.6,344,206.6L344,206.6"/>
				<path class="st2" d="M339.8,323.3c3,0,5.5-2.4,5.5-5.5s-2.4-5.5-5.5-5.5c-3,0-5.5,2.4-5.5,5.5c0,0,0,0,0,0l0,0
					C334.4,320.9,336.8,323.3,339.8,323.3C339.8,323.3,339.8,323.3,339.8,323.3L339.8,323.3"/>
				<path class="st2" d="M297.8,340.6c3.8,0,6.9-3.1,6.9-6.9s-3.1-6.9-6.9-6.9s-6.9,3.1-6.9,6.9S294,340.6,297.8,340.6L297.8,340.6
					L297.8,340.6"/>
				<path class="st2" d="M402.4,369.3c3,0,5.5-2.4,5.5-5.5c0-3-2.4-5.5-5.5-5.5c-3,0-5.5,2.4-5.5,5.5l0,0
					C396.9,366.9,399.4,369.3,402.4,369.3"/>
				<path class="st2" d="M273.1,229.1c6.1,0,11-4.9,11-11s-4.9-11-11-11s-11,4.9-11,11l0,0C262.1,224.2,267,229.1,273.1,229.1"/>
				<path class="st2" d="M417.1,179.1c6.1,0,11-4.9,11-11s-4.9-11-11-11s-11,4.9-11,11S411,179.1,417.1,179.1L417.1,179.1"/>
				<path class="st2" d="M400.9,353.4c5.2,0,9.5-4.2,9.5-9.5c0-5.2-4.2-9.5-9.5-9.5c-5.2,0-9.5,4.2-9.5,9.5c0,0,0,0,0,0l0,0
					C391.4,349.1,395.7,353.3,400.9,353.4"/>
				<path class="st2" d="M327.1,287.2c2.1,0,3.8-1.7,3.8-3.8s-1.7-3.8-3.8-3.8c-2.1,0-3.8,1.7-3.8,3.8v0l0,0
					C323.3,285.5,325,287.2,327.1,287.2C327.1,287.2,327.1,287.2,327.1,287.2L327.1,287.2"/>
				<path class="st1" d="M536.7,459.7c-4.2,7.1-25,0.8-25.7,2c1.2,5.1-8.1,1.7,2.7,6.7c3.5,5.5-0.4,3.8-2.4,7.6
					c-1.2-0.7-1.5,0.3-2.1,0.8c-3.2-3.1-6.6-1.7-9.5-4.8c-6.5,4.4,8.7,9,12.8,13.7c-4.7,1.2-2,8.8-7.4,6.3
					c-2.4,7.7-6.9,3.9-12.8-0.9c3.2-3.3,0.4-5.7-3.9-7.1c-3,10.2-3.3,10.9-15.7,9.1c-1.3-3.4,3.7-8.9-1.3-11.6
					c-0.4-1.6-0.9-2.2-2.7-1.9c-4.2-2.9-10-2.6-12.6-7.2c-4.4-0.3,0.2-8.6-1.7-7.1c-5.3-4.8,0.3-4.6-8.5-8.8
					c0-6.4-12.1-5.1-13.7,0.4c-5.9-5.5-11.5-11.4-18.1-10.7c2-17.1-1.5-3.6-11-12.8c-3.3,0.7-1.6,0.7-5.5-0.8
					c-2.6,2.4-5.7-1.1-9.7-3.5c2.1-3.4,0.1-3.6,3.4-5.6c-0.8-2.6-3.6-4.2-0.9-5.4c-0.2-3-5.9-3.3-5.7-0.7c-1.6-2.6-3.1-6-4.8-6.2
					c-2.2-1.7,0.7-2.8,1.8-3.5c1.4,0.8,8.5,0.1,11-0.9c2.6,2.9,4.5,0.1,7-0.8c-1.9-1.6,0.5-5.8-3.9-5.6c-0.6,3.4-2.8-0.5-5-1
					c-1.4,1.6-5.6-4.1-6.5-5.9c-2.5-2.3-8.5-3.2-7.1-6.4c-4.2-1.9-1.5-5-0.3-6.7c-1.9-2.9-4.2-2.1-7.5-3.9
					c-2.5-4.3-5.9-6.4-3.6-10.5c-3.5-1-1.6-2.1-1.5-4.2"/>
				<path class="st1" d="M46.6,47.5l5.3,1.3l9.3,9.6L64,72.9l2.2,3.6l7.2,1.6l7.8,3.2l-0.7,4.4h-3.1l-0.8,4.7l2.6,3.1l-1.4,2
					l-3.5-1.9l-2,5l-2.2,1.8l-1.7,2.9l-3.6-1.2l-2.8,5.5l-2.6,1.9l-5.6,3.4l-3.9-3.6l-1.5,0.8l1.7,5.4l4.1,3.3c0,0,3.7,8.1,3.5,9
					s-0.9,2.4,0.2,3.2c1.6,0.9,3.2,1.7,4.8,2.4l5.9,4l6.1,2l3.8-2.1l2.8,2.1l2.8-2.5l2.4,1.4l8.5-2.4l18.8,4.6l4.1,2.3l6.3,1.8
					l2.7,2.4l-0.2,2.1l3.4,2.6l3.3-3.2l3.3,0.9l4.2-2.1l2.1,1.9l3.6,0.5l1.6,0.8c0.3-1.3,0.9-2.6,1.5-3.9c0.7-1,5.4,0.6,5.4,0.6
					l9.2,6.8l1.6,6.8l2,4.5l2.6,1.9l7.6,1.6c1.3,1.9,2.8,3.8,4.3,5.5c0.9,0.6,9.4,4.7,9.4,4.7l1.8-0.6l-2.7-5.9
					c0.1-0.5,0.4-1,0.9-1.2l0.8-0.5l2.9,1.4l2.9-3.9l0.3-1.6l4.2,2.1l2.6-2.2l2.3,1.7l1.3,1.7l3.3,0.9l-0.4-3.6l-2-1.5l-1.2-2.4
					l-5.8-5.5l0.8-1.7l-9.9-4l-6.3,0.6l-5.2-5.4l0.7-5.1l-7.9,2.8l-5.6,0.4c-3.6-1.6-6.5-4.3-8.4-7.8c-2.9-5.6-4-20.8-4-25
					s-2.3-8.2-4.3-10.8s-2.3-4-3.2-4.7c-0.9-0.6-1.8-1.1-2.7-1.6l-2.5-4.9h3.1l3.6-3.7c0,0-2.4-1.5-4-1.1s-9.5,2-8.8-1.2
					s7.8-2.1,7.8-2.1l2.7-1.8l0.5-1.9l-3.9-1.4c0,0-3.8-2.1-2.8-5.1s1.1-4.5-1.4-6.4s-5-3.4-6.3-5.8s-0.8-4.3-3.1-5.3
					c-1.9-0.9-3.6-1.8-5.4-2.9l-0.1-5.8c-1.2-0.2-2.4,0-3.4,0.4c-1.5,0.8-1.1-6.9-1.1-6.9l-1-1.5c-1.7,1-3.1,2.4-4,4.2
					c-0.6,1.3-0.9,2.8-0.9,4.2l-3.5-0.7c0,0-2-0.3-0.3,1.7s4.2,2,4.8,3.6s-0.9,3.5-0.9,3.5l-3.3-0.5l-3.4,2.8l-3.1-0.5
					c0,0,1.4-3.1,0-4.2s-1.1,3.3-3.2,1.4s-1.7-3.1-4.1-4.6s-4.2,1.4-8.5-0.6c-2.1-1.1-4.3-1.9-6.5-2.6c0,0-16.9-4.7-17.8-3.5
					s2.3,2.8,2.3,2.8c-2,0-4-0.2-6-0.8c-3.8-0.9-3.1,0-4.7-2s-8.8-2.4-11.2-2.3s-4.3-0.2-4.4,2.8S46.6,47.5,46.6,47.5z"/>
				<path class="st2" d="M204.8,173.9c4.4,0,8-3.6,7.9-8c0-4.4-3.6-8-8-7.9c-4.4,0-7.9,3.6-7.9,8l0,0
					C196.8,170.3,200.3,173.9,204.8,173.9L204.8,173.9"/>
				<path class="st3" d="M365.7,219.9c0,2-0.5,2.8-1.7,2.8s-1.8-0.8-1.8-2.7c0-0.7,0.1-1.4,0.3-2c0.3-0.5,0.8-0.9,1.4-0.8
					C365.2,217.2,365.7,217.9,365.7,219.9z M367.4,219.9c0-0.7,0-1.4-0.2-2.1c-0.2-1.3-1.5-2.3-2.8-2.1c-0.8,0-1.6,0.3-2.1,1v-0.9
					h-1.6v11.6h1.6v-4.2c0.5,0.6,1.3,1,2.1,0.9c0.8,0,1.5-0.2,2.1-0.8C367.1,222.8,367.4,221.7,367.4,219.9L367.4,219.9z M356.4,221
					c0,1.2-0.5,1.7-1.8,1.7s-1.6-0.4-1.6-1.2s0.5-1.2,1.5-1.2h2L356.4,221z M358,224v-5.5c0-1.9-1.2-2.9-3.5-2.9
					c-0.6,0-1.3,0.1-1.8,0.3c-0.4,0.2-0.8,0.5-1.1,0.9l1.1,1c0.2-0.3,0.4-0.5,0.7-0.6c0.3-0.2,0.7-0.2,1.1-0.2
					c1.3,0,1.9,0.5,1.9,1.5v0.6h-2.3c-1.8,0-2.9,0.9-2.9,2.4s1,2.5,2.9,2.5c0.8,0.1,1.6-0.2,2.2-0.8v0.7L358,224z M343.4,215.8v2.1
					c0.1,1.6-0.2,3.3-0.9,4.7h-0.9v3.6h1.6v-2.1h5.4v2.1h1.6v-3.6H349v-6.8H343.4z M345,217.2h2.3v5.4h-3.1c0.6-1.3,0.8-2.6,0.8-4
					V217.2z M339,219.9c0.1,0.8-0.1,1.5-0.5,2.2c-0.3,0.4-0.8,0.6-1.3,0.6c-0.5,0-0.9-0.2-1.2-0.5c-0.4-0.6-0.6-1.4-0.5-2.2
					c-0.1-0.8,0.1-1.6,0.5-2.2c0.3-0.4,0.8-0.6,1.3-0.6c0.5,0,0.9,0.2,1.3,0.5C338.9,218.3,339.1,219.1,339,219.9 M340.7,219.8
					c0.1-1.2-0.2-2.3-1-3.2c-0.7-0.7-1.6-1-2.5-1c-0.9,0-1.8,0.4-2.4,1c-1.3,2-1.3,4.5,0,6.5c0.6,0.7,1.5,1,2.4,1
					c0.9,0,1.8-0.3,2.5-1C340.5,222.2,340.8,221,340.7,219.8 M331.5,224v-8.3h-1.7v3.3h-3.3v-3.3h-1.7v8.3h1.7v-3.5h3.3v3.5H331.5z
					 M322.9,223l-1.1-1.1c-0.4,0.5-1,0.8-1.6,0.8c-1.3,0-2-0.9-2-2.8s0.7-2.8,2-2.8c0.6,0,1.2,0.3,1.6,0.8l1.1-1.1
					c-0.3-0.4-0.7-0.7-1.2-0.9c-0.5-0.2-1-0.3-1.5-0.3c-2.3,0-3.7,1.6-3.7,4.2s1.3,4.3,3.6,4.3c0.5,0,1-0.1,1.5-0.3
					C322.1,223.7,322.5,223.4,322.9,223 M312.6,221.1c0,1.2-0.5,1.7-1.8,1.7s-1.6-0.4-1.6-1.2s0.5-1.2,1.5-1.2h2L312.6,221.1z
					 M314.3,224.1v-5.6c0-1.9-1.2-2.8-3.5-2.8c-0.6,0-1.2,0.1-1.8,0.3c-0.4,0.2-0.8,0.5-1.1,0.9l1.1,1c0.2-0.3,0.4-0.5,0.7-0.6
					c0.3-0.2,0.7-0.2,1.1-0.2c1.3,0,1.9,0.5,1.9,1.5v0.6h-2.2c-1.8,0-2.8,0.9-2.8,2.4s1,2.5,2.9,2.5c0.8,0.1,1.6-0.2,2.2-0.8v0.8
					L314.3,224.1z M304.3,220c0,2-0.5,2.8-1.7,2.8s-1.7-0.8-1.7-2.7c0-0.7,0.1-1.4,0.3-2c0.2-0.5,0.8-0.9,1.4-0.8
					C303.7,217.1,304.3,217.9,304.3,220L304.3,220z M305.9,220c0-0.7,0-1.4-0.2-2.1c-0.2-1.3-1.5-2.3-2.8-2.1c-0.8,0-1.6,0.3-2.1,1
					v-0.9h-1.6v11.6h1.7v-4.2c0.5,0.6,1.3,1,2.1,0.9c0.8,0,1.5-0.2,2.1-0.8C305.7,222.8,305.9,221.8,305.9,220L305.9,220z M291,224
					v-6l4.7,6h2.2l-4.8-6.1l4.5-5.5h-2.2l-4.4,5.5v-5.5h-1.8V224H291z"/>
				<path class="st3" d="M402,242.5v-4.3l3.4,4.3h2l-3.5-4.4l3.3-3.9h-2l-3.1,4v-4h-1.7v8.3H402z M398.4,241.4l-1.1-1.1
					c-0.4,0.5-1,0.8-1.6,0.8c-1.3,0-2-0.9-2-2.8s0.7-2.8,2-2.8c0.6,0,1.2,0.3,1.6,0.8l1.1-1.1c-0.3-0.4-0.7-0.7-1.2-0.9
					c-0.5-0.2-1-0.3-1.5-0.3c-2.3,0-3.7,1.6-3.7,4.2s1.4,4.3,3.7,4.3C396.7,242.6,397.7,242.2,398.4,241.4 M388.4,240
					c0,0.6-0.4,1.1-1,1.2c-0.1,0-0.1,0-0.2,0h-2.1V239h2.1C387.9,238.9,388.4,239.4,388.4,240C388.5,240,388.5,240,388.4,240
					c0,0,0,0.1,0,0.1 M388.3,236.7c0,0.7-0.4,1.1-1.2,1.1h-2v-2.1h2C387.9,235.6,388.3,236,388.3,236.7 M390.1,240.2
					c0-0.9-0.5-1.6-1.3-1.9c0.7-0.3,1.2-1,1.2-1.8c0-1.2-1-2.2-2.2-2.2c0,0,0,0,0,0c-0.1,0-0.2,0-0.3,0h-4v8.3h4.1
					c1.2,0.1,2.3-0.7,2.5-1.9C390.1,240.5,390.1,240.4,390.1,240.2 M379.6,238.5c0.1,0.8-0.1,1.5-0.5,2.2c-0.3,0.4-0.8,0.6-1.3,0.6
					c-0.5,0-0.9-0.2-1.2-0.5c-0.4-0.6-0.6-1.4-0.5-2.2c-0.1-0.8,0.1-1.6,0.5-2.2c0.7-0.7,1.8-0.7,2.5-0.1c0,0,0.1,0.1,0.1,0.1
					C379.5,236.9,379.7,237.7,379.6,238.5 M381.3,238.4c0.1-1.2-0.2-2.3-1-3.2c-1.4-1.3-3.5-1.3-4.9,0c-1.3,2-1.3,4.5,0,6.5
					c1.4,1.3,3.5,1.3,4.9,0C381,240.8,381.4,239.6,381.3,238.4 M372.1,242.6v-8.3h-1.6v3.3h-3.3v-3.3h-1.7v8.3h1.7V239h3.3v3.5
					L372.1,242.6z M361.6,237.7h-3.7c0-1.1,0.5-2.2,1.9-2.2S361.5,236.6,361.6,237.7 M363.3,239v-0.8c0-2.4-1.4-4-3.5-4
					s-3.5,1.6-3.5,4.2c0,2.8,1.3,4.3,3.8,4.3c1.2,0.1,2.3-0.4,3.1-1.3l-1-1c-0.5,0.6-1.2,0.9-2,0.9c-1.6,0-2.1-0.9-2.2-2.3
					L363.3,239z M352.8,238.4c0,2-0.5,2.8-1.7,2.8s-1.7-0.8-1.7-2.7c0-0.7,0.1-1.4,0.3-2c0.3-0.5,0.8-0.8,1.4-0.8
					C352.2,235.7,352.8,236.5,352.8,238.4L352.8,238.4z M354.4,238.4c0-0.7-0.1-1.5-0.3-2.2c-0.2-1.3-1.5-2.3-2.8-2.1
					c-0.8,0-1.6,0.3-2.1,1v-0.9h-1.6V246h1.7v-4.2c0.5,0.6,1.3,1,2.1,0.9c0.8,0,1.5-0.2,2.1-0.8
					C354.1,241.3,354.4,240.3,354.4,238.4L354.4,238.4z M343.7,238.4c0.1,0.8-0.1,1.5-0.5,2.2c-0.3,0.4-0.8,0.6-1.3,0.6
					c-0.5,0-0.9-0.2-1.2-0.5c-0.4-0.6-0.6-1.4-0.5-2.2c-0.1-0.8,0.1-1.6,0.5-2.2c0.3-0.4,0.7-0.6,1.2-0.6c0.5,0,0.9,0.2,1.3,0.5
					C343.6,236.9,343.8,237.7,343.7,238.4 M345.3,238.4c0.1-1.2-0.2-2.3-1-3.2c-0.7-0.7-1.6-1-2.5-1c-0.9,0-1.8,0.4-2.4,1
					c-1.3,2-1.3,4.5,0,6.5c1.4,1.3,3.5,1.3,4.9,0C345.1,240.8,345.5,239.6,345.3,238.4 M330.6,242.6v-6l4.7,6h2.2l-4.8-6.1l4.5-5.5
					H335l-4.3,5.5v-5.5h-1.9v11.6H330.6z"/>
				<path class="st3" d="M427.2,275.7v-4.3l3.4,4.3h2.1l-3.5-4.4l3.3-3.9h-2l-3.2,4v-4h-1.7v8.3H427.2z M423.6,274.6l-1.1-1.1
					c-0.4,0.5-1,0.8-1.6,0.8c-1.3,0-2-0.9-2-2.8s0.7-2.7,2-2.7c0.6,0,1.2,0.3,1.6,0.8l1.1-1.1c-0.3-0.4-0.7-0.7-1.2-0.9
					c-0.5-0.2-1-0.3-1.5-0.3c-2.3,0-3.7,1.6-3.7,4.2s1.4,4.3,3.7,4.3c0.5,0,1-0.1,1.5-0.3C422.9,275.3,423.3,275,423.6,274.6
					 M415,275.7v-8.3h-1.7v3.2H410v-3.3h-1.7v8.3h1.7v-3.5h3.3v3.5L415,275.7z M405.7,275.7v-8.3H404l-3.6,5.7v-5.6h-1.7v8.3h1.7
					l3.6-5.7v5.7L405.7,275.7z M393.2,275.8c0.9,0,1.8-0.3,2.4-0.9c0.8-0.9,1.1-2.1,1-3.3c0.1-1.2-0.3-2.5-1.1-3.4
					c-0.6-0.5-1.3-0.7-2-0.7c-0.9-0.1-1.8,0.3-2.3,1.1c-0.1-0.9,0.2-1.9,1-2.4c0.9-0.6,2.6-0.5,3.7-0.6v-1.5c-2.1,0.1-3.9,0.1-5,1
					s-1.2,1.8-1.2,5.4c-0.1,1.2,0.1,2.5,0.5,3.6C390.8,275.1,392,275.8,393.2,275.8 M393.3,274.2c-0.5,0-0.9-0.2-1.2-0.5
					c-0.8-1.4-0.8-3.1,0-4.4c0.3-0.3,0.7-0.5,1.2-0.5c0.5,0,0.9,0.2,1.2,0.5c0.4,0.7,0.6,1.4,0.5,2.2c0.1,0.8-0.1,1.6-0.5,2.2
					C394.2,274,393.7,274.2,393.3,274.2 M385.9,272.6c0,1.2-0.5,1.7-1.8,1.7s-1.6-0.4-1.6-1.2s0.5-1.2,1.5-1.2h2L385.9,272.6z
					 M387.5,275.6v-5.5c0-1.9-1.2-2.8-3.5-2.8c-0.6,0-1.3,0.1-1.9,0.3c-0.4,0.2-0.8,0.5-1.1,0.9l1.1,1c0.2-0.3,0.4-0.5,0.7-0.6
					c0.3-0.2,0.7-0.2,1.1-0.2c1.3,0,1.9,0.5,1.9,1.5v0.6h-2.2c-1.8,0-2.9,0.9-2.9,2.4s1,2.5,2.9,2.5c0.8,0.1,1.6-0.2,2.2-0.8v0.8
					L387.5,275.6z M378.5,275.6V264h-6.8v5c0,4.2-0.9,5-2.2,5h-0.3v1.6h0.7c2.3,0,3.5-1.5,3.5-6.4v-3.6h3.4v10L378.5,275.6z
					 M367.9,270.3H363v1.5h4.8L367.9,270.3z M359.7,273c0,0.7-0.5,1.2-1.2,1.2c0,0,0,0,0,0h-2v-2.4h1.9c0.7-0.1,1.2,0.4,1.3,1.1
					c0,0,0,0,0,0C359.7,272.9,359.7,273,359.7,273 M361.4,273c0.1-1.4-1-2.5-2.4-2.6c0,0,0,0,0,0c-0.1,0-0.2,0-0.3,0h-2.2v-3.1h-1.7
					v8.3h3.9c1.4,0.1,2.6-1,2.6-2.4c0,0,0,0,0,0C361.3,273.2,361.3,273.1,361.4,273 M353.3,268.8v-1.5h-6.8v1.5h2.5v6.8h1.7v-6.8
					L353.3,268.8z M345.9,274.5l-1.1-1.1c-0.4,0.5-0.9,0.8-1.5,0.8c-1.4,0-2-0.9-2-2.8s0.7-2.8,2-2.8c0.6,0,1.2,0.3,1.6,0.8l1.1-1.1
					c-0.3-0.4-0.7-0.7-1.2-0.9c-0.5-0.2-1-0.3-1.5-0.3c-2.3,0-3.7,1.6-3.7,4.2s1.4,4.3,3.7,4.3c0.5,0,1-0.1,1.5-0.3
					C345.2,275.2,345.6,274.9,345.9,274.5 M339.1,264h-1.9l-2.6,6.2l-2.8-6.2H330l3.8,8.2l-0.4,0.9c-0.2,0.6-0.7,1-1.4,0.9h-0.8v1.6
					h1.2c1.1-0.1,2.1-0.8,2.4-1.9L339.1,264z"/>
				<path class="st3" d="M432.9,292.1l1.6-3.1h1.5v3.1h1.7v-8.3h-3.9c-1.4-0.1-2.6,0.9-2.7,2.3c0,0.1,0,0.2,0,0.3
					c-0.1,1.1,0.7,2.1,1.7,2.4l-1.8,3.4H432.9z M436,287.6h-2c-0.7,0.1-1.3-0.4-1.3-1.1c0,0,0,0,0,0c0,0,0-0.1,0-0.1
					c0-0.7,0.5-1.2,1.1-1.3c0.1,0,0.2,0,0.2,0h2L436,287.6z M427.4,289.1c0,1.2-0.5,1.7-1.8,1.7s-1.6-0.4-1.6-1.2s0.5-1.2,1.5-1.2h2
					L427.4,289.1z M429,292.1v-5.5c0-1.9-1.2-2.8-3.5-2.8c-0.6,0-1.3,0.1-1.9,0.3c-0.4,0.2-0.8,0.5-1.1,0.9l1.1,1
					c0.2-0.2,0.4-0.4,0.7-0.6c0.3-0.2,0.7-0.2,1.1-0.2c1.3,0,1.9,0.5,1.9,1.5v0.6h-2.2c-1.8,0-2.8,0.9-2.8,2.4s1,2.5,2.9,2.5
					c0.8,0.1,1.6-0.2,2.2-0.8v0.8L429,292.1z M416.2,292.1v-4.3l3.4,4.3h2l-3.5-4.4l3.3-3.9h-2l-3.2,4v-3.9h-1.6v8.3L416.2,292.1z
					 M412.6,291l-1.1-1.1c-0.4,0.5-1,0.8-1.6,0.8c-1.3,0-2-0.9-2-2.8s0.7-2.8,2-2.8c0.6,0,1.2,0.3,1.6,0.8l1.1-1.1
					c-0.3-0.4-0.8-0.7-1.2-0.9c-0.5-0.2-1-0.3-1.5-0.3c-2.3,0-3.7,1.6-3.7,4.2s1.4,4.3,3.7,4.3c0.5,0,1-0.1,1.5-0.3
					C411.9,291.7,412.3,291.4,412.6,291 M402.7,289.6c0,0.6-0.4,1.1-1,1.2h-2.2v-2.3h2.1c0.6-0.1,1.1,0.4,1.2,1c0,0,0,0,0,0
					C402.7,289.6,402.7,289.6,402.7,289.6 M402.6,286.2c0,0.7-0.4,1.1-1.2,1.1h-2v-2.1h1.9C402.1,285.2,402.5,285.5,402.6,286.2
					 M404.3,289.8c0-0.9-0.5-1.6-1.3-1.9c0.7-0.3,1.2-1,1.2-1.8c0-1.2-1-2.2-2.2-2.2h-4.3v8.3h4.1c1.2,0.1,2.3-0.7,2.5-2
					c0,0,0,0,0,0C404.3,290,404.3,289.9,404.3,289.8 M393.7,288c0.1,0.8-0.1,1.5-0.5,2.2c-0.3,0.4-0.8,0.6-1.3,0.6
					c-0.5,0-0.9-0.2-1.2-0.5c-0.4-0.6-0.6-1.4-0.5-2.2c-0.1-0.8,0.1-1.6,0.5-2.3c0.7-0.7,1.8-0.7,2.5-0.1c0,0,0,0,0,0
					c0,0,0.1,0,0.1,0.1C393.7,286.4,393.9,287.2,393.7,288 M395.4,287.9c0.1-1.2-0.2-2.3-1-3.2c-1.4-1.3-3.5-1.3-4.9,0
					c-1.3,2-1.3,4.5,0,6.5c1.4,1.3,3.5,1.3,4.9,0C395.2,290.3,395.6,289.1,395.4,287.9 M387,291.1l-1.2-1.1c-0.4,0.5-1,0.8-1.6,0.8
					c-1.3,0-2-0.9-2-2.8s0.7-2.7,2-2.7c0.6,0,1.2,0.3,1.6,0.8l1.2-1.1c-0.3-0.4-0.7-0.7-1.2-0.9c-0.5-0.2-1-0.3-1.5-0.3
					c-2.3,0-3.7,1.6-3.7,4.2s1.4,4.3,3.7,4.3c0.5,0,1-0.1,1.5-0.3C386.3,291.8,386.7,291.5,387,291.1 M376.8,289.2
					c0,1.2-0.5,1.7-1.8,1.7s-1.6-0.4-1.6-1.2s0.5-1.2,1.5-1.2h2L376.8,289.2z M378.4,292.2v-5.6c0-1.9-1.2-2.8-3.5-2.8
					c-0.6,0-1.3,0.1-1.9,0.3c-0.4,0.2-0.8,0.5-1.1,0.9l1.1,1c0.2-0.2,0.4-0.4,0.7-0.6c0.3-0.2,0.7-0.2,1.1-0.2
					c1.3,0,1.9,0.5,1.9,1.5v0.6h-2.2c-1.8,0-2.8,0.9-2.8,2.4s1,2.5,2.9,2.5c0.8,0.1,1.6-0.2,2.2-0.8v0.8L378.4,292.2z M368.4,288.1
					c0,2-0.5,2.8-1.7,2.8s-1.7-0.8-1.7-2.7c0-0.7,0.1-1.4,0.3-2c0.2-0.5,0.8-0.9,1.4-0.8C367.9,285.3,368.4,286,368.4,288.1
					L368.4,288.1z M370.1,288.1c0-0.7,0-1.4-0.2-2.1c-0.2-1.3-1.5-2.3-2.8-2.1c-0.8,0-1.6,0.3-2.1,1v-0.9h-1.6v11.6h1.7v-4.2
					c0.5,0.6,1.3,1,2.1,0.9c0.8,0,1.5-0.2,2.1-0.8C369.8,290.9,370.1,289.9,370.1,288.1L370.1,288.1z M356.6,292.2v-4.3l3.4,4.3h2
					l-3.5-4.4l3.3-3.9h-2l-3.1,4v-3.9h-1.7v8.3L356.6,292.2z M351,287.3h-3.7c0-1.1,0.5-2.2,1.9-2.2S350.9,286.1,351,287.3
					 M352.6,288.5v-0.8c0-2.4-1.4-4-3.5-4s-3.5,1.6-3.5,4.1c0,2.8,1.3,4.3,3.8,4.3c1.2,0,2.3-0.4,3.1-1.3l-1-1
					c-0.5,0.6-1.2,0.9-1.9,0.9c-1.6,0-2.1-0.9-2.2-2.3L352.6,288.5z M343.2,292.1v-11.6h-1.8v5h-4.7v-5H335v11.6h1.8V287h4.7v5.1
					L343.2,292.1z"/>
				<path class="st3" d="M429.1,323.3V319l3.4,4.3h2l-3.5-4.4l3.3-3.9h-2l-3.1,4v-3.9h-1.7v8.3H429.1z M425.5,322.2l-1.1-1.1
					c-0.4,0.5-1,0.8-1.6,0.8c-1.3,0-2-0.9-2-2.8s0.7-2.7,2-2.7c0.6,0,1.2,0.3,1.6,0.8l1.1-1.1c-0.7-0.8-1.7-1.2-2.7-1.2
					c-2.3,0-3.7,1.6-3.7,4.2s1.4,4.3,3.7,4.3c0.5,0,1-0.1,1.5-0.3C424.7,322.9,425.1,322.6,425.5,322.2 M416.8,323.3v-8.3h-1.6v3.3
					h-3.3v-3.3h-1.7v8.3h1.7v-3.5h3.3v3.5H416.8z M407.5,323.3v-8.3h-1.7l-3.5,5.6v-5.6h-1.7v8.3h1.7l3.5-5.7v5.7H407.5z M398,323.3
					v-8.3h-1.6v3.3h-3.3v-3.3h-1.7v8.3h1.7v-3.5h3.3v3.5H398z M387.1,320.3c0,1.2-0.5,1.7-1.8,1.7s-1.6-0.4-1.6-1.2s0.5-1.2,1.5-1.2
					h2L387.1,320.3z M388.8,323.3v-5.5c0-1.9-1.2-2.8-3.5-2.8c-0.6,0-1.3,0.1-1.9,0.3c-0.4,0.2-0.8,0.5-1.1,0.9l1.1,1
					c0.2-0.2,0.4-0.4,0.7-0.6c0.3-0.2,0.7-0.2,1.1-0.2c1.3,0,1.9,0.5,1.9,1.5v0.6h-2.2c-1.8,0-2.8,0.9-2.8,2.4s1,2.5,2.9,2.5
					c0.8,0.1,1.6-0.2,2.2-0.8v0.8L388.8,323.3z M381.3,316.5v-1.5H376v8.3h1.7v-6.8L381.3,316.5z M372,319.2c0,2-0.5,2.8-1.7,2.8
					s-1.7-0.8-1.7-2.7c0-0.7,0.1-1.4,0.3-2c0.3-0.5,0.8-0.9,1.4-0.8C371.5,316.4,372,317.2,372,319.2z M373.7,319.2
					c0-0.7,0-1.4-0.2-2.1c-0.2-1.3-1.5-2.3-2.8-2.1c-0.8,0-1.6,0.3-2.1,1V315h-1.6v11.6h1.7v-4.2c0.5,0.6,1.3,1,2.1,0.9
					c0.8,0,1.5-0.2,2-0.8C373.5,322,373.7,321,373.7,319.2L373.7,319.2z M365.5,315h-1.8l-1.9,5.8l-2-5.8H358l2.9,7.9l-0.5,1.3
					c-0.1,0.5-0.6,0.9-1.1,0.9c0,0-0.1,0-0.1,0h-0.4v1.5h0.7c1.1,0.1,2-0.6,2.3-1.6L365.5,315z M351.1,323.3v-6l4.7,6h2.2l-4.8-6.1
					l4.5-5.5h-2.2l-4.4,5.5v-5.5h-1.8v11.6H351.1z"/>
				<path class="st3" d="M363.2,339.9v-8.2h-6.6v8.3h1.7v-6.8h3.3v6.8L363.2,339.9z M352.7,335.8c0.1,0.8-0.1,1.5-0.5,2.2
					c-0.7,0.7-1.7,0.7-2.4,0.1c0,0,0,0-0.1-0.1c-0.4-0.6-0.6-1.4-0.5-2.2c-0.1-0.8,0.1-1.6,0.5-2.2c0.3-0.4,0.8-0.6,1.3-0.5
					c0.5,0,0.9,0.2,1.2,0.5C352.5,334.2,352.7,335,352.7,335.8 M354.3,335.7c0.1-1.2-0.2-2.3-1-3.2c-0.6-0.6-1.5-1-2.4-1
					c-0.9,0-1.8,0.3-2.4,1c-1.3,2-1.3,4.5,0,6.5c0.6,0.7,1.5,1,2.4,1c0.9,0,1.8-0.4,2.4-1C354.1,338.1,354.4,336.9,354.3,335.7
					 M341.4,339.9v-4.3l3.4,4.3h2l-3.5-4.4l3.3-3.9h-2l-3.2,4v-3.9h-1.7v8.3L341.4,339.9z M337,339.9v-8.2h-1.6l-3.5,5.6v-5.6h-1.7
					v8.3h1.7l3.5-5.7v5.7L337,339.9z M336.1,328.3h-1.3c0,0.6-0.4,1.1-1,1.1h-0.2c-0.6,0.1-1.2-0.4-1.2-1v-0.1h-1.3
					c0.2,1.4,1.6,2.3,2.9,2.1C335.1,330.1,335.9,329.3,336.1,328.3 M325.9,336.9c0,1.2-0.5,1.7-1.8,1.7s-1.6-0.4-1.6-1.2
					s0.5-1.2,1.5-1.2h2L325.9,336.9z M327.6,339.9v-5.5c0-1.9-1.2-2.8-3.5-2.8c-0.6,0-1.3,0.1-1.9,0.3c-0.4,0.2-0.8,0.5-1.1,0.9
					l1.1,1c0.2-0.3,0.4-0.5,0.7-0.6c0.3-0.1,0.7-0.1,1.1-0.1c1.3,0,1.9,0.5,1.9,1.5v0.6h-2.2c-1.8,0-2.8,0.9-2.8,2.4s1,2.5,2.9,2.5
					c0.8,0.1,1.6-0.2,2.2-0.8v0.8L327.6,339.9z M318.6,339.9v-11.6h-1.8l-3.4,7.2l-3.4-7.2h-1.8v11.6h1.8v-7.8l2.7,5.7h1.3l2.7-5.7
					v7.8L318.6,339.9z"/>
				<path class="st3" d="M499,346.6c0,0.7-0.5,1.2-1.2,1.2c0,0,0,0,0,0h-2v-2.4h1.9c0.7-0.1,1.2,0.4,1.3,1.1L499,346.6 M500.7,346.6
					c0.1-1.4-1-2.5-2.4-2.6c0,0,0,0,0,0c-0.1,0-0.2,0-0.3,0h-2.2v-3.1h-1.7v8.3h3.9c1.4,0.1,2.6-0.9,2.7-2.3L500.7,346.6
					 M491.5,349.2v-8.3h-5.7v3.5c0,3.2-0.9,3.4-1.6,3.4H484v1.5h0.8c1.6,0,2.6-0.9,2.6-4.4v-2.4h2.4v6.8L491.5,349.2z M481.3,345.1
					c0.1,0.8-0.1,1.5-0.5,2.2c-0.3,0.4-0.8,0.6-1.3,0.5c-0.5,0-0.9-0.2-1.2-0.5c-0.4-0.6-0.6-1.4-0.5-2.2c-0.1-0.8,0.1-1.6,0.5-2.2
					c0.3-0.4,0.8-0.6,1.3-0.6c0.5,0,1,0.2,1.3,0.5C481.2,343.5,481.4,344.3,481.3,345.1 M483,345c0.1-1.2-0.2-2.3-1-3.2
					c-1.4-1.3-3.5-1.3-4.9,0c-1.3,2-1.3,4.5,0,6.5c0.6,0.7,1.5,1,2.4,1c0.9,0,1.8-0.3,2.5-1C482.8,347.4,483.1,346.2,483,345
					 M473.8,349.2v-8.3h-6.6v8.3h1.7v-6.9h3.3v6.8L473.8,349.2z M463.3,345.1c0.1,0.8-0.1,1.5-0.5,2.2c-0.3,0.4-0.8,0.6-1.3,0.5
					c-0.5,0-0.9-0.2-1.2-0.5c-0.4-0.6-0.6-1.4-0.5-2.2c-0.1-0.8,0.1-1.6,0.5-2.2c0.7-0.7,1.8-0.7,2.5-0.1c0,0,0,0,0,0l0.1,0.1
					C463.2,343.5,463.4,344.3,463.3,345.1 M465,345c0.1-1.2-0.2-2.3-1-3.2c-0.7-0.7-1.6-1-2.5-1c-0.9,0-1.8,0.3-2.4,1
					c-1.3,2-1.3,4.5,0,6.5c0.6,0.7,1.5,1,2.4,1c0.9,0,1.8-0.3,2.5-1C464.7,347.4,465.1,346.2,465,345 M454.5,345
					c0,2-0.5,2.8-1.7,2.8s-1.8-0.8-1.8-2.7c0-0.7,0.1-1.4,0.3-2c0.2-0.5,0.8-0.9,1.4-0.8C454,342.3,454.5,343.1,454.5,345L454.5,345
					z M456.2,345c0-0.7,0-1.4-0.2-2.1c-0.2-1.3-1.5-2.3-2.8-2.1c-0.8,0-1.6,0.3-2.1,1v-0.9h-1.6v11.6h1.6v-4.1
					c0.5,0.6,1.3,1,2.1,0.9c0.8,0,1.5-0.2,2.1-0.8c0.6-0.6,0.9-1.7,0.9-3.5L456.2,345z M445.5,346.7c0.1,0.6-0.4,1.1-1,1.2h-2.2
					v-2.3h2c0.6-0.1,1.1,0.4,1.2,1C445.5,346.6,445.5,346.6,445.5,346.7L445.5,346.7 M445.4,343.2c0,0.7-0.4,1.1-1.2,1.1h-2v-2.1h2
					C445,342.2,445.4,342.6,445.4,343.2 M447.2,346.9c0-0.9-0.5-1.6-1.3-2c0.7-0.3,1.2-1,1.2-1.8c0-1.2-1-2.2-2.2-2.2c0,0,0,0,0,0
					h-0.3h-4v8.3h4.1c1.2,0.1,2.3-0.7,2.5-2c0,0,0,0,0,0C447.2,347,447.2,346.9,447.2,346.9 M436.4,346.1c0,1.2-0.5,1.7-1.8,1.7
					s-1.6-0.4-1.6-1.2s0.5-1.2,1.5-1.2h2L436.4,346.1z M438,349.1v-5.5c0-1.9-1.2-2.9-3.5-2.9c-0.6,0-1.3,0.1-1.9,0.3
					c-0.4,0.2-0.8,0.5-1.1,0.9l1.1,1c0.2-0.2,0.4-0.5,0.7-0.6c0.3-0.2,0.7-0.2,1.1-0.2c1.3,0,1.9,0.5,1.9,1.5v0.6H434
					c-1.8,0-2.8,0.9-2.8,2.4s1,2.5,2.9,2.5c0.8,0.1,1.6-0.2,2.2-0.8v0.8L438,349.1z M430.5,342.3v-1.5h-6.8v1.5h2.6v6.8h1.7v-6.8
					H430.5z M423.1,345.6h-1.8c-0.2,1.2-1.2,2-2.4,2c-0.6,0-1.3-0.2-1.7-0.7c-0.6-0.6-0.7-1.3-0.7-3.6s0.1-3,0.7-3.6
					c1-0.9,2.5-0.9,3.4,0c0.3,0.3,0.6,0.8,0.6,1.2h1.9c-0.2-2.1-2-3.7-4.1-3.6c-1.1,0-2.2,0.4-3.1,1.2c-1.1,1.1-1.1,2.4-1.1,4.7
					s0,3.5,1.1,4.7c0.8,0.8,1.9,1.2,3.1,1.2c2.1,0.1,4-1.5,4.1-3.6"/>
				<path class="st3" d="M520.3,369.3V365l3.4,4.3h2l-3.5-4.4l3.3-3.9h-2l-3.1,4v-4h-1.7v8.3L520.3,369.3z M516.7,368.2l-1.1-1.1
					c-0.4,0.5-1,0.8-1.6,0.8c-1.3,0-2-0.9-2-2.8s0.7-2.8,2-2.8c0.6,0,1.2,0.3,1.6,0.8l1.1-1.1c-0.7-0.8-1.7-1.2-2.7-1.2
					c-2.3,0-3.7,1.6-3.7,4.2s1.4,4.3,3.7,4.3c0.5,0,1-0.1,1.5-0.3C515.9,368.9,516.3,368.6,516.7,368.2 M508.9,368.2l-1.1-1.1
					c-0.4,0.5-1,0.8-1.6,0.8c-1.3,0-2-0.9-2-2.8s0.7-2.8,2-2.8c0.6,0,1.2,0.3,1.6,0.8l1.1-1.1c-0.3-0.4-0.7-0.7-1.2-0.9
					c-0.5-0.2-1-0.3-1.5-0.3c-2.3,0-3.7,1.6-3.7,4.2s1.4,4.3,3.7,4.3C507.2,369.5,508.2,369,508.9,368.2 M495.6,366.7
					c0,0.7-0.5,1.2-1.2,1.2c0,0,0,0,0,0h-2v-2.4h1.9c0.7-0.1,1.3,0.4,1.3,1.1c0,0,0,0,0,0L495.6,366.7 M497.3,366.7
					c0-1.4-1-2.5-2.4-2.6c0,0,0,0,0,0h-2.5V361h-1.6v8.3h3.8c1.4,0.1,2.6-0.9,2.7-2.3C497.3,366.9,497.3,366.8,497.3,366.7
					 M500.1,361h-1.6v8.3h1.6V361z M488.1,369.3V361h-1.6l-2.4,5l-2.5-5h-1.7v8.3h1.7V364l2,3.8h1l1.9-3.8v5.3L488.1,369.3z
					 M476,365.2c0.1,0.8-0.1,1.5-0.5,2.2c-0.3,0.4-0.8,0.6-1.3,0.6c-0.5,0-0.9-0.2-1.2-0.5c-0.4-0.6-0.6-1.4-0.5-2.2
					c-0.1-0.8,0.1-1.6,0.5-2.3c0.3-0.4,0.8-0.6,1.3-0.6c0.5,0,1,0.2,1.3,0.5C476,363.6,476.1,364.4,476,365.2 M477.7,365.1
					c0.1-1.2-0.2-2.3-1-3.2c-0.7-0.7-1.6-1-2.5-1c-0.9,0-1.8,0.4-2.4,1c-0.8,0.9-1.1,2.1-1,3.2c-0.1,1.2,0.2,2.4,1,3.3
					c1.4,1.3,3.5,1.3,4.9,0C477.5,367.5,477.8,366.3,477.7,365.1 M468.5,369.3V361h-1.7v3.3h-3.3V361h-1.7v8.3h1.7v-3.5h3.3v3.5
					L468.5,369.3z M459.3,369.3V361h-1.7v3.3h-3.3V361h-1.7v8.3h1.7v-3.5h3.3v3.5L459.3,369.3z M450,369.3V361h-1.7l-3.5,5.6V361
					h-1.7v8.3h1.7l3.5-5.7v5.7L450,369.3z M439.2,366.9c0,0.6-0.4,1.2-1.1,1.2h-2.2v-2.3h2.1c0.6-0.1,1.1,0.4,1.2,1V366.9
					 M439,363.4c0,0.7-0.4,1.1-1.2,1.1h-2v-2.1h2C438.6,362.4,439,362.8,439,363.4 M440.8,367c0-0.9-0.5-1.6-1.3-1.9
					c0.7-0.3,1.2-1,1.2-1.8c0-1.2-1-2.2-2.2-2.2h-0.3h-4v8.3h4.1c1.2,0.1,2.3-0.7,2.5-2c0,0,0,0,0,0
					C440.8,367.2,440.8,367.1,440.8,367 M430.3,364.4h-3.7c0-1.1,0.5-2.2,1.9-2.2S430.2,363.3,430.3,364.4 M431.9,365.6V365
					c0-2.4-1.4-4-3.5-4s-3.5,1.6-3.5,4.2c0,2.8,1.3,4.3,3.8,4.3c1.2,0.1,2.3-0.4,3-1.3l-1-1c-0.5,0.6-1.2,0.9-2,0.9
					c-1.5,0-2.1-0.9-2.2-2.3L431.9,365.6z M422.5,369.2v-11.5h-1.8v5H416v-5h-1.8v11.6h1.8v-5.1h4.7v5.1L422.5,369.2z"/>
				<path class="st3" d="M552.8,166.2H551l-1.9,5.9l-2-5.9h-1.8l2.9,7.9l-0.5,1.3c-0.1,0.5-0.6,0.9-1.1,0.9c0,0,0,0-0.1,0h-0.5v1.5
					h0.7c1.1,0.1,2-0.6,2.3-1.6L552.8,166.2z M543.9,174.5v-8.3h-1.7v3.3h-3.3v-3.3h-1.7v8.3h1.7V171h3.3v3.5H543.9z M533.3,170.4
					c0.1,0.8-0.1,1.5-0.5,2.2c-0.3,0.4-0.8,0.6-1.3,0.6c-0.5,0-0.9-0.2-1.2-0.5c-0.4-0.6-0.6-1.4-0.5-2.2c-0.1-0.8,0.1-1.6,0.5-2.2
					c0.3-0.4,0.8-0.6,1.3-0.6c0.5,0,0.9,0.2,1.3,0.6C533.3,168.8,533.4,169.6,533.3,170.4 M535,170.3c0.1-1.2-0.2-2.3-1-3.2
					c-0.6-0.7-1.5-1-2.5-1c-0.9,0-1.8,0.3-2.4,1c-1.3,2-1.3,4.5,0,6.5c0.6,0.7,1.5,1,2.4,1c0.9,0,1.8-0.3,2.5-1
					C534.8,172.7,535.1,171.5,535,170.3 M518.5,162.9v3.4c0.2,2.3-0.3,4.6-1.4,6.6h-1v4.2h1.7v-2.6h7v2.6h1.7v-4.2h-1.4v-10
					L518.5,162.9z M520.2,164.5h3.2v8.5h-4.4c0.9-1.8,1.3-3.8,1.2-5.9L520.2,164.5z M514.6,169.2h-4.8v1.6h4.8V169.2z M505.9,171.5
					c0,1.2-0.5,1.7-1.8,1.7s-1.6-0.4-1.6-1.2s0.5-1.2,1.5-1.2h2L505.9,171.5z M507.5,174.5V169c0-1.9-1.2-2.8-3.5-2.8
					c-0.6,0-1.3,0.1-1.9,0.3c-0.4,0.2-0.8,0.5-1.1,0.9l1.1,1c0.2-0.2,0.4-0.4,0.7-0.6c0.4-0.2,0.7-0.2,1.1-0.2
					c1.3,0,1.9,0.5,1.9,1.5v0.6h-2.2c-1.8,0-2.8,0.9-2.8,2.4s1,2.5,2.9,2.5c0.8,0.1,1.6-0.2,2.2-0.8v0.8L507.5,174.5z M498.8,174.5
					v-8.3h-1.7v3.3h-3.3v-3.3h-1.7v8.3h1.7V171h3.3v3.5L498.8,174.5z M489.8,169.2H485v1.6h4.8L489.8,169.2z M481.3,172.1
					c0.1,0.6-0.4,1.1-1,1.2c-0.1,0-0.1,0-0.2,0H478V171h2.1C480.7,170.9,481.2,171.4,481.3,172.1c0,0,0,0.1-0.1,0.1 M481.1,168.7
					c0,0.7-0.4,1.1-1.2,1.1h-2v-2.1h1.9C480.7,167.7,481.1,168.1,481.1,168.7 M482.8,172.3c0.1-0.9-0.5-1.7-1.3-2
					c0.7-0.3,1.2-1,1.2-1.8c0-1.2-1-2.2-2.2-2.2c0,0,0,0,0,0c-0.1,0-0.2,0-0.3,0h-4v8.3h4.1c1.2,0.1,2.3-0.7,2.5-2c0,0,0,0,0,0
					c0-0.1,0-0.2,0-0.4 M472.3,170.4c0.1,0.8-0.1,1.5-0.5,2.2c-0.3,0.4-0.8,0.6-1.3,0.6c-0.5,0-0.9-0.2-1.2-0.5
					c-0.4-0.6-0.6-1.4-0.5-2.2c-0.1-0.8,0.1-1.6,0.5-2.2c0.3-0.4,0.8-0.6,1.3-0.6c0.5,0,1,0.2,1.3,0.5
					C472.3,168.9,472.5,169.7,472.3,170.4 M474,170.4c0.1-1.2-0.2-2.3-1-3.2c-1.4-1.3-3.6-1.3-5,0c-1.3,2-1.3,4.5,0,6.5
					c1.4,1.3,3.6,1.3,5,0C473.8,172.8,474.1,171.6,474,170.4 M466.2,167.7v-1.6h-6.9v1.5h2.7v6.8h1.6v-6.8L466.2,167.7z
					 M458.7,173.4l-1.1-1.1c-0.4,0.5-1,0.8-1.6,0.8c-1.3,0-2-0.9-2-2.8s0.7-2.8,2-2.8c0.6,0,1.2,0.3,1.6,0.8l1.1-1.1
					c-0.3-0.4-0.7-0.7-1.2-0.9c-0.5-0.2-1-0.3-1.5-0.3c-2.3,0-3.7,1.6-3.7,4.2s1.4,4.3,3.7,4.3c0.5,0,1-0.1,1.5-0.3
					C457.9,174.1,458.3,173.8,458.7,173.4 M448.8,170.4c0.1,0.8-0.1,1.5-0.5,2.2c-0.3,0.4-0.8,0.6-1.3,0.6c-0.5,0-0.9-0.2-1.2-0.5
					c-0.4-0.6-0.6-1.4-0.5-2.2c-0.1-0.8,0.1-1.6,0.5-2.2c0.7-0.7,1.8-0.7,2.5-0.1c0,0,0,0,0,0l0.1,0.1
					C448.7,168.8,448.9,169.6,448.8,170.4 M450.4,170.3c0.1-1.2-0.2-2.3-1-3.2c-0.6-0.6-1.5-1-2.4-1c-0.9,0-1.8,0.3-2.4,1
					c-1.3,2-1.3,4.5,0,6.5c0.6,0.7,1.5,1,2.4,1c0.9,0,1.8-0.4,2.4-1C450.2,172.7,450.6,171.5,450.4,170.3 M440.4,166.4
					c0.1,1-0.7,1.9-1.7,2c0,0,0,0-0.1,0c-0.1,0-0.2,0-0.3,0h-2.5v-3.9h2.5c1-0.1,1.9,0.6,2.1,1.6c0,0,0,0,0,0
					C440.4,166.3,440.4,166.4,440.4,166.4 M442.1,166.5c0-1.9-1.5-3.4-3.4-3.5c-0.1,0-0.2,0-0.3,0H434v11.6h1.8V170h2.6
					c1.9,0.1,3.6-1.3,3.7-3.2C442.2,166.7,442.2,166.6,442.1,166.5"/>
				<path class="st3" d="M417.8,206.6v-4.3l3.4,4.3h2l-3.5-4.4l3.3-3.9h-2l-3.2,3.9v-3.9h-1.7v8.3H417.8z M414.4,208.7v-3.6h-1.2
					v-6.8h-1.7v6.8h-3.3v-6.8h-1.7v8.3h6.2v2.1L414.4,208.7z M402.7,201.8H399c0-1.2,0.5-2.2,1.9-2.2S402.7,200.7,402.7,201.8
					 M404.4,203v-0.8c0-2.4-1.4-4-3.5-4s-3.5,1.6-3.5,4.2c0,2.8,1.2,4.3,3.8,4.3c1.2,0,2.3-0.4,3-1.3l-1-1c-0.5,0.6-1.2,0.9-2,0.9
					c-1.5,0-2.1-0.9-2.2-2.3L404.4,203z M393.9,202.5c0,2-0.5,2.8-1.7,2.8s-1.7-0.8-1.7-2.7c0-0.7,0.1-1.4,0.3-2
					c0.3-0.5,0.8-0.9,1.4-0.8C393.4,199.7,393.9,200.5,393.9,202.5L393.9,202.5z M395.5,202.5c0-0.7,0-1.4-0.2-2.1
					c-0.2-1.3-1.5-2.3-2.8-2.1c-0.8,0-1.6,0.3-2.1,1v-0.9h-1.6V210h1.7v-4.2c0.5,0.6,1.3,1,2.1,0.9c0.8,0,1.5-0.2,2.1-0.8
					C395.3,205.3,395.5,204.3,395.5,202.5L395.5,202.5z M384.8,202.5c0.1,0.8-0.1,1.5-0.5,2.2c-0.3,0.4-0.8,0.6-1.3,0.6
					c-0.5,0-0.9-0.2-1.2-0.5c-0.4-0.6-0.6-1.4-0.5-2.2c-0.1-0.8,0.1-1.6,0.5-2.3c0.3-0.4,0.8-0.6,1.3-0.6c0.5,0,1,0.2,1.3,0.6
					C384.8,200.9,385,201.7,384.8,202.5 M386.5,202.4c0.1-1.2-0.2-2.3-1-3.2c-0.7-0.7-1.6-1-2.5-1c-0.9,0-1.8,0.4-2.4,1
					c-1.3,2-1.3,4.5,0,6.5c0.6,0.7,1.5,1,2.4,1c0.9,0,1.8-0.3,2.5-1C386.3,204.8,386.6,203.6,386.5,202.4 M378.5,206.6l-2.8-4.2
					l2.7-4h-2l-1.6,2.7l-1.6-2.7h-2l2.7,4l-2.8,4.2h2l1.8-2.9l1.7,2.8L378.5,206.6z M369.3,206.6v-8.3h-1.7L364,204v-5.6h-1.6v8.3
					h1.6l3.6-5.7v5.7L369.3,206.6z M361.4,196.6V195h-8.2v1.6h3.2v10.1h1.8v-10.1H361.4z"/>
				<path class="st3" d="M259.6,169.2c0,0.7-0.5,1.2-1.2,1.2h-2V168h1.9c0.7-0.1,1.3,0.4,1.3,1.1c0,0,0,0,0,0L259.6,169.2
					 M261.2,169.2c0-1.4-1-2.5-2.4-2.6h-2.5v-3.1h-1.7v8.3h3.9c1.4,0.1,2.6-0.9,2.7-2.3C261.3,169.4,261.3,169.3,261.2,169.2
					 M252.1,171.8v-8.3h-1.7v3.8c-0.6,0.1-1.2,0.2-1.9,0.2c-0.6,0.1-1.1-0.3-1.2-0.9c0,0,0,0,0,0c0-0.1,0-0.2,0-0.3v-2.8h-1.7v3.2
					c-0.1,1.2,0.8,2.2,2,2.3c0,0,0,0,0,0c0.1,0,0.3,0,0.4,0c0.8,0,1.6-0.1,2.4-0.3v3.1L252.1,171.8z M242.1,167.6
					c0,2-0.5,2.8-1.7,2.8s-1.7-0.8-1.7-2.7c0-0.7,0.1-1.4,0.3-2c0.3-0.5,0.8-0.8,1.4-0.8C241.6,164.9,242.1,165.6,242.1,167.6
					L242.1,167.6z M243.7,167.6c0-0.7,0-1.4-0.2-2.1c-0.2-1.3-1.5-2.3-2.8-2.1c-0.8,0-1.6,0.3-2.1,1v-0.9H237v11.6h1.6v-4.2
					c0.5,0.6,1.3,1,2.1,0.9c0.8,0,1.5-0.2,2.1-0.8C243.5,170.5,243.7,169.5,243.7,167.6L243.7,167.6z M233.1,166.9h-3.8
					c0-1.2,0.5-2.2,1.9-2.2s1.8,1,1.9,2.2 M234.7,168.1v-0.7c0-2.4-1.4-4-3.5-4s-3.5,1.6-3.5,4.2c0,2.8,1.3,4.3,3.8,4.3
					c1.2,0.1,2.3-0.4,3.1-1.3l-1.1-1c-0.5,0.6-1.2,0.9-1.9,0.9c-1.6,0-2.1-0.9-2.2-2.3L234.7,168.1z M219.9,171.8v-6.1l4.7,6.1h2.2
					l-4.8-6.1l4.5-5.5h-2.2l-4.4,5.5v-5.5h-1.8v11.6L219.9,171.8z"/>
				<path class="st4" d="M709.8,200.6c0,2.9,0,5.6-1.7,7.3c-2.3,2.4-6.1,2.4-8.5,0.1c0,0,0,0-0.1-0.1l0,0c-1.6-1.6-1.7-4.1-1.7-6.7
					v-2.4c0-3.4,0-6.1,1.7-7.8c2.3-2.4,6.1-2.4,8.5-0.1c0,0,0,0,0.1,0.1h0c1.6,1.6,1.7,4.2,1.7,7.2L709.8,200.6z M712.5,197.7
					c0-3-0.2-6.2-2.3-8.4c-3.5-3.5-9.2-3.5-12.7,0c-2.1,2.1-2.3,5.2-2.3,8.1v1.9c0,5,0.1,7.8,2.3,10.1c3.5,3.4,9.2,3.4,12.7,0
					c2.3-2.3,2.3-5.1,2.3-10.1V197.7z M680.2,212v-3.2c7.3-0.2,10.3-3.8,10.3-10.3s-3.1-9.9-10.3-10.1v-2.3h-2.7v2.3
					c-7.2,0.2-10.4,3.6-10.4,10.1s3,10,10.4,10.3v3.2H680.2z M677.5,206.5c-5.8-0.1-7.7-3.1-7.7-7.9s1.7-7.8,7.7-7.9V206.5z
					 M680.2,190.7c6,0.1,7.7,3.1,7.7,7.9s-1.9,7.8-7.7,7.9V190.7z M651.3,211.9v-13l11.4,13h3.5l-11.8-13.1l10.9-11.8H662
					l-10.7,11.8V187h-2.7v24.9L651.3,211.9z M642.7,204.7H640c-0.5,3.3-3.6,5.6-6.9,5c-1.3-0.2-2.4-0.8-3.3-1.7
					c-1.6-1.6-1.7-3.3-1.7-8.5s0.2-6.9,1.7-8.5c1.1-1.1,2.7-1.8,4.3-1.7c2.9,0,5.5,2.1,5.9,5h2.7c-0.5-4.3-4.3-7.6-8.6-7.4
					c-2.4,0-4.7,0.9-6.4,2.6c-2.3,2.3-2.3,4.8-2.3,10.1s0,7.7,2.3,10.1c1.7,1.7,4,2.6,6.4,2.6C638.4,212.3,642.2,209.1,642.7,204.7"
					/>
				<path class="st4" d="M704.3,165.2c0,2.9,0,5.6-1.8,7.3c-2.4,2.4-6.2,2.4-8.6,0l0,0c-1.6-1.6-1.8-4-1.8-6.8v-2.4
					c0-3.4,0-6.1,1.8-7.8c2.3-2.4,6.1-2.4,8.5-0.1c0,0,0,0,0.1,0.1l0,0c1.6,1.6,1.8,4.2,1.8,7.2L704.3,165.2z M707,162.3
					c0-3-0.2-6.2-2.3-8.3c-3.5-3.5-9.2-3.5-12.7,0c-2.1,2.1-2.3,5.2-2.3,8.1v1.9c0,5,0.1,7.8,2.3,10.1c3.5,3.5,9.2,3.5,12.7,0
					c2.3-2.2,2.3-5.1,2.3-10.1L707,162.3z M674.6,176.6v-3.2c7.3-0.2,10.3-3.8,10.3-10.3s-3.1-9.9-10.3-10.1v-2.3H672v2.3
					c-7.3,0.2-10.4,3.6-10.4,10.1s3,10,10.4,10.3v3.2L674.6,176.6z M672,171.1c-5.8-0.1-7.7-3-7.7-7.9s1.7-7.8,7.7-7.9V171.1z
					 M674.6,155.4c6,0.1,7.7,3.1,7.7,7.9s-1.9,7.8-7.7,7.9V155.4z M654.4,164.5c0,3.9,0,6.3-1.7,8.1c-1.1,1.1-2.7,1.8-4.3,1.8
					c-1.6,0-3.2-0.6-4.3-1.8c-1.4-1.4-1.8-3-1.8-7.5v-1.2c0-4.6,0.2-6.7,1.8-8.3c1.1-1.1,2.7-1.8,4.3-1.7c1.6,0,3.1,0.6,4.3,1.7
					c1.4,1.5,1.7,3.1,1.7,7.9V164.5z M657,164.1v-2.2c0-3.1-0.3-5.8-2.3-7.8c-3.5-3.5-9.2-3.5-12.7,0c-2.2,2.2-2.3,4.8-2.3,8.8h-5.3
					v-11.2h-2.6v24.9h2.6v-11.3h5.3c0,4.5,0.3,6.9,2.3,9c3.5,3.5,9.2,3.5,12.7,0C656.9,171.9,657.1,169.6,657,164.1"/>
			</g>
		</g>
	</g>
</g>
<path class="st2" d="M283.7,306.8c3,0,5.5-2.4,5.5-5.5s-2.4-5.5-5.5-5.5c-3,0-5.5,2.4-5.5,5.5c0,0,0,0,0,0l0,0
	C278.2,304.4,280.6,306.8,283.7,306.8C283.7,306.8,283.7,306.8,283.7,306.8L283.7,306.8"/>
<path class="st2" d="M369.3,260c3,0,5.5-2.4,5.5-5.5s-2.4-5.5-5.5-5.5c-3,0-5.5,2.4-5.5,5.5c0,0,0,0,0,0l0,0
	C363.8,257.5,366.3,260,369.3,260C369.3,260,369.3,260,369.3,260L369.3,260"/>
<g>
	<path class="st3" d="M298.9,307.2h-4.5v-11.6h7.5v1.6h-5.7v3h2.8c2.3,0,3.7,1.4,3.7,3.5S301.2,307.2,298.9,307.2z M298.8,301.8
		h-2.6v3.9h2.6c1.3,0,2-0.7,2-1.9C300.8,302.5,300.1,301.8,298.8,301.8z"/>
	<path class="st3" d="M306.1,303.6c0,1.4,0.6,2.3,2.2,2.3c0.8,0,1.4-0.3,1.9-0.9l1,1c-0.9,0.9-1.7,1.3-3.1,1.3
		c-2.5,0-3.8-1.5-3.8-4.3c0-2.6,1.3-4.2,3.5-4.2c2.1,0,3.5,1.5,3.5,4v0.8H306.1z M308,300.3c-1.3,0-1.8,1-1.9,2.2h3.7
		C309.8,301.3,309.3,300.3,308,300.3z"/>
	<path class="st3" d="M318.4,307.2v-6.8H316v2.4c0,3.5-1,4.4-2.6,4.4h-0.8v-1.5h0.3c0.7,0,1.6-0.2,1.6-3.4V299h5.7v8.3H318.4z"/>
	<path class="st3" d="M328.3,306.4c-0.6,0.6-1.5,1-2.5,1s-1.8-0.3-2.5-1c-0.7-0.7-1-1.6-1-3.3c0-1.6,0.3-2.5,1-3.2
		c0.6-0.6,1.5-1,2.5-1s1.9,0.3,2.5,1c0.7,0.7,1,1.6,1,3.2C329.2,304.7,329,305.6,328.3,306.4z M327.1,300.9
		c-0.3-0.3-0.7-0.5-1.3-0.5s-1,0.2-1.3,0.6c-0.4,0.5-0.5,1.3-0.5,2.3c0,1.1,0.2,1.7,0.5,2.2c0.3,0.3,0.7,0.5,1.2,0.5
		c0.6,0,1-0.2,1.3-0.6c0.4-0.5,0.5-1.2,0.5-2.2C327.6,302.1,327.5,301.4,327.1,300.9z"/>
	<path class="st3" d="M337.4,306.6c-0.5,0.5-1.2,0.8-2.1,0.8c-0.9,0-1.5-0.3-2.1-0.9v4.2h-1.7V299h1.6v0.9c0.7-0.7,1.1-1,2.1-1
		c1.5,0,2.5,0.7,2.8,2.1c0.1,0.6,0.2,1.1,0.2,2.1C338.3,304.9,338,305.9,337.4,306.6z M334.9,300.4c-0.7,0-1.1,0.3-1.4,0.8
		c-0.2,0.4-0.3,1.1-0.3,2c0,1.9,0.5,2.7,1.7,2.7c1.2,0,1.7-0.8,1.7-2.8S336.1,300.4,334.9,300.4z"/>
	<path class="st3" d="M341.8,303.6c0,1.4,0.6,2.3,2.2,2.3c0.8,0,1.4-0.3,1.9-0.9l1,1c-0.9,0.9-1.7,1.3-3.1,1.3
		c-2.5,0-3.8-1.5-3.8-4.3c0-2.6,1.3-4.2,3.5-4.2c2.1,0,3.5,1.5,3.5,4v0.8H341.8z M343.6,300.3c-1.3,0-1.8,1-1.9,2.2h3.7
		C345.4,301.3,345,300.3,343.6,300.3z"/>
	<path class="st3" d="M353.8,307.2v-3c-0.6,0.1-1.4,0.3-2.4,0.3c-1.4,0-2.3-0.8-2.3-2.3V299h1.7v2.8c0,0.9,0.4,1.2,1.2,1.2
		c0.7,0,1.4-0.1,1.8-0.2V299h1.7v8.3H353.8z"/>
	<path class="st3" d="M359.3,303.6c0,1.4,0.6,2.3,2.2,2.3c0.8,0,1.4-0.3,1.9-0.9l1,1c-0.9,0.9-1.7,1.3-3.1,1.3
		c-2.5,0-3.8-1.5-3.8-4.3c0-2.6,1.3-4.2,3.5-4.2c2.1,0,3.5,1.5,3.5,4v0.8H359.3z M361.2,300.3c-1.3,0-1.8,1-1.9,2.2h3.7
		C362.9,301.3,362.5,300.3,361.2,300.3z"/>
	<path class="st3" d="M371.8,307.2v-3.5h-3.3v3.5h-1.7V299h1.7v3.3h3.3V299h1.7v8.3H371.8z"/>
	<path class="st3" d="M380.9,307.1c-0.4,0.2-0.9,0.3-1.5,0.3c-2.3,0-3.7-1.6-3.7-4.3c0-2.6,1.4-4.2,3.7-4.2c0.6,0,1.1,0.1,1.5,0.3
		c0.4,0.2,0.7,0.4,1.2,0.9l-1.1,1.1c-0.5-0.5-0.9-0.8-1.6-0.8c-1.3,0-2,0.9-2,2.7c0,1.8,0.7,2.8,2,2.8c0.8,0,1.1-0.3,1.6-0.8
		l1.1,1.1C381.6,306.7,381.3,306.9,380.9,307.1z"/>
	<path class="st3" d="M384.1,307.2V299h1.7v3.9l3.1-3.9h2l-3.3,3.9l3.5,4.4h-2l-3.3-4.3v4.3H384.1z"/>
</g>
<g>
	<path class="st3" d="M382.3,249v10h-1.8v-10h-3.2v-1.6h8.2v1.6H382.3z"/>
	<path class="st3" d="M387.5,257.4c-0.4-0.8-0.5-2.3-0.5-3.7c0-3.6,0.2-4.5,1.2-5.4c1.1-1,2.9-1,5-1v1.5c-1.1,0.1-2.8,0-3.7,0.6
		c-0.8,0.5-1,1.3-1,2.4c0.4-0.7,1.3-1.1,2.3-1.1c0.8,0,1.5,0.2,2,0.7c0.7,0.7,1.1,1.9,1.1,3.4c0,1.6-0.3,2.6-1,3.3
		c-0.6,0.6-1.4,0.9-2.4,0.9C389.1,259.1,388,258.5,387.5,257.4z M391.7,257.1c0.3-0.4,0.5-1.1,0.5-2.2c0-1.1-0.1-1.8-0.5-2.2
		c-0.3-0.3-0.8-0.5-1.2-0.5c-0.5,0-0.9,0.2-1.3,0.5c-0.3,0.4-0.6,1.1-0.6,2.2c0,1.2,0.2,1.8,0.6,2.2c0.3,0.3,0.7,0.5,1.2,0.5
		C390.9,257.6,391.4,257.5,391.7,257.1z"/>
	<path class="st3" d="M401.3,259v-5.7l-3.5,5.7h-1.7v-8.3h1.7v5.6l3.5-5.6h1.7v8.3H401.3z"/>
	<path class="st3" d="M410.4,259v-6.8H408v2.4c0,3.5-1,4.4-2.6,4.4h-0.8v-1.5h0.3c0.7,0,1.6-0.2,1.6-3.4v-3.4h5.7v8.3H410.4z"/>
	<path class="st3" d="M419.9,259v-5.7l-3.5,5.7h-1.7v-8.3h1.7v5.6l3.5-5.6h1.7v8.3H419.9z"/>
	<path class="st3" d="M428.9,258.8c-0.4,0.2-0.9,0.3-1.5,0.3c-2.3,0-3.7-1.6-3.7-4.3c0-2.6,1.4-4.2,3.7-4.2c0.6,0,1.1,0.1,1.5,0.3
		c0.4,0.2,0.7,0.4,1.2,0.9l-1.1,1.1c-0.5-0.5-0.9-0.8-1.6-0.8c-1.3,0-2,0.9-2,2.7c0,1.8,0.7,2.8,2,2.8c0.8,0,1.1-0.3,1.6-0.8
		l1.1,1.1C429.6,258.5,429.4,258.6,428.9,258.8z"/>
	<path class="st3" d="M436.7,258.8c-0.4,0.2-0.9,0.3-1.5,0.3c-2.3,0-3.7-1.6-3.7-4.3c0-2.6,1.4-4.2,3.7-4.2c0.6,0,1.1,0.1,1.5,0.3
		c0.4,0.2,0.7,0.4,1.2,0.9l-1.1,1.1c-0.5-0.5-0.9-0.8-1.6-0.8c-1.3,0-2,0.9-2,2.7c0,1.8,0.7,2.8,2,2.8c0.8,0,1.1-0.3,1.6-0.8
		l1.1,1.1C437.4,258.5,437.1,258.6,436.7,258.8z"/>
	<path class="st3" d="M439.9,259v-8.3h1.7v3.9l3.1-3.9h2l-3.3,3.9l3.5,4.4h-2l-3.3-4.3v4.3H439.9z"/>
	<path class="st3" d="M452.7,259v-0.8c-0.7,0.7-1.2,0.8-2.2,0.8c-1.8,0-2.9-0.9-2.9-2.5c0-1.5,1.1-2.4,2.8-2.4h2.2v-0.6
		c0-1.1-0.6-1.5-1.9-1.5c-0.5,0-0.8,0.1-1.1,0.2c-0.2,0.1-0.4,0.3-0.7,0.6l-1.1-1c0.5-0.5,0.7-0.7,1.1-0.9c0.5-0.2,1.1-0.3,1.8-0.3
		c2.3,0,3.5,1,3.5,2.8v5.5H452.7z M452.7,255.4h-2c-1,0-1.5,0.4-1.5,1.2c0,0.8,0.5,1.2,1.6,1.2c1.3,0,1.8-0.5,1.8-1.7V255.4z"/>
	<path class="st3" d="M456.3,259l1.8-3.4c-1-0.3-1.7-1.2-1.7-2.3c0-1.5,1.1-2.5,2.7-2.5h3.9v8.3h-1.7v-3.1h-1.5l-1.6,3.1H456.3z
		 M461.3,252.1h-1.9c-0.9,0-1.4,0.5-1.4,1.3c0,0.8,0.5,1.2,1.4,1.2h1.9V252.1z"/>
</g>
<text transform="matrix(1 0 0 1 398.03 592.2289)" style="font-family:'DINPro-Medium'; font-size:16.3063px;">Майк</text>
</svg>
