<?xml version="1.0" encoding="utf-8"?>
<!-- Generator: Adobe Illustrator 24.3.0, SVG Export Plug-In . SVG Version: 6.00 Build 0)  -->
<svg version="1.1" id="Layer_1" xmlns="http://www.w3.org/2000/svg" xmlns:xlink="http://www.w3.org/1999/xlink" x="0px" y="0px"
	 viewBox="0 0 105 105" style="enable-background:new 0 0 105 105;" xml:space="preserve">
<style type="text/css">
	.st0{fill:#FFFFFF;}
</style>
<path class="st0" d="M33.8,61.8v-7.6c0-1.1,0.4-2.2,1.1-3c1-1.2,1.6-2.7,1.6-4.3v-3h2v3c0,1.6,0.6,3.1,1.6,4.3
	c0.7,0.8,1.1,1.9,1.1,3v7.6c0,0.7-0.6,1.2-1.3,1.2c0,0,0,0,0,0h-5C34.4,63,33.8,62.4,33.8,61.8 M48.8,61.8v-7.6c0-1.1,0.4-2.2,1.1-3
	c1-1.2,1.6-2.7,1.6-4.3v-3h2v3c0,1.6,0.6,3.1,1.6,4.3c0.7,0.8,1.1,1.9,1.1,3v7.6c0,0.7-0.6,1.2-1.3,1.2c0,0,0,0,0,0h-5
	C49.3,63,48.8,62.4,48.8,61.8 M63.7,61.8v-7.6c0-1.1,0.4-2.2,1.1-3c1-1.2,1.6-2.7,1.6-4.3v-3h2v3c0,1.6,0.6,3.1,1.6,4.3
	c0.7,0.8,1.1,1.9,1.1,3v7.6c0,0.7-0.6,1.2-1.2,1.2h-5C64.3,63,63.8,62.4,63.7,61.8 M72.8,63h-0.1c0.2-0.4,0.3-0.8,0.3-1.2v-7.6
	c0-1.5-0.6-3-1.6-4.1c-0.8-0.9-1.2-2-1.2-3.2v-3.9c0-0.5-0.4-0.9-0.9-0.9c0,0,0,0,0,0h-3.7c-0.5,0-0.9,0.4-0.9,0.9c0,0,0,0,0,0v3.9
	c0,1.2-0.4,2.3-1.2,3.2c-1,1.2-1.5,2.6-1.5,4.1v7.6c0,0.4,0.1,0.8,0.2,1.2h-4.5c0.2-0.4,0.3-0.8,0.2-1.2v-7.6c0-1.5-0.5-3-1.5-4.1
	c-0.8-0.9-1.2-2-1.2-3.2v-3.9c0-0.5-0.4-0.9-0.9-0.9h-3.7c-0.5,0-0.9,0.4-0.9,0.9c0,0,0,0,0,0v3.9c0,1.2-0.4,2.3-1.2,3.2
	c-1,1.1-1.6,2.6-1.6,4.1v7.6c0,0.4,0.1,0.8,0.3,1.2h-4.5c0.2-0.4,0.3-0.8,0.3-1.2v-7.6c0-1.5-0.6-3-1.6-4.1c-0.8-0.9-1.2-2-1.2-3.2
	v-3.9c0-0.5-0.4-0.9-0.9-0.9c0,0,0,0,0,0h-3.7c-0.5,0-0.9,0.4-0.9,0.9v3.9c0,1.2-0.4,2.3-1.2,3.2c-1,1.1-1.6,2.6-1.6,4.2v7.6
	c0,0.4,0.1,0.8,0.3,1.2h-0.1c-5.3-0.2-9.7,4-9.9,9.3c-0.2,5.3,4,9.7,9.3,9.9c0.2,0,0.4,0,0.6,0h8.6c0.5,0,0.9-0.4,0.9-0.9
	c0-0.5-0.4-0.9-0.9-0.9c0,0,0,0,0,0h-8.6c-4.3,0.2-8-3.2-8.1-7.6s3.2-8,7.6-8.1c0.2,0,0.4,0,0.6,0h40.6c4.3-0.2,8,3.2,8.1,7.6
	c0.2,4.3-3.2,8-7.6,8.1c-0.2,0-0.4,0-0.6,0H44.3c-0.5,0-0.9,0.4-0.9,0.9c0,0.5,0.4,0.9,0.9,0.9c0,0,0,0,0,0h28.5
	c5.3,0.2,9.7-4,9.9-9.3c0.2-5.3-4-9.7-9.3-9.9C73.2,63,73,63,72.8,63"/>
<path class="st0" d="M61.8,66.1H32.6c-3.6-0.1-6.7,2.7-6.8,6.3s2.7,6.7,6.3,6.8c0.2,0,0.3,0,0.5,0h39.8c3.6,0.1,6.7-2.7,6.8-6.3
	s-2.7-6.7-6.3-6.8c-0.2,0-0.3,0-0.5,0h-7.1c-0.5-0.1-0.9,0.3-1,0.8c-0.1,0.5,0.3,0.9,0.8,1c0.1,0,0.1,0,0.2,0h7.1
	c2.7-0.1,4.9,1.9,5,4.6c0.1,2.7-1.9,4.9-4.6,5c-0.1,0-0.3,0-0.4,0H32.6c-2.7,0.1-4.9-1.9-5-4.6c-0.1-2.7,1.9-4.9,4.6-5
	c0.1,0,0.3,0,0.4,0h29.2c0.5,0.1,0.9-0.3,1-0.8c0.1-0.5-0.3-0.9-0.8-1C62,66,61.9,66,61.8,66.1"/>
<path class="st0" d="M35.6,72.6c0,1-0.8,1.9-1.8,1.9c-1,0-1.9-0.8-1.9-1.8c0-1,0.8-1.9,1.8-1.9c0,0,0,0,0,0
	C34.7,70.8,35.6,71.6,35.6,72.6C35.6,72.6,35.6,72.6,35.6,72.6 M30.1,72.6c0,2,1.6,3.6,3.6,3.7c2,0,3.6-1.6,3.7-3.6
	c0-2-1.6-3.6-3.6-3.7c0,0,0,0-0.1,0C31.7,69,30.1,70.6,30.1,72.6"/>
<path class="st0" d="M69.5,72.6c0-1,0.8-1.9,1.8-1.9s1.9,0.8,1.9,1.8s-0.8,1.9-1.8,1.9c0,0,0,0,0,0C70.3,74.5,69.5,73.6,69.5,72.6
	C69.5,72.6,69.5,72.6,69.5,72.6 M74.9,72.6c0-2-1.6-3.6-3.6-3.7c-2,0-3.6,1.6-3.7,3.6c0,2,1.6,3.6,3.6,3.7c0,0,0,0,0,0
	C73.3,76.2,74.9,74.6,74.9,72.6C74.9,72.6,74.9,72.6,74.9,72.6"/>
<path class="st0" d="M45,72.5c0,1-0.8,1.9-1.8,1.9c-1,0-1.9-0.8-1.9-1.8s0.8-1.9,1.8-1.9c0,0,0,0,0,0C44.2,70.6,45,71.5,45,72.5
	 M39.5,72.5c0,2,1.6,3.6,3.6,3.7c2,0,3.6-1.6,3.7-3.6c0-2-1.6-3.6-3.6-3.7c0,0,0,0,0,0C41.2,68.9,39.5,70.5,39.5,72.5
	C39.5,72.5,39.5,72.5,39.5,72.5"/>
<path class="st0" d="M54.4,72.5c0,1-0.8,1.9-1.8,1.9c-1,0-1.9-0.8-1.9-1.8s0.8-1.9,1.8-1.9c0,0,0,0,0,0
	C53.5,70.6,54.4,71.5,54.4,72.5 M48.9,72.5c0,2,1.6,3.6,3.6,3.6c2,0,3.6-1.6,3.6-3.6c0-2-1.6-3.6-3.6-3.6c0,0,0,0,0,0
	C50.5,68.9,48.9,70.5,48.9,72.5"/>
<path class="st0" d="M63.8,72.5c0,1-0.8,1.9-1.8,1.9c-1,0-1.9-0.8-1.9-1.8s0.8-1.9,1.8-1.9c0,0,0,0,0,0
	C62.9,70.6,63.8,71.5,63.8,72.5 M58.3,72.5c0,2,1.6,3.6,3.6,3.6c2,0,3.6-1.6,3.6-3.6c0-2-1.6-3.6-3.6-3.6c0,0,0,0,0,0
	C59.9,68.9,58.3,70.5,58.3,72.5"/>
<path class="st0" d="M69.8,33.9H65v-5.9h4.8L69.8,33.9z M68.2,37.5c0,0.5-0.4,0.8-0.8,0.8s-0.8-0.4-0.8-0.8v-1.8h1.7V37.5z
	 M54.9,33.9H50v-5.9h4.8V33.9z M53.2,37.5c0,0.5-0.4,0.8-0.8,0.8c-0.5,0-0.8-0.4-0.8-0.8v-1.8h1.7V37.5z M39.9,33.9h-4.8v-5.9h4.8
	V33.9z M38.3,37.5c-0.1,0.5-0.5,0.8-0.9,0.7c-0.4,0-0.7-0.3-0.7-0.7v-1.8h1.7V37.5z M25.2,28.1h8.2v6.7c0,0.5,0.4,0.9,0.9,0.9
	c0,0,0,0,0,0h0.6v1.8c0.1,1.4,1.3,2.5,2.7,2.4c1.3-0.1,2.3-1.1,2.4-2.4v-1.8h0.7c0.5,0,0.9-0.4,0.9-0.9c0,0,0,0,0,0v-6.7h6.6v6.7
	c0,0.5,0.4,0.9,0.9,0.9c0,0,0,0,0,0h0.6v1.8c0,1.4,1.2,2.6,2.6,2.6s2.6-1.2,2.6-2.6v-1.8h0.7c0.5,0,0.9-0.4,0.9-0.9c0,0,0,0,0,0
	v-6.7h6.6v6.7c0,0.5,0.4,0.9,0.9,0.9c0,0,0,0,0,0h0.6v1.8c0,1.4,1.2,2.6,2.6,2.6c1.4,0,2.6-1.2,2.6-2.6v-1.8h0.7
	c0.5,0,0.9-0.4,0.9-0.9c0,0,0,0,0,0v-6.7h8.3c1.5,0,2.6-1.2,2.6-2.6c0-1.5-1.2-2.6-2.6-2.6H44c-0.5-0.1-0.9,0.3-1,0.8
	c-0.1,0.5,0.3,0.9,0.8,1c0.1,0,0.1,0,0.2,0h35.8c0.5-0.1,0.9,0.3,1,0.8c0.1,0.5-0.3,0.9-0.8,1c-0.1,0-0.1,0-0.2,0H25.2
	c-0.5,0.1-0.9-0.3-1-0.8s0.3-0.9,0.8-1c0.1,0,0.1,0,0.2,0h15.3c0.5,0.1,0.9-0.3,1-0.8c0.1-0.5-0.3-0.9-0.8-1c-0.1,0-0.1,0-0.2,0
	H25.2c-1.5,0-2.6,1.2-2.6,2.6C22.5,26.9,23.7,28.1,25.2,28.1"/>
</svg>
