<?xml version="1.0" encoding="utf-8"?>
<!-- Generator: Adobe Illustrator 24.3.0, SVG Export Plug-In . SVG Version: 6.00 Build 0)  -->
<svg version="1.1" id="Layer_1" xmlns="http://www.w3.org/2000/svg" xmlns:xlink="http://www.w3.org/1999/xlink" x="0px" y="0px"
	 viewBox="0 0 105 105" style="enable-background:new 0 0 105 105;" xml:space="preserve">
<style type="text/css">
	.st0{fill:#FFFFFF;}
</style>
<path class="st0" d="M51.7,45.9l-1.6-1.8l1.6-1.8V45.9z M47.4,47.2l1.6-1.9l1.7,1.8L47.4,47.2z M46.4,42.4l1.6,1.7l-1.6,1.8
	L46.4,42.4z M44.8,45.9l-1.6-1.8l1.6-1.8L44.8,45.9z M40.4,47.2l1.7-1.8l1.7,1.8H40.4z M39.4,42.4l1.6,1.7l-1.6,1.8L39.4,42.4z
	 M43.8,41.1L42.1,43l-1.7-1.8L43.8,41.1z M50.7,41.1L49,43l-1.7-1.8L50.7,41.1z M52.5,39.5H38.7c-0.4,0-0.8,0.4-0.8,0.8V48
	c0,0.4,0.4,0.8,0.8,0.8h13.8c0.4,0,0.8-0.4,0.8-0.8v-7.8C53.3,39.9,52.9,39.5,52.5,39.5"/>
<path class="st0" d="M72.8,59.9c0.5,0,0.8,0.4,0.8,0.8c0,0.5-0.4,0.8-0.8,0.8c-0.5,0-0.8-0.4-0.8-0.8C72,60.3,72.4,59.9,72.8,59.9
	L72.8,59.9"/>
<path class="st0" d="M74.5,70c0.5,0,0.8,0.4,0.8,0.8s-0.4,0.8-0.8,0.8l0,0c-0.5,0-0.8-0.4-0.8-0.8S74,70,74.5,70"/>
<path class="st0" d="M79.5,59.9c0.5,0,0.8,0.4,0.8,0.8c0,0.5-0.4,0.8-0.8,0.8c-0.5,0-0.8-0.4-0.8-0.8C78.7,60.3,79,59.9,79.5,59.9"
	/>
<path class="st0" d="M77.8,70c0.5,0,0.8,0.4,0.8,0.8c0,0.5-0.4,0.8-0.8,0.8c-0.5,0-0.8-0.4-0.8-0.8S77.4,70,77.8,70L77.8,70"/>
<path class="st0" d="M63.6,57.4c0-1.4,1.1-2.5,2.5-2.5c0,0,0,0,0,0h0.8v0.8c0,1.4-1.1,2.5-2.5,2.5h-0.8V57.4z M75.3,54.9v5.8
	c0,2.3,1.9,4.1,4.2,4.1h3.3l-0.3,4.2c-3.5-3.3-9-3.3-12.5,0l-1.2-14.2H75.3z M77,54.9h6.6l-0.7,8.3h-3.4c-1.4,0-2.5-1.1-2.5-2.5
	L77,54.9z M79.8,73.3h-7.2c-1.2,0-2.2-0.8-2.4-1.9c2.5-3.3,7.2-4,10.5-1.6c0.6,0.4,1.1,1,1.6,1.6C81.9,72.5,80.9,73.3,79.8,73.3
	 M76.2,76.6c-1.2,0-2.4-0.6-3-1.7h6C78.5,76,77.4,76.6,76.2,76.6 M85.3,54.9h0.8c1.4,0,2.5,1.1,2.6,2.5v0.8h-0.8
	c-1.4,0-2.5-1.1-2.6-2.5V54.9z M62.8,59.9h1.7c1.1,0,2.1-0.4,2.9-1.2c0.3,4,1.1,12.4,1.1,12.5c0.2,1.6,1.3,3,2.8,3.5
	c0.9,2.7,3.9,4.2,6.6,3.3c1.5-0.5,2.7-1.7,3.3-3.3c1.5-0.5,2.6-1.9,2.8-3.5c0-0.1,0.7-8.2,1-12.5c0.8,0.8,1.8,1.2,2.9,1.2h1.7
	c0.5,0,0.8-0.4,0.8-0.8v-1.7c0-1.7-1.1-3.3-2.8-3.9c0.7-0.7,1.1-1.7,1.1-2.8c0-0.5-0.4-0.8-0.8-0.8l0,0c-0.5,0-0.8,0.4-0.8,0.8
	c0,1.4-1.2,2.5-2.6,2.5H67.8c-1.4,0-2.5-1.1-2.5-2.5c0-0.5-0.4-0.8-0.8-0.8c-0.5,0-0.8,0.4-0.8,0.8c0,1,0.4,2,1,2.8
	c-1.6,0.6-2.7,2.2-2.7,3.9v1.7C61.9,59.5,62.3,59.9,62.8,59.9L62.8,59.9"/>
<path class="st0" d="M58.9,71.1l-3.8-5.9l3.8-5.9V71.1z M50,73.2l4.1-6.4l4.1,6.4H50z M49.3,59.2l3.7,5.9l-3.8,5.9L49.3,59.2z
	 M47.5,71.1l-3.8-5.9l3.8-5.9V71.1z M38.5,73.2l4.1-6.4l4.1,6.4H38.5z M37.8,59.2l0.2,0.2c0.2,0.3,0.4,0.4,0.8,0.4
	c0.2,0,0.3,0,0.5-0.1c0.4-0.3,0.5-0.8,0.3-1.2c0,0,0,0,0,0L38.5,57h8.2l-4.1,6.5l-1.2-1.8c-0.2-0.4-0.8-0.6-1.2-0.4
	c-0.4,0.2-0.6,0.8-0.4,1.2c0,0,0,0.1,0.1,0.1l1.6,2.5l-3.8,5.9V59.2z M58.2,57l-4.1,6.5L50,57H58.2z M65.7,73.2h-5.1V56.1
	c0-0.5-0.4-0.9-0.9-0.9c0,0,0,0,0,0H36.9c-0.5,0-0.9,0.4-0.9,0.9c0,0,0,0,0,0v17.1h-9.6V52l9.1-13.2l12.8-5l12.8,5l0.7,1
	c0.3,0.4,0.9,0.5,1.2,0.2c0.4-0.3,0.5-0.8,0.2-1.2l-0.9-1.2c-0.1-0.1-0.2-0.3-0.4-0.3l-13.4-5.2c-0.2-0.1-0.4-0.1-0.6,0l-13.4,5.2
	c-0.2,0.1-0.3,0.2-0.4,0.3l-9,13l-1.7-1.1l4.6-6.6c0.3-0.4,0.2-1-0.2-1.2c-0.4-0.3-1-0.2-1.2,0.2l0,0l-5.1,7.4
	c-0.3,0.5-0.9,0.6-1.4,0.2c-0.5-0.3-0.6-0.9-0.2-1.4l10.5-15.2c0.1-0.2,0.3-0.3,0.5-0.4L48,25.8c0.2-0.1,0.5-0.1,0.7,0l17.1,6.6
	c0.2,0.1,0.3,0.2,0.5,0.4L76.8,48c0.3,0.5,0.2,1.1-0.2,1.4c0,0,0,0,0,0c-0.2,0.1-0.4,0.2-0.6,0.2c-0.3,0-0.7-0.2-0.8-0.4L65,34.5
	c-0.1-0.1-0.3-0.3-0.4-0.3L48.7,28c-0.2-0.1-0.5-0.1-0.7,0l-15.9,6.1c-0.2,0.1-0.3,0.2-0.4,0.3l-2.9,4.1c-0.3,0.4-0.3,0.9,0.1,1.3
	c0.4,0.3,0.9,0.3,1.3-0.1c0,0,0.1-0.1,0.1-0.2l2.7-3.9l15.3-5.9l15.3,5.9l9.5,13.7l-1.7,1.1l-6-8.7c-0.3-0.4-0.8-0.5-1.2-0.2
	c-0.4,0.3-0.5,0.8-0.2,1.2l6.3,9.2v2h1.8v-1.7l2.2-1.5c0.5,0.4,1.1,0.6,1.7,0.6c1.5,0,2.8-1.3,2.8-2.8c0-0.6-0.2-1.1-0.5-1.5
	L67.8,31.8c-0.3-0.5-0.8-0.8-1.3-1l-17.1-6.6c-0.6-0.2-1.4-0.2-2,0l-17.2,6.6c-0.5,0.2-1,0.5-1.3,1L18.5,47c-0.9,1.3-0.6,3,0.7,3.9
	c0,0,0,0,0,0c1,0.7,2.3,0.6,3.3-0.1l2.2,1.5v21h-1c-0.5-0.1-0.9,0.3-1,0.8c-0.1,0.5,0.3,0.9,0.8,1c0.1,0,0.1,0,0.2,0h42.1L65.7,73.2
	z"/>
<path class="st0" d="M65.7,73.2h0.7c0.5-0.1,0.9,0.3,1,0.8c0.1,0.5-0.3,0.9-0.8,1c-0.1,0-0.1,0-0.2,0h-0.7V73.2z"/>
</svg>
