<?xml version="1.0" encoding="utf-8"?>
<!-- Generator: Adobe Illustrator 24.3.0, SVG Export Plug-In . SVG Version: 6.00 Build 0)  -->
<svg version="1.1" id="Layer_1" xmlns="http://www.w3.org/2000/svg" xmlns:xlink="http://www.w3.org/1999/xlink" x="0px" y="0px"
	 viewBox="0 0 105 105" style="enable-background:new 0 0 105 105;" xml:space="preserve">
<style type="text/css">
	.st0{fill:#FFFFFF;}
</style>
<path class="st0" d="M59,47.6l-3.5,4.2c-6.2-0.5-8.8-1.5-9.2-2C46.9,49.1,51,47.9,59,47.6 M62.2,46c1.1-1.2,2.9-1.4,4.2-0.4
	c0.4,0.3,0.7,0.7,0.8,1.1c0.1,0.1,0.1,0.3,0.2,0.5c0.1,0.2,0.1,0.5,0.1,0.7c0,0.7-0.2,1.4-0.7,1.9L65,52c-1,0-2,0-3.1,0l0,0l3.1-3.6
	c0.3-0.3,0.2-0.8-0.1-1.1c-0.3-0.3-0.8-0.2-1.1,0.1l-4,4.6c-0.9,0-1.7,0-2.6-0.1L62.2,46z M73,35.4c0.9,0,1.6,0.5,2,1.3
	c0.4,0.8,0.2,1.7-0.3,2.3c-0.8,0.1-1.6-0.3-2.2-0.8c-0.7-0.5-1.1-1.2-1.2-2C71.7,35.7,72.3,35.4,73,35.4z M71.6,39.3
	c0.5,0.4,1.1,0.8,1.8,1l-5.3,5c-0.4-0.6-1-1.1-1.7-1.4l3.9-6.1C70.6,38.4,71,38.9,71.6,39.3L71.6,39.3z M67,51.9l0.9-1.1
	c0.7-0.8,1-1.8,1-2.8c0,0,0-0.1,0-0.1c5.7,0.5,8.2,1.5,8.6,1.9C77,50.3,74,51.4,67,51.9L67,51.9z M55.8,53.3
	c1.4,0.1,2.9,0.2,4.4,0.2h0.1h0.1c0.5,0,1.1,0,1.6,0c1.2,0,2.4,0,3.5-0.1c3.1-0.1,9.3-0.5,12.1-2v3.1c-0.1,0.1-0.1,0.1-0.2,0.2
	c-1.5,1-7.2,2.1-15.4,2.1s-13.9-1-15.4-2c-0.1,0-0.1-0.1-0.2-0.2v-3.1C48.4,52.5,52.3,53,55.8,53.3z M77.9,75.7
	c-0.2,0.3-0.5,0.5-0.9,0.4l-1.8-0.5c-1.2-0.5-2.5-0.6-3.8-0.3c-0.6,0.2-1.2,0.4-1.8,0.7c-0.7,0.3-1.5,0.6-2.3,0.8
	c-1.3,0.2-2.7,0.3-4.1,0.2h-2.7c-1.4,0-2.7,0-4.1-0.2c-0.8-0.2-1.6-0.4-2.3-0.8c-0.6-0.3-1.2-0.5-1.8-0.7c-1.3-0.3-2.6-0.2-3.8,0.3
	l-1.8,0.5c-0.3,0.1-0.7-0.1-0.9-0.4c-0.1-0.3-0.1-0.6,0-0.9l0.1-0.3l0.2-0.4c0.1-0.4,0.2-0.7,0.3-0.8c0.1-0.3,0.2-0.6,0.1-0.9
	c0-0.2,0-0.4,0-0.7c-0.2-4.5-0.1-10.2,0.2-15.1c2.8,1.1,8.5,1.8,15.2,1.8s12.4-0.7,15.2-1.8c0.3,4.9,0.3,10.6,0.2,15.1
	c0,0.4,0,0.6,0,0.7c-0.1,0.3,0,0.6,0.1,0.9c0.1,0.1,0.1,0.4,0.3,0.8c0,0.1,0.1,0.3,0.2,0.4l0.1,0.3C78,75.1,78,75.4,77.9,75.7
	L77.9,75.7z M47.2,77.5l1.9-0.5c0.9-0.4,2-0.5,3-0.3c0.6,0.2,1.1,0.4,1.6,0.6c0.8,0.4,1.7,0.7,2.6,0.9c1.4,0.2,2.9,0.3,4.3,0.2h3.3
	c1.2,0,2.5,0,3.7-0.2c0.9-0.2,1.8-0.5,2.6-0.9c0.5-0.2,1.1-0.4,1.6-0.6c1-0.2,2.1-0.1,3,0.3l1.9,0.5c1,0.3,2.1-0.2,2.6-1.2
	c0.3-0.6,0.3-1.4,0-2L79.1,74c0-0.1-0.1-0.2-0.1-0.3c-0.2-0.5-0.2-0.7-0.3-0.9s0-0.1,0-0.1c0-0.1,0-0.1,0-0.2c0-0.2,0-0.4,0-0.8
	c0.2-4.8,0.1-10.9-0.2-16c0.3-0.3,0.5-0.7,0.5-1.1v-4.9c0-2.1-5.2-3-9.9-3.4l6.5-6.2c0.1-0.1,0.1-0.1,0.2-0.2l0,0l0,0
	c1.2-1.6,0.9-4-0.8-5.2c-1.5-1.1-3.7-0.9-5,0.5l0,0c-0.1,0.1-0.1,0.1-0.1,0.2l-5.1,8c-1.5-0.1-2.9,0.4-3.8,1.6l-0.8,1
	c-3.3,0.1-15.4,0.5-15.4,3.7v4.9c0,0.4,0.2,0.8,0.5,1.1c-0.3,5.2-0.4,11.3-0.2,16c0,0.4,0,0.6,0,0.8c0,0,0,0.1,0,0.1v0.1
	c-0.1,0.2-0.2,0.4-0.3,0.9L44.6,74c0,0.1-0.1,0.3-0.1,0.4c-0.3,0.6-0.3,1.4,0,2C45,77.3,46.1,77.8,47.2,77.5"/>
<path class="st0" d="M51.1,72.4c-0.4,0-0.9-0.1-1.2-0.4c-0.4-0.7-0.5-1.6-0.3-2.4c0.1-0.4-0.2-0.8-0.6-0.9s-0.8,0.2-0.9,0.6
	c-0.3,1.2,0,2.5,0.7,3.6c0.6,0.7,1.4,1,2.3,1c0.4,0,0.7-0.3,0.7-0.7C51.8,72.8,51.5,72.5,51.1,72.4L51.1,72.4z"/>
<path class="st0" d="M74.7,68.8c-0.4,0.1-0.7,0.5-0.6,0.9c0.2,0.8,0.1,1.7-0.3,2.4c-0.3,0.3-0.7,0.5-1.2,0.4c-0.4,0-0.7,0.3-0.7,0.7
	c0,0.4,0.3,0.7,0.7,0.8c0.9,0,1.7-0.3,2.3-1c0.7-1.1,0.9-2.4,0.7-3.6c0-0.2-0.2-0.4-0.3-0.5C75.1,68.7,74.9,68.7,74.7,68.8"/>
<path class="st0" d="M27.1,28.5c0-0.1,0-0.1,0-0.2c0.2-0.2,1.7,0,4.3,2.2c0.2,0.2,0.6,0.2,0.9,0.1c2.9-1.5,7.8-2.4,13.2-2.4
	s10.3,0.9,13.1,2.4c0.3,0.1,0.6,0.1,0.8-0.1c2.6-2.2,4.1-2.4,4.3-2.2c0,0.1,0,0.1,0,0.2c0,0.9-1.1,3-3.3,5.2l-0.2,0.2
	C60,34,59.9,34.3,60,34.6c0.1,0.3,0.2,0.6,0.3,0.9l0,0c0.1,0.3,0.2,0.7,0.3,1.1c0,0.1,0.1,0.2,0.1,0.3c0.1,0.3,0.2,0.6,0.2,0.9
	l0.1,0.4c0.1,0.3,0.1,0.5,0.2,0.8l0.1,0.5c0,0.2,0,0.3,0.1,0.5c-3.6,1.2-9.7,1.9-16,1.9S33,41.2,29.4,40c0-0.2,0-0.3,0.1-0.5
	l0.1-0.5c0-0.3,0.1-0.5,0.2-0.8l0.1-0.4c0.1-0.3,0.1-0.6,0.2-0.9c0-0.1,0-0.2,0.1-0.3c0.1-0.4,0.2-0.8,0.3-1.1s0.2-0.6,0.3-0.9
	c0.1-0.3,0-0.6-0.2-0.8l-0.2-0.2C28.2,31.5,27.1,29.4,27.1,28.5 M28.8,54.3v-0.2c0-0.5-0.1-1.1-0.1-1.6c0-0.1,0-0.2,0-0.3
	c0-0.6,0-1.2,0-1.8l0,0c0-0.3,0-0.6,0-0.9c0-2.7,0.2-5.3,0.5-8c3.8,1.2,9.8,1.9,16.2,1.9s12.4-0.7,16.2-1.9c0.2,1.1,0.3,2.3,0.4,3.4
	l1.5-1c-0.1-1-0.3-2.5-0.4-3.5c-0.3-1.7-0.6-3.4-1.1-5.1c0-0.1-0.1-0.2-0.1-0.2c-0.1-0.2-0.1-0.3-0.2-0.5c2.2-2.2,3.6-4.6,3.6-6.1
	c0-0.5-0.2-1-0.5-1.3c-1.2-1.2-3.8,0.1-6,1.8c-3.1-1.5-8-2.3-13.4-2.3S35.1,27.5,32,29c-2.1-1.7-4.7-3-6-1.8
	c-0.3,0.3-0.5,0.8-0.5,1.3c0,1.5,1.4,3.9,3.6,6.1c0,0.2-0.1,0.3-0.2,0.5c-0.5,1.5-0.8,3-1.1,4.6c0,0.2-0.1,0.5-0.1,0.7
	c-0.5,3-0.7,6.1-0.7,9.2v0.9c0,1.6,0.1,3,0.2,4.4c0.2,3.3,0.8,6.5,1.8,9.6c-2.2,2.2-3.6,4.6-3.6,6.1c0,0.5,0.2,1,0.5,1.3
	c1.2,1.2,3.8-0.1,6-1.8c3.1,1.5,8,2.3,13.4,2.3h0.4v-1.6h-0.4c-5.4,0-10.3-0.9-13.1-2.4c-0.3-0.1-0.6-0.1-0.9,0.1
	c-2.6,2.2-4.1,2.4-4.3,2.2c0-0.1,0-0.1,0-0.2c0-0.9,1.1-3,3.3-5.2l0.2-0.2c0.2-0.2,0.3-0.5,0.2-0.8c-0.9-2.8-1.5-5.6-1.8-8.5
	c3.8,1.2,9.9,2,16.4,2h0.4v-1.5h-0.4C38.6,56.4,32.4,55.6,28.8,54.3"/>
</svg>
