<?xml version="1.0" encoding="utf-8"?>
<!-- Generator: Adobe Illustrator 24.3.0, SVG Export Plug-In . SVG Version: 6.00 Build 0)  -->
<svg version="1.1" id="Layer_1" xmlns="http://www.w3.org/2000/svg" xmlns:xlink="http://www.w3.org/1999/xlink" x="0px" y="0px"
	 viewBox="0 0 105 105" style="enable-background:new 0 0 105 105;" xml:space="preserve">
<style type="text/css">
	.st0{clip-path:url(#SVGID_2_);}
	.st1{fill:#FFFFFF;}
</style>
<g>
	<defs>
		<rect id="SVGID_1_" width="105" height="105"/>
	</defs>
	<clipPath id="SVGID_2_">
		<use xlink:href="#SVGID_1_"  style="overflow:visible;"/>
	</clipPath>
	<g class="st0">
		<path class="st1" d="M81.1,78.3c0,1.7-1.4,3.2-3.1,3.2c0,0,0,0,0,0c-0.9,0-1.7-0.4-2.3-1L52.3,54.6c-6.7-7.8-6.7-12.6-6.7-15.4
			c0-2.5,0.7-4.9,2.2-6.9c2.4,1.5,3.8,4.1,3.7,6.9c0,3.7,1.5,7.2,4.2,9.8l24.5,27c0.5,0.6,0.8,1.4,0.8,2.2L81.1,78.3z M55.5,80.4
			h-5.9c-4.8-0.2-9.5-2-13.3-5l4.1-4.8c2.2,1.9,6.1,3.7,9.1,3.7h5.9c3.4,0,7.1-1.5,8.9-3.4l4.2,4.6C64.8,78.5,60.2,80.2,55.5,80.4
			 M52,57.3l11,12.2c-1.2,1.4-4.5,2.9-7.6,2.9h-5.9c-2.6,0-6-1.7-7.8-3.2L52,57.3z M29.4,80.4c-0.6,0.7-1.4,1.1-2.3,1.1
			c-1.7,0-3.1-1.5-3.1-3.2V78c0-0.8,0.3-1.5,0.8-2.1l22.1-25.4c1.1,1.9,2.4,3.7,3.9,5.3L29.4,80.4z M46,31.5
			c-1.6,2.3-2.4,4.9-2.4,7.7c-0.1,3.3,0.6,6.6,2.2,9.5l-9,10.4V38.1c0-3.4,2.2-7,6.9-7C44.5,31.1,45.2,31.3,46,31.5 M28.9,59.3V38.1
			c-0.1-8.2,6.5-15,14.8-15.1c10.2,0,15.8,8.3,15.8,16.1c0,2.6,0,5.2-2.1,8.5l-0.1-0.2c-2.3-2.2-3.7-5.2-3.7-8.4
			c0.2-5.4-4-9.9-9.4-10.1c-0.1,0-0.3,0-0.4,0c-5.8,0-8.9,4.6-8.9,9.1v23.2L30,66.8C29.3,64.4,28.9,61.8,28.9,59.3 M68.3,59.7
			l-9.6-10.6c2-2.9,2.9-6.5,2.7-10c0-2.7-0.5-5.3-1.6-7.7c0.5-0.2,1-0.3,1.6-0.3c3.8,0,6.9,3,6.9,6.7c0,0.1,0,0.2,0,0.3V59.7z
			 M61.4,23c9.7,0,14.8,7.6,14.8,15.1v21.2c0,2.7-0.4,5.3-1.2,7.8l-4.7-5.2V38.1c0.1-4.9-3.8-9-8.7-9.1c-0.1,0-0.1,0-0.2,0
			c-0.9,0-1.7,0.2-2.5,0.5c-1-1.8-2.3-3.3-3.9-4.6C56.8,23.6,59.1,22.9,61.4,23 M81.7,74.5l-5.2-5.7c1.1-3,1.6-6.3,1.6-9.5V38.1
			c0-8.5-5.8-17.1-16.8-17.1c-2.9-0.1-5.8,0.9-8,2.8C50.5,22,47.1,21,43.7,21c-9.3,0.1-16.8,7.8-16.7,17.1v21.2
			c0,3.2,0.5,6.3,1.6,9.3l-5.2,6c-0.8,1-1.3,2.2-1.3,3.4v0.3c0,2.8,2.2,5.1,5.1,5.2c0,0,0,0,0,0c1.5,0,2.8-0.6,3.8-1.7l4.2-4.8
			c4.1,3.4,9.3,5.3,14.6,5.5h5.9c5.3-0.2,10.3-2.1,14.4-5.4l4.3,4.8c1,1.1,2.3,1.7,3.8,1.7c2.8,0,5.1-2.4,5.1-5.2c0,0,0,0,0,0V78
			C83.1,76.7,82.6,75.5,81.7,74.5"/>
	</g>
</g>
</svg>
