<?xml version="1.0" encoding="utf-8"?>
<!-- Generator: Adobe Illustrator 24.3.0, SVG Export Plug-In . SVG Version: 6.00 Build 0)  -->
<svg version="1.1" id="Gradient" xmlns="http://www.w3.org/2000/svg" xmlns:xlink="http://www.w3.org/1999/xlink" x="0px" y="0px"
	 viewBox="0 0 512 512" style="enable-background:new 0 0 512 512;" xml:space="preserve">
<style type="text/css">
	
	 
	.st0{fill:none;stroke:#ee6035;stroke-width:7;stroke-linecap:round;stroke-miterlimit:10;}
	.st1{fill:none;stroke:#ee6035;stroke-width:7;stroke-linecap:round;stroke-linejoin:round;stroke-miterlimit:10;}
</style>
<line class="st0" x1="171.3" y1="326.3" x2="246.1" y2="326.3"/>
<g>
	<line class="st0" x1="230" y1="269.4" x2="236.4" y2="269.4"/>
	<line class="st0" x1="212.9" y1="269.4" x2="214.1" y2="269.4"/>
</g>
<line class="st0" x1="171.3" y1="380.9" x2="246.1" y2="380.9"/>
<line class="st0" x1="171.3" y1="362.7" x2="246.1" y2="362.7"/>
<line  class="st0" x1="266.9" y1="381.3" x2="285.2" y2="381.3"/>
<line class="st0" x1="266.9" y1="362.7" x2="285.2" y2="362.7"/>
<line class="st0" x1="171.3" y1="344.5" x2="246.1" y2="344.5"/>
<path class="st1" d="M321.2,274.2c4.3,1.4,8.3,3.7,11.9,6.9c13.7,12.4,14.8,33.6,2.4,47.3c-12.4,13.7-33.6,14.8-47.3,2.4
	c-13.7-12.4-14.8-33.6-2.4-47.3c6.4-7.1,15.1-10.8,23.9-11l0,9.7l0,46.9"/>
<path class="st1" d="M248.4,283.8c-5.8,4.5-13,7.2-20.9,7.2c-18.7,0-33.9-15.2-33.9-33.9s15.2-33.9,33.9-33.9s33.9,15.2,33.9,33.9
	c0,6.1-1.6,11.9-4.5,16.9"/>
<path class="st1" d="M329.9,373.4l19.5,38.2c2.4,4.6,8,6.5,12.7,4.1s6.5-8,4.1-12.7l-19.5-38.2l-8.5,4.3l-4.3-7.8l-5.5-10.4
	c11.8-4.7,21.8-14,27-26.7c10.2-24.8-1.7-53.1-26.4-63.3c-24.8-10.2-53.1,1.7-63.3,26.4c-10.2,24.8,1.7,53.1,26.4,63.3
	c4.7,1.9,9.4,3,14.2,3.5l0.1,8.1l0,42.3l-11.7,9.8l-11.3-9.4l-11.3,9.4l-11.3-9.4l-11.3,9.4l-11.3-9.4l-11.3,9.4l-11.3-9.4
	l-11.3,9.4l-11.3-9.4l-11.3,9.4l-11.3-9.4l-11.3,9.4l-10.8-9.4l0-200.6h157.7l0,42.5"/>
<g>
	<path class="st1" d="M222.1,277.1V237h8.4c1.7,0,3.3,0.2,4.7,0.6c1.4,0.4,2.6,1,3.6,2c1,0.9,1.7,2.1,2.3,3.6
		c0.5,1.5,0.8,3.3,0.8,5.6c0,2.2-0.3,4-0.9,5.5c-0.6,1.4-1.4,2.6-2.4,3.5c-1,0.9-2.2,1.5-3.6,1.8c-1.4,0.4-2.9,0.5-4.5,0.5"/>
</g>
<g>
	<path class="st1" d="M333,247l6.9-21.1c2.1-7.7-0.5-15.8-6.8-20.7L215,119.3c-6.4-4.3-15.1-4.3-21.6,0.1L75.2,205.2
		c-6.2,5.1-8.8,13.2-6.6,20.8l45,138.9c2.7,7.3,9.8,12.4,17.6,12.7h0.1"/>
</g>
</svg>
