<?xml version="1.0" encoding="utf-8"?>
<!-- Generator: Adobe Illustrator 24.3.0, SVG Export Plug-In . SVG Version: 6.00 Build 0)  -->
<svg version="1.1" id="Layer_1" xmlns="http://www.w3.org/2000/svg" xmlns:xlink="http://www.w3.org/1999/xlink" x="0px" y="0px"
	 viewBox="0 0 105 105" style="enable-background:new 0 0 105 105;" xml:space="preserve">
<style type="text/css">
	.st0{clip-path:url(#SVGID_2_);}
	.st1{fill:#FFFFFF;}
</style>
<g>
	<defs>
		<rect id="SVGID_1_" width="105" height="105"/>
	</defs>
	<clipPath id="SVGID_2_">
		<use xlink:href="#SVGID_1_"  style="overflow:visible;"/>
	</clipPath>
	<g class="st0">
		<path class="st1" d="M47.5,71.7c0.2,0.2,0.4,0.4,0.5,0.7c0.1,0.7-0.4,1.3-1.1,1.4c-0.3,0.1-0.7,0-1-0.2c-0.3-0.2-0.4-0.4-0.5-0.7
			c-0.1-0.7,0.4-1.3,1-1.4c0,0,0,0,0,0h0.3C47,71.5,47.3,71.6,47.5,71.7L47.5,71.7z M47.3,75.9L47.3,75.9c1.7-0.3,2.9-2,2.6-3.7
			c-0.1-0.8-0.6-1.5-1.3-2c-1.5-1-3.5-0.6-4.5,1c-0.4,0.7-0.6,1.5-0.5,2.3c0.1,0.8,0.6,1.5,1.3,2c0.5,0.4,1.2,0.6,1.8,0.6
			C46.9,76,47.1,75.9,47.3,75.9 M58.3,60.9c0.6,0.4,0.7,1.1,0.4,1.7c-0.2,0.3-0.5,0.5-0.8,0.7c-0.3,0.1-0.6,0.1-0.9-0.1
			c-0.6-0.4-0.7-1.2-0.3-1.7c0.2-0.3,0.5-0.5,0.8-0.6c0.1,0,0.2-0.1,0.3-0.1C58,60.7,58.2,60.8,58.3,60.9 M58.4,65
			c0.8-0.2,1.5-0.8,1.9-1.5c0.9-1.5,0.4-3.4-1.1-4.4c-0.7-0.4-1.6-0.5-2.4-0.3c-0.8,0.3-1.4,0.8-1.8,1.5c-0.9,1.5-0.5,3.4,1,4.4
			c0.5,0.3,1,0.4,1.5,0.4C57.8,65.2,58.1,65.1,58.4,65 M54.4,67.8c0.5,0.5,0.4,1.3-0.1,1.8c-0.2,0.3-0.6,0.4-0.9,0.4
			c-0.3,0-0.6-0.1-0.8-0.3c-0.5-0.5-0.4-1.3,0.1-1.8c0.2-0.3,0.6-0.4,0.9-0.4l0,0C53.9,67.5,54.2,67.6,54.4,67.8 M53.4,71.9
			c0.8,0,1.6-0.4,2.2-1c1.3-1.2,1.3-3.2,0.1-4.5c-0.6-0.6-1.4-0.9-2.3-0.9c-0.8,0-1.6,0.4-2.2,1c-1.3,1.2-1.3,3.2-0.1,4.5
			C51.7,71.6,52.5,71.9,53.4,71.9L53.4,71.9 M48.1,79.6L48.1,79.6c2.1-0.4,3.8-1.7,4.8-3.6c0.1-0.1,0.2-0.2,0.3-0.2h0.2
			c1.8-0.1,3.5-0.8,4.8-2.1c0.4-0.4,0.4-1,0-1.4c-0.4-0.4-1-0.4-1.4,0c-0.9,0.9-2.2,1.5-3.5,1.5h-0.2c-0.8,0-1.6,0.5-2,1.2
			c-0.7,1.3-2,2.3-3.5,2.6l0,0c-0.3,0.1-0.7,0.1-1,0.1h-4c-0.1-0.9-0.3-1.9-0.7-2.8c-0.2-0.4-0.3-0.9-0.4-1.3
			c-0.5-2.7,1.3-5.4,4-5.9c0.4-0.1,0.7-0.1,1.1-0.1c0.9,0,1.7-0.5,2.1-1.2c0.3-0.5,0.6-0.9,1-1.2c0.4-0.4,0.8-0.7,1.3-1
			c0.8-0.4,1.3-1.2,1.3-2.1c0-0.9,0.2-1.8,0.7-2.7c0.7-1.2,1.7-2,3-2.4c1.2-0.2,2.5-0.3,3.7-0.2h1.6c0,0.9,0.2,1.9,0.5,2.8
			c0.1,0.3,0.2,0.7,0.3,1.1c0.3,1.3,0.1,2.7-0.6,3.8c-0.5,0.9-1.2,1.5-2.1,2c-0.7,0.4-1.2,1.2-1.2,2c0,0.6,0.4,1,1,1l0,0
			c0.6,0,1-0.4,1-1c0-0.1,0.1-0.3,0.2-0.3c1.2-0.6,2.2-1.6,2.9-2.8c0.9-1.6,1.2-3.4,0.8-5.2c-0.1-0.5-0.2-0.9-0.3-1.2
			c-0.3-1-0.5-2.1-0.5-3.2c0-0.6-0.4-1-1-1h-2.7c-1.4-0.1-2.9,0-4.3,0.3c-1.7,0.5-3.2,1.7-4.1,3.3c-0.6,1.1-1,2.3-1,3.6
			c0,0.1-0.1,0.3-0.2,0.3c-1.3,0.7-2.4,1.8-3.1,3.1c-0.1,0.1-0.2,0.2-0.3,0.2l0,0c-3.9-0.1-7.1,2.9-7.2,6.8c0,0.5,0,1,0.1,1.5
			c0.1,0.5,0.3,1,0.4,1.5c0.4,1,0.6,2,0.6,3.1c0,0.6,0.4,1,1,1h4.8c0.5,0,0.9,0,1.4-0.1 M57.6,73L57.6,73"/>
		<path class="st1" d="M85.7,39.9L85.7,39.9c-2.2-3-5-5.6-8.1-7.7c-3.2-2.2-6.6-3.9-10.3-5.1c-4.8-1.6-9.7-2.3-14.7-2.3
			c-8.9-0.1-17.6,2.4-25,7.4c-3.1,2.1-5.9,4.7-8.1,7.7c-0.5,0.8-0.7,1.7-0.5,2.6c0.3,1.9,2.1,3.1,4,2.8c0.2,0,0.3-0.1,0.5-0.1v19.1
			c0,0.6,0.4,1,1,1s1-0.4,1-1V43.5c1.8-2.2,3.9-4.2,6.3-5.7c0.8-0.5,1.7-1.1,2.5-1.5c0.5-0.3,0.6-0.9,0.4-1.4
			c-0.3-0.5-0.9-0.6-1.4-0.4c-0.9,0.5-1.8,1.1-2.7,1.6c-2.7,1.8-5.1,4-7,6.6c-0.5,0.7-1.4,0.9-2.1,0.4s-0.9-1.4-0.4-2.1l0,0
			c2.1-2.8,4.7-5.3,7.6-7.2c7.1-4.7,15.4-7.2,23.9-7.1c4.8,0,9.6,0.7,14.1,2.2c3.5,1.2,6.8,2.8,9.8,4.9c2.9,1.9,5.5,4.4,7.6,7.2
			c0.4,0.7,0.2,1.6-0.5,2c-0.6,0.4-1.5,0.2-1.9-0.4c-1.9-2.6-4.3-4.8-7-6.6c-6.5-4.3-14.2-6.6-22-6.4c-5.4-0.1-10.7,1-15.7,3
			c-0.5,0.2-0.8,0.8-0.6,1.3c0,0,0,0,0,0c0.2,0.5,0.8,0.7,1.3,0.5c4.8-1.9,9.9-2.9,15-2.9c7.4-0.2,14.7,2,20.9,6.1
			c2.4,1.6,4.5,3.5,6.3,5.7v31.7h-7.4V47.7c0-0.6-0.4-1-1-1H33.6c-0.6,0-1,0.4-1,1v27.5h-7.3v-6.9c0-0.6-0.4-1-1-1s-1,0.4-1,1v7.9
			c0,0.6,0.4,1,1,1h10.3V53.4h24.9c0.6,0,1-0.4,1-1s-0.4-1-1-1H34.6v-2.8h35.8v2.8h-7c-0.6,0-1,0.4-1,1s0.4,1,1,1h7v23.8h10.3
			c0.6,0,1-0.4,1-1v-31c1,0.3,2.1,0.2,3-0.4C86.3,43.7,86.7,41.6,85.7,39.9"/>
	</g>
</g>
</svg>
