<?xml version="1.0" encoding="utf-8"?>
<!-- Generator: Adobe Illustrator 24.3.0, SVG Export Plug-In . SVG Version: 6.00 Build 0)  -->
<svg version="1.1" id="Layer_1" xmlns="http://www.w3.org/2000/svg" xmlns:xlink="http://www.w3.org/1999/xlink" x="0px" y="0px"
	 viewBox="0 0 105 105" style="enable-background:new 0 0 105 105;" xml:space="preserve">
<style type="text/css">
	.st0{fill:#FFFFFF;}
</style>
<path class="st0" d="M79.7,76h-2.9V43.3c0-0.5-0.5-0.9-1-0.9H29.2c-0.5,0-1,0.4-1,0.9V76h-2.9V38.2l27.2-14.4l27.2,15.4V76z
	 M81.2,37.8L53,21.9c-0.3-0.2-0.7-0.2-1,0l-28.2,15c-0.3,0.2-0.5,0.5-0.5,0.8v39.2c0,0.5,0.5,0.9,1,0.9h4.9c0.5,0,1-0.4,1-0.9V44.2
	h44.7v32.7c0,0.5,0.5,0.9,1,0.9h4.9c0.5,0,1-0.4,1-0.9V38.6C81.7,38.3,81.6,38,81.2,37.8"/>
<rect x="29.2" y="49.8" class="st0" width="46.7" height="1.9"/>
<rect x="29.2" y="46.1" class="st0" width="46.7" height="1.9"/>
<path class="st0" d="M56.4,38.6h-7.8v-1.9h7.8V38.6z M57.4,34.9h-9.8c-0.5,0-1,0.4-1,0.9v3.7c0,0.5,0.5,0.9,1,0.9h9.7
	c0.5,0,1-0.4,1-0.9v-3.7C58.3,35.3,57.9,34.9,57.4,34.9"/>
<path class="st0" d="M50.7,73.3c0.5,0,0.9,0.4,0.8,0.9c0,0.5-0.4,0.9-0.9,0.8c-0.5,0-0.8-0.4-0.8-0.9C49.8,73.7,50.2,73.3,50.7,73.3
	C50.7,73.3,50.7,73.3,50.7,73.3"/>
<path class="st0" d="M54.4,73.3c0.5,0,0.9,0.4,0.8,0.9c0,0.5-0.4,0.9-0.9,0.8c-0.5,0-0.8-0.4-0.8-0.9C53.5,73.7,53.9,73.3,54.4,73.3
	C54.4,73.3,54.4,73.3,54.4,73.3"/>
<path class="st0" d="M48.8,66.2c0.5,0,0.9,0.4,0.9,0.9c0,0.5-0.4,0.9-0.9,0.9c-0.5,0-0.9-0.4-0.9-0.9C47.9,66.6,48.3,66.2,48.8,66.2
	"/>
<path class="st0" d="M56.2,66.2c0.5,0,0.9,0.4,0.8,0.9c0,0.5-0.4,0.9-0.9,0.8c-0.5,0-0.8-0.4-0.8-0.9C55.3,66.5,55.7,66.1,56.2,66.2
	C56.2,66.2,56.2,66.2,56.2,66.2"/>
<path class="st0" d="M38.6,59.9c0.1-1.5,1.3-2.7,2.8-2.7h1.8c1.5,0,2.7,1.2,2.8,2.7c-0.1,3.5-3,6.3-6.5,6.2h-0.9L38.6,59.9z
	 M47.9,59.9c0-0.4-0.1-0.8-0.2-1.2c2.9-1.9,6.7-1.9,9.6,0c-0.1,0.4-0.2,0.8-0.2,1.2c0,2.7,1.4,5.2,3.7,6.6v0.5
	c0,0.9,0.2,1.7,0.7,2.4c0.8,1.1,1.2,2.4,1.2,3.8c0,3.8-3.6,7.1-7.8,7.1h-4.6c-4.2,0-7.8-3.2-7.8-7.1c0-1.4,0.4-2.7,1.2-3.8
	c0.5-0.7,0.7-1.6,0.7-2.4v-0.5C46.5,65.1,47.9,62.6,47.9,59.9 M61.8,57.3h1.8c1.5,0,2.8,1.2,2.8,2.7v6.2h-0.9
	c-3.5,0.1-6.4-2.7-6.5-6.2C59,58.4,60.3,57.2,61.8,57.3 M37.7,67.9h1.8c1,0,1.9-0.2,2.8-0.5c0,0.4-0.1,0.7-0.3,1.1
	c-1,1.4-1.5,3.1-1.5,4.8c0,5,4.5,8.9,9.7,8.9h4.6c5.2,0,9.7-3.9,9.7-8.9c0-1.7-0.5-3.4-1.5-4.8c-0.2-0.3-0.3-0.7-0.4-1.1
	c0.9,0.3,1.9,0.5,2.8,0.5h1.8c0.5,0,0.9-0.4,0.9-0.9c0,0,0,0,0,0v-7.1c-0.1-2.5-2.2-4.5-4.7-4.5h-1.8c-1.4,0-2.7,0.6-3.6,1.7
	c-3.4-2.2-7.9-2.2-11.3,0c-0.9-1.1-2.2-1.7-3.6-1.7h-1.8c-2.5-0.1-4.6,1.9-4.7,4.5V67C36.8,67.6,37.2,68,37.7,67.9
	C37.7,67.9,37.7,67.9,37.7,67.9"/>
<path class="st0" d="M48.4,74.1l1.6-1.6c1.4-1.3,3.6-1.3,5,0l1.6,1.6c0.3,0.3,0.5,0.7,0.5,1.2c0,0.9-0.8,1.6-1.7,1.6c0,0,0,0,0,0
	h-5.8c-0.9,0-1.7-0.7-1.7-1.6c0,0,0,0,0,0C47.9,74.8,48.1,74.4,48.4,74.1 M49.6,78.6h5.9c1.9,0,3.5-1.5,3.5-3.4c0,0,0,0,0,0
	c0-0.9-0.4-1.8-1-2.4l-1.6-1.6c-2.1-2-5.5-2-7.6,0l-1.7,1.6c-0.6,0.6-1,1.5-1,2.4C46.1,77.1,47.7,78.6,49.6,78.6"/>
</svg>
