<?xml version="1.0" encoding="utf-8"?>
<!-- Generator: Adobe Illustrator 24.3.0, SVG Export Plug-In . SVG Version: 6.00 Build 0)  -->
<svg version="1.1" id="Layer_1" xmlns="http://www.w3.org/2000/svg" xmlns:xlink="http://www.w3.org/1999/xlink" x="0px" y="0px"
	 viewBox="0 0 105 105" style="enable-background:new 0 0 105 105;" xml:space="preserve">
<style type="text/css">
	.st0{clip-path:url(#SVGID_2_);}
	.st1{fill:#FFFFFF;}
</style>
<g>
	<defs>
		<rect id="SVGID_1_" width="105" height="105"/>
	</defs>
	<clipPath id="SVGID_2_">
		<use xlink:href="#SVGID_1_"  style="overflow:visible;"/>
	</clipPath>
	<g class="st0">
		<path class="st1" d="M71.6,73.8c2.9-0.1,5.2-2.6,5-5.5c-0.1-2.9-2.6-5.2-5.5-5c-2.8,0.1-5,2.4-5,5.3
			C66.2,71.5,68.6,73.8,71.6,73.8 M71.6,61.5c3.9,0.2,6.9,3.4,6.7,7.3c-0.2,3.9-3.4,6.9-7.3,6.7c-3.7-0.2-6.7-3.2-6.7-7
			C64.4,64.5,67.6,61.4,71.6,61.5"/>
		<path class="st1" d="M35.1,68.5c2.4-0.1,4.3-2.1,4.2-4.6c-0.1-2.4-2.1-4.3-4.6-4.2c-2.3,0.1-4.2,2-4.2,4.4
			C30.6,66.6,32.6,68.5,35.1,68.5 M35.1,58c3.4,0.1,6,3,5.9,6.4c-0.1,3.4-3,6-6.4,5.9c-3.3-0.1-5.9-2.8-5.9-6.1
			C28.8,60.7,31.6,57.9,35.1,58"/>
		<path class="st1" d="M35.1,62.4c-1,0-1.7,0.9-1.7,1.8c0,1,0.9,1.7,1.8,1.7c0.9,0,1.7-0.8,1.7-1.7C36.9,63.1,36.1,62.4,35.1,62.4"
			/>
		<path class="st1" d="M71.6,70.2c1,0,1.7-0.9,1.7-1.8c0-1-0.9-1.7-1.8-1.7c-0.9,0-1.7,0.8-1.7,1.7C69.8,69.5,70.6,70.3,71.6,70.2
			 M71.6,65c1.9,0.1,3.4,1.7,3.4,3.6c-0.1,1.9-1.7,3.4-3.6,3.4c-1.9-0.1-3.4-1.6-3.4-3.5C68,66.5,69.6,65,71.6,65"/>
		<path class="st1" d="M35.1,73.8c5.3,0.2,9.8-3.9,10.1-9.2c0.2-5.3-3.9-9.8-9.2-10.1c-0.3,0-0.6,0-0.9,0c-5.3-0.2-9.8,3.9-10.1,9.2
			c-0.2,5.3,3.9,9.8,9.2,10.1C34.5,73.8,34.8,73.8,35.1,73.8 M22.3,65v-1.8h1c0.1-0.9,0.3-1.9,0.6-2.8l-1-0.4l0.7-1.6l1,0.4
			c0.4-0.8,0.9-1.5,1.5-2.1L25.3,56l1.3-1.2l0.8,0.7c0.8-0.6,1.6-1.1,2.5-1.6l-0.4-1l1.7-0.7l0.4,1c0.9-0.3,1.7-0.4,2.6-0.5v-0.9H36
			v0.9c1,0.1,2,0.3,2.9,0.6l0.4-1l1.7,0.7l-0.4,1c0.8,0.4,1.5,0.9,2.2,1.5l0.8-0.7l1.3,1.2l-0.8,0.7c0.6,0.7,1.2,1.5,1.6,2.4l1-0.4
			l0.7,1.6l-1,0.4c0.3,0.8,0.4,1.7,0.5,2.5h1V65h-1c-0.1,1-0.3,1.9-0.6,2.8l1,0.4l-0.7,1.6l-1-0.4c-0.4,0.8-0.9,1.5-1.5,2.1l0.8,0.7
			l-1.3,1.2l-0.8-0.7c-0.8,0.6-1.6,1.1-2.5,1.6l0.4,1L39,76l-0.4-1c-0.9,0.3-1.7,0.4-2.6,0.5v0.9h-1.8v-0.9c-1-0.1-2-0.3-2.9-0.6
			l-0.4,1l-1.7-0.7l0.4-1c-0.8-0.4-1.5-0.9-2.2-1.4l-0.8,0.7l-1.3-1.2l0.8-0.7c-0.6-0.7-1.2-1.5-1.6-2.4l-1,0.4l-0.7-1.6l1-0.4
			c-0.3-0.8-0.4-1.7-0.5-2.5H22.3z"/>
		<path class="st1" d="M50.2,67.6h11.4c0.6-5.1,4.9-8.8,10-8.8c0.9,0,1.8,0.1,2.7,0.4v-7.4c-0.1-2.5-2.1-4.4-4.6-4.4H42.4
			c-0.5,0-0.9-0.4-0.9-0.9c0,0,0,0,0,0V35.2c0-1.5,1.3-2.7,2.7-2.6h6.1L50,31.7H28.7v18.9c2-0.9,4.2-1.3,6.4-1.3
			c8.5,0,15.5,6.7,15.5,14.9C50.6,65.3,50.4,66.5,50.2,67.6 M77,57.1h-0.9v2.8c0.3,0.1,0.6,0.3,0.9,0.5V57.1z M51,34.3h-6.8
			c-0.5,0-0.9,0.4-0.9,0.9c0,0,0,0,0,0v10.5h12.3L51,34.3z M54.2,29.1c0-0.5-0.4-0.9-0.9-0.9c0,0,0,0,0,0H29.6
			c-0.5,0-0.9,0.4-0.9,0.9c0,0,0,0,0,0V30h24.6C53.8,30,54.2,29.6,54.2,29.1C54.2,29.1,54.2,29.1,54.2,29.1 M25,49.2v3.5
			c0.6-0.5,1.2-0.9,1.8-1.3v-2.3H25z M48.8,64.1c0-7.3-6.1-13.1-13.7-13.1c-3.9,0-7.6,1.6-10.3,4.5c-0.3,0.3-0.6,0.4-1,0.2
			c-0.3-0.1-0.6-0.4-0.6-0.8v-6.5c0-0.5,0.4-0.9,0.9-0.9h2.7V29.1c0-1.5,1.3-2.7,2.7-2.6h23.7c1.4-0.1,2.7,1,2.8,2.5s-1,2.7-2.5,2.8
			c-0.1,0-0.2,0-0.3,0h-1.4l5.7,14h12.1c3.5-0.1,6.3,2.7,6.4,6.1v3.5H78c0.5,0,0.9,0.4,0.9,0.9c0,0,0,0,0,0v6c0,0.4-0.2,0.7-0.6,0.8
			c-0.3,0.1-0.7,0.1-1-0.2c-1.6-1.5-3.6-2.3-5.8-2.3c-4.4-0.1-8.1,3.5-8.2,7.9c0,0.5-0.4,0.9-0.9,0.9c0,0,0,0,0,0H49
			c-0.3,0-0.6-0.1-0.7-0.4c-0.2-0.2-0.2-0.5-0.1-0.8C48.6,66.9,48.8,65.5,48.8,64.1"/>
		<path class="st1" d="M38.7,34.3h-7.3v11.4h7.3V34.3z M38.7,47.5h-7.3c-1,0-1.8-0.8-1.8-1.7c0,0,0,0,0,0V34.3c0-1,0.8-1.8,1.8-1.8
			h7.3c1,0,1.8,0.8,1.8,1.8v11.4C40.5,46.7,39.7,47.5,38.7,47.5C38.7,47.5,38.7,47.5,38.7,47.5"/>
		<path class="st1" d="M53.3,64.1h1.8v-1.8h-1.8V64.1z M52.4,60.6h3.7c0.5,0,0.9,0.4,0.9,0.9V65c0,0.5-0.4,0.9-0.9,0.9c0,0,0,0,0,0
			h-3.7c-0.5,0-0.9-0.4-0.9-0.9c0,0,0,0,0,0v-3.5C51.5,61,51.9,60.6,52.4,60.6"/>
		<path class="st1" d="M59.7,55.4h0.9v-5.3h-0.9V55.4z M71.6,51.9c0-0.6-0.4-1.2-0.9-1.5v5h0.9V51.9z M63.4,50.1h-0.9v5.3h0.9V50.1z
			 M66.1,50.1h-0.9v5.3h0.9V50.1z M68.8,50.1h-0.9v5.3h0.9V50.1z M58.8,48.3h10.9c2,0,3.6,1.5,3.7,3.5v4.4c0,0.5-0.4,0.9-0.9,0.9
			c0,0,0,0,0,0H58.8c-0.5,0-0.9-0.4-0.9-0.9c0,0,0,0,0,0v-7C57.9,48.7,58.3,48.3,58.8,48.3C58.8,48.3,58.8,48.3,58.8,48.3"/>
		<path class="st1" d="M50.9,55.4h4.2v-5.3H46C48,51.5,49.6,53.3,50.9,55.4 M41.8,49c0.1-0.4,0.5-0.7,0.9-0.7H56
			c0.5,0,0.9,0.4,0.9,0.9c0,0,0,0,0,0v7c0,0.2-0.1,0.5-0.3,0.6c-0.2,0.2-0.4,0.3-0.6,0.3h-5.7c-0.3,0-0.6-0.2-0.8-0.5
			c-1.6-2.9-4.1-5.2-7.1-6.7C42,49.8,41.8,49.4,41.8,49"/>
	</g>
</g>
</svg>
