<svg id="Layer_1" data-name="Layer 1" xmlns="http://www.w3.org/2000/svg" viewBox="0 0 34 34"><defs><style>.cls-1{fill:#166aa6;fill-rule:evenodd;}</style></defs><g id="Layer_1-2" data-name="Layer 1-2"><g id="Group_967" data-name="Group 967"><path id="twitter-" class="cls-1" d="M13.25,24.22A11,11,0,0,0,24.41,13.41v-.66a8.27,8.27,0,0,0,2-2,8.41,8.41,0,0,1-2.26.61,3.9,3.9,0,0,0,1.73-2.14,7.65,7.65,0,0,1-2.49.93A4,4,0,0,0,17.8,10a3.86,3.86,0,0,0-1.14,3.69,11.2,11.2,0,0,1-8.1-4,3.83,3.83,0,0,0,1.21,5.16A4,4,0,0,1,8,14.3H8a3.88,3.88,0,0,0,3.15,3.79,4.07,4.07,0,0,1-1.77,0A3.9,3.9,0,0,0,13,20.79a8,8,0,0,1-4.88,1.66,4.17,4.17,0,0,1-.93-.07,11.22,11.22,0,0,0,6,1.84"/></g></g></svg>