<svg xmlns="http://www.w3.org/2000/svg" viewBox="0 0 260.43 112.89"><defs><style>.cls-1{fill:#fff;}</style></defs><g id="Layer_2" data-name="Layer 2"><g id="Layer_1-2" data-name="Layer 1"><g id="Group_1" data-name="Group 1"><path id="Path_3" data-name="Path 3" class="cls-1" d="M125.88,68.66V52.72h3.66V65.65h7.1V52.72h3.67V65.65h2.27V72h-3.39V68.66Zm32.13,0v-3h-8.67V62h7.4V59.14h-7.4V55.68h8.38v-3h-12V68.66Zm6.68-6.53h7.23v6.53h3.69V52.72h-3.69V59h-7.23V52.72H161V68.66h3.69ZM183,68.66h3.64V55.73h5.1v-3H178v3H183Zm14.75,0H194.1V52.72H201c4.26,0,6.92,2.21,6.92,5.79s-2.66,5.75-6.92,5.75h-3.21Zm0-7.4h3c2.25,0,3.39-1,3.39-2.76s-1.14-2.77-3.39-2.77h-3ZM135,82.4l5.21-7.7h-3.89l-4.19,6.44H129.5V74.71h-3.67V90.64h3.67V84.22h2.55l4.14,6.42h4.19Zm5.92.27c0-4.73,3.69-8.24,8.72-8.24s8.71,3.48,8.71,8.24-3.71,8.24-8.71,8.24-8.72-3.5-8.72-8.24Zm3.73,0a5,5,0,1,0,5-5.1,4.86,4.86,0,0,0-5,4.73v.37Zm31.17,8V74.71h-3.69V81H164.9V74.71h-3.69V90.64h3.69V84.11h7.24v6.53Zm11.06,0V77.71H192v-3H178.17v3h5.08V90.63Zm21.24-10.16c0,3.56-2.66,5.76-6.92,5.76H198v4.4h-3.69V74.71h6.9c4.25,0,6.92,2.2,6.92,5.78Zm-3.73,0c0-1.75-1.14-2.77-3.39-2.77h-3v5.53h3c2.25,0,3.39-1,3.39-2.75Zm5.28,2.19c0-4.73,3.69-8.24,8.72-8.24s8.72,3.48,8.72,8.24-3.71,8.24-8.72,8.24-8.72-3.5-8.72-8.24Zm3.73,0a5,5,0,1,0,5-5.1,4.86,4.86,0,0,0-5,4.73v.37ZM234.5,81l.11-3.32h5.46V90.64h3.64V74.71H231.47l-.23,6.46c-.16,4.08-.64,6.44-2.5,6.44a2.15,2.15,0,0,1-.66-.09l-.23,3.12a8.06,8.06,0,0,0,1.82.25c3.73,0,4.62-3.6,4.83-9.86Zm25.93-6.33V90.64h-3.65V86.41h-3.37l-2.82,4.23H246.7l3.32-4.8a5.23,5.23,0,0,1-3.34-5.19c0-3.71,2.66-5.94,6.87-5.94Zm-3.65,3h-3.14c-2.09,0-3.23,1-3.23,2.89s1.07,2.89,3.14,2.89h3.24ZM135,104.37l5.21-7.69h-3.89l-4.19,6.44H129.5V96.69h-3.67v15.93h3.67V106.2h2.55l4.14,6.42h4.19Zm17-7.69,7.13,15.93H155.3l-1.41-3.41h-7.4l-1.41,3.41H141.3l7.1-15.93Zm.69,9.72-2.53-6.1-2.53,6.1Zm15.5-2.55a8.55,8.55,0,0,1-3.42.71c-2.21,0-3.41-1.12-3.41-3.3V96.69h-3.64v5c0,3.85,2.34,6,6.62,6a11.26,11.26,0,0,0,3.85-.75v5.74h3.63V96.69h-3.64ZM178.84,106h7.4v-2.86h-7.4V99.65h8.38v-3h-12v15.93h12.33v-3h-8.67Zm19.36-6.42a5.12,5.12,0,0,1,4,1.86l2.37-2.18A8.21,8.21,0,0,0,198,96.41c-5,0-8.65,3.43-8.65,8.24s3.69,8.24,8.63,8.24a8.21,8.21,0,0,0,6.58-2.85l-2.37-2.18a5.11,5.11,0,1,1-4-8.31Zm7.64.13h5.07v12.93h3.65V99.69h5.1v-3H205.84ZM236,108.13c0,2.78-2.16,4.48-6.19,4.48H222V96.69h7.42c3.69,0,5.87,1.47,5.87,4.12a3.75,3.75,0,0,1-2.25,3.5,3.77,3.77,0,0,1,3,3.83Zm-10.38-4.85h3.44c1.59,0,2.44-.66,2.44-1.94s-.85-1.93-2.44-1.93h-3.44Zm6.65,4.55c0-1.34-.89-2-2.59-2h-4.06v4h4.06c1.7,0,2.59-.65,2.59-2Zm14.94-11.15,7.13,15.93h-3.87l-1.42-3.4h-7.4l-1.41,3.41h-3.78l7.1-15.93Zm.69,9.72-2.53-6.1-2.53,6.1ZM117.33,46.67,97.45,107.86A7.28,7.28,0,0,1,91,112.57H26.63a7.27,7.27,0,0,1-6.49-4.71L.26,46.67A7.29,7.29,0,0,1,2.74,39L54.79,1.22a7.17,7.17,0,0,1,8,0L114.85,39A7.29,7.29,0,0,1,117.33,46.67Zm-5.23-3.85L60.06,5a2.59,2.59,0,0,0-2.53,0l-52,37.82a2.62,2.62,0,0,0-.78,2.4l19.88,61.19a2.54,2.54,0,0,0,2,1.48H91A2.55,2.55,0,0,0,93,106.41l19.88-61.19A2.65,2.65,0,0,0,112.1,42.82Z"/><path id="Path_4" data-name="Path 4" class="cls-1" d="M71.26,50.23,69.91,32.6h1.82a.64.64,0,0,0,.63-.64V24.52a.63.63,0,0,0-.63-.63H50.8a.64.64,0,0,0-.64.63h0V32a.64.64,0,0,0,.64.64h1.82L51.26,50.4a26.21,26.21,0,0,0-9.39,6.74c.27,8.31,2.79,10.4,2.43,15.75l.26.89a2,2,0,0,0,2.12,1.74,1.89,1.89,0,0,0,.85-.3c6.94-4.39,13.7-2.7,20.24-1.06a43.82,43.82,0,0,0,10.42,1.72A17.4,17.4,0,0,0,83.82,75,22.39,22.39,0,0,1,61.47,96.93c-7.66,0-15.13-4.19-20-11.19a51.94,51.94,0,0,1-4.62-8.52A9.83,9.83,0,0,0,40,67.32a46.54,46.54,0,0,1,2-28l.16-.42a.54.54,0,0,0,0-.31V38.5a1.93,1.93,0,0,0-3.39-1.25.66.66,0,0,0-.23.29l-.15.4a49.75,49.75,0,0,0-1.68,5l-.18.12a8.65,8.65,0,0,0-.58-2.51c-.17-.4-.32-.79-.47-1.19A53,53,0,0,1,38,33.17l0-.05a1.92,1.92,0,0,0-1.7-2.81,2,2,0,0,0-1.27.47.67.67,0,0,0-.32.3l-.2.4a57.65,57.65,0,0,0-2.76,6.66L30.64,39A7.32,7.32,0,0,0,28.71,41l-.08-.19a61.16,61.16,0,0,1,2-5.91l.05-.14.11-.29a.56.56,0,0,0,0-.36v0a1.93,1.93,0,0,0-1.92-1.93,1.91,1.91,0,0,0-1.48.68.6.6,0,0,0-.2.25l-.09.2-.07.17A62.37,62.37,0,0,0,24.37,71,10.51,10.51,0,0,0,29,77.65a7,7,0,0,0,4.31,1,55.78,55.78,0,0,0,4.24,8.06,1.66,1.66,0,0,0,.2.4c5.58,8.55,14.45,13.66,23.73,13.66a26.24,26.24,0,0,0,9.79-50.58ZM36.34,47.31c-.17.93-.32,1.87-.44,2.8a49,49,0,0,0-3.85,3.78c0-1,.12-2,.23-3A50.68,50.68,0,0,1,36.34,47.31Zm-.79,6.82c0,.93-.06,1.87,0,2.8a48.16,48.16,0,0,0-3.3,4.24c-.09-1-.15-2-.19-3a51.91,51.91,0,0,1,3.54-4ZM32.25,42h0l.48-.35.24.55a4.84,4.84,0,0,1-1.16,5.33l-.45.4-.3-.52A4.42,4.42,0,0,1,32.25,42ZM26.91,45.5c.62,1.27,1.28,2.52,2,3.71.27.46.54.91.82,1.36-.11,1.06-.2,2.14-.24,3.21A48.9,48.9,0,0,1,26.37,49c.15-1.15.33-2.31.54-3.45ZM26,53.63a51.61,51.61,0,0,0,3.47,4.59c0,1.06.1,2.13.19,3.2a52.89,52.89,0,0,1-3.72-4.34c0-1.14,0-2.3.06-3.45Zm.17,8.11a51.84,51.84,0,0,0,4.06,4.06c.17,1,.38,2.09.61,3.12a52.67,52.67,0,0,1-4.27-3.78c-.16-1.12-.3-2.26-.4-3.4Zm6.39,13.37c-2.22,0-4.33-2-5-4.83,0-.19-.09-.37-.13-.56A54.76,54.76,0,0,0,32,73.19c.2.64.42,1.28.64,1.92Zm.21-9.73a49.63,49.63,0,0,1,3-4.44c.09.92.2,1.85.33,2.76a47.72,47.72,0,0,0-2.7,4.63c-.23-1-.42-2-.59-3ZM35,74.21c-.21-.6-.41-1.2-.59-1.79a50.55,50.55,0,0,1,2.33-4.8c0,.15.07.29.1.43A6.09,6.09,0,0,1,35,74.21Z"/></g></g></g></svg>