<svg id="Layer_1" data-name="Layer 1" xmlns="http://www.w3.org/2000/svg" viewBox="0 0 200 60"><defs><style>.cls-1{fill:#668b00;}</style></defs><polygon class="cls-1" points="23.69 36.68 26.51 36.68 26.51 23.69 34.5 23.69 34.5 36.68 37.31 36.68 37.31 21.27 23.69 21.27 23.69 36.68"/><path class="cls-1" d="M49.33,21.05c-4.78,0-8.3,3.37-8.3,7.93s3.52,7.92,8.3,7.92,8.29-3.35,8.29-7.92S54.1,21.05,49.33,21.05Zm0,13.34A5.25,5.25,0,0,1,43.92,29a5.41,5.41,0,1,1,10.82,0A5.25,5.25,0,0,1,49.33,34.39Z"/><path class="cls-1" d="M74,21.27H62.66l-.17,4.89c-.16,4.51-.66,8-2.75,8.1h-.66l0,5.69h2.66V36.68H73.53V40h2.64V34.26H74Zm-2.81,13H63.32C64.51,33,64.86,29.92,65,26.42l.11-2.73h6Z"/><path class="cls-1" d="M85.75,21.27H79.41V36.68h2.86V32.23h3.48c4,0,6.55-2.09,6.55-5.48S89.8,21.27,85.75,21.27Zm-.13,8.54H82.27V23.69h3.35c2.5,0,3.8,1.13,3.8,3.06S88.12,29.81,85.62,29.81Z"/><path class="cls-1" d="M102.91,21.05c-4.77,0-8.29,3.37-8.29,7.93s3.52,7.92,8.29,7.92,8.3-3.35,8.3-7.92S107.69,21.05,102.91,21.05Zm0,13.34A5.25,5.25,0,0,1,97.5,29a5.41,5.41,0,1,1,10.82,0A5.25,5.25,0,0,1,102.91,34.39Z"/><path class="cls-1" d="M122.32,27.41h-4.56V23.63h9.18V21.27H115V36.68h6.93c3.89,0,6.09-1.72,6.09-4.78C128,29,126,27.41,122.32,27.41Zm-.6,7.07h-4V29.61h4c2.25,0,3.37.77,3.37,2.38S123.92,34.48,121.72,34.48Z"/><polygon class="cls-1" points="142.47 27.63 134.51 27.63 134.51 21.27 131.65 21.27 131.65 36.68 134.51 36.68 134.51 30.07 142.47 30.07 142.47 36.68 145.34 36.68 145.34 21.27 142.47 21.27 142.47 27.63"/><polygon class="cls-1" points="153.06 30.03 160.5 30.03 160.5 27.68 153.06 27.68 153.06 23.67 161.44 23.67 161.44 21.27 150.2 21.27 150.2 36.68 161.75 36.68 161.75 34.28 153.06 34.28 153.06 30.03"/><polygon class="cls-1" points="168.35 30.03 175.79 30.03 175.79 27.68 168.35 27.68 168.35 23.67 176.74 23.67 176.74 21.27 165.49 21.27 165.49 36.68 177.04 36.68 177.04 34.28 168.35 34.28 168.35 30.03"/><path class="cls-1" d="M196,0H4A4,4,0,0,0,0,4V56a4,4,0,0,0,4,4H196a4,4,0,0,0,4-4V4A4,4,0,0,0,196,0Zm2,56a2,2,0,0,1-2,2H4a2,2,0,0,1-2-2V4A2,2,0,0,1,4,2H196a2,2,0,0,1,2,2Z"/></svg>