<svg id="Layer_1" data-name="Layer 1" xmlns="http://www.w3.org/2000/svg" viewBox="0 0 34 34"><defs><style>.cls-1{fill:#166aa6;fill-rule:evenodd;}</style></defs><g id="Layer_2" data-name="Layer 2"><g id="Layer_1-2" data-name="Layer 1-2"><g id="Group_965" data-name="Group 965"><path id="instagram-" class="cls-1" d="M13.22,7.65a5.09,5.09,0,0,0-5.33,4.93h0v.53c0,.94-.27,8.14.4,10A5.43,5.43,0,0,0,11,25.91a6.19,6.19,0,0,0,2.27.4c8.13.4,11.2.14,12.4-3.2a6.1,6.1,0,0,0,.4-2.26c.4-8.4,0-10.13-1.47-11.6-1.2-1.2-2.4-2-11.33-1.6m0,16.93a7.41,7.41,0,0,1-1.73-.27,2.79,2.79,0,0,1-1.74-1.73c-.53-1.47-.4-8.27-.26-9.33a4.16,4.16,0,0,1,.93-2.8c.93-.93,2.13-1.47,10.13-1.07a3.71,3.71,0,0,1,2.8,1.07c.94.93,1.34,2.13.94,10.4A8,8,0,0,1,24,22.58c-.8,2-2.67,2.4-10.8,2m7.47-12.67a1.17,1.17,0,0,0,1.06,1.2,1,1,0,0,0,1.07-1.06,1.17,1.17,0,0,0-1.07-1.2h0a1,1,0,0,0-1.06,1.06M12.29,17A4.67,4.67,0,1,0,17,12.18h0A4.75,4.75,0,0,0,12.29,17m1.6,0A3.13,3.13,0,0,1,17,13.78,3,3,0,0,1,20,16.85,3.13,3.13,0,0,1,17,20.05h0A3,3,0,0,1,13.89,17h0"/></g></g></g></svg>