<svg id="Layer_1" data-name="Layer 1" xmlns="http://www.w3.org/2000/svg" viewBox="0 0 34 34"><defs><style>.cls-1{fill:#166aa6;}</style></defs><path class="cls-1" d="M24,18.31c-.36-.45-.26-.65,0-1.06,0,0,3-4.09,3.26-5.47h0c.16-.51,0-.88-.73-.88H24.06a1,1,0,0,0-1,.67,19.94,19.94,0,0,1-3,4.87c-.57.55-.83.73-1.13.73s-.39-.18-.39-.68V11.78c0-.61-.17-.88-.68-.88H14a.58.58,0,0,0-.62.55c0,.57.87.7,1,2.32v3.5c0,.77-.14.91-.45.91-.82,0-2.82-3-4-6.36-.24-.65-.48-.92-1.1-.92H6.39c-.69,0-.83.32-.83.68,0,.63.82,3.76,3.83,7.89a9.46,9.46,0,0,0,7.39,4.36c1.54,0,1.73-.34,1.73-.93,0-2.7-.14-2.95.63-2.95.36,0,1,.18,2.42,1.54,1.65,1.61,1.92,2.34,2.84,2.34h2.42c.69,0,1-.34.84-1C27.2,21.41,24.09,18.51,24,18.31Z"/></svg>