<?xml version="1.0" encoding="utf-8"?>
<!-- Generator: Adobe Illustrator 24.3.0, SVG Export Plug-In . SVG Version: 6.00 Build 0)  -->
<svg version="1.1" id="Layer_1" xmlns="http://www.w3.org/2000/svg" xmlns:xlink="http://www.w3.org/1999/xlink" x="0px" y="0px"
	 viewBox="0 0 105 105" style="enable-background:new 0 0 105 105;" xml:space="preserve">
<style type="text/css">
	.st0{clip-path:url(#SVGID_2_);}
	.st1{fill:#FFFFFF;}
</style>
<g>
	<defs>
		<rect id="SVGID_1_" width="105" height="105"/>
	</defs>
	<clipPath id="SVGID_2_">
		<use xlink:href="#SVGID_1_"  style="overflow:visible;"/>
	</clipPath>
	<g class="st0">
		<path class="st1" d="M59.8,69.2c0.6,0,1,0.5,1,1c0,0.6-0.5,1-1,1s-1-0.5-1-1C58.8,69.7,59.2,69.2,59.8,69.2"/>
		<path class="st1" d="M70,69.2c0.6,0,1,0.4,1,1s-0.4,1-1,1s-1-0.4-1-1S69.4,69.2,70,69.2"/>
		<path class="st1" d="M36.7,35.3l0.2-0.1l0.3-0.2l0.5-0.3c0.3-0.1,0.5-0.3,0.7-0.5l0.3-0.4c2.1-2.3,6.8-6.9,10.1-9.9
			c1,2.6,3.7,6.2,6.2,8.8c0.3,0.4,0.7,0.7,1.1,1.1c1.5,1.4,5.2,4.5,7.9,5.5c-0.6,0.7-1.3,1.5-2.1,2.3c-2.5,2.7-5.8,6.2-7.6,7.9
			c-0.1,0.1-0.3,0.2-0.4,0.4c-0.2,0.2-0.4,0.4-0.5,0.7c0,0.1-0.1,0.3-0.3,0.6L53,51.5l-0.1,0.3c0,0.1-0.1,0.2-0.2,0.2
			c0,0-0.1,0-0.1,0l-0.7-1.3c-0.4-1-1.1-1.8-2-2.4c-0.3-0.2-0.6-0.3-0.9-0.4l-0.5-0.2c-0.5-0.2-1-0.4-1.5-0.7
			c-0.8-0.6-1.5-1.3-2.2-2l-1.5-1.5c-0.7-0.7-1.4-1.4-2-2.2c-0.3-0.5-0.6-1-0.7-1.5c-0.2-0.5-0.4-0.9-0.6-1.4
			c-0.6-0.9-1.4-1.6-2.4-2l-1.2-0.7c0,0,0-0.1,0-0.1C36.5,35.4,36.6,35.4,36.7,35.3 M59.1,29.7c0.4,0.4,0.9,0.9,1.2,1.3
			c-1.1,0.2-2.2,0.5-3.3,0.9l-0.6-0.6C54,29,52,26.1,50.6,23C53.8,24.8,56.6,27,59.1,29.7 M73.2,36.6c0.9,1.8,1.7,3.3,2.4,4.7h-5
			c-0.7-1.3-1.8-2.3-3.1-3.1l-0.9-0.5l0,0h-0.1h-0.1c-0.1,0-0.1,0-0.2,0l0,0c0,0-0.1,0-0.1,0h-0.1h-0.1l0,0h-0.1l0,0
			c-0.8-0.1-3.6-1.5-6.8-4.2c1.2-0.3,2.4-0.6,3.6-0.8C66.3,32.2,71.2,32.4,73.2,36.6L73.2,36.6z M66.3,39.9l0.2,0.1
			c0.6,0.3,1.1,0.8,1.6,1.3H65L66.3,39.9 M80.2,57.9H49.6v-7c0.2,0.2,0.3,0.5,0.5,0.8l0.7,1.3c0.5,0.9,1.6,1.3,2.6,1
			c0.6-0.2,1-0.7,1.3-1.3c0.1-0.1,0.1-0.2,0.2-0.4l0.1-0.2c0.2-0.3,0.2-0.5,0.3-0.7l0,0l0.4-0.4c1.8-1.7,5-5,7.4-7.7h17.1L80.2,57.9
			z M74,65.7c-2.4-2.2-6.2-2.1-8.5,0.4c0,0-0.1,0.1-0.1,0.1h-1.1c-0.1-0.1-0.1-0.2-0.2-0.2c-1.8-1.8-4.4-2.3-6.7-1.3l0,0l-0.3,0.2
			l-0.2,0.1l-1.3,0.7L50.9,60H79L74,65.7z M56.7,80.7v-4.2h3.1c1.6,0,3.2-0.6,4.3-1.8c0.3-0.3,0.5-0.6,0.8-1
			c1.7,2.7,5.4,3.6,8.2,1.9v5L56.7,80.7z M49.4,74.5c0.4-1.1,0.1-2.4-0.7-3.2l5.2-2.6c-0.2,0.5-0.2,1.1-0.2,1.7c0,1.2,0.3,2.4,1,3.4
			v0.7H49.4z M46.6,74.5c-0.6,0-1-0.4-1-1c0-0.4,0.2-0.7,0.5-0.9l0.1-0.1c0.4-0.2,0.8-0.1,1.1,0.2c0.3,0.3,0.4,0.8,0.2,1.1
			C47.4,74.3,47,74.6,46.6,74.5 M63.9,70.4c0,2.3-1.8,4.1-4.1,4.1s-4.1-1.8-4.1-4.1c0-0.7,0.2-1.5,0.6-2.1c0.9-1.6,2.8-2.4,4.6-1.9
			C62.6,66.9,63.9,68.5,63.9,70.4 M74,70.4c-0.1,2.3-2,4-4.3,3.9c-2.3-0.1-4-2-3.9-4.3c0.1-2.2,1.9-3.9,4.1-3.9
			c2.3,0,4.1,1.9,4.1,4.1c0,0,0,0,0,0 M35.4,37.3l1.3,0.7c0.6,0.3,1.2,0.7,1.6,1.2c0.2,0.4,0.4,0.8,0.5,1.2c0.3,0.7,0.6,1.4,1,2
			c0.7,0.9,1.4,1.7,2.2,2.5l1.4,1.5c0.7,0.8,1.6,1.6,2.4,2.2c0.6,0.4,1.2,0.7,1.8,0.9v9.4l0,0c0,0.1,0,0.2,0.1,0.3l0,0
			c0,0.1,0.1,0.2,0.2,0.3l5.9,6.8l-8.1,4l0,0h-0.1l0,0l-0.3,0.2L45,70.6l-0.2,0.1v0.1c-1.1,0.8-1.5,2.2-1.1,3.5
			c0.4,1.3,1.6,2.1,2.9,2.1h8.2v4.1c0,1.1,0.8,2,1.9,2.1c0,0,0,0,0.1,0h16.3c1.1,0,2-0.9,2-2c0,0,0,0,0-0.1v-6.8
			c1.3-1.9,1.4-4.4,0.2-6.4l6.7-7.7c0.1-0.1,0.1-0.2,0.2-0.3l0,0c0-0.1,0.1-0.2,0.1-0.3c0,0,0,0,0-0.1V43.4c0-1.1-0.9-2-2-2.1h-2.4
			c-0.9-1.6-1.8-3.5-2.9-5.6c-2-4.1-6.2-5.8-12.3-5.1c-0.7-0.8-1.4-1.6-2.2-2.4c-2-2.1-4.3-4-6.7-5.7c-2.3-1.5-3.5-1.9-4.2-1.8
			c-0.2,0-0.4,0.1-0.5,0.2l-0.2,0.2c-3,2.7-9.1,8.6-11.6,11.3c-0.2,0.2-0.3,0.4-0.4,0.5l0,0c-0.1,0.1-0.3,0.1-0.7,0.3L36,33.3
			l-0.3,0.1c-0.6,0.3-1,0.7-1.3,1.3C34.2,35.7,34.6,36.8,35.4,37.3"/>
		<path class="st1" d="M76.1,53.7c-0.6,0-1,0.5-1,1s0.5,1,1,1h1c0.6,0,1-0.5,1-1s-0.5-1-1-1H76.1z"/>
		<path class="st1" d="M72,53.7h-8.1c-0.6,0-1,0.5-1,1s0.5,1,1,1H72c0.6,0,1-0.5,1-1S72.6,53.7,72,53.7"/>
		<path class="st1" d="M50.2,46.9c0.8,0.4,1.7,0.6,2.6,0.6c0.8,0,1.7-0.2,2.4-0.6c0.5-0.2,0.7-0.8,0.5-1.3c0,0,0,0,0-0.1
			c-0.2-0.5-0.8-0.7-1.3-0.5c0,0,0,0,0,0c-1,0.4-2.2,0.4-3.2,0c-0.5-0.3-1.1-0.1-1.3,0.4c0,0,0,0,0,0C49.5,46,49.7,46.7,50.2,46.9
			C50.2,46.9,50.2,46.9,50.2,46.9z"/>
		<path class="st1" d="M23.5,54.5c0.3,0.7,0.8,1.3,1.4,1.8c0.6,0.5,1.4,0.8,2.2,0.8h0.1h0.1c0.4,0,0.8,0.1,1.1,0.2
			c1.1,0.5,1.7,2.2,1.7,3.7c-0.4,0.3-0.8,0.6-1.2,0.8c-2.1,1-4.2-0.4-5.1-2.2c-0.1-0.2-0.2-0.4-0.3-0.6l0,0
			C23.1,57.6,23.1,56,23.5,54.5 M31.3,47.8c0.5,1.4,1.1,2.8,1.8,4.1c0.6,1,1.1,2.2,1.3,3.3c-0.4,0.1-0.7,0.1-1.1,0.3
			c-0.9,0.4-1.6,1-2,1.8c-0.4-0.8-1.1-1.5-2-1.8c-0.3-0.1-0.7-0.2-1-0.3c0.2-1.2,0.7-2.3,1.3-3.3C30.2,50.6,30.8,49.2,31.3,47.8
			 M37.7,56.4c0.6-0.5,1.1-1.1,1.4-1.8c0.5,1.7,0.4,3.6-0.4,5.2c-0.9,1.8-3,3.2-5.1,2.2c-0.5-0.2-0.9-0.5-1.2-0.8
			c0-1.5,0.6-3.2,1.7-3.7c0.4-0.1,0.8-0.2,1.2-0.2h0.1C36.1,57.2,37,56.9,37.7,56.4L37.7,56.4z M38.7,71.7c-0.9,1.8-3,3.2-5.1,2.2
			c-0.5-0.2-0.9-0.5-1.2-0.8c0-1.1,0.4-2.2,1-3.1c0.5,0.2,1.1,0.3,1.7,0.3c1.7,0,3.3-0.7,4.4-2C39.5,69.4,39.2,70.6,38.7,71.7
			L38.7,71.7z M29,73.9c-2.1,1-4.2-0.4-5.1-2.2c-0.6-1.1-0.8-2.2-0.7-3.4c1.1,1.3,2.7,2,4.4,2c0.6,0,1.1-0.1,1.7-0.2
			c0.6,0.9,1,2,1,3.1C29.9,73.4,29.5,73.7,29,73.9 M39.3,62.3c0.1,1-0.1,2-0.5,2.9c-0.1,0.2-0.2,0.3-0.2,0.5c-0.9,1.8-3,3.2-5.1,2.2
			l0,0h0c-0.4-0.2-0.8-0.5-1.2-0.8c0-1.1,0.3-2.1,0.9-3c0.5,0.2,1.1,0.3,1.7,0.3c1.7,0,3.3-0.7,4.4-2 M27.7,64.4
			c0.6,0,1.2-0.1,1.7-0.3c0.6,0.9,0.9,1.9,0.9,3c-0.3,0.3-0.7,0.6-1.1,0.8h-0.1l0,0c-2.1,0.9-4.1-0.4-5.1-2.2
			c-0.1-0.2-0.2-0.3-0.2-0.5c-0.4-0.9-0.5-1.9-0.5-2.9c1.1,1.3,2.7,2,4.4,2 M21.7,65.5c-0.8,2.3-0.6,4.8,0.4,7
			c1,2.2,3.2,3.6,5.5,3.6c0.8,0,1.5-0.2,2.2-0.5l0.5-0.2c0.2,3,1.9,5.6,4.6,7c0.3,0.2,0.7,0.1,1-0.1c0.3-0.2,0.5-0.6,0.5-0.9
			c0-0.4-0.2-0.7-0.6-0.9c-2-1-3.3-2.9-3.5-5.1l0.4,0.2c0.7,0.3,1.4,0.5,2.2,0.5c2.4-0.1,4.5-1.5,5.5-3.6c1.1-2.2,1.2-4.7,0.4-7
			c0.6-1.9,0.6-4.1,0-6c0.7-2.3,0.6-4.7-0.3-6.9c-0.3-0.6-0.9-1-1.6-1c-0.7,0-1.3,0.5-1.5,1.2c-0.2,0.7-0.5,1.4-1.1,1.9h-0.1
			c-0.3-1.3-0.8-2.6-1.5-3.7c-1-1.8-1.7-3.8-2.1-5.8c0-0.1,0-0.1,0-0.2c-0.2-0.7-0.8-1.1-1.5-1.1c-0.7,0-1.3,0.4-1.5,1.1v0.2
			c-0.4,2.1-1.1,4-2.1,5.8c-0.7,1.2-1.2,2.5-1.5,3.8h-0.1c-0.6-0.5-0.9-1.1-1.1-1.9c-0.2-0.9-1.1-1.4-2-1.2
			c-0.5,0.1-0.9,0.5-1.1,0.9c-0.9,2.2-1,4.6-0.3,6.9C21,61.5,21,63.7,21.7,65.5"/>
	</g>
</g>
</svg>
