<?xml version="1.0" encoding="utf-8"?>
<!-- Generator: Adobe Illustrator 24.3.0, SVG Export Plug-In . SVG Version: 6.00 Build 0)  -->
<svg version="1.1" id="Layer_1" xmlns="http://www.w3.org/2000/svg" xmlns:xlink="http://www.w3.org/1999/xlink" x="0px" y="0px"
	 viewBox="0 0 105 105" style="enable-background:new 0 0 105 105;" xml:space="preserve">
<style type="text/css">
	.st0{clip-path:url(#SVGID_2_);}
	.st1{fill:#FFFFFF;}
</style>
<g>
	<defs>
		<rect id="SVGID_1_" width="105" height="105"/>
	</defs>
	<clipPath id="SVGID_2_">
		<use xlink:href="#SVGID_1_"  style="overflow:visible;"/>
	</clipPath>
	<g class="st0">
		<path class="st1" d="M84.8,73c-0.2,0-0.1-0.2-0.3-1.2c0.2-0.1,0.4-0.3,0.5-0.5c1.1,0.3,1.3,0.3,1.2,0.4C86.1,72.4,85.5,73,84.8,73
			 M85,77c0,0.8-0.7,1.5-1.5,1.5H48.4c-0.8,0-1.5-0.6-1.5-1.5c0,0,0,0,0,0v-2.3H85L85,77z M46,66.2c1-1,3.2,0.3,4.8-1.1
			c0.8-0.7,1.2-1.9,1.3-3.8c0.1-2.7,2.6-4.2,5-4.6c6.8-0.9,10.7,6.7,6.9,11.9c-2.4,2.9-5.9,4.5-9.7,4.4C48.6,73,43.3,68.9,46,66.2
			 M62.6,46.1c-0.3,0.1-0.6,0.1-0.9-0.1c-0.3-0.1-0.5-0.4-0.6-0.7C61,44.7,61.4,44.1,62,44c0.2,0,0.4,0,0.6,0
			c0.8,0.2,1.7-0.1,2.2-0.7c0.4-0.5,1.1-0.7,1.6-0.3c0.2,0.1,0.3,0.3,0.4,0.5c0.3,0.5,0.1,1.2-0.4,1.5c-0.1,0-0.2,0.1-0.3,0.1
			c-0.6,0.2-0.9,0.8-0.7,1.4c0,0,0,0,0,0l1.2,3.3l-1.3,0.4L64,46.8C63.8,46.2,63.2,45.9,62.6,46.1 M67.1,73h-5.8
			c1.3-0.7,2.4-1.6,3.4-2.6C65.4,71.4,66.2,72.3,67.1,73 M67.2,51.3c0.6-0.2,1.2,0.1,1.4,0.6c1,2.6,2.7,4.8,4.9,6.5
			c0.9,0.7,1.8,1.5,2.5,2.5c5.8,7.3-0.7,14.5-6.8,11.4c-1.5-0.8-2.7-2-3.4-3.5c1.8-3,1.7-6.7-0.2-9.6c0.1-2.1-0.1-4.1-0.7-6.1
			c-0.1-0.4,0-0.8,0.3-1.1C65.6,51.8,65.9,51.8,67.2,51.3 M82.9,73h-5.7c0.9-0.7,1.6-1.7,2.1-2.7c1,1.3,1.8,2.2,3.5,2.1L82.9,73z
			 M78.5,55.7c0.2-0.7,1-1.1,1.7-0.8c0.2,0.1,0.3,0.1,0.4,0.3c0.4,0.4,0.6,1.1,0.3,1.6c-1.3,4-0.4,8.4,2.4,11.5l0.2,0.2
			c0.5,0.5,0.4,1.3-0.1,1.8c-0.1,0.1-0.2,0.2-0.4,0.2c-0.5,0.2-1.1,0.1-1.5-0.3c-0.6-0.6-1.1-1.3-1.6-2c0.3-1.6,0.2-3.3-0.4-4.8
			c-0.5-1.2-1.1-2.3-1.9-3.3C77.8,58.5,78,57.1,78.5,55.7 M80.3,51.9c0.7-0.2,1.4,0,1.8,0.6c0.1,0.1-0.1,0.2-1,0.9
			c-0.2-0.1-0.3-0.1-0.5-0.2l-0.2-0.1C80.3,52.2,80.2,52,80.3,51.9 M87.8,72.9h-0.2c0.8-1.5,0.1-2.8-1-3.1l-1-0.3
			c0.1-0.8-0.2-1.7-0.8-2.3c-2.5-2.7-3.4-6.5-2.3-10c0.4-0.9,0.3-1.8-0.2-2.7l0.8-0.6c2-1.6-0.6-4.7-3.5-3.8
			c-0.9,0.3-1.4,1.2-1.2,2.1l0.2,0.9c-1,0.4-1.7,1.2-2,2.2c-0.3,0.9-0.5,1.8-0.6,2.7c-2.1-2-3.4-2-5.8-7c-0.4-0.8-1.1-1.3-1.9-1.6
			l-1.2-3.3c1.2-0.8,1.7-2.4,1-3.7c-0.8-1.5-2.6-2-4.1-1.2c-0.4,0.2-0.7,0.5-0.9,0.8c-0.1,0.1-0.2,0.1-0.2,0.1
			c-1.5-0.5-3.1,0.4-3.6,1.9c-0.5,1.5,0.4,3.1,1.9,3.6c0.4,0.1,0.8,0.2,1.2,0.1l1.2,3.3c-0.5,0.7-0.7,1.6-0.5,2.4
			c0.3,1.1,0.6,2.3,0.7,3.5c-5-4.3-13.5-1.8-13.8,4.1c-0.1,1.7-0.4,2.4-0.7,2.6s-0.8,0.3-1.5,0.2c-1.1-0.2-2.3,0.2-3.2,0.9
			c-2.7,2.7-0.7,6.1,2.7,8h-3.4c-0.5-0.1-0.9,0.3-1,0.8c-0.1,0.5,0.3,0.9,0.8,1c0.1,0,0.1,0,0.2,0h1V77c0,1.8,1.5,3.2,3.3,3.2h35.1
			c1.8,0,3.3-1.4,3.3-3.2v-2.2h1c0.5,0.1,0.9-0.3,1-0.8c0.1-0.5-0.3-0.9-0.8-1C87.9,73,87.8,73,87.8,72.9"/>
		<path class="st1" d="M73.5,63.1c1.4,1.3,1.8,3.5,0.9,5.2c-0.2,0.4,0,1,0.4,1.2c0,0,0,0,0,0c0.4,0.2,1,0,1.2-0.4
			c0.9-1.6,1-3.6,0.2-5.3c-0.4-0.8-0.9-1.5-1.5-2c-0.4-0.3-0.9-0.3-1.3,0.1C73.1,62.2,73.1,62.8,73.5,63.1
			C73.5,63.1,73.5,63.1,73.5,63.1"/>
		<path class="st1" d="M73.4,71.8c0.5,0,0.9-0.3,0.9-0.8l0,0c0.1-0.5-0.3-0.9-0.8-1c-0.5-0.1-0.9,0.3-1,0.8
			C72.5,71.2,72.8,71.7,73.4,71.8C73.4,71.7,73.4,71.7,73.4,71.8"/>
		<path class="st1" d="M52.3,68c-0.1-0.5,0.2-1,0.6-1.2c1.4-0.9,2.3-2.6,2.2-4.3c-0.1-3.6,5.6-4.5,7.2,0c0.5,1.4,0.3,2.9-0.5,4.1
			c-1.1,1.6-2.8,2.7-4.8,3C54.6,69.9,52.5,69.2,52.3,68 M57.3,71.3L57.3,71.3c2.5-0.4,4.6-1.8,6-3.9c1.9-3,1-7-2-8.9
			c-0.2-0.1-0.3-0.2-0.5-0.3c-3.4-1.6-7.6,0.4-7.5,4.3c0,1.1-0.5,2.2-1.5,2.8c-2.5,1.8-1.5,6.1,4,6.1C56.3,71.4,56.8,71.4,57.3,71.3
			"/>
		<path class="st1" d="M58.5,62.5c0.3,0,0.6,0.3,0.6,0.6c0,0.4-0.3,0.6-0.7,0.6c-0.2,0-0.3-0.1-0.4-0.2c-0.2-0.2-0.3-0.6,0-0.9
			C58.1,62.5,58.3,62.5,58.5,62.5 M58.5,65.5c1.3,0,2.4-1.1,2.4-2.4c-0.1-1.4-1.2-2.4-2.6-2.4c-0.6,0-1.2,0.3-1.6,0.7
			c-0.9,0.9-0.9,2.4,0.1,3.4C57.2,65.2,57.8,65.4,58.5,65.5"/>
		<path class="st1" d="M32.1,73H30l1-50.8h4L35.5,45H34c-1.6,0-2.9,1.2-2.9,2.8c0,0.8,0.4,1.6,1,2.1L32.1,73z M28.4,52.6h-3.3
			c-0.5,0-0.9,0.4-0.9,0.9c0,0.5,0.4,0.9,0.9,0.9c0,0,0,0,0,0h3.2L28.1,73h-7V54.4h0.1c0.5,0,0.9-0.4,0.9-0.9c0-0.5-0.4-0.9-0.9-0.9
			c0,0,0,0,0,0c-0.6,0-1-0.4-1-1s0.4-1,1-1h7.2L28.4,52.6z M42.7,31.4h2.2l0.9,13.5h-3.9L42.7,31.4z M52.6,31.4h2.2l0.9,13.5h-4
			L52.6,31.4z M40.7,73h-6.8V50.6h26.2l-0.4-1.8H34c-0.6,0-1-0.4-1-1s0.4-1,1-1h28.1c-0.4-0.4-1.6-1-1.6-1.6c0-0.1,0.2-0.2,0.2-0.2
			l0.9-1.6l0.8-12h2.2l0.7,10.8c0.1,0,0.3,0.2,0.4,0.3l0.2-0.2c0.3-0.6,0.6-0.2,1.2-0.3l-0.8-11.5c0-0.5-0.4-0.8-0.9-0.8h-3.9
			c-0.5,0-0.9,0.4-0.9,0.8l-0.9,14.5h-2.2l-0.9-14.5c0-0.5-0.4-0.8-0.9-0.8h-3.9c-0.5,0-0.9,0.4-0.9,0.8l-0.9,14.5h-2.2l-0.9-14.5
			c0-0.5-0.4-0.8-0.9-0.8h-3.9c-0.5,0-0.9,0.4-0.9,0.8L40,44.9h-2.6l-0.6-23.7c0-0.5-0.4-0.9-0.9-0.9H30c-0.5,0-0.9,0.4-0.9,0.9
			l-0.6,27.5h-7.2c-1.6,0-2.9,1.2-2.9,2.8c0,0.8,0.4,1.6,1,2.1V73h-2c-0.5-0.1-0.9,0.3-1,0.8s0.3,0.9,0.8,1c0.1,0,0.1,0,0.2,0h23.4
			V73z"/>
		<path class="st1" d="M70.8,46.1l-0.1,0.7h2.6c0.6,0,1,0.4,1,1s-0.4,1-1,1h-1.4c-0.5,0-0.2,0.7-0.2,1.2s0.3,0.6,0.8,0.6h0.9v3.7
			l1.8-0.2v-4.2c0.6-0.5,1-1.3,1-2.1c0-1.6-1.3-2.8-2.9-2.8c0,0,0,0,0,0H71C70.8,45.4,71.3,45.8,70.8,46.1"/>
		<path class="st1" d="M39.6,73h1.3c0.5-0.1,0.9,0.3,1,0.8s-0.3,0.9-0.8,1c-0.1,0-0.1,0-0.2,0h-1.3V73z"/>
		<path class="st1" d="M59.3,48.8h1.3c0.5-0.1,0.9,0.3,1,0.8c0.1,0.5-0.3,0.9-0.8,1c-0.1,0-0.1,0-0.2,0h-1.3V48.8z"/>
		<path class="st1" d="M71.7,46.7h-1.3c-0.5,0-0.9-0.4-0.9-0.9c0-0.5,0.4-0.9,0.9-0.9c0,0,0,0,0,0h1.3L71.7,46.7z"/>
		<path class="st1" d="M73,50.6h-1.2c-0.5,0-0.9-0.4-0.9-0.9c0-0.5,0.4-0.9,0.9-0.9c0,0,0,0,0,0H73V50.6z"/>
		<path class="st1" d="M75.3,53v1.3c-0.1,0.5-0.5,0.9-1,0.8c-0.4,0-0.8-0.4-0.8-0.8V53H75.3z"/>
	</g>
</g>
</svg>
