<?xml version="1.0" encoding="utf-8"?>
<!-- Generator: Adobe Illustrator 24.3.0, SVG Export Plug-In . SVG Version: 6.00 Build 0)  -->
<svg version="1.1" id="Layer_1" xmlns="http://www.w3.org/2000/svg" xmlns:xlink="http://www.w3.org/1999/xlink" x="0px" y="0px"
	 viewBox="0 0 105 105" style="enable-background:new 0 0 105 105;" xml:space="preserve">
<style type="text/css">
	.st0{clip-path:url(#SVGID_2_);}
	.st1{fill:#FFFFFF;}
</style>
<g>
	<defs>
		<rect id="SVGID_1_" width="105" height="105"/>
	</defs>
	<clipPath id="SVGID_2_">
		<use xlink:href="#SVGID_1_"  style="overflow:visible;"/>
	</clipPath>
	<g class="st0">
		<path class="st1" d="M78.5,31.8h-2.4v-2.2h2.4V31.8z M78.5,42h-2.4v-8.3h2.4V42z M69.5,31.8h-2.4v-2.2h2.4V31.8z M69.5,42h-2.4
			v-8.3h2.4V42z M41.3,72.6h-3.5V62.2h0.1c0.5,0.2,1.1-0.1,1.3-0.7s-0.1-1.1-0.7-1.3c-0.2-0.1-0.4-0.1-0.6,0H24.3
			c-0.5-0.2-1.1,0.1-1.3,0.7s0.1,1.1,0.7,1.3c0.2,0.1,0.4,0.1,0.6,0h0.1v10.3h-3.5v-15l20.5-4.2V72.6z M35.7,64.4h-9.2v-2.2h9.2
			L35.7,64.4z M35.7,68.5h-9.2v-2.2h9.2L35.7,68.5z M35.7,72.6h-9.2v-2.2h9.2L35.7,72.6z M26.5,49h9.2v3.5l-9.2,1.9V49z M28.6,24.7
			l0.1-2.2h4.7l0.1,2.2H28.6z M87.5,72.6h-1.2V43c0-0.6-0.4-1-1-1h-4.6V28.7c0-0.5-0.5-1-1-1h-4.6c-0.6,0-1,0.4-1.1,0.9c0,0,0,0,0,0
			V42h-2.4V28.7c0-0.6-0.5-1-1-1c0,0,0,0,0,0h-4.5c-0.5,0-1,0.4-1,1V42h-2.5v-5.1c0-0.6-0.4-1-1-1c0,0,0,0-0.1,0H46.9
			c-0.6,0-1,0.4-1.1,0.9c0,0,0,0,0,0.1V42h-3.5c-0.6,0-1,0.4-1.1,0.9c0,0,0,0,0,0.1v8.4l-3.5,0.7v-4c0-0.6-0.5-1-1-1c0,0,0,0,0,0
			h-0.1l-1-24.6l0,0c0.5,0.2,1.1-0.1,1.3-0.7s-0.1-1.1-0.7-1.3c-0.2-0.1-0.4-0.1-0.6,0h-9c-0.5-0.2-1.1,0.1-1.3,0.7s0.1,1.1,0.7,1.3
			c0.2,0.1,0.4,0.1,0.6,0l0,0l-0.2,5.1c0,0.6,0.4,1,1,1l0,0c0.5,0,1-0.4,1.1-0.9l0-1.1h5.1l0.9,20.4h-6.8l0.6-15.3c0-0.6-0.4-1-1-1
			c-0.5-0.1-1,0.4-1.1,0.9c0,0,0,0,0,0l-0.7,15.4h-0.1c-0.6,0-1,0.4-1.1,0.9c0,0,0,0,0,0v6.8l-7.1,1.5c-0.5,0.1-0.9,0.6-0.8,1.1
			c0.1,0.4,0.5,0.8,1,0.7h0.2l1-0.2v14.6h-1.2c-0.5-0.2-1.1,0.1-1.3,0.7c-0.2,0.5,0.1,1.1,0.7,1.3c0.2,0.1,0.4,0.1,0.6,0h32v-1.9
			h-6.1V43.9h11.4c0.5,0.2,1.1-0.1,1.3-0.7s-0.1-1.1-0.7-1.3c-0.2-0.1-0.4-0.1-0.6,0h-6.8v-4.2h12.6V42h-1.2
			c-0.5-0.2-1.1,0.1-1.3,0.7s0.1,1.1,0.7,1.3c0.2,0.1,0.4,0.1,0.6,0h24.9v28.6h-6.4v1.9h9.8c0.5,0.2,1.1-0.1,1.3-0.7
			s-0.1-1.1-0.7-1.3C87.9,72.5,87.7,72.5,87.5,72.6"/>
		<path class="st1" d="M63.6,61.2l4.9-2.2l-4.9-2.1l-4.9,2.1L63.6,61.2z M63.6,68c0.5,0,0.8,0.4,0.9,0.8V70l5.3-2.3v-7.3l-5.3,2.3
			v1.1c-0.1,0.5-0.5,0.8-1,0.8c-0.4,0-0.7-0.4-0.8-0.8v-1.1l-5.3-2.3v7.3l5.3,2.3v-1.1C62.8,68.4,63.2,68,63.6,68 M70.6,73.5
			l4.9-2.2l-4.9-2.2l-4.9,2.2L70.6,73.5z M56.6,73.5l4.9-2.2l-4.9-2.2l-4.9,2.2L56.6,73.5z M55.8,82.2v-7.3l-5.3-2.3v7.3L55.8,82.2z
			 M57.5,82.2l5.3-2.3v-7.3l-5.3,2.3V82.2z M69.8,82.2v-7.3l-5.3-2.3v7.3L69.8,82.2z M71.5,82.2l5.3-2.3v-7.3l-5.3,2.3V82.2z
			 M56.6,84.4c-0.1,0-0.2,0-0.3-0.1l-7-3.1c-0.3-0.1-0.5-0.4-0.5-0.8v-9.2c0-0.3,0.2-0.6,0.5-0.8l6.5-2.8V59l0,0
			c0-0.2,0.1-0.3,0.2-0.5l0,0l0,0l0,0l0,0l0,0l0,0l0.2-0.1l7-3.1c0.1,0,0.2-0.1,0.4-0.1c0.1,0,0.2,0,0.3,0.1l7,3.1
			c0.1,0,0.1,0.1,0.2,0.1l0,0l0,0l-0.1,0.1l-0.1,0.1l0.2-0.2l0.1,0.1l0,0c0.1,0.1,0.2,0.3,0.2,0.4l0,0v8.7l6.7,2.8l0.1,0.1l0,0l0,0
			c0.2,0.1,0.4,0.4,0.4,0.7v9.2c0,0.3-0.2,0.6-0.5,0.8l-7,3.1c-0.1,0-0.2,0.1-0.4,0.1c-0.1,0-0.2,0-0.3-0.1l0,0l-6.7-2.9L57,84.3
			C56.9,84.4,56.8,84.4,56.6,84.4"/>
		<path class="st1" d="M63.6,67.2c-0.4,0-0.7-0.2-0.8-0.6c-0.1-0.4,0.1-0.9,0.5-1.1c0.1,0,0.2,0,0.3,0c0.2,0,0.3,0,0.4,0.1
			c0.3,0.2,0.5,0.5,0.4,0.9C64.4,66.9,64,67.2,63.6,67.2"/>
		<path class="st1" d="M63.6,66.9c-0.3,0-0.6-0.2-0.6-0.5c0-0.2,0.1-0.4,0.2-0.5c0.2-0.1,0.5-0.1,0.7,0c0.2,0.2,0.3,0.5,0.1,0.8
			C63.9,66.8,63.8,66.9,63.6,66.9"/>
	</g>
</g>
</svg>
