<svg xmlns="http://www.w3.org/2000/svg" viewBox="0 0 179 179"><defs><style>.cls-1{fill:#28a3a3;}</style></defs><g id="Layer_2" data-name="Layer 2"><g id="Layer_1-2" data-name="Layer 1"><path class="cls-1" d="M26.44,80.27v15.4H23.63v-13h-8v13H12.82V80.27Z"/><path class="cls-1" d="M30.16,88c0-4.55,3.52-7.92,8.3-7.92s8.29,3.34,8.29,7.92-3.52,7.92-8.29,7.92S30.16,92.53,30.16,88Zm13.71,0a5.41,5.41,0,1,0-5.41,5.41A5.24,5.24,0,0,0,43.87,88Z"/><path class="cls-1" d="M65.3,93.25V99H62.66V95.67H50.85V99H48.19l0-5.7h.66c2.09-.09,2.59-3.58,2.75-8.1l.17-4.88H63.08v13Zm-12.85,0h7.82V82.69h-6l-.11,2.73C54,88.92,53.64,92,52.45,93.25Z"/><path class="cls-1" d="M81.43,85.75c0,3.39-2.5,5.48-6.55,5.48H71.4v4.44H68.54V80.27h6.34C78.93,80.27,81.43,82.34,81.43,85.75Zm-2.88,0c0-1.94-1.3-3.06-3.8-3.06H71.4v6.12h3.35C77.25,88.81,78.55,87.68,78.55,85.75Z"/><path class="cls-1" d="M83.75,88c0-4.55,3.52-7.92,8.29-7.92s8.3,3.34,8.3,7.92-3.52,7.92-8.3,7.92S83.75,92.53,83.75,88Zm13.7,0A5.41,5.41,0,1,0,92,93.38,5.24,5.24,0,0,0,97.45,88Z"/><path class="cls-1" d="M104.08,80.27h12v2.35H106.9v3.79h4.55c3.7,0,5.65,1.58,5.65,4.49s-2.2,4.77-6.09,4.77h-6.93Zm6.78,13.2c2.2,0,3.36-.86,3.36-2.48s-1.12-2.38-3.36-2.38h-4v4.86Z"/><path class="cls-1" d="M134.47,80.27v15.4h-2.86v-6.6h-8v6.6h-2.86V80.27h2.86v6.36h8V80.27Z"/><path class="cls-1" d="M150.88,93.27v2.4H139.33V80.27h11.24v2.4h-8.38v4h7.44V89h-7.44v4.24Z"/><path class="cls-1" d="M166.18,93.27v2.4H154.62V80.27h11.25v2.4h-8.39v4h7.44V89h-7.44v4.24Z"/><path class="cls-1" d="M89.5,2A87.5,87.5,0,1,1,2,89.5,87.6,87.6,0,0,1,89.5,2m0-2A89.5,89.5,0,1,0,179,89.5,89.5,89.5,0,0,0,89.5,0Z"/></g></g></svg>