<?xml version="1.0" encoding="utf-8"?>
<!-- Generator: Adobe Illustrator 24.3.0, SVG Export Plug-In . SVG Version: 6.00 Build 0)  -->
<svg version="1.1" id="Layer_1" xmlns="http://www.w3.org/2000/svg" xmlns:xlink="http://www.w3.org/1999/xlink" x="0px" y="0px"
	 viewBox="0 0 512 512" style="enable-background:new 0 0 512 512;" xml:space="preserve">
<style type="text/css">
	.st0{fill:#ffffff;}
</style>
<g id="Layer_13">
	<path class="st0" d="M366.4,339.1c81.3-61,97.8-176.3,36.8-257.6S226.9-16.3,145.6,44.7S47.8,221,108.8,302.3
		c10.5,13.9,22.9,26.3,36.8,36.8l-95.3,95.2c-2.4,2.4-3,6.1-1.5,9.1s4.7,4.8,8,4.5l63.2-7v55c0,3.2,2,6.1,5,7.4c0.9,0.4,2,0.7,3,0.6
		c2.1,0,4.2-0.8,5.7-2.3L256,379.3l122.3,122.4c1.5,1.5,3.6,2.3,5.7,2.3c1,0,2.1-0.2,3-0.6c3-1.2,4.9-4.1,5-7.4v-55l63.1,7
		c3.3,0.3,6.5-1.5,8-4.5c1.5-3.1,0.9-6.7-1.5-9.1L366.4,339.1z M88,192c0-92.8,75.2-168,168-168s168,75.2,168,168s-75.2,168-168,168
		S88,284.8,88,192z M133.4,426c-1.7-1.5-4-2.2-6.2-1.9l-49.4,5.4l81.3-81.3c23.8,14.9,50.7,24.1,78.6,26.8L136,476.7V432
		C136,429.7,135.1,427.5,133.4,426z M384.9,424c-2.3-0.3-4.5,0.4-6.2,1.9s-2.7,3.8-2.6,6.1v44.7L274.4,375
		c27.9-2.7,54.8-11.9,78.6-26.8l81.3,81.3L384.9,424z"/>
	<path class="st0" d="M408,192c0-83.9-68.1-152-152-152s-152,68.1-152,152s68.1,152,152,152S408,275.9,408,192z M126,152h82
		c2.1,0,4.2-0.8,5.7-2.3l32-32c1.5-1.5,2.3-3.6,2.3-5.7V88c8.8,0,16,7.2,16,16v40c0,4.4,3.6,8,8,8h72v16h-64v16h64v16h-64v16h64v16
		h-64v16h64v8c0,4.4-3.6,8-8,8h-94.1l-30.3-15.1c-1.1-0.6-2.3-0.9-3.6-0.9h-75.8c-8.1-17.6-12.2-36.7-12.2-56
		C120,178.4,122,165,126,152z M140.8,264h65.3l30.3,15.1c1.1,0.6,2.3,0.9,3.6,0.9h96c13.3,0,24-10.7,24-24V144c0-4.4-3.6-8-8-8h-72
		v-32c0-17.7-14.3-32-32-32h-8c-4.4,0-8,3.6-8,8v28.7L204.7,136h-72.5c30.9-68.4,111.5-98.9,179.9-67.9s98.9,111.4,68,179.9
		s-111.5,98.9-179.9,67.9C175.7,304.9,155,286.8,140.8,264z"/>
	<path class="st0" d="M72,88c4.4,0.2,8.1-3.3,8.3-7.7c0-0.8-0.1-1.7-0.3-2.5l-6.8-23l11.5-8.4c2.5-1.8,3.7-5,3.1-8
		c-0.5-3.1-2.8-5.7-5.9-6.5l-18.6-4.5l-8-15.3c-2.1-3.9-7-5.3-10.8-3.2c-1.4,0.7-2.5,1.9-3.2,3.2l-8,15.3L14.1,32
		c-3.2,0.7-5.5,3.3-6.1,6.5c-0.6,3,0.6,6.2,3.1,8l11.7,8.4l-6.8,23c-0.9,3.3,0.3,6.8,3.1,8.7c2.8,2,6.5,2,9.3,0L48,72l19.3,14.2
		C68.6,87.3,70.3,87.9,72,88z M59.3,45.3c-2.8,1.9-4.1,5.4-3.3,8.6l1.7,5.9l-5-3.8c-2.8-2.1-6.6-2.1-9.4,0L38,59.8l2-5.9
		c0.9-3.2-0.3-6.7-3-8.6l-2.6-1.7l5.6-1.4c2.2-0.6,4-2,5-3.9l3-5.3l2.9,5.3c1.1,2,2.9,3.4,5.1,3.9l5.7,1.4L59.3,45.3z"/>
	<path class="st0" d="M504,38.5c-0.5-3.2-2.9-5.7-6.1-6.5l-18.6-4.7l-8-15.3c-2.1-3.9-7-5.3-10.8-3.2c-1.4,0.7-2.5,1.9-3.2,3.2
		l-8,15.3L430.1,32c-3,0.8-5.3,3.2-5.9,6.2s0.6,6.2,3.1,8l11.5,8.4L432,77.8c-0.9,3.3,0.3,6.8,3.1,8.7c2.8,2,6.5,2,9.3,0L464,72
		l19.3,14.2c1.3,1.1,3,1.8,4.7,1.8c4.4,0.2,8.1-3.3,8.3-7.7c0-0.8-0.1-1.7-0.3-2.5l-6.5-23l11.5-8.4C503.5,44.6,504.6,41.5,504,38.5
		z M475.4,45.3c-2.9,1.8-4.3,5.3-3.4,8.6l1.7,5.9l-5-3.8c-2.8-2.1-6.6-2.1-9.4,0l-5.3,3.8l2-5.9c0.9-3.2-0.3-6.7-3-8.6l-2.3-1.7
		l5.3-1.4c2.2-0.6,4-2,5-3.9l3-5.3l2.9,5.3c1.1,1.9,2.9,3.4,5,3.9l5.7,1.4L475.4,45.3z"/>
</g>
</svg>
