<?xml version="1.0" encoding="utf-8"?>
<!-- Generator: Adobe Illustrator 24.3.0, SVG Export Plug-In . SVG Version: 6.00 Build 0)  -->
<svg version="1.1" id="Layer_1" xmlns="http://www.w3.org/2000/svg" xmlns:xlink="http://www.w3.org/1999/xlink" x="0px" y="0px"
	 viewBox="0 0 512 512" style="enable-background:new 0 0 512 512;" xml:space="preserve">
<style type="text/css">
	.st0{fill-rule:evenodd;clip-rule:evenodd;fill:#ffffff;}
</style>
<g>
	<g>
		<path class="st0" d="M491.3,435.2c-4.4-7.4-11.1-14.4-17.7-19.7c-4.1-4.1-8.2-8.2-12.2-12.2c-19.5-19.5-39.1-38.9-58.6-58.4
			c-9.4-9.4-18.8-18.8-28.2-28.2c-2-2-7.7-9.3-10.8-9.3c-2.1,2-4.2,5-6.8,6.4c-2.9-0.2-4.7-4.3-6.6-5.9c-4.3-4.3-8.7-8.6-13-12.9
			c-2.1-2.1-5.1-4.1-6.5-6.8c0.1-2.5,2-4,3.1-5.7c2.3-4.1,4.6-8.2,6.9-12.4c6.1-12.9,11-26.9,14.1-42.9c0.8-3.9,0.2-6.4,0.9-10.5
			c1.3-8,1.6-20.5,0.1-28.6c0-1.9-0.1-3.8-0.1-5.7c-1-5.3-1.5-11-2.9-16.2c-7.4-26.7-18.2-46-33-65c-5.7-5.8-11.4-11.5-17.2-17.3
			c-2.3-1.9-5.9-3.5-7.6-6c-0.9-1.4-0.3-15.2-0.3-18.5V35.7c-1.4-7.1-5.4-13.4-10.6-16.6c-9.3-5.8-31.5-3.7-46.7-3.7h-109
			c-2.3,0.7-4.5,1.4-6.8,2.1c-6.9,3.1-12,9.9-13.6,18.3v30.8c0,2.9,1.1,9-0.3,11.3c-1.5,2.5-5.3,4.2-7.6,6
			c-5.7,5.8-11.4,11.5-17.2,17.3c-8.9,11.5-17.8,23.7-23.8,38c-3.6,8.5-6.4,17.6-9.2,27c-0.9,3.1-1.4,6.6-2,9.6
			c0,1.3-0.1,2.6-0.1,3.9c-1.5,7.2-1.9,15-1.9,23.8c0,2.9,0.1,5.9,0.1,8.8c1.2,6.6,1.1,13.8,2.8,20.2c3.1,11.9,6.6,23,11,33.4
			c2.6,5.9,6.7,11.2,9,17c-0.3,0.7-8.4,4-9.8,5.1c-3,3-6,6-9,9c-4.5,4.5-10.3,8.8-13.3,14.6c-2.4,4.6-3.3,12-1.5,17.8
			c1.2,3.7,5.3,8.7,2.1,13.3c-2.2,3.1-5.6,3-9,4.9c-5.6,3.1-10.6,7.6-12.5,14.2c-1.3,4.3-1.1,10.4-1.1,16.1c0,14.5-0.4,24.5,7.7,31
			c2,1.6,4.5,3.2,6.9,4.3c3.3,1.4,6.3,1.7,8.1,4.5c2.9,4.6-1,9.3-2.3,12.9c-1.9,5.7-1.1,14,1.5,18.3c3,5.2,7.5,8.8,11.6,12.9
			c6.3,6.3,11.3,13.5,21.8,15.6c9.9,1.9,16.1-6.5,22.9-3.7c4.4,1.8,4.5,7.6,6.9,11.4c3.7,6,8.6,9.1,16.1,11.4
			c3.5,1.1,9.3,0.3,13.4,0.3h16.1c5.8-1,11.7-4,14.8-7.8c1.4-2.3,2.7-4.5,4.1-6.8c1.4-3.3,1.8-6.4,4.7-8.2c4.3-2.7,9.1,0.9,12.4,2.1
			c4.3,1.6,10.4,1.6,14.9,0.3c6.2-1.8,9.7-6.1,13.7-10.1c7.1-7.1,15.7-13,18.5-24.5c2.3-9.5-6.6-16.4-3.6-23.5
			c1.5-3.4,5.3-3.9,8.8-5.3c2.9-1.2,6.5-3.6,8.4-6c6.3-8,5.9-15,5.7-28.5v-12.8c-1.2-5.7-4-9.2-6.6-13.3c0.1-0.4,0.2-0.7,0.3-1.1
			c11.7-2.8,23.1-7.1,32.6-12.6c2.6-1.5,11.4-7.7,14.1-7.7c8.4,8.4,16.8,16.8,25.1,25.3c0,0.4,0.1,0.8,0.1,1.2c-2,2-5.2,4.2-6.4,6.9
			c0.3,2.5,6.4,7.3,8.1,9c7.7,7.7,15.3,15.4,23,23.1c21,21.1,42,42.2,63,63.3c6.1,6.1,12.1,12.1,18.2,18.2
			c4.8,4.8,9.4,9.9,15.4,13.4c15.6,9.2,32.8,5.8,45.5-3.2c1.7-1.2,3.6-2.2,4.9-3.9C495.6,471.6,502,453,491.3,435.2z M277.4,199.1
			c-3.3,4.5-25.8,2.7-34.2,2.7h-84.4c-7.8,0-27.9,1.4-32-1.7c-3-2.2-2.7-7.2-2.7-12.5c0-10.5,0.1-20.9,0.1-31.4
			c2.4-1.7,13-0.8,17.2-0.8c1.4,0,2.7-0.1,4.1-0.1H264c4.8,0.1,9.7,0.2,14.5,0.3c1.3,2.1,0.7,7.4,0.7,10.6
			C279.1,174,280.5,194.8,277.4,199.1z M124.7,36.3c1.2-2.9,3.1-3.5,5.9-4.9H264c5.1,0,9.8-0.3,12.6,1.9c2.6,2.1,1.6,5.2,2.3,9.4v34
			c-2,1.4-7,0.8-10.2,0.8H134c-3,0-7.6,0.6-9.6-0.7c-0.6-2.3-0.2-5.9-0.1-8.6V47.9C124.3,44.4,123.6,39.1,124.7,36.3z M124.8,93.5
			c13-0.1,26-0.2,39-0.3h83.9c7.3,0,14.6,0.1,21.9,0.1c2.9,0,7.4-0.5,9.2,0.7c0.1,11.3,0.2,22.7,0.3,34c0,3.1,0.9,9.9-0.9,11.4
			c-32.6,0-65.2,0.1-97.7,0.1H143c-5.7,0-13.1,1-18.2-0.3c-1.2-2.1-0.5-7.2-0.5-10.2v-24.9C124.2,101.1,123.5,95.5,124.8,93.5z
			 M108.5,167.5c0,20.7-2.8,35.7,9.6,45.3c8.3,6.4,27.2,4.4,41.7,4.4h88.6c19.9,0,32.7,2.2,41.7-9.4c6.7-8.7,4.5-28.6,4.5-43.7
			c0.1-5.1,0.2-10.1,0.3-15.2c0.1-0.2,0.3-0.4,0.4-0.7c2.4,1.1,6,11.3,7.2,14.4c5.3,13.3,9.9,33.1,6.6,51.5c0,1.4-0.1,2.8-0.1,4.3
			c-1.8,7.7-3.1,15.3-5.9,22.1c-13.8,33.9-38.9,57.4-76.9,67c-3.7,0.9-7.7-4.9-9.6-6.8c-6.9-6.9-12.3-14.1-23.1-17.3
			c-9.8-2.9-16.8,7.1-24.1,3.3c-3.9-2.1-4.2-7.7-6.5-11.4c-3.5-5.8-9.1-9.8-16.8-11.4c-8.3,0-16.7-0.1-25-0.1
			c-2.3-0.2-6.7,1.5-8,0.7c-3-1.9-8.5-13.5-10.2-17.4c-6.5-14.8-12.6-35.8-8.9-57.4c0.6-3.6,0.1-5.8,0.9-9.2
			c1.8-7.8,4.3-15.8,7.4-22.6c1.6-3,3.1-6,4.7-9c0.3-0.1,0.5-0.2,0.8-0.3C109.2,150.9,108.5,163.5,108.5,167.5z M64.1,225.9
			C63.3,222,63.8,219,63,215c-2-10.3-1-24.4,0.9-33.9c1-4.6,1.1-8.3,2.1-12.6c4.7-19.4,13.6-35.9,23.7-50c3.3-4,6.6-8,9.8-12
			c2.5-2.4,5-4.9,7.4-7.3c0.3,0,0.5,0.1,0.8,0.1c0.9,0.7,0.5,3.7,0.5,5.2c0,3.9,0.9,14-0.7,16.4c-1.2,1.4-2.5,2.7-3.7,4.1
			c-3.1,4.5-6.1,9-9.2,13.4c-5.6,9.4-10,20-13.4,31.5c-1.3,4.5-1.9,9.5-2.9,14.1c0,1.6-0.1,3.1-0.1,4.7c-1.4,7.2-1.3,18.7,0,25.9
			c0.7,4,0.3,6.4,1.1,10.1c2.6,12,6.6,22.8,11.3,32.7c2.5,4.3,5,8.5,7.4,12.8c0.8,1.2,1.6,2.3,2.4,3.5c0.6,1.7-1,3.2-1.5,4.4
			c-1.1,2.7-2.9,9.9-7,8.9c-2.6-0.6-4.7-5.5-6.1-7.6c-5.4-7.7-9.7-16.3-13.6-25.7C68.9,245.3,66.1,235.8,64.1,225.9z M232.5,382.8
			c0,3.4-0.1,6.7-0.1,10.1c-1.5,5.6-7.4,5.6-11.8,8.2c-5.2,3.1-8.6,7.4-10.9,13.4c-1.5,3.7-1.4,10-0.3,13.7c1.6,5.2,6,8.9,1.7,14.9
			l-13,13c-2.1,2.1-4.1,4.6-7.7,5.2c-4.1,0.7-7.2-2.8-10.4-3.7c-6.3-1.9-14.3-0.2-18.6,2.4s-7,6.1-9.6,10.5
			c-2.5,4.2-2.2,8.9-7.7,10.1h-24.5c-1.2-0.5-2.3-1.1-3.5-1.6c-3-2.3-3.3-6.9-5.3-10.2c-2.7-4.4-6.6-8.2-11.6-10.2
			c-4.4-1.8-11.8-2.6-16.8-0.7c-2.8,1.1-5.8,4.2-10,3.3c-3.3-0.7-5.8-3.5-7.6-5.7c-4-4.9-10.2-8.3-13.4-13.8
			c-2.9-5,1.6-9.8,2.8-13.7c1.6-5.4,0.4-12-1.5-16.2c-2.1-4.7-5.8-8.3-10.1-10.9c-3.4-2.1-7.9-2.3-10.2-5.5
			c-2.5-3.3-1.3-15.5-1.3-21.3v-6.8c1.2-5,5.9-5.2,10-7.3c4.4-2.3,8-5.4,10.5-9.6c2.6-4.3,4.3-12,2.5-18.3
			c-1.1-3.8-5.8-8.6-2.9-13.4c3.1-5.3,9.6-10.3,14-14.6c2-2,4-4.6,7.2-5.3c4.5-1,7.8,2.5,10.9,3.6c5,1.8,12,0.7,16.1-1.1
			c4.8-2.1,8.6-5.7,11.2-10c2.3-3.8,2.5-8.7,6.2-11c1.1-0.4,2.1-0.7,3.2-1.1c6.2,0,23.8-1.1,27.3,1.5c3.2,2.4,3.5,7,5.6,10.5
			c2.8,4.6,6.8,8.3,12.1,10.4c4.1,1.6,11,2.3,15.6,0.5c2.9-1.1,6.1-4.4,10.5-3.5c3.2,0.7,5.2,3.2,7.2,5.2
			c4.4,4.4,10.9,9.4,14.1,14.8c3,5.1-1.9,9.7-2.9,13.8c-1.3,5.6-0.4,11.7,1.5,16c2.2,4.9,6,8.4,10.5,11c3.5,2,7.6,2.1,9.8,5.3
			C233.7,368.2,232.5,377.2,232.5,382.8z M269,323.6c-6.3,3.8-13.6,6.7-20.9,9.6c-3.1,0.9-6.2,1.8-9.3,2.7
			c-2.1,0.8-11.3,3.4-13.6,2.9c-0.2-0.2-0.4-0.4-0.7-0.7c-0.3-0.9,0.3-2.8,0.7-3.7c0.8-1.6,1.6-3.3,2.4-4.9c0.8-2.3,0.7-5,1.7-7
			c3.2-0.8,6.5-1.7,9.7-2.5c7.2-2.2,14.8-5.2,21-8.8c27.5-16.1,47.8-37.2,59-69.5c5.5-16,9.7-42.7,4.7-63c-3.8-15.5-8.6-29.2-16-41
			c-2.9-4.2-5.8-8.4-8.6-12.6c-1.3-1.7-3.8-3.2-4.4-5.6c0-6.6,0.1-13.3,0.1-19.9c0.2-0.1,0.4-0.3,0.5-0.4c2.2,0.5,4.2,3.5,5.6,4.9
			c5.1,5.1,9.6,10.9,13.8,16.9c10.3,14.6,18.9,31.6,23.3,52.1c0.8,3.6,1.2,7.3,1.9,10.6c0,1.6,0.1,3.2,0.1,4.8
			c1.5,8.4,1.5,22.3,0,31C331.2,270.7,306.7,301.2,269,323.6z M325.5,344.9c-2.6-1.2-4.7-4.4-6.6-6.4c-5.7-5.7-11.4-11.4-17.2-17.2
			c0-0.4-0.1-0.7-0.1-1.1c6.1-6.2,12.4-12.5,18.6-18.6h1.1c5.1,5.1,10.2,10.3,15.3,15.4c2.7,2.7,6.1,5.2,8.2,8.4
			c-0.3,2.1-2.6,3.4-3.9,4.7c-3.5,3.5-7.1,7.1-10.6,10.6C329,342.1,327.5,344.6,325.5,344.9z M471.3,474.7c-2.3,1.9-5.1,3.6-8.2,4.7
			c-13.2,4.5-23.2-3.7-29.1-10.4c-24.7-24.6-49.4-49.3-74.1-73.9c-6.9-6.9-13.8-13.8-20.7-20.7c-2.6-2.6-7.6-6.3-9.3-9.4
			c0.3-2.4,6.8-7.6,8.5-9.3c8.6-8.5,17.1-17,25.7-25.5c0.3,0,0.5,0.1,0.8,0.1c11.2,11.2,22.4,22.4,33.6,33.6
			c25.7,25.7,51.3,51.4,77,77.1C483.8,451.6,480.4,467.4,471.3,474.7z M434.9,62.5c4.6,0.1,9.1,0.2,13.7,0.3
			c1.8,1.2-0.1,11.1,0.7,14c0.5,2,15.2,1.9,16.4,0.4c0.5-3.1-0.9-11.7,0.4-14c1.2-1.6,12.7,0.3,15-1.2c0.7-2.7,0.9-11.9,0.1-14.8
			c-0.2-0.3-0.4-0.6-0.7-0.9c-2.3-0.4-13.9,0.4-14.6-0.7c-0.1-4.7-0.2-9.3-0.3-14c-0.9-1.7-12-1.1-15.2-1.1
			c-0.4,0.3-0.7,0.6-1.1,0.9c-0.5,3.1,0.9,11.7-0.4,14c-1.4,2.1-12.3-0.7-14.5,1.1C433.5,47.2,433.3,62,434.9,62.5z M450.3,47.9
			c0.2-0.3,0.4-0.5,0.7-0.8c4.4,0,8.8,0.1,13.2,0.1c1.2,1.8,0.9,11.3,0.4,14c-1.3,0.7-12.1,1.1-13.7,0.3
			C450,60.9,449.8,49.7,450.3,47.9z M155,61.7c0.6-2.6,0.9-11.5,0.1-14.2c-0.2-0.3-0.4-0.6-0.7-0.9c-4.7,0-9.5-0.1-14.2-0.1
			c-1.4,1.4-1.4,12.2-0.8,15.2C141.1,62.8,153.2,62.9,155,61.7z M185.6,62.1c0.7-1.1,1.2-14.6,0.1-15.4c-1.2-0.9-11.9-0.3-14.4-0.3
			c-0.2,0.1-0.4,0.2-0.5,0.3c-1.1,1.9-0.8,14,0.1,15.4C174.8,62.9,181.8,62.8,185.6,62.1z M217.1,61.4c0.4-1.9,0.4-14.2-0.4-14.8
			c-1.2-0.9-11.9-0.3-14.4-0.3c-1.4,1.3-1.5,13.9-0.3,15.7C204.6,62.6,216.1,62.8,217.1,61.4z M394.4,116.8c0.2,0.2,0.4,0.4,0.7,0.7
			c0.5,2.7-0.6,13.3,0.8,14.4c1.1,1,14.3,0.5,15.3-0.3c0.8-4.4-0.7-10.3,0.5-14.5c3-0.7,7.5-0.3,10.9-0.3h3.2
			c1.5-0.5,1.8-14.8,0.4-15.8c-1.2-1-11.4-0.4-14-0.4c-0.2-0.2-0.4-0.4-0.7-0.5c-0.7-4.2,1.2-11.7-0.9-14.8c-4.8,0-9.7-0.1-14.5-0.1
			c-0.3,0.3-0.5,0.5-0.8,0.8c-0.8,4.3,0.7,10.1-0.4,14.2c-3.6,1.9-11.7-1-15,1.2c-0.5,2.8-0.6,13.5,0.5,15.2
			C385,116.6,389.7,116.7,394.4,116.8z M396.6,101.2c4.2,0,10.2-0.7,13.7,0.4c0.6,2.1,0.9,13.3-0.4,14.4c-2.7,0.5-12.4,0.6-14-0.4
			C395.4,113,395.4,102.4,396.6,101.2z M201.4,123.7c0.7-2.9,0.8-11.6,0-14.5c-2.5-1.6-10.4-0.1-14-0.7c-0.3,0.1-0.6,0.2-0.9,0.3
			c-1,1.7-0.9,13.8,0.1,15.3C189.2,124.6,199.8,124.7,201.4,123.7z M232,124.1c0.8-1.3,1.2-14.3,0-15.2c-0.4-0.1-0.8-0.3-1.2-0.4
			c-4.3,0-8.7,0.1-13,0.1c-1.2,1.7-1.3,12.3-0.5,15C218.9,124.7,229.5,124.6,232,124.1z M263.1,124.1c0.9-1.5,1-13.8,0-15.3
			c-0.4-0.1-0.9-0.2-1.3-0.3c-4.3,0-8.7,0.1-13,0.1c-0.2,0.3-0.4,0.5-0.7,0.8c-0.6,2.9-0.5,13,0.5,14.6h14.5V124.1z M140.3,170.7
			c-0.2,0.3-0.4,0.5-0.7,0.8v14c1.2,0.9,14.4,1.5,15.3,0.1c0-4.7,0.1-9.4,0.1-14.1c-0.2-0.2-0.4-0.4-0.5-0.7
			C149.8,170.8,145,170.8,140.3,170.7z M171.4,170.7c-1.2,1.2-1.3,12.8-0.5,15c2.2,1.2,10.7,0.4,14.4,0.4c0.2-0.2,0.4-0.4,0.7-0.5
			c0.5-2.8,0.6-13.1-0.4-14.8C180.8,170.8,176.1,170.8,171.4,170.7z M216.5,170.9c-4.7,0-9.4-0.1-14.1-0.1
			c-1.4,1.9-1.1,11.6-0.7,14.8c1.4,1,13.6,1.2,15.2,0.1C217.2,183.7,217.5,171.6,216.5,170.9z M426.7,263.7c3,1,12.3-0.6,14.4,0.7
			c1.9,1.3-0.2,11.2,0.7,14.1c0.6,2,7.2,1.2,9.8,1.2c1.7,0,4.6,0.4,5.6-0.4c1.3-0.8,0.8-11.8,0.8-14.5c3.4-2.3,11.9,1,15.3-1.3
			c0.5-2.7,0.7-12.7,0-14.5c-0.9-1.7-11.4-1.1-14.5-1.1c-0.2-0.2-0.4-0.4-0.7-0.5c-0.7-4.2,1.2-11.7-0.9-14.8
			c-4.8,0-9.6-0.1-14.4-0.1c-2.6,2.5-0.3,11-1.3,15c-3.3,1.9-10.7-0.2-14.6,0.8C425.9,249.7,425.8,261.9,426.7,263.7z M442.5,249.1
			c0.3-0.2,0.5-0.4,0.8-0.5c4.4,0,8.8,0.1,13.2,0.1c1.4,2,0.7,10.5,0.7,14c-0.2,0.2-0.4,0.4-0.7,0.7c-4.4,0-8.9,0.1-13.3,0.1
			c-0.2-0.2-0.4-0.4-0.7-0.5V249.1z M193.3,347c-9.9-16.8-23.6-28.5-44.1-34.7c-3.4-1-7.5-1.4-10.9-2c-3.5,0-6.9-0.1-10.4-0.1
			c-2.2,0.9-6.4,0.5-9,1.1c-3.8,1.1-7.5,2.1-11.3,3.2C87.7,322.6,74,336.2,66,356.1c-2,5-2.8,10.9-4,16.6c0,2.1-0.1,4.2-0.1,6.2
			c0,7.9,0.7,14.2,2.7,20.1c7.8,23.1,20.8,37.3,42.4,46.4c7.1,3,15.1,4.7,25.1,4.7h6c6.3-1.1,12.8-2.1,18.1-4.3
			c19.6-8,35.1-22.4,41.7-43.2c2.9-9.2,6.1-24.8,2.5-36.3C198.2,359.4,196.7,352.7,193.3,347z M184.9,391.2c-0.8,3.5-2,7.5-3.5,10.6
			c-8.1,17.9-22.6,28.5-44.8,32.4c-7.8,1.4-18.6-1.6-23.5-3.6c-18.6-7.4-30.4-20.3-34.6-42.3c-1.4-7.5-1-17.1,1.2-23.8
			c5.3-16,15.8-28.1,30.7-34.4c3.3-1.1,6.6-2.1,9.8-3.2c2.2-0.6,4.2-0.2,5.9-1.1c6.1,0,11.6-0.1,16.6,0.9
			c19.7,4.1,32.9,17.1,39.6,34.3C185.5,369,187.3,381,184.9,391.2z M156.9,351.8c-4,3-7.3,7-10.8,10.5c-6.1,6-12.1,12-18.2,17.9
			c-3.7,3.6-7.4,7.3-11,10.9c-0.4,0-0.8,0.1-1.2,0.1c-2.7-2.7-5.6-6.7-9-8.5c-1.7,0.2-10,8.4-10.8,10c-0.8,2.1,3.2,4.9,4.4,5.9
			c4,4,8,8,12,12c1.3,1.1,2.1,2.6,3.7,3.5c2.3-0.2,11.4-10.4,13.4-12.5c8.6-8.6,17.2-17.3,25.8-25.9c3.8-4.7,9.2-8,12.6-13
			C167.6,361,158.6,352,156.9,351.8z M287.3,433.7c-1.8-2.3,1.3-13-0.9-14.6c-1.1-1-11.6-0.4-14.1-0.4c-0.2,0.1-0.4,0.2-0.5,0.3
			c-1.4,2.5-0.4,10.9-0.7,14.5c-3,2.3-10.9-0.1-14.9,1.1c-1,1.7-1,15.1,0.5,15.6c3.6,1.2,10.6-1.3,13.7,0.3
			c2.5,1.6-0.9,13.1,1.6,15.2c2.8,0.5,13.3,0.6,14.9-0.5c0.7-3.1-0.8-13.3,0.9-14.8c4.3-0.8,10.2,0.8,14.2-0.4
			c1-1.8,0.9-13.9-0.1-15.4C299.9,434,288.2,434.9,287.3,433.7z M286.5,448.8c-0.2,0.3-0.4,0.5-0.7,0.8c-2.7,0.5-11.9,0.7-14-0.3
			c-0.9-2.8-0.7-13.7,0.7-14.8c4.5,0,9,0.1,13.4,0.1C286.9,436.1,287.2,446.4,286.5,448.8z M455.6,449.6c-2.9,1.7-5.3,2.7-6.2,6.2
			c-1.6,5.6,4.4,11.3,9.8,10C468.7,463.5,467.9,449.2,455.6,449.6z"/>
	</g>
</g>
</svg>
