<?xml version="1.0" encoding="utf-8"?>
<!-- Generator: Adobe Illustrator 26.4.1, SVG Export Plug-In . SVG Version: 6.00 Build 0)  -->
<svg version="1.1" id="Layer_1" xmlns="http://www.w3.org/2000/svg" xmlns:xlink="http://www.w3.org/1999/xlink" x="0px" y="0px"
	 viewBox="0 0 841.9 595.3" style="enable-background:new 0 0 841.9 595.3;" xml:space="preserve">
<style type="text/css">
	.st0{fill:#0D4B81;}
	.st1{fill:#F05F2A;}
</style>
<g id="Layer_2_1_">
	<g id="Layer_1-2">
		<g id="Group_1">
			<path id="Path_3" class="st0" d="M648,260.4l-77.2,237.5c-3.9,10.5-14,17.9-24.8,18.2H296c-11.3-0.4-21.3-7.8-25.2-18.2
				l-76.8-237.5c-3.1-10.9,0.8-22.5,9.7-29.9L405.4,83.8c9.3-6.2,21.7-6.2,31,0l201.8,146.7C647.2,237.5,651.1,249.1,648,260.4z
				 M627.8,245.3L426,98.6c-3.1-1.6-6.6-1.6-9.7,0L214.5,245.3c-2.7,2.3-3.5,5.8-3.1,9.3l77.2,237.5c1.6,3.1,4.3,5.4,7.8,5.8h249.5
				c3.5-0.4,6.2-2.7,7.8-5.8l77.2-237.5C631.3,251.1,630.1,247.6,627.8,245.3z"/>
			<path id="Path_4" class="st1" d="M469.5,274l-5-68.3h7c1.2,0,2.3-1.2,2.3-2.3v-28.7c0-1.2-1.2-2.3-2.3-2.3h-81.5
				c-1.2,0-2.3,1.2-2.3,2.3l0,0v28.7c0,1.6,1.2,2.3,2.3,2.3h7l-5.4,69.1c-14,5.8-26.4,14.7-36.5,26c1.2,32.2,10.9,40.4,9.3,61.3
				l1.2,3.5c0.4,3.9,4.3,7,8.2,6.6c1.2,0,2.3-0.4,3.1-1.2c26.8-17.1,53.2-10.5,78.4-4.3c13.2,3.9,26.8,6.2,40.4,6.6
				c7.4,0,14.7-1.2,21.7-3.5c-1.2,47.3-39.6,85-86.5,85c-29.9,0-58.6-16.3-77.6-43.5c-7-10.5-12.8-21.3-17.9-33
				c11.3-9.3,15.9-24.5,12-38.4c-8.5-36.1-5.8-74.1,7.8-108.7l0.8-1.6c0-0.4,0-0.8,0-1.2v-0.4c0-4.3-3.5-7.4-7.4-7.4
				c-2.3,0-4.3,0.8-5.4,2.7c-0.4,0.4-0.8,0.8-0.8,1.2l-0.8,1.6c-2.3,6.2-4.7,12.8-6.6,19.4L334,246c-0.4-3.5-1.2-6.6-2.3-9.7
				c-0.8-1.6-1.2-3.1-1.9-4.7c2.7-8.2,6.2-16.3,9.7-24.1l0,0c1.9-3.5,0.4-8.2-3.1-10.1c-1.2-0.4-2.3-0.8-3.5-0.8
				c-1.9,0-3.5,0.8-5,1.9c-0.4,0.4-1.2,0.8-1.2,1.2l-0.8,1.6c-4.3,8.5-7.8,17.1-10.9,26l-3.5,3.1c-3.1,1.9-5.4,4.7-7.4,7.8l-0.4-0.8
				c2.3-7.8,4.7-15.5,7.8-22.9v-0.4l0.4-1.2c0-0.4,0-0.8,0-1.6l0,0c0-4.3-3.5-7.4-7.4-7.4c-2.3,0-4.3,0.8-5.8,2.7
				c-0.4,0.4-0.8,0.8-0.8,0.8l-0.4,0.8v0.8c-18.2,46.2-22.1,97-10.5,145.5c2.3,10.5,8.9,19.8,17.9,26c5,3.1,10.9,4.3,16.7,3.9
				c4.7,10.9,10.1,21.3,16.3,31.4c0,0.4,0.4,1.2,0.8,1.6c21.7,33.4,56.3,53.2,92,53.2c56.3,0,101.7-45.8,101.7-102.1
				C533.1,326.8,507.9,289.5,469.5,274L469.5,274z M333.6,262.7c-0.8,3.5-1.2,7.4-1.6,10.9c-5.4,4.7-10.1,9.7-14.7,14.7
				c0-3.9,0.4-7.8,0.8-11.6C323.1,271.6,328.2,267,333.6,262.7z M330.5,289.1c0,3.5-0.4,7.4,0,10.9c-4.7,5.4-8.9,10.9-12.8,16.3
				c-0.4-3.9-0.8-7.8-0.8-11.6C321.6,299.6,326.3,294.2,330.5,289.1L330.5,289.1z M317.7,242.2L317.7,242.2l1.9-1.2l0.8,1.9
				c2.7,7,1.2,15.5-4.7,20.6l-1.9,1.6l-1.2-1.9C309.6,256.1,311.5,247.2,317.7,242.2z M297.1,255.7c2.3,5,5,9.7,7.8,14.4
				c1.2,1.9,1.9,3.5,3.1,5.4c-0.4,4.3-0.8,8.2-0.8,12.4c-4.3-5.8-8.5-12-12-18.6C295.6,264.7,296.4,260.4,297.1,255.7L297.1,255.7z
				 M293.7,287.2c4.3,6.2,8.5,12,13.6,17.9c0,4.3,0.4,8.2,0.8,12.4c-5-5.4-10.1-10.9-14.4-16.7C293.3,296.1,293.3,291.8,293.7,287.2
				z M294.4,318.6c5,5.4,10.1,10.9,15.9,15.9c0.8,3.9,1.6,8.2,2.3,12c-5.8-4.7-11.3-9.3-16.7-14.7
				C295.2,327.5,294.8,323.3,294.4,318.6z M319.3,370.6c-8.5,0-16.7-7.8-19.4-18.6c0-0.8-0.4-1.6-0.4-2.3
				c5.8,4.7,11.6,9.3,17.9,13.6C317.7,365.6,318.5,368.3,319.3,370.6L319.3,370.6z M320,333c3.5-5.8,7.4-11.6,11.6-17.1
				c0.4,3.5,0.8,7,1.2,10.9c-3.9,5.8-7.4,11.6-10.5,17.9C321.6,340.3,320.8,336.5,320,333L320,333z M328.6,367.1
				c-0.8-2.3-1.6-4.7-2.3-7c2.7-6.2,5.8-12.4,8.9-18.6c0,0.8,0.4,1.2,0.4,1.6C337.9,352,335.2,361.3,328.6,367.1z"/>
		</g>
	</g>
</g>
</svg>
